<?xml version="1.0" encoding="utf-8"?>
<!-- Generator: Adobe Illustrator 21.1.0, SVG Export Plug-In . SVG Version: 6.00 Build 0)  -->
<svg version="1.1" id="Layer_1" xmlns="http://www.w3.org/2000/svg" xmlns:xlink="http://www.w3.org/1999/xlink" x="0px" y="0px"
	 viewBox="0 0 900 85" style="enable-background:new 0 0 900 85;" xml:space="preserve">
<style type="text/css">
	.st0{fill:#FFFFFF;}
</style>
<title>infografics</title>
<g id="Farmor">
	<rect x="818.7" y="18.3" class="st0" width="60.7" height="55.3"/>
	<path d="M842,57.2h-2.5c-1,0-1.2-0.3-1.1-1.3c0.5-3.2,1-6.4,1.6-9.6s1-6.2,1.5-9.3c0-0.2,0-0.3,0.1-0.6c-0.8,0.5-1.6,1-2.4,1.4
		c-0.1,0.1-0.2,0.2-0.2,0.4c-0.3,1.2-0.6,2.4-0.9,3.5c0,0.2,0,0.4,0.2,0.5c0.7,0.8,1.1,1.7,1.2,2.7c0,0.4,0,0.8-0.4,0.9
		c-0.3,0.1-0.7,0.1-1,0c-0.2-0.1-0.3-0.3-0.4-0.6c-0.1-0.3-0.1-0.5-0.2-0.8c-1.3,1.5-2,1.6-3.5,0.7c0,0.2,0,0.4,0,0.6
		c0,6.9,0,13.9,0,20.8c0,0.8-0.4,1.2-1.1,1.1c-0.4,0-0.8-0.3-0.9-0.8c0-0.2,0-0.4,0-0.5c0-7.1,0-14.1,0-21.2
		c-0.2-1.1,0.3-2.2,1.2-2.9c0.6-0.4,1-1.1,1.1-1.8c0.3-1.5,0.8-3,1.1-4.5c0.1-0.4,0.4-0.8,0.8-1c2-1.2,4-2.3,5.9-3.5
		c0.5-0.3,1.1-0.5,1.7-0.5c0.2,0,0.3,0,0.5,0c-0.1-0.2-0.2-0.3-0.3-0.4c-1.4-2-1-4.7,0.8-6.2c0.2-0.2,0.4-0.5,0.4-0.8
		c0-1.4,1.1-2.5,2.4-2.5c1.1,0,2.1,0.7,2.4,1.7c0.1,0.3,0.1,0.6,0.2,0.9c0,0.2,0.1,0.4,0.3,0.6c2,1.5,2.4,4.3,0.9,6.3
		c-0.1,0.1-0.1,0.2-0.2,0.3c0,0,0.1,0.1,0.1,0.1c0.9,0,1.8,0.3,2.5,0.8c1.7,1.1,3.5,2.1,5.3,3.1c0.5,0.3,0.8,0.8,0.9,1.3
		c0.6,2.3,1.1,4.5,1.7,6.8c0.3,0.8,0.1,1.8-0.6,2.3c-0.9,0.7-2.1,0.5-2.8-0.3c-0.2-0.2-0.3-0.5-0.4-0.8c-0.5-2-1-4-1.5-6
		c-0.1-0.2-0.2-0.4-0.4-0.6c-0.6-0.4-1.3-0.8-1.9-1.2l-0.4-0.2c0.1,0.8,0.2,1.5,0.3,2.2l2.8,16.7c0.1,0.3,0.1,0.7,0.2,1
		c0.1,0.4-0.1,0.9-0.5,1c-0.1,0-0.2,0-0.3,0c-0.8,0-1.5,0-2.3,0c-0.4,0-0.5,0.1-0.5,0.5c0,2.7,0,5.4,0,8.1c0.1,1-0.5,1.9-1.4,2.1
		c-1.1,0.3-2.2-0.3-2.5-1.3c0,0,0,0,0,0c-0.1-0.3-0.1-0.6-0.1-0.9c0-2.7,0-5.3,0-8c0-0.4-0.1-0.5-0.5-0.5c-0.9,0-1.8,0-2.8,0
		c0,0.2,0,0.4,0,0.6c0,2.7,0,5.3,0,8c0.1,0.8-0.3,1.5-1,1.9c-0.9,0.6-2.2,0.3-2.8-0.7c-0.2-0.4-0.3-0.8-0.3-1.2c0-2.7,0-5.3,0-8
		C842,57.6,842,57.5,842,57.2z"/>
</g>
<g id="Udsatte">
	<rect x="748.7" y="16.3" class="st0" width="60.7" height="55.3"/>
	<path d="M777.8,66c-3.6-3.5-5.3-7.8-6.1-12.6l-0.6,0.6l-4.8,4.8c-0.5,0.5-0.9,0.5-1.3,0s-0.2-0.8,0.2-1.2c1.6-1.6,3.1-3.2,4.7-4.7
		c0.2-0.2,0.5-0.3,0.6-0.5c-4.8-1-9.1-2.6-12.6-6.2c3.5-0.3,7.1,0.3,10.3,1.8c-3.6-5.9-6-12.2-5.6-19.4c1.7,1.4,3.1,3,4.3,4.7
		c1.2,1.7,2.2,3.6,3.3,5.4c0.6-6.1,2.8-11.9,6.5-16.7c1,3.1,1.6,6.3,1.6,9.5c0,3.2-0.4,6.4-1.1,9.5c4.9-6.4,11.6-11.2,19.3-13.6
		c-2.4,7.7-7.2,14.5-13.7,19.4c6.2-1.7,12.8-1.6,19,0.4c-2.4,1.9-5.1,3.4-8,4.5c-2.8,1.1-5.8,1.8-8.8,2.2c3.9,1.8,7.3,4.4,10.2,7.6
		c-7.2,0.4-13.5-2-19.4-5.6C777.5,59,778.1,62.5,777.8,66z"/>
</g>
<g id="Virksomheder">
	<rect x="676.7" y="17.3" class="st0" width="60.7" height="55.3"/>
	<g>
		<path class="st0" d="M712.8,32.2l-0.1-0.3l9.2-8.2l5.1,11l-1.4-0.4l-1-0.4c-0.7-0.3-1.1-0.2-1.4,0.6c-2.3,5.4-6.2,10-11.1,13.3
			c-5.7,3.8-12,6.5-18.6,8c-2,0.5-4,0.8-6,1.2c-0.2-1.1,0.5-2.1,1.5-2.3c2.9-1,5.8-2.1,8.6-3.4c7.8-3.7,14.2-9.8,18.2-17.5
			c0.2-0.4,0.4-0.9,0.6-1.5L712.8,32.2z M724.8,40.7c0,1,0,1.6,0,2.2c0,5.8,0,11.6,0,17.4c0,3.7,0,3.7-3.7,3.5
			c-0.9,0-1.1-0.3-1.1-1.2c0-5.3,0-10.6,0-15.8c0-0.4,0.1-0.8,0.3-1.1C721.8,44.1,723.2,42.6,724.8,40.7L724.8,40.7z M718.7,47.3
			c0.1,0.2,0.2,0.4,0.2,0.5c0,5.1,0,10.1,0,15.2c0,0.3-0.5,0.8-0.9,0.8c-1,0.1-2,0-3,0s-1.1-0.3-1.1-1.1c0-3.7,0-7.4,0-11.1
			c0-0.5,0.2-0.9,0.5-1.2C715.8,49.3,717.2,48.3,718.7,47.3L718.7,47.3z M712.4,51.5c0,0.7,0.1,1.2,0.1,1.6c0,2.5,0,5,0,7.4
			c0,3.8,0.7,3.1-3.4,3.2c-0.8,0-1.2-0.3-1.1-1.2c0-2.7,0-5.4,0-8.1c0-0.5,0.3-0.9,0.7-1.2C709.8,52.7,711,52.2,712.4,51.5
			L712.4,51.5z M706.1,54.5c0,3,0,5.8,0,8.7c0,0.2-0.5,0.6-0.8,0.7c-1.2,0.1-2.4,0-3.7,0c-0.8,0-1.1-0.3-1.1-1.1c0-1.9,0-3.8,0-5.6
			c0-0.4,0.2-0.7,0.5-0.9C702.7,55.6,704.3,55.1,706.1,54.5L706.1,54.5z M693.5,63.8c0-1.8,0-3.5,0-5.1c0-0.3,0.5-0.8,0.9-0.9
			c1.3-0.4,2.7-0.6,4.3-0.9c0,2.2,0,4.3,0,6.3c-0.1,0.3-0.3,0.5-0.7,0.6C696.6,63.8,695.1,63.8,693.5,63.8L693.5,63.8z M692,58.2
			c0,1.8,0,3.3,0,4.9c0,0.2-0.4,0.6-0.7,0.7c-3.5,0.6-3.9,0.3-3.8-3.2c0-0.4,0-0.8,0-1.2c0.1-0.3,0.3-0.5,0.5-0.6
			C689.2,58.6,690.5,58.5,692,58.2z"/>
		<path d="M712.8,32.2l3.7,0.2c-0.3,0.6-0.4,1.1-0.6,1.5c-4,7.6-10.4,13.8-18.2,17.5c-2.8,1.3-5.7,2.4-8.6,3.4
			c-1.1,0.2-1.7,1.3-1.5,2.3c2.1-0.4,4.1-0.7,6-1.2c6.6-1.5,13-4.2,18.6-8c4.9-3.3,8.8-7.9,11.1-13.3c0.3-0.8,0.7-0.9,1.4-0.6l1,0.4
			l1.4,0.4l-5.1-11l-9.2,8.2L712.8,32.2z"/>
		<path d="M724.9,40.7c-1.7,1.9-3.1,3.5-4.5,5.1c-0.2,0.3-0.3,0.7-0.3,1.1c0,5.3,0,10.6,0,15.8c0,0.8,0.3,1.1,1.1,1.2
			c3.7,0.1,3.7,0.1,3.7-3.5c0-5.8,0-11.6,0-17.4C724.9,42.2,724.9,41.6,724.9,40.7z"/>
		<path d="M718.7,47.3c-1.5,1-2.9,2-4.3,3c-0.3,0.3-0.5,0.8-0.5,1.2c0,3.7,0,7.4,0,11.1c0,0.8,0.3,1.2,1.1,1.1s2,0.1,3,0
			c0.3,0,0.9-0.5,0.9-0.8c0-5.1,0-10.1,0-15.2C718.9,47.7,718.8,47.6,718.7,47.3z"/>
		<path d="M712.4,51.5c-1.4,0.7-2.6,1.2-3.7,1.8c-0.4,0.3-0.6,0.7-0.7,1.2c-0.1,2.7,0,5.4,0,8.1c0,0.8,0.3,1.2,1.1,1.2
			c4.1-0.1,3.3,0.6,3.4-3.2c0-2.5,0-5,0-7.4C712.5,52.7,712.5,52.2,712.4,51.5z"/>
		<path d="M706.1,54.5c-1.8,0.6-3.5,1.1-5.1,1.7c-0.3,0.2-0.5,0.6-0.5,0.9c0,1.9,0,3.8,0,5.6c0,0.8,0.3,1.1,1.1,1.1
			c1.2,0,2.5,0,3.7,0c0.3,0,0.8-0.4,0.8-0.7C706.2,60.3,706.1,57.5,706.1,54.5z"/>
		<path d="M693.6,63.8c1.6,0,3,0,4.5,0c0.3-0.1,0.6-0.3,0.7-0.6c0-2.1,0-4.1,0-6.3c-1.6,0.3-2.9,0.6-4.3,0.9
			c-0.4,0.1-0.9,0.6-0.9,0.9C693.5,60.3,693.6,62,693.6,63.8z"/>
		<path d="M692,58.2c-1.5,0.2-2.8,0.4-4,0.6c-0.3,0.1-0.4,0.3-0.5,0.6c0,0.4,0,0.8,0,1.2c0,3.5,0.4,3.8,3.8,3.2
			c0.3,0,0.7-0.4,0.7-0.7C692,61.6,692,60,692,58.2z"/>
	</g>
</g>
<g id="Uddannelse">
	<rect x="606.7" y="19.3" class="st0" width="60.7" height="55.3"/>
	<g>
		<path d="M654.3,33.1c-0.5,0.5-1,1-1.5,1.4c-0.2,0.2-0.3,0.4-0.2,0.6c0,1.2,0.1,2.4,0,3.6c0,0.2,0.1,0.4,0.3,0.4c0,0,0,0,0,0
			c0.3,0.1,0.5,0.2,0.8,0.3c0.5,0.2,0.6,0.8,0.4,1.2c-0.1,0.1-0.2,0.2-0.3,0.3l-14.7,14.8c-0.1,0.2-0.4,0.2-0.5,0.1l-14.8-6.7
			c-0.9-0.4-1.8-0.8-2.7-1.2c-1.3-0.6-2.3-1.7-2.8-3c-0.4-1.2-0.3-2.6,0.4-3.8c0.2-0.3,0.4-0.5,0.6-0.7L633.8,26
			c0.1-0.2,0.4-0.2,0.6-0.1l18.8,6.9L654.3,33.1z M638,53.6c0-0.2,0-0.3,0-0.5c0-1.3-0.1-2.6-0.1-3.9c0-0.2-0.1-0.4-0.4-0.5
			l-6.2-2.6l-9.6-4.1c-0.5-0.3-1.1-0.1-1.4,0.4c0,0,0,0,0,0c-0.7,1.2-0.4,2.7,0.8,3.5c0.1,0.1,0.2,0.1,0.3,0.2
			c0.5,0.2,1,0.4,1.5,0.7l12.2,5.6L638,53.6z M638.6,53.1l0.4-0.3l3.8-3.8c3-3,5.9-5.9,8.9-8.9c0.1-0.1,0.2-0.3,0.3-0.5
			c0-1.3,0-2.6,0-3.8c0-0.1,0-0.1-0.1-0.2l-0.2,0.2c-4.3,4.3-8.7,8.7-13,13c-0.1,0.1-0.2,0.3-0.2,0.5c0,0.9,0.1,1.9,0.1,2.8
			C638.6,52.3,638.6,52.7,638.6,53.1L638.6,53.1z"/>
		<path d="M654.3,45.1c-0.5,0.5-1,1-1.5,1.4c-0.2,0.2-0.3,0.4-0.3,0.7c0,1.2,0,2.4,0,3.6c0,0.3,0.1,0.3,0.3,0.4
			c0.4,0.1,0.7,0.3,1,0.6c0.4,0.3,0.4,0.8,0.1,1.2c0,0-0.1,0.1-0.1,0.1c-4.9,4.9-9.9,9.9-14.8,14.8c-0.3,0.3-0.5,0.1-0.7,0L623.3,61
			c-0.8-0.3-1.6-0.7-2.3-1c-1.4-0.6-2.5-1.9-2.8-3.5c-0.4-1.4,0.1-3,1.2-4c0.9-0.8,1.7-1.7,2.5-2.5c0.1-0.2,0.4-0.2,0.6-0.1
			l15.4,6.8c0.4,0.2,0.8,0.5,1.2,0.4s0.6-0.5,0.9-0.8c3.9-3.9,7.9-7.8,11.8-11.7c0.2-0.2,0.5-0.3,0.7-0.2
			C653,44.7,653.6,44.9,654.3,45.1z M638,65.6c0,0,0-0.1,0-0.2c0-1.4-0.1-2.9-0.1-4.3c0-0.1-0.1-0.3-0.3-0.3
			c-0.6-0.3-1.3-0.5-1.9-0.8c-4.7-2-9.4-4-14.1-6c-0.4-0.2-0.8-0.1-1.1,0.2c-0.2,0.2-0.4,0.5-0.5,0.8c-0.4,1.3,0.2,2.6,1.5,3.1
			l0.5,0.2l14.7,6.7L638,65.6z M651.9,47.5c-0.1,0.1-0.2,0.3-0.3,0.4l-3.9,3.9c-3,3-5.9,5.9-8.9,8.9c-0.1,0.1-0.2,0.3-0.2,0.5
			c0,1,0,2,0.1,3c0,0.3,0,0.5,0,0.9l0.3-0.3l4.5-4.5l8.2-8.3c0.1-0.1,0.2-0.2,0.2-0.3c0-1.4,0-2.7,0-4.1
			C652,47.6,651.9,47.6,651.9,47.5L651.9,47.5z"/>
	</g>
</g>
<g id="Hospitaler">
	<rect x="527.7" y="17.3" class="st0" width="60.7" height="55.3"/>
	<g>
		<path d="M538,64v-0.8c0-9.2,0-18.3,0-27.5c0-3,2.3-5.5,5.2-5.9c1.9-0.1,3.7,0,5.7,0V33h-4.8c-1.6-0.1-2.9,1.2-2.9,2.7
			c0,0.1,0,0.1,0,0.2c0,8.1,0,16.1,0,24.2v0.7h13.9v-9.2h6.3v9.2h13.9v-0.7c0-8.1,0-16.1,0-24.2c0.1-1.6-1.2-2.9-2.7-2.9
			c-0.1,0-0.2,0-0.2,0h-4h-0.7v-3.1c0,0,0.1-0.1,0.1-0.1c1.8,0,3.7,0,5.5,0.1c2.8,0.1,5.3,3,5.3,5.9c-0.1,9.1,0,18.3,0,27.4V64H538z
			"/>
		<path d="M558.2,23.6h4.5c1.6-0.2,3.1,1.1,3.3,2.7c0,0.1,0,0.3,0,0.4c0,3.1,0,6.2,0,9.3c0.1,1.7-1.2,3.1-2.9,3.1
			c-0.1,0-0.3,0-0.4,0h-9c-1.7,0.1-3.2-1.1-3.3-2.8c0-0.1,0-0.2,0-0.4c0-3,0-6.1,0-9.2c0-1.8,1.3-3.2,3.1-3.2c0.1,0,0.2,0,0.2,0
			C555.3,23.7,556.8,23.6,558.2,23.6z M556.7,26.8c0,0.8,0,1.5,0,2.2s0,0.8-0.8,0.8c-0.6,0-1.2,0-1.8,0c-0.4,0-0.5,0.1-0.5,0.5
			c0,0.7,0,1.4,0,2c0,0.5,0.2,0.6,0.6,0.6c0.8,0,1.7,0,2.6,0c0,0.9,0,1.7,0,2.5c0,0.4,0.1,0.6,0.5,0.5c0.6,0,1.2,0,1.8,0
			c0.5,0,0.7-0.2,0.6-0.7c0-0.8,0-1.6,0-2.4c1,0,1.8,0,2.7,0c0.3,0,0.5-0.1,0.5-0.5c0-0.7,0-1.4,0-2.1c0-0.4-0.1-0.5-0.5-0.5
			s-0.5,0-0.8,0c-0.6,0-1.4,0.2-1.7-0.1s-0.1-1.1-0.2-1.7c0-0.4,0-0.8,0-1.2L556.7,26.8z"/>
		<path d="M545.8,56.3v-4.7h6.2v4.7L545.8,56.3z"/>
		<path d="M564.5,51.6h6.2v4.7h-6.2V51.6z"/>
		<path d="M545.8,43.8h6.2v4.7h-6.2V43.8z"/>
		<path d="M570.7,48.5h-6.2v-4.7h6.2V48.5z"/>
		<path d="M561.4,43.9v4.6h-6.3v-4.6H561.4z"/>
	</g>
</g>
<g id="Transport">
	<rect x="443.7" y="18.3" class="st0" width="60.7" height="55.3"/>
	<g>
		<g>
			<path class="st0" d="M495.8,59c0.6-0.3,1.2-0.6,1.8-1c1.2-0.7,2-2,1.9-3.5c0-6.7,0.1-13.4,0-20.1c0-2.5-2.5-4.2-4.5-4.2
				c-4.6-0.1-9.4,0-14,0c-2.3,0-4.9,2.4-4.9,4.7v19.4c0,0.7,0.2,1.3,0.5,1.9c0.7,1.4,2,2.4,3.5,2.8l-5.8,8.9c1,0,1.9,0.1,2.7,0
				c0.4-0.1,0.8-0.3,1-0.6c1.2-1.8,2.4-3.6,3.5-5.4c0.2-0.4,0.6-0.6,1.1-0.6h10.5c0.5-0.1,0.9,0.2,1.1,0.6c1.2,1.9,2.4,3.6,3.5,5.4
				c0.2,0.3,0.4,0.5,0.7,0.6c1,0.1,2,0,3.1,0L495.8,59z M473,59c0-0.3,0.1-0.6,0.1-0.8V46.5c0-0.3,0-0.5-0.1-0.8
				c-0.3-2.5-0.8-4.8-1.2-7.3c-0.1-0.2-0.1-0.4-0.1-0.6c-0.1-2.5-1.5-3.7-3.6-4.5c-3.7-1.3-7.6-1.7-11.4-1.2
				c-2.3,0.2-4.5,0.7-6.6,1.7c-1.4,0.6-2.3,1.8-2.5,3.3c-0.1,0.8-0.3,1.7-0.3,2.5c-0.7,3.6-1,7.2-0.9,10.8c0.1,2.5,0,5,0,7.5v1h1.8
				c0.1,1,0.3,1.9,0.6,2.9c0.1,0.7,0.7,1.3,1.4,1.3c0.8,0,1.2-0.7,1.4-1.3c0.2-0.3,0.3-0.6,0.3-0.9c0.1-0.6,0.2-1.3,0.3-1.9h14.7
				c0,0.4,0,0.9,0.1,1.3c0.1,0.4,0.2,0.8,0.3,1.2c0.3,1.1,1,1.9,1.7,1.8c1-0.2,1.4-0.9,1.5-1.8c0.2-0.8,0.3-1.6,0.3-2.5L473,59z"/>
			<path d="M495.8,59l5.9,8.9h-3.1c-0.3,0-0.5-0.3-0.7-0.6c-1.2-1.8-2.4-3.6-3.5-5.4c-0.2-0.4-0.6-0.6-1.1-0.6h-10.5
				c-0.5-0.1-0.9,0.2-1.1,0.6c-1.2,1.9-2.4,3.6-3.5,5.4c-0.2,0.3-0.6,0.5-1,0.6c-0.8,0.1-1.7,0-2.7,0l5.8-8.9
				c-1.5-0.4-2.7-1.4-3.5-2.8c-0.3-0.6-0.5-1.3-0.5-1.9V34.9c0-2.3,2.5-4.7,4.9-4.7c4.6,0,9.4-0.1,14,0c2,0,4.5,1.9,4.5,4.2
				c0.1,6.7,0,13.4,0,20.1c0,1.4-0.7,2.8-1.9,3.5C497.1,58.3,496.5,58.7,495.8,59z M487.4,35.8h-5.6c-1.7-0.1-3.1,1.1-3.2,2.8
				c0,0,0,0.1,0,0.1v3c-0.1,1.5,1.1,2.9,2.6,3c0,0,0,0,0,0c4.1,0.1,8.3,0,12.3,0h0.2c1.4-0.3,2.4-1.4,2.5-2.8c0.1-0.9,0.1-1.8,0-2.7
				c0.1-1.7-1.2-3.2-2.9-3.3c0,0,0,0-0.1,0L487.4,35.8L487.4,35.8z M494.5,56.2c1.2,0.1,2.3-0.9,2.4-2.1c0,0,0-0.1,0-0.1l0,0
				c0-1.2-1-2.2-2.2-2.2c-1.3-0.1-2.4,0.8-2.4,2.1c0,0,0,0,0,0l0,0C492.3,55.2,493.2,56.2,494.5,56.2L494.5,56.2z M483.7,53.9
				c0.1-1.1-0.7-2.1-1.8-2.2c-0.1,0-0.1,0-0.2,0h-0.2c-1.2,0-2.2,0.9-2.3,2.1c0,0,0,0,0,0.1l0,0c0,1.2,1,2.3,2.2,2.3
				c1.2,0,2.2-0.9,2.3-2L483.7,53.9L483.7,53.9z M488,31.4h-2.5c-0.5-0.1-1,0.3-1.1,0.8c0,0.1,0,0.1,0,0.2v0.1
				c-0.1,0.5,0.2,1,0.7,1.1c0,0,0.1,0,0.1,0h0.2c1.6,0.1,3.3,0.1,4.9,0c0.5,0,1-0.4,1-0.9v-0.1c0.1-0.5-0.3-1-0.9-1.1c0,0,0,0,0,0
				C490.4,31.3,488,31.3,488,31.4z"/>
			<path d="M473,59h-2.1c-0.2,0.8-0.2,1.7-0.3,2.5s-0.6,1.7-1.6,1.8c-0.7,0.1-1.4-0.7-1.7-1.8c-0.1-0.4-0.2-0.8-0.3-1.2
				c-0.1-0.4-0.1-0.9-0.1-1.3h-14.9c-0.1,0.7-0.2,1.3-0.3,1.9l-0.3,1c-0.3,0.7-0.7,1.3-1.4,1.3s-1.2-0.7-1.4-1.3
				c-0.2-0.9-0.4-1.9-0.6-2.9h-1.8v-1c0-2.5,0.1-5.1,0-7.5c-0.1-3.6,0.2-7.2,0.9-10.8c0.2-0.8,0.3-1.6,0.3-2.5
				c0.1-1.5,1.1-2.8,2.5-3.3c2.1-1,4.3-1.6,6.6-1.8c3.8-0.5,7.7,0,11.4,1.3c2.1,0.8,3.6,2,3.6,4.5c0,0.2,0.1,0.4,0.1,0.6
				c0.4,2.5,0.8,4.8,1.2,7.3c0,0.3,0.1,0.5,0.1,0.8v11.7C473,58.4,473,58.7,473,59z M450,39.1c-0.1,0.1-0.1,0.2-0.1,0.3
				c-0.3,1.9-0.7,3.9-0.9,5.8c-0.2,1.4,0,1.7,1.4,1.7h19.2c0.5-0.1,0.7-0.3,0.6-0.9l-0.8-5.3c-0.1-0.5,0-1.2-0.3-1.5
				s-0.9-0.1-1.4-0.1L450,39.1z M452.6,53.4c0-1.1-0.8-1.9-1.9-1.9c0,0,0,0-0.1,0c-1-0.1-1.9,0.7-2,1.7c-0.1,1,0.7,1.9,1.7,2h0.3
				c1,0.1,1.9-0.6,2-1.6C452.6,53.5,452.6,53.4,452.6,53.4L452.6,53.4z M470.4,53.4c0-1-0.9-1.9-1.9-1.9c0,0,0,0,0,0
				c-1-0.1-2,0.7-2,1.8c-0.1,1,0.7,2,1.8,2h0.3C469.5,55.3,470.4,54.4,470.4,53.4z"/>
			<path class="st0" d="M487.4,35.8h5.4c1.7-0.1,3.2,1.1,3.4,2.9c0,0,0,0,0,0v3.1c-0.1,1.4-1.1,2.5-2.5,2.8h-0.2
				c-4.1,0-8.3,0.1-12.3,0c-1.5-0.1-2.7-1.4-2.6-3c0,0,0,0,0,0v-2.5c-0.1-1.7,1.1-3.1,2.8-3.3h0.4C483.7,35.7,485.5,35.8,487.4,35.8
				z"/>
			<path class="st0" d="M494.5,56.2c-1.3,0-2.3-1.1-2.3-2.4v-0.1c0.1-1.3,1.2-2.2,2.4-2.1c0,0,0,0,0,0l0,0c1.2,0,2.2,1,2.2,2.2
				c0,1.3-1,2.3-2.3,2.3C494.6,56.2,494.6,56.2,494.5,56.2C494.6,56.2,494.6,56.2,494.5,56.2z"/>
			<path class="st0" d="M483.7,53.9c0,1.2-1,2.3-2.2,2.3c-1.2,0-2.2-0.9-2.3-2v-0.3c0-1.2,1-2.2,2.2-2.2c0,0,0,0,0.1,0l0,0
				c1.1-0.1,2.1,0.7,2.2,1.8c0,0.1,0,0.1,0,0.2V53.9z"/>
			<path class="st0" d="M488,31.4h2.4c0.5-0.1,1,0.3,1.1,0.8c0,0.1,0,0.1,0,0.2v0.2c0.1,0.5-0.3,1-0.8,1.1h-0.2
				c-1.6,0.1-3.3,0.1-4.9,0c-0.5,0-1-0.4-1-0.9v-0.2c-0.1-0.5,0.3-1,0.9-1.1c0,0,0.1,0,0.1,0C485.6,31.3,488,31.3,488,31.4z"/>
			<path class="st0" d="M450,39.1h17.8c0.5,0,1.2-0.2,1.4,0.1s0.3,0.9,0.3,1.5c0.3,1.8,0.4,3.5,0.8,5.3c0.1,0.6-0.2,0.8-0.6,0.9
				h-19.4c-1.4,0-1.6-0.3-1.4-1.7c0.3-1.9,0.6-3.9,0.9-5.8C449.9,39.3,449.9,39.2,450,39.1z"/>
			<path class="st0" d="M452.6,53.4c0,1-0.8,1.9-1.9,1.9c0,0-0.1,0-0.1,0h-0.1c-1,0-1.9-0.8-1.9-1.8c0,0,0,0,0,0
				c-0.1-1,0.7-1.9,1.7-1.9c0,0,0.1,0,0.1,0h0.3C451.8,51.4,452.6,52.3,452.6,53.4C452.6,53.3,452.6,53.4,452.6,53.4z"/>
			<path class="st0" d="M470.4,53.4c0.1,1.1-0.8,2.1-1.9,2.1c-1.1,0.1-2.1-0.8-2.1-1.9c-0.1-1.1,0.7-2,1.8-2.1h0.3
				c1-0.1,1.9,0.6,1.9,1.6C470.4,53.2,470.4,53.3,470.4,53.4z"/>
		</g>
		<g>
			<path class="st0" d="M479.3,59.4h17.4c0.5-0.2,1-0.5,1.4-0.8c1.2-0.7,2-2.1,2-3.5c0-6.9,0.1-13.9,0-20.8c0-2.5-2.5-4.4-4.6-4.4
				c-4.9-0.1-9.7,0-14.5,0c-2.7,0.2-4.8,2.2-5.1,4.9v20.2c0,0.7,0.2,1.4,0.5,2C477,58,478.1,58.9,479.3,59.4z"/>
			<path d="M479.3,59.4h17.4c0.5-0.2,1-0.5,1.4-0.8c1.2-0.7,2-2.1,2-3.5c0-6.9,0.1-13.9,0-20.8c0-2.5-2.5-4.4-4.6-4.4
				c-4.9-0.1-9.7,0-14.5,0c-2.7,0.2-4.8,2.2-5.1,4.9v20.2c0,0.7,0.2,1.4,0.5,2C477,58,478.1,58.9,479.3,59.4z M483.6,54.5
				c-0.1,1.3-1.2,2.3-2.4,2.2s-2.3-1.2-2.2-2.4l0,0c0-1.3,1.1-2.3,2.4-2.3h0.2c1.2,0.1,2.1,1.1,2.1,2.3l0,0L483.6,54.5z M497.3,54.4
				c0,1.3-1.1,2.3-2.4,2.3c0,0,0,0,0,0h-0.1c-1.3-0.1-2.3-1.2-2.3-2.5c0,0,0,0,0-0.1l0,0c0.1-1.3,1.2-2.3,2.5-2.2
				c1.3,0,2.3,1,2.3,2.3c0,0,0,0,0,0L497.3,54.4z M484.4,31.9c0.1-0.6,0.6-1,1.2-1h5.1c0.6,0.1,1,0.6,1,1.2v0.2c0,0.6-0.4,1-1,1
				c0,0-0.1,0-0.1,0c-1.7,0.1-3.4,0.1-5.1,0h-0.2c-0.6-0.1-1-0.6-0.9-1.2C484.4,32,484.4,31.9,484.4,31.9z M481.6,35.5h12
				c1.8,0.1,3.1,1.7,3,3.5c0.1,0.9,0.1,1.9,0,2.8c-0.1,1.5-1.2,2.7-2.6,3h-0.2c-4.3,0-8.5,0.1-12.8,0c-1.6-0.1-2.8-1.5-2.8-3.1v-3
				c0-1.7,1.4-3.1,3.2-3.1C481.4,35.5,481.5,35.5,481.6,35.5z"/>
		</g>
	</g>
</g>
<g id="Arbejde">
	<rect x="354.7" y="18.3" class="st0" width="60.7" height="55.3"/>
	<g>
		<path d="M384.9,56.5c0.6,2.2,1.7,4.2,3.2,5.8c0.3,0.3,0.2,0.9,0.4,1.4H377l0.2-4.6h-15.9c-1.7,0.2-3.3-1.1-3.5-2.8
			c0-0.2,0-0.5,0-0.7c0-8.5,0-17,0-25.5c-0.1-1.7,1.2-3.3,2.9-3.4c0.2,0,0.3,0,0.5,0h43c1.7-0.1,3.2,1.1,3.3,2.8c0,0.1,0,0.2,0,0.3
			c0,5.9,0,11.8,0,17.7c0,0.1,0,0.1,0,0.2c-0.8-1-1.6-1.9-2.4-2.9c-0.2-0.3-0.2-0.6-0.2-0.9c0-4.4,0-8.8,0-13.3c0-1.1,0-1.2-1.1-1.2
			h-42.2c-1,0-1.1,0.1-1.1,1.1c0,8.3,0,16.5,0,24.8c0,1,0.1,1.1,1.1,1.1H384.9L384.9,56.5z"/>
		<path d="M402.8,62.8c-5,3.4-11.7,2.1-15.1-2.9c-3.4-5-2.1-11.7,2.9-15.1c5-3.4,11.7-2.1,15.1,2.9c2.5,3.7,2.5,8.5,0,12.2l2.9,2.9
			c0.4,0.4,0.8,0.7,1.1,1.1c0.8,0.8,0.7,2.1-0.1,2.8c-0.8,0.8-2.1,0.7-2.8-0.1l0,0C405.4,65.5,404.1,64.2,402.8,62.8z M404.3,53.8
			c0-4.2-3.4-7.6-7.6-7.6c-4.2,0-7.6,3.4-7.6,7.6c0,4.2,3.4,7.6,7.6,7.6c0,0,0,0,0.1,0C401,61.4,404.4,58,404.3,53.8L404.3,53.8z"/>
		<path d="M388.7,44.6c-0.7,0.9-1.4,1.7-2,2.5c-0.2,0.1-0.4,0.2-0.6,0.2h-21.6c-0.8,0.1-1.5-0.4-1.6-1.2c0,0,0,0,0-0.1
			c0-0.8,0.6-1.4,1.6-1.4c2.5,0,5,0,7.5,0L388.7,44.6L388.7,44.6z"/>
		<path d="M385,50.7l-0.4,2.7h-19.8c-0.3,0-0.7,0-1-0.1c-0.6-0.2-1-0.7-0.9-1.3c0-0.6,0.4-1.1,1-1.2c0.2-0.1,0.5-0.1,0.7-0.1h19.7
			L385,50.7z"/>
		<path d="M382.7,68h-7.4c-1.2,0-1.5-0.4-1.5-1.6c-0.1-0.6,0.4-1.1,0.9-1.2c0.1,0,0.2,0,0.3,0c0.9,0,1.7,0,2.6,0h12.5
			c1.1,0,1.5,0.3,1.5,1.3s-0.4,1.5-1.4,1.5C387.7,68,385.2,68,382.7,68z"/>
		<path d="M393.4,41.4h-7.2c-0.9,0-1.5-0.4-1.5-1.1c-0.1-0.7,0.3-1.3,1-1.5c0,0,0,0,0,0c0.3-0.1,0.7-0.1,1-0.1h13.5
			c0.2,0,0.4,0,0.6,0c0.9,0.1,1.4,0.6,1.4,1.4c0,0.7-0.6,1.3-1.4,1.3c0,0-0.1,0-0.1,0C398.3,41.4,395.8,41.4,393.4,41.4z"/>
		<path d="M377.3,37.2c0-1.1,0-2.2,0-3.3c0-0.5,0.2-0.9,0.7-0.9c1.1,0,2.3,0,3.4,0.1c1.3,0.1,2.2,1.3,2.1,2.6c0,0.2-0.1,0.5-0.2,0.7
			c-0.1,0.3,0,0.5,0.1,0.8c0.8,1.1,0.6,2.7-0.6,3.5c-0.3,0.2-0.7,0.4-1.1,0.5c-1.2,0.1-2.5,0.2-3.7,0.1c-0.5,0-0.7-0.4-0.7-0.9
			C377.3,39.4,377.3,38.3,377.3,37.2z M379.6,39.2c0.5,0,1,0,1.5,0c0.2-0.1,0.4-0.2,0.4-0.5c0-0.2-0.2-0.4-0.4-0.5
			c-0.5-0.1-1-0.1-1.5-0.1V39.2z M379.4,36c0.5,0,1,0,1.5,0c0.1,0,0.2-0.3,0.3-0.5c-0.4-0.1-0.9-0.1-1.3-0.2
			C379.7,35.3,379.6,35.6,379.4,36z"/>
		<path d="M393.4,33h7c0.3,0,0.5,0,0.8,0c0.7,0.1,1.2,0.8,1,1.6c-0.1,0.5-0.5,0.9-1,1c-0.3,0-0.5,0-0.8,0h-13.8c-0.2,0-0.4,0-0.6,0
			c-0.7,0-1.3-0.6-1.3-1.3c0-0.7,0.5-1.3,1.2-1.3c0,0,0.1,0,0.1,0c1.2,0,2.5,0,3.7,0H393.4z"/>
		<path d="M368.7,37.2c-0.2-2.2,1.5-4.1,3.6-4.2c0.1,0,0.2,0,0.4,0c2.2,0,4,1.8,4,4c0,0.1,0,0.2,0,0.3c0,2.2-1.8,4-4,4
			C370.5,41.2,368.7,39.4,368.7,37.2z M370.8,37.1l0.2,0.1c-0.1,0.8,0.3,1.5,0.9,1.9c0.7,0.3,1.5,0.1,2-0.5c0.6-1,0.5-2.2-0.1-3.1
			c-0.5-0.6-1.4-0.7-2.1-0.2C371.4,35.9,371.1,36.5,370.8,37.1L370.8,37.1z"/>
		<path d="M368.1,36.5c0,0.9,0,1.7,0,2.6c-0.1,1.4-1.4,2.4-2.8,2.3c-1.2-0.1-2.2-1.1-2.3-2.4c-0.1-0.8,0.4-1,1-1.1s1.1,0,1.2,0.8
			c0,0.2,0.3,0.4,0.4,0.5c0.1-0.2,0.2-0.4,0.3-0.6c0-1.5,0-3,0-4.5c0-0.9,0.2-1.1,1.2-1.1s1.1,0.2,1.1,1.1S368.1,35.8,368.1,36.5
			L368.1,36.5z"/>
	</g>
</g>
<g id="Miljoe">
	<rect x="272.7" y="16.3" class="st0" width="60.7" height="55.3"/>
	<g>
		<path d="M316.1,36.9v0.9c0,7.1,0,14.2,0,21.3c0,3.2-1.7,4.9-4.8,4.9h-16.1c-2.4,0.2-4.4-1.6-4.6-3.9c0-0.2,0-0.4,0-0.6
			c0-7.3,0-14.5,0-21.8c0-0.2,0-0.5,0-0.7L316.1,36.9z M302,58.3c0.7,0,1.3,0,2,0s0.9-0.2,0.9-0.9c0-5.2,0-10.3,0-15.5
			c0-0.2,0-0.5,0-0.7H302V58.3z M296.3,58.3c0.7,0,1.3,0,2,0s0.9-0.2,0.9-0.9c0-5.1,0-10.3,0-15.4v-0.8h-2.8L296.3,58.3z
			 M307.6,41.2v0.9c0,2.5,0,5,0,7.6c0,2.6,0,5.2,0,7.9c0,0.3,0.2,0.7,0.4,0.7c0.8,0.1,1.6,0,2.4,0V41.2H307.6z"/>
		<path d="M317.9,24.4l0.8,2.7l-30,8.4c-0.2-0.8-0.5-1.6-0.6-2.4c0-0.1,0.3-0.4,0.4-0.5c0.5-0.1,0.8-0.3,0.8-0.9s0.6-1,1.2-1.1
			c1.5-0.4,3-0.9,4.5-1.3c0.5-0.1,0.6-0.3,0.5-0.9c-0.5-1.9,0.6-4,2.5-4.5c0.1,0,0.2-0.1,0.4-0.1l6-1.7c1.9-0.7,4,0.2,4.7,2.1
			c0,0.1,0.1,0.2,0.1,0.2c0.2,0.6,0.5,0.7,1,0.5c1.4-0.4,2.9-0.8,4.3-1.2c0.7-0.3,1.6-0.1,2,0.6c0.2,0.1,0.4,0.2,0.6,0.2
			C317.4,24.5,317.7,24.5,317.9,24.4z M306.5,26c-0.2-1-0.4-1.2-1.3-1c-2,0.5-4,1.1-6,1.7c-0.9,0.3-1,0.6-0.6,1.5L306.5,26z"/>
		<path class="st0" d="M302,58.3V41.2h2.8c0,0.3,0,0.5,0,0.7c0,5.2,0,10.3,0,15.5c0,0.7-0.2,0.9-0.9,0.9S302.7,58.3,302,58.3z"/>
		<path class="st0" d="M296.3,58.3V41.2h2.8V42c0,5.1,0,10.3,0,15.4c0,0.7-0.2,0.9-0.9,0.9S297,58.3,296.3,58.3z"/>
		<path class="st0" d="M307.6,41.2h2.8v17.1c-0.8,0-1.6,0-2.4,0c-0.2,0-0.4-0.5-0.4-0.7c0-2.6,0-5.2,0-7.9s0-5,0-7.6L307.6,41.2z"/>
	</g>
</g>
<g id="Fritiden">
	<rect x="197.7" y="16.3" class="st0" width="60.7" height="55.3"/>
	<g>
		<path class="st0" d="M217.8,24.9c-1.6,0.4-2.7,1.7-2.9,3.3c-0.1,0.5-0.1,0.5-0.6,0.5h-4.1c-0.7-0.1-1.3,0.4-1.4,1
			c-0.1,0.4,0,0.8,0.3,1.1c2.2,2.9,4.3,5.8,6.6,8.7c2.9,3.9,5.7,7.8,8.6,11.6c0.1,0.2,0.2,0.3,0.2,0.5v9.6c0,2.5-2,4.5-4.5,4.5h-5.2
			c-0.9,0-1.4,0.4-1.4,1.1s0.5,1.1,1.4,1.1H240c0.5-0.1,0.9-0.6,0.9-1.1c0-0.5-0.5-0.9-1-0.9h-5.7c-0.3,0-0.7,0-1-0.1
			c-2-0.5-3.5-2.3-3.4-4.4V52c0-0.2,0.1-0.5,0.2-0.7c0.6-0.9,1.3-1.6,1.9-2.5l9.9-13.6l3.2-4.4c0.3-0.3,0.4-0.9,0.2-1.3
			c-0.2-0.6-0.8-0.9-1.4-0.8h-20.9c-0.3,0-0.4,0-0.4-0.4c-0.1-1.8-1.4-3.3-3.2-3.6c-0.1,0-0.2-0.2-0.3-0.3c-0.2-0.9-0.2-1.6-0.4-2.5
			c-0.3-1.3-0.6-2.5-1.1-3.8l-1.6,0.9C216.8,20.9,217.4,22.8,217.8,24.9z M249.8,37.9c-0.5-0.4-1-0.8-1.4-1.3
			c-0.2-0.1-0.2-0.3-0.1-0.5l0,0c0.5-1,0.8-2.2,0.9-3.3c0-0.7-0.4-1.3-1-1.5c-0.6-0.2-1.2,0-1.5,0.5c-0.8,1.1-1.5,2-2.3,3.1
			c-0.2,0.2-0.2,0.3,0,0.5c1.2,1,2.3,2,3.4,3l2.3,2c0.8-0.8,1.5-1.8,1.9-2.9c1.5-3.3,1.4-7.2-0.4-10.4c-1.4-2.5-3.5-4.5-5.9-6
			c-1.9-1.2-4-1.8-6.3-1.8c-3.2,0.1-6.3,1.3-8.7,3.6v0.1l4.3,4c0.1,0.1,0.2,0.1,0.4,0.1h4.6c0.1,0,0.3-0.1,0.3-0.2l0,0
			c0.1-0.7,0.3-1.3,0.5-2c0.2-0.6-0.1-1.4-0.8-1.6c-0.1,0-0.1,0-0.2-0.1h-0.4c-0.3,0-0.6,0.1-1,0.1c-1.1,0.2-2.1,0.6-3,1.2
			c-0.1,0.1-0.2,0.1-0.3,0.1c-0.5-0.4-1.1-1-1.6-1.4l0.2-0.2c2.8-2,6.4-2.4,9.5-1c1.9,0.8,3.6,2,5,3.6c2.6,2.8,3.8,6,2.8,9.8
			C250.6,36.3,250.2,37.2,249.8,37.9L249.8,37.9z M247,29.1c0.5-0.5,0.6-1.3,0.1-1.8l0,0c-0.8-0.8-1.5-1.5-2.3-2.2
			c-0.6-0.4-1.4-0.3-1.9,0.2c-0.1,0.1-0.1,0.1-0.1,0.2c-0.2,0.6-0.4,1.2-0.5,1.8h2C245.4,27.3,246.5,28,247,29.1L247,29.1z"/>
		<path d="M217.8,24.9c-0.3-2-0.9-3.9-1.8-5.7l1.6-0.9c0.3,1.3,0.8,2.5,1.1,3.8c0.1,0.8,0.2,1.6,0.4,2.4c0,0.1,0.1,0.2,0.3,0.3
			c1.8,0.2,3.2,1.7,3.2,3.6c0,0.2,0.1,0.4,0.4,0.4c0,0,0,0,0.1,0h21.4c0.6-0.1,1.1,0.2,1.4,0.8c0.2,0.4,0.1,0.9-0.2,1.3l-3.2,4.4
			l-9.9,13.6c-0.6,0.9-1.3,1.6-1.9,2.5c-0.1,0.2-0.2,0.4-0.2,0.7v9.5c-0.1,2.1,1.3,4,3.3,4.4c0.3,0.1,0.7,0.1,1,0.1h5.7
			c0.5,0,0.9,0.4,1,0.9c0,0.5-0.3,1-0.9,1.1h-25.3c-0.9,0-1.4-0.4-1.4-1.1s0.5-1.1,1.4-1.1h5.2c2.4,0,4.4-2,4.4-4.4v-9.6
			c0-0.2-0.1-0.4-0.2-0.5c-2.9-3.9-5.7-7.8-8.6-11.7c-2.2-2.9-4.3-5.8-6.6-8.7c-0.2-0.3-0.3-0.7-0.3-1.1c0.1-0.7,0.7-1.1,1.4-1h4.1
			c0.5,0,0.5,0,0.6-0.5C215.1,26.6,216.2,25.1,217.8,24.9z M211.8,30.9c0.1,0.1,0.1,0.2,0.2,0.3l4.9,6.5c3.2,4.3,6.5,8.7,9.7,13
			c0.1,0.1,0.2,0.3,0.2,0.5v10.4c0,0.9-0.2,1.7-0.5,2.5c-0.3,0.7-0.8,1.3-1.1,1.8h4.6l-0.3-0.4c-0.9-1.1-1.4-2.5-1.4-3.9V51.2
			c0-0.2,0.1-0.3,0.2-0.5l2.4-3l11.6-15.9l0.6-1h-20.9c-0.2,0-0.4,0.1-0.5,0.2c-1.4,1.5-3.8,1.6-5.4,0.2l-0.2-0.2
			c-0.1-0.1-0.3-0.2-0.4-0.2C214.3,30.9,213.1,30.9,211.8,30.9L211.8,30.9z M217.5,26.1c-0.5,0-0.9,0.4-0.9,0.9s0.4,0.9,0.9,0.9l0,0
			c0.5,0,0.9-0.4,0.9-0.9S218,26.1,217.5,26.1L217.5,26.1z"/>
		<path d="M249.8,37.9c0.5-0.8,0.8-1.6,1.1-2.5c1-3.9-0.2-7-2.8-9.8c-1.4-1.5-3.1-2.7-5-3.6c-3.1-1.3-6.7-0.9-9.5,1
			c-0.1,0-0.1,0.1-0.2,0.2c0.5,0.5,1.1,1,1.6,1.4c0.1,0,0.2,0,0.3-0.1c0.9-0.6,1.9-1,3-1.2c0.3-0.1,0.7-0.1,1-0.1
			c0.7,0,1.4,0.5,1.4,1.3c0,0,0,0,0,0V25c-0.2,0.6-0.3,1.4-0.5,2c0,0.2-0.1,0.3-0.3,0.3h-4.5c-0.2,0-0.3,0-0.4-0.1l-4.3-4v-0.1
			c2.3-2.3,5.4-3.6,8.6-3.7c2.2,0,4.4,0.7,6.3,1.8c2.4,1.5,4.5,3.6,5.9,6c1.8,3.2,2,7,0.4,10.4c-0.4,1.1-1.1,2.1-1.8,3l-2.3-2
			c-1.1-1-2.3-2-3.4-3c-0.2-0.2-0.2-0.3,0-0.5c0.8-1.1,1.5-2,2.3-3.1c0.3-0.5,0.9-0.8,1.5-0.5c0.7,0.2,1.1,0.8,1,1.5
			c0,1.2-0.3,2.3-0.9,3.3c-0.1,0.2-0.1,0.4,0.1,0.5l0,0C248.9,37.1,249.4,37.5,249.8,37.9z"/>
		<path d="M247.1,29.1c-0.4-1.1-1.6-1.9-2.8-1.7h-2c0.1-0.6,0.3-1.2,0.5-1.8c0.3-0.6,1.1-0.9,1.7-0.6c0,0,0.1,0,0.1,0.1
			c0.1,0,0.1,0.1,0.2,0.1c0.8,0.6,1.6,1.4,2.3,2.2c0.5,0.5,0.5,1.2,0.1,1.8C247.2,29,247.2,29,247.1,29.1L247.1,29.1z"/>
		<path class="st0" d="M211.7,30.9h3.8c0.1,0,0.2,0.1,0.3,0.2c1.4,1.5,3.8,1.6,5.4,0.2l0.2-0.2c0.1-0.1,0.3-0.2,0.5-0.2h20.8l-0.6,1
			l-11.7,15.8c-0.7,1-1.5,2-2.4,3c-0.1,0.1-0.2,0.3-0.2,0.5v10.4c0,1.4,0.4,2.8,1.3,3.9l0.3,0.4h-4.6c0.3-0.7,0.8-1.2,1.1-1.8
			c0.3-0.7,0.5-1.6,0.5-2.4V51.4c0-0.2-0.1-0.3-0.2-0.5c-3.2-4.3-6.5-8.7-9.7-13l-4.9-6.5C211.9,31.1,211.8,31,211.7,30.9z
			 M237.8,34.7H217l10.3,13.8L237.8,34.7z"/>
		<path class="st0" d="M217.4,26.1c0.4,0,0.8,0.4,0.8,0.8c0,0,0,0.1,0,0.1c0,0.5-0.4,0.9-0.9,0.9c-0.5,0-0.9-0.4-0.9-0.9
			C216.5,26.5,216.9,26.1,217.4,26.1L217.4,26.1z"/>
		<path d="M237.8,34.7l-10.5,13.8L217,34.7H237.8z M225.4,42.1c0.8,0,1.5-0.7,1.5-1.5c-0.1-0.9-0.8-1.5-1.6-1.6
			c-0.9,0-1.5,0.8-1.5,1.6C223.8,41.5,224.6,42.2,225.4,42.1L225.4,42.1z M229.4,40.8c0.6,0,1-0.4,1-1c0-0.6-0.4-1-0.9-1.1
			c-0.6,0-1,0.4-1.1,0.9C228.5,40.3,228.9,40.7,229.4,40.8L229.4,40.8z M223.2,36.9c0-0.4-0.3-0.8-0.8-0.9c-0.4,0-0.8,0.3-0.9,0.8
			l0,0l0,0c0,0.4,0.3,0.8,0.8,0.9C222.7,37.7,223.1,37.4,223.2,36.9L223.2,36.9z"/>
		<path class="st0" d="M225.4,42.1c-0.8,0-1.5-0.6-1.5-1.4c0,0,0-0.1,0-0.1l0,0c0.1-0.8,0.8-1.4,1.7-1.3c0.7,0.1,1.2,0.6,1.3,1.3
			C226.9,41.4,226.2,42.1,225.4,42.1z"/>
		<path class="st0" d="M229.4,40.8c-0.6,0-1-0.4-1-1v-0.1c0.1-0.5,0.5-0.9,1.1-0.9c0.5,0.1,0.9,0.5,0.9,1
			C230.5,40.4,229.9,40.8,229.4,40.8L229.4,40.8z"/>
		<path class="st0" d="M223.3,36.9c0,0.5-0.4,0.8-0.9,0.9c-0.4,0-0.8-0.4-0.8-0.9c0-0.4,0.3-0.8,0.8-0.8c0,0,0.1,0,0.1,0l0,0
			C222.8,36.1,223.3,36.5,223.3,36.9z"/>
	</g>
</g>
<g id="Flygtninge">
	<rect x="117.7" y="17.3" class="st0" width="60.7" height="55.3"/>
	<g>
		<path d="M170.5,50.7c0,4.8,0,9.5,0,14.3c0,0.5,0,1,0,1.4c0,0.8-0.1,1.6-1.1,1.6s-1.1-0.8-1.1-1.6c0-2.7,0-5.3,0-8
			c0-0.5-0.1-1-0.3-1.5h-0.5c-0.1,0.5-0.2,1-0.2,1.6c0,2.6,0,5.2,0,7.8c0,0.8-0.1,1.8-1.2,1.6c-0.4-0.1-1-1-1-1.6
			c-0.1-4.5-0.1-8.9-0.1-13.4c0-0.5-0.1-1.1-0.3-1.6c-0.4,0.6-0.8,1.1-1.1,1.7c-0.6,1.1-1.3,1.1-2.3,0.4c-2.9-1.9-3.2-4.8-3.4-7.8
			c-0.1-1.7-0.3-3.4-0.4-5.1c-0.1-0.6-0.2-1.2-0.3-1.7h-0.4c-0.1,0.5-0.1,1-0.1,1.5c0.6,4.5,1.1,9,1.7,13.6c0.3,2.3,0.9,2.1-1.8,2.7
			c0,2.9,0,5.9,0,8.9c0,1.8-0.6,2.5-1.9,2.5s-1.9-0.8-1.9-2.6c0-2.3,0-4.6,0-6.9c0.1-0.4,0.1-0.7,0-1.1c-0.2-0.4-0.5-0.8-0.9-1.1
			c-0.2,0.4-0.7,0.8-0.7,1.2c-0.1,2.8,0,5.5,0,8.3c0,1.5-0.8,2.4-2.1,2.2c-1.4-0.2-1.8-1.2-1.8-2.4c0-2.3,0-4.6,0-6.9s0-2.3-2.2-2.5
			c0.6-2.9,1.3-5.8,1.7-8.7s0.5-5.7,0.7-8.6l-0.8-0.1c-0.2,1.5-0.4,3-0.6,4.5c-0.2,2.1-0.4,4.2-0.6,6.3c-0.1,1.1-0.6,1.7-1.7,1.6
			s-1.4-1-1.3-2c0.4-3.8,0.7-7.6,1.1-11.4c0.3-2.3,2.3-4,4.6-4.1c2.4-0.1,4.9-0.1,7.3,0c2.7,0,4.9,2.2,4.9,4.9
			c0.3,3.9,0.6,7.8,1,11.7c0,0.3,0.2,0.7,0.5,0.8c0.2,0.1,0.6-0.2,0.8-0.5s0.3-0.5,0.4-0.7c0.7-1,1.3-2.6,2.1-2.8c2-0.3,4-0.2,6,0.2
			c0.7,0.2,1.5,1.5,1.6,2.4c0.2,2.4,0.2,4.9,0,7.3c0,0.4-0.6,0.9-1,1.3c-0.3-0.4-0.7-0.9-0.8-1.3c-0.1-2.2,0-4.4,0-6.7L170.5,50.7z"
			/>
		<path d="M136,67.8c0.9-2.5,1-5.2,0.3-7.8c-0.1-0.7-0.3-1.3-0.7-1.9c-1.2-1.4-1.2-3-1.2-4.6c0-5,0-10.1,0-15.2c0-0.5,0-1-0.1-1.5
			h-0.4c-0.1,0.4-0.1,0.8-0.1,1.2c0,3.6,0,7.2,0,10.8c0,0.3,0,0.7,0,1c-0.1,1.1-0.7,1.9-1.8,1.8s-1.6-0.9-1.6-1.9
			c0-4.4-0.1-8.7,0.1-13.1c0.1-3.1,2-4.9,5.1-5c2.6-0.1,5.3-0.1,8,0c1,0.2,2,0.5,3,0.9c-0.7,0.5-1,0.7-1.3,0.9
			c-1.9,1.1-3.1,3.1-3.2,5.4c-0.3,3.1-0.6,6.2-1,9.3s0.1,3.9,3.1,4.9c-0.1,0.6-0.3,1.3-0.4,1.9c-0.1,1.1-1,2.2,0.3,3.3
			c0.4,0.3,0.1,1.5,0.1,2.3c0,1.7,0,3.3,0,4.9c0,1.4-0.5,2.3-2,2.4c-1.2,0.1-2.1-0.9-2.1-2.4c0-5.2,0-10.3,0-15.5
			c0-0.5-0.3-1.3-0.6-1.4c-1.1-0.3-1.1,0.5-1.1,1.3c0,5.1,0,10.2,0,15.3C138.5,67.1,138.1,67.6,136,67.8z"/>
		<path d="M127.3,53.7h5.7l-1.7,2.4c3.2,2.1,4.6,6.1,3.5,9.7c-0.3,1-0.9,1.8-1.9,1.8c-1.9,0.1-3.9,0.1-5.8-0.2
			c-1-0.4-1.8-1.1-2.3-2.1c-1.2-3.2,0-6.8,2.9-8.7c0.3-0.3,0.4-0.8,0.4-1.3C127.9,54.8,127.6,54.2,127.3,53.7z"/>
		<path d="M139.3,30.6c-2.3,0-4.1-1.8-4.2-4c0-0.1,0-0.2,0-0.2c0-2.3,1.9-4.2,4.3-4.2s4.2,1.9,4.2,4.3c0,2.3-1.8,4.1-4,4.1
			C139.5,30.6,139.4,30.6,139.3,30.6z"/>
		<path d="M151.9,25.1c2.1,0,3.8,1.7,3.9,3.8c0,0.1,0,0.1,0,0.2c0,2.2-1.8,4-4,4c-2.2-0.1-3.9-1.9-3.9-4.1c0-2.2,1.8-3.9,3.9-3.9
			C151.8,25.1,151.8,25.1,151.9,25.1z"/>
		<path d="M171.2,43.2c0.1,1.8-1.4,3.4-3.2,3.4c-1.8,0.1-3.4-1.4-3.4-3.2c0-0.1,0-0.2,0-0.3c0.1-1.8,1.7-3.2,3.5-3.1
			C169.8,40.1,171.1,41.5,171.2,43.2z"/>
	</g>
</g>
<g id="Praktikpladser">
	<rect x="31.7" y="17.3" class="st0" width="60.7" height="55.3"/>
	<g>
		<rect x="66.4" y="38.5" class="st0" width="18.1" height="24.7"/>
		<g>
			<path class="st0" d="M65.4,64H85V52.4c-0.1-0.6,0.2-1.2,0.8-1.5c0.9-0.7,1.8-1.5,2.6-2.1c0.6-0.4,1.1-0.9,1.7-1.5L88,44.8
				L75.5,55.2l2.1,2.5l6.4-5.3v10.6H66.5v-24h2.5c-0.2,0.4-0.4,0.9-0.6,1.3c-0.6,0.6-0.5,1.6,0.1,2.2c0.6,0.6,1.6,0.5,2.2-0.1
				c0.5-0.6,0.5-1.5,0-2.1c-0.2-0.4-0.4-0.8-0.6-1.2h4.4c-0.2,0.4-0.4,0.9-0.6,1.3c-0.6,0.6-0.5,1.6,0.1,2.2c0.6,0.5,1.5,0.5,2.1,0
				c0.6-0.6,0.7-1.6,0.1-2.2c-0.2-0.4-0.4-0.8-0.6-1.3h4.5c-0.1,0.4-0.3,0.9-0.6,1.3c-0.5,0.7-0.5,1.6,0.1,2.2
				c0.6,0.7,1.6,0.7,2.3,0.1s0.7-1.6,0.1-2.3c-0.2-0.4-0.4-0.8-0.6-1.3h2.7v5.1c-0.1,0.3-0.2,0.6-0.4,0.8c-2,1.7-4.1,3.4-6.2,5.1
				l-3.7,3.1l0.9,1.2L87.2,44l-1-1.2l-1.3,0.9v-5.6h-3.4l0.1-0.3c-0.3-0.3-0.6-0.7-0.8-0.7s-0.6,0.4-0.8,0.7
				c-0.1,0.1-0.2,0.3-0.3,0.3h-3.2v-5.4c0-0.6-0.2-0.9-0.8-0.9h-4.2c-0.6,0-0.8,0.2-0.8,0.8v4.8c-0.1,0.2-0.2,0.5-0.3,0.7
				c-0.1-0.2-0.3-0.4-0.4-0.5c-0.3-0.2-0.5-0.4-0.7-0.4c-0.3,0.1-0.5,0.2-0.7,0.4c-0.1,0.2-0.3,0.3-0.3,0.5
				c-0.1-0.2-0.2-0.4-0.3-0.6v-5.7H44.4v18.5c0,0.8,0.2,0.9,0.9,0.9h18.8c1.3,0,1.3,0,1.3,1.3c0,0.7-0.3,0.8-0.8,0.8H45.4
				c-0.8,0-1,0.3-0.9,1c0,0.6,0,1.2,0,1.9c0,0.8-0.6,0.7-0.9,0.6c-0.6-0.2-1.5,0.6-1.6-0.6c-0.1-0.6-0.1-1.2,0-1.8
				c0.1-0.8-0.2-1.1-1-1.1c-2,0.2-3.8-0.8-4.8-2.5c-0.3-0.5-0.6-1-0.8-1.5c-0.2,1.8-0.2,3.6-0.1,5.4c0.3,3.9,2.4,5.9,6.3,5.9h23.2
				c0.7,0,0.9,0.2,0.8,0.8C65.5,62.2,65.4,63.1,65.4,64z M41.9,41.6v-8.8c0-0.9-0.3-1-1-1c-1.3,0.1-2.6,0.1-3.8,0
				c-0.7,0-0.8,0.2-0.8,0.8c0,3.7-0.1,7.4,0,11.1c0,1.9,0.5,3.8,1.5,5.5c0.6,1.4,2,2.2,3.5,2c0.7-0.1,0.8-0.3,0.8-0.8
				C41.9,47.5,41.9,44.5,41.9,41.6z M65.4,29.7v-2.7c0-0.7-0.2-0.9-0.8-0.9H48.1c-0.3,0-0.5,0.2-0.7,0.4c-0.1,1,0,2,0,3.1h3l0.1-1.7
				h12v1.3c0,0.2,0.3,0.5,0.3,0.5C63.7,29.7,64.5,29.7,65.4,29.7z M70.4,59.7l6.6-1.5l-3.8-4.6L70.4,59.7z M90.8,46.7
				c1.3-1,1.5-2.9,0.5-4.2c0,0,0-0.1-0.1-0.1c0,0,0,0,0,0c-1.1-1.2-2.9-1.4-4.2-0.3L87,42.2L90.8,46.7z"/>
			<path d="M65.4,64v-2.5c0-0.8-0.2-0.8-0.8-0.8H41.4c-3.9,0-6-2-6.3-5.9c-0.1-1.8-0.1-3.6,0.1-5.4c0.3,0.5,0.6,1,0.8,1.5
				c0.9,1.7,2.8,2.8,4.8,2.5c0.8-0.1,1.1,0.3,1,1.1c-0.1,0.6-0.1,1.2,0,1.8c0.2,1.2,1.1,0.4,1.6,0.6c0.3,0.1,1,0.3,0.9-0.6v-1.9
				c0-0.6,0.2-1,0.9-1h19.1c0.6,0,0.8-0.2,0.8-0.8c0-1.3,0-1.3-1.3-1.3H45.2c-0.8,0-0.9-0.3-0.9-0.9V32h23.8v5.3
				c0.1,0.2,0.2,0.4,0.3,0.6c0.1-0.2,0.2-0.4,0.3-0.5c0.3-0.2,0.5-0.4,0.7-0.4c0.3,0.1,0.5,0.2,0.7,0.4c0.2,0.2,0.3,0.3,0.4,0.5
				c0.1-0.3,0.2-0.4,0.3-0.7v-4.7c0-0.6,0.2-0.8,0.8-0.8h4.2c0.7,0,0.8,0.3,0.8,0.8v5.4h3.2c0.1,0,0.2-0.2,0.3-0.3
				c0.3-0.3,0.6-0.7,0.8-0.7s0.6,0.4,0.8,0.7l-0.1,0.3h3.4v5.6l1.3-0.9l0.9,1.2L74.6,54.1L73.7,53l3.7-3.1c2-1.7,4.2-3.4,6.2-5.1
				c0.3-0.2,0.4-0.5,0.4-0.8v-5.1h-2.8c0.1,0.4,0.3,0.9,0.6,1.3c0.5,0.7,0.4,1.7-0.3,2.2c-0.6,0.4-1.4,0.4-2,0
				c-0.6-0.6-0.6-1.6-0.1-2.2c0.2-0.4,0.4-0.8,0.6-1.3h-4.5c0.2,0.4,0.4,0.9,0.6,1.3c0.6,0.6,0.5,1.6-0.1,2.2
				c-0.6,0.5-1.5,0.5-2.1,0c-0.6-0.6-0.7-1.6-0.1-2.2c0.2-0.4,0.4-0.8,0.6-1.3h-4.3c0.2,0.4,0.4,0.9,0.6,1.3
				c0.5,0.7,0.4,1.7-0.3,2.2c-0.7,0.5-1.7,0.4-2.2-0.3c-0.5-0.6-0.5-1.5,0.1-2c0.2-0.4,0.4-0.8,0.6-1.3h-2.5v23.9H84V52.3l-6.4,5.3
				l-2.1-2.5L88,44.7l2.1,2.5l-1.7,1.5c-0.8,0.8-1.7,1.5-2.6,2.1c-0.5,0.4-0.8,0.9-0.8,1.5v11.6L65.4,64z"/>
			<path d="M41.9,41.6v8.9c0,0.7-0.2,0.8-0.8,0.8c-1.5,0.2-2.9-0.6-3.5-2c-0.9-1.7-1.4-3.6-1.5-5.5V32.6c0-0.7,0.3-0.9,0.8-0.9
				c1.3,0.1,2.6,0.1,3.8,0c0.8,0,1,0.2,1,1C41.8,35.7,41.9,38.6,41.9,41.6z"/>
			<path d="M65.4,29.7h-2.6c-0.2,0-0.3-0.3-0.3-0.5v-1.3H50.4l-0.1,1.7h-3v-3.1c0-0.2,0.4-0.4,0.7-0.4h16.5c0.7,0,0.9,0.2,0.8,0.9
				C65.4,27.8,65.4,28.7,65.4,29.7z"/>
			<path d="M70.4,59.7l2.8-6.1l3.8,4.6L70.4,59.7z"/>
			<path d="M90.8,46.7L87,42.1c1.2-1.1,3.1-0.9,4.2,0.3l0.1,0.1C92.3,43.7,92.1,45.6,90.8,46.7C90.8,46.6,90.8,46.7,90.8,46.7
				L90.8,46.7z"/>
		</g>
	</g>
</g>
</svg>
