<?xml version="1.0" encoding="utf-8"?>
<!-- Generator: Adobe Illustrator 21.1.0, SVG Export Plug-In . SVG Version: 6.00 Build 0)  -->
<svg version="1.1" id="Layer_1" xmlns="http://www.w3.org/2000/svg" xmlns:xlink="http://www.w3.org/1999/xlink" x="0px" y="0px"
	 viewBox="0 0 843 210" style="enable-background:new 0 0 843 210;" xml:space="preserve">
<style type="text/css">
	.st0{opacity:0.3;}
	.st1{fill:#FFFFFF;}
</style>
<g id="artists" class="st0">
	<g>
		<g id="white">
			<g>
				<path class="st1" d="M219.3,184.5c-5-11.3-10.2-22.5-15-33.8c-3.2-7.7-8.9-14-16.2-18c-2.7-1.5-2.9-2.7-1.8-5.3
					c5.3-12.3,10.3-24.6,15.5-36.8c0.5-1.1,1.2-2.2,2.1-3c6.3-5.5,8.3-12.3,6.3-20.3c-5.3,0.7-10.7,6.8-11.9,13.2
					c-0.5,2.9-0.6,6.1-1.8,8.7c-5.1,10.7-10.6,21.2-15.9,31.7c-3.4,6.8-3.4,6.8-10.9,6.1c-0.3-0.1-0.5-0.2-0.7-0.3
					c-0.3-0.9-0.6-1.9-0.8-2.8c-0.4-3.6-1.4-7.4-0.8-10.8c0.7-3.8,2.8-7.5,4.5-11.1c0.6-0.7,1.5-1.1,2.4-1
					c5.3,0.5,10.2-3.2,11.1-8.5c0.8-3.9,2-7.7,3.3-11.4c2.6-6.9,0.9-13.3-4.8-18c-1-0.9-1.6-2.3-1.6-3.7c0.4-7.2-0.8-14.4-3.6-21.1
					C169.3,15.6,143,1.9,118.9,7.5c-18.6,4.3-32.7,14.6-39.2,33.1c-2.2,6.3-2.2,13.5-3.3,21.1c-8,3.1-11.2,11.1-7.4,20.2
					c1,2.4,2.2,4.9,2.5,7.4c0.9,8.6,4.9,12.2,12.9,11.4c2.2,5.4,5,10.6,6.4,16.1c0.8,2.9-0.4,6.5-1.4,9.5c-0.3,0.8-3.3,0.8-5.1,0.9
					c-15.6,1.1-27.7,7.9-34.8,22.2c-4.5,9-8.8,18.1-13,27.3c-2.1,4.6-4,9.4-6.3,15h119.3c-1.7,4.5-3.2,8.6-4.6,12.7
					c-0.3,0.9,0.3,2,0.4,3c0.9-0.5,2.1-0.9,2.5-1.6c2.1-3.6,4.1-7.2,5.9-11c1.1-2.3,2.5-3.2,5.2-3.2c19.4,0.1,38.7,0.1,58.1,0.1h4.9
					C220.8,188.9,220.2,186.6,219.3,184.5z"/>
			</g>
		</g>
		<path d="M219.3,184.5c-5-11.3-10.2-22.5-15-33.8c-3.2-7.7-8.9-14-16.2-18c-2.7-1.5-2.9-2.7-1.8-5.3c5.3-12.3,10.3-24.6,15.5-36.8
			c0.5-1.1,1.2-2.2,2.1-3c6.3-5.5,8.3-12.3,6.3-20.3c-5.3,0.7-10.7,6.8-11.9,13.2c-0.5,2.9-0.6,6.1-1.8,8.7
			c-5.1,10.7-10.6,21.2-15.9,31.7c-3.4,6.8-3.4,6.8-10.9,6.1c-0.3-0.1-0.5-0.2-0.7-0.3c-0.3-0.9-0.6-1.9-0.8-2.8
			c-0.4-3.6-1.4-7.4-0.8-10.8c0.7-3.8,2.8-7.5,4.5-11.1c0.6-0.7,1.5-1.1,2.4-1c5.3,0.5,10.2-3.2,11.1-8.5c0.8-3.9,2-7.7,3.3-11.4
			c2.6-6.9,0.9-13.3-4.8-18c-1-0.9-1.6-2.3-1.6-3.7c0.4-7.2-0.8-14.4-3.6-21.1C169.3,15.6,143,1.9,118.9,7.5
			c-18.6,4.3-32.7,14.6-39.2,33.1c-2.2,6.3-2.2,13.5-3.3,21.1c-8,3.1-11.2,11.1-7.4,20.2c1,2.4,2.2,4.9,2.5,7.4
			c0.9,8.6,4.9,12.2,12.9,11.4c2.2,5.4,5,10.6,6.4,16.1c0.8,2.9-0.4,6.5-1.4,9.5c-0.3,0.8-3.3,0.8-5.1,0.9
			c-15.6,1.1-27.7,7.9-34.8,22.2c-4.5,9-8.8,18.1-13,27.3c-2.1,4.6-4,9.4-6.3,15h119.3c-1.7,4.5-3.2,8.6-4.6,12.7
			c-0.3,0.9,0.3,2,0.4,3c0.9-0.5,2.1-0.9,2.5-1.6c2.1-3.6,4.1-7.2,5.9-11c1.1-2.3,2.5-3.2,5.2-3.2c19.4,0.1,38.7,0.1,58.1,0.1h4.9
			C220.8,188.9,220.2,186.6,219.3,184.5z M182.7,135.5l8.6,5.8l-0.3,0.8h-11.3L182.7,135.5z M174.9,133l-3.4,7.4h-0.9l-1.1-8.2
			L174.9,133z M82.6,94.8c-0.8,0.4-2.3,0.4-2.7,0c-1.1-1.1-1.9-2.5-2.5-4c-1.3-3.9-2.2-8-3.6-11.8c-2-5.3-0.4-10,4.6-11.9
			c1.7,8.5,3.4,17,5.1,25.5C83.5,93.4,83.2,94.3,82.6,94.8z M89,91.1c-2.1-9.6-3.7-19.4-5.4-29.1c-3.3-19,4.8-32.7,20.2-42.7
			c25.8-16.8,61.4-4.5,71.1,24.4c0.9,3,1.5,6.1,1.8,9.3c0.5,4.5,0.4,8.5-4.9,10.9c-4,1.8-5.1,6.2-5.5,11.2h5c0.7-2,1.7-4,2.8-5.8
			c2.3-3.3,6.2-3.2,8.5,0.2s1.9,7.1,0.4,10.8c-1.2,2.9-2.2,5.9-2.9,8.9c-0.5,2.5-0.7,5.8-3.7,5.8c-1.8,0-3.6-2.6-5.4-4.1l0.6-0.9
			h-5.3c-0.1,0.8-0.1,1.6,0,2.4c2.7,8-1.1,14.3-6,19.8c-5.3,5.9-11.3,11.2-17,16.8c-2.8,2.8-6.6,4.4-10.6,4.3
			c-6.4,0-12.9-0.1-19.4,0c-3.6,0.2-7.1-1.7-8.8-4.9c-3.3-5.4-7.3-10.5-9.6-16.3C92.2,105.5,90.5,98.3,89,91.1z M165.2,142.3H92.5
			l3-17.1c1.6,2.3,2.8,3.9,3.8,5.6c3.2,5.9,8.2,8.3,14.7,8.2c4.4,0,8.9-0.4,13.3,0.1c10.2,1,18.2-2.8,24.7-10.4
			c2.9-3.4,6.2-6.5,10.1-10.4L165.2,142.3z M88.4,133c-0.5,2.8-0.8,5.6-1.5,8.4c-0.2,0.7-1.7,1.5-2.6,1.5
			c-7.5,0.1-15.1,0.1-22.8,0.1C64.3,136.7,78.8,131.2,88.4,133z M129.8,186.3H37.9c2.1-4.4,3.6-8,5.5-11.4c0.5-0.9,2.5-1.3,3.9-1.3
			c26-0.1,52.1-0.1,78.1-0.1c3.5,0,7.1,0.1,10.6,0c2.3-0.1,3,0.8,3.1,3.1C139.5,186.3,139.6,186.3,129.8,186.3z M140.1,162.2
			c-0.7,0.8-1.8,1.3-2.9,1.3c-28.8,0.1-57.6,0.1-86.4,0c-0.6-0.1-1.2-0.3-1.7-0.5c1.5-3.2,2.7-6.1,4.2-8.8c0.7-0.8,1.7-1.4,2.7-1.4
			c28.8-0.1,57.6-0.1,86.4,0c0.6,0.1,1.1,0.3,1.6,0.5C142.7,156.3,141.6,159.3,140.1,162.2L140.1,162.2z M183,177.9
			c-0.5,8.3-0.1,8.3-8.5,8.3h-29.9c-0.8-11.3-1.4-22.1,4.7-32c0.6-0.8,1.4-1.3,2.4-1.4c4.5-0.1,9.1-0.1,14-0.1
			c-0.9,3.9-3,5.8-6.3,5.6c-3-0.1-4.3,1.4-5.1,4.5h19.6c-1.8-4.1-0.8-7.2,2.8-9.5C181.4,160.7,183.6,169.3,183,177.9z M186.7,162.4
			c-1.4-2.9-2.6-5.9-4.3-9.6c5.7,0,10.6,0,15.5,0.1c0.7,0.1,1.4,0.5,1.8,1.1c1.4,2.9,2.6,5.9,4.3,9.5c-5.6,0-10.5,0-15.4,0
			C187.8,163.4,187.1,163,186.7,162.4L186.7,162.4z M189.7,186.1c-0.9-0.3-1.5-1-1.7-1.8c-0.2-2.9-0.2-5.8,0-8.7
			c0.4-1,1.2-1.8,2.3-2c5.4-0.2,10.9-0.1,16.3-0.1c0.8,0,2,0.3,2.3,0.9c1.8,3.6,3.4,7.4,5.5,11.8
			C205.4,186.2,197.5,186.3,189.7,186.1L189.7,186.1z"/>
		<path d="M103,74.6c4,0.7,4.8-3.1,6.5-6.1c0.9,0.9,1.4,2.2,1.4,3.4c-0.4,2.6-1,5.2-1.7,7.8c-0.4,1.7-0.5,4-1.6,4.9
			c-5.3,4.2-7.1,10.3-9.4,16.1c-0.7,1.8-0.7,3.8-1,5.7c5.2,0.9,5.1,0.9,6.3-3.3c0.5-2,1.4-3.9,2.1-5.7c5.5,1.3,8.2,6.5,14.3,6.3
			s8.6-6,15.3-6.8c2.1,4.7,4.5,9.4,6.4,14.4c0.9,2.3,2.3,2.7,4,2.1c0.9-0.3,1.7-2.1,1.7-3.2c-0.1-2-0.6-4-1.6-5.8
			c-3.8-6.1-7.8-12.1-12-17.9c-1.7-2.3-4.4-2.6-7.3-1.8V89c1.4,0.9,2.4,1.5,3.5,2.3c0.1,0.1-0.3,1.2-0.5,1.2
			c-3.2,0.4-5.6,1.8-6.9,4.8c-0.1,0.2-0.7,0.2-1.1,0.2c-3.2,0.2-6.6,0.6-6.7-4.1c-1.3-0.1-2.7-0.3-4-0.6c-0.6-0.3-1.1-0.9-1.2-1.6
			c-0.1-0.4,0.6-1.3,1-1.3c3.2,0,3.1-2.5,3.5-4.5c1.2-5.2,2.1-10.4,3.4-15.5c0.7-2.5-0.2-3.8-2.1-5c-5-2.9-10.9-3.7-16.4-2.2
			c-4,1-7.7,2.6-10.5,6c2.8,2.9,2.8,2.9,7,1.7C98.5,72.4,100.6,74.2,103,74.6z"/>
		<path d="M134.4,69.8c0.6-0.3,1.1-0.5,1.8-0.7c1,3.1,2.2,5.6,5.9,5.7c3.8,0.1,5-2.6,6.1-5.7c3.2,0.7,6.5,4.6,9.2-0.7
			c-5.3-6.5-17.7-8.2-25.7-3.7c-2.9,1.6-4.7,0.8-5-2.6c-0.2-2.1,0.2-4.3-0.2-6.4c-0.5-1.1-1.4-1.8-2.6-2c-0.9,0-2.6,1.3-2.6,2
			c-0.3,3-0.2,6,0.3,9C122.7,71,129.3,73.4,134.4,69.8z"/>
		<path d="M123.3,109.4c-1.3,0.5-3.2,1-4.2,0.5c-4.2-2.3-7.8-0.5-11.6,0.9c-0.7,0.3-1.1,1.3-2,2.4h30.3
			C132.6,109.4,127,108.1,123.3,109.4z"/>
		<path d="M124.3,124.1c3.6-0.4,5.7-2.6,6.5-6H110C112.4,123.9,115.1,125.1,124.3,124.1z"/>
	</g>
</g>
<g id="partners" class="st0">
	<g>
		<g>
			<path class="st1" d="M360.3,96.5c4.9,0.9,9-0.9,11.9-5.1c0.7-1,1.4-2.1,2.3-3.4c2.1,5.2,5.4,8.5,10.9,8.6c6.3,0.1,10-3.4,12-9.4
				c1.9,5.9,5.6,9.4,11.7,9.4s9.7-3.6,11.6-9.4c1.6,5.4,4.8,8.8,10,9.3c6.8,0.8,11.1-2.7,13.2-9.2c2.8,6.3,6.1,9.1,10.6,9.3
				c6.6,0.3,10.6-3,12.7-9.4c1.9,5.9,5.6,9.4,11.7,9.4s9.7-3.6,11.6-9.4c1.6,5.4,4.8,8.7,10,9.4c6.4,0.8,10.5-2.5,12.8-8.5
				c0.9,1.3,1.6,2.4,2.4,3.6c3.8,5.3,11.1,6.5,16.4,2.8c5.3-3.8,6.5-11.1,2.8-16.4c-6.7-9.1-13.5-18-20.3-27.1
				c-0.5-0.7-1.4-1.1-2.2-1c-14.2,0-28.7,0-43.2,0h-1.7V38.4c0.5,0,1-0.1,1.5-0.1h10.4c6.3-0.1,11.4-5.2,11.4-11.5c0-4,0-8.1,0-12.1
				c0-6.3-5.1-11.5-11.5-11.5l0,0H409c-6.4,0-11.5,5.1-11.6,11.4v0.1c0,4,0,8,0,12c0,6.3,5.1,11.5,11.5,11.5l0,0h11.8V50h-1.8
				c-14.5,0-29,0-43.5,0c-0.7,0-1.4,0.2-1.9,0.7c-7,9.3-14,18.6-20.9,27.9c-1.9,2.6-2.5,5.8-1.6,8.9
				C352.1,92.5,355.3,95.7,360.3,96.5z M455.6,49.9h-23.1V38.4h23.1V49.9z"/>
			<path d="M520.4,172.5c-50.7,0-101.5,0-152.2,0c-7.1,0-12.2,3.4-15.6,9.5c-1.4,2.4-2,5.2-1.8,8h186.6c0-0.5,0-0.8,0-1.1
				C536.9,179.8,529.5,172.7,520.4,172.5z"/>
			<path class="st1" d="M374.1,166.6H514v-64H374.1V166.6z"/>
		</g>
		<path d="M360.3,96.5c4.9,0.9,9-0.9,11.9-5.1c0.7-1,1.4-2.1,2.3-3.4c2.1,5.2,5.4,8.5,10.9,8.6c6.3,0.1,10-3.4,12-9.4
			c1.9,5.9,5.6,9.4,11.7,9.4s9.7-3.6,11.6-9.4c1.6,5.4,4.8,8.8,10,9.3c6.8,0.8,11.1-2.7,13.2-9.2c2.8,6.3,6.1,9.1,10.6,9.3
			c6.6,0.3,10.6-3,12.7-9.4c1.9,5.9,5.6,9.4,11.7,9.4s9.7-3.6,11.6-9.4c1.6,5.4,4.8,8.7,10,9.4c6.4,0.8,10.5-2.5,12.8-8.5
			c0.9,1.3,1.6,2.4,2.4,3.6c3.8,5.3,11.1,6.5,16.4,2.8c5.3-3.8,6.5-11.1,2.8-16.4c-6.7-9.1-13.5-18-20.3-27.1
			c-0.5-0.7-1.4-1.1-2.2-1c-14.2,0-28.7,0-43.2,0h-1.7V38.4c0.5,0,1-0.1,1.5-0.1h10.4c6.3-0.1,11.4-5.2,11.4-11.5c0-4,0-8.1,0-12.1
			c0-6.3-5.1-11.5-11.5-11.5l0,0H409c-6.4,0-11.5,5.1-11.6,11.4v0.1c0,4,0,8,0,12c0,6.3,5.1,11.5,11.5,11.5l0,0h11.8V50h-1.8
			c-14.5,0-29,0-43.5,0c-0.7,0-1.4,0.2-1.9,0.7c-7,9.3-14,18.6-20.9,27.9c-1.9,2.6-2.5,5.8-1.6,8.9
			C352.1,92.5,355.3,95.7,360.3,96.5z M464.6,12.2H479v8.6h-11.6v5.8h-2.8V12.2z M455.6,49.9h-23.1V38.4h23.1V49.9z M444.1,12.2
			h14.4v14.3h-14.4V12.2z M426.7,12.2h2.8v5.7h5.8v-5.6h2.9v14.3h-2.8V21h-5.9v5.7h-2.8V12.2z M409.2,26.6v-2.8h8.5v-2.9h-8.6v-8.7
			h11.4v2.7H412v3h8.6v8.7C420.6,26.6,409.2,26.6,409.2,26.6z"/>
		<path d="M520.4,172.5c-50.7,0-101.5,0-152.2,0c-7.1,0-12.2,3.4-15.6,9.5c-1.4,2.4-2,5.2-1.8,8h186.6c0-0.5,0-0.8,0-1.1
			C536.9,179.8,529.5,172.7,520.4,172.5z"/>
		<path d="M447.1,23.7h8.6v-8.6h-8.6V23.7z"/>
		<path d="M476.1,15h-8.6v2.8h8.6V15z"/>
		<path d="M374.1,166.6H514v-64H374.1V166.6z M432.5,114.3h69.8v40.6h-69.8V114.3z M385.9,114.3h34.8v40.6h-34.8V114.3z"/>
		<path d="M397.4,125.8c-3.2,0-5.8,2.6-5.8,5.9c0,3.2,2.6,5.8,5.9,5.8c3.2,0,5.8-2.6,5.8-5.8c0.1-3.1-2.3-5.8-5.5-5.9
			C397.6,125.8,397.5,125.8,397.4,125.8z"/>
	</g>
</g>
<g id="collectors" class="st0">
	<g>
		<g>
			<path d="M676.3,58.5c6.7,5.2,14.3,9.3,22.4,12c13,4.1,26.5,5.1,43.8,5.3c3.9-0.3,11.5-0.8,19.2-1.7c14.2-1.6,27.3-6.5,39.4-13.9
				c2.4-1.2,3.3-4.2,2.1-6.6c0-0.1-0.1-0.2-0.1-0.2c-1.5-2.4-4.6-3.1-7-1.7l0,0c-1.6,0.9-3.2,1.7-4.8,2.6
				c-7.5,4.6-15.7,7.8-24.2,9.5c-13,2.7-26.4,3.6-39.6,2.5C716.6,65.6,706,64,696.2,59c-4.8-2.4-9.5-5.3-14.1-8.1
				c-2.5-1.5-5.1-1.3-6.8,0.8C673.7,53.9,674.1,56.9,676.3,58.5z"/>
			<path d="M703.1,52.9c2,0.8,4,1.5,6.1,2.1c11.2,3.1,22.7,3.7,34.3,3.3c10.3-0.2,20.6-1.9,30.5-5c1.2-0.4,1.7-0.8,1.6-2.2
				c-0.1-5.2,0-10.4,0-15.7s0-10.3,0-15.5c0-3.8-1.7-5.3-5.5-5.3h-47.8c-4.9,0-9.8,0-14.7,0c-3.2,0-5.6,2-5.6,4.9
				c0,10.6,0,21.2,0,31.8C702.1,52,702.5,52.6,703.1,52.9z"/>
			<path class="st1" d="M806.6,169.3c-7.3-10-17.1-17.1-28.2-22.4c-1.4-0.7-2.9-1.2-4.4-1.9c15.2-13.1,21.5-29.3,17.8-49.1l1.4-0.2
				c4.5-0.6,7.8-4.7,7.2-9.2c-0.5-4-3.8-7.1-7.9-7.3c-1.6-0.1-3.2-0.1-4.8,0c-2.6,0.3-4.6-0.3-5.7-2.9c-0.5-1.2-1.4-1.4-2.8-1.1
				c-14.8,3.3-29.8,5.7-45,5.2c-11.5-0.4-22.8-1.5-33.9-4.5c-3.4-0.9-3.5-1-5.4,2c-0.5,0.9-1.5,1.4-2.6,1.3
				c-2.4-0.1-4.7-0.1-7.1,0.1c-4.3,0.3-7.5,3.9-7.5,8.1c-0.1,4.1,2.9,7.7,7,8.3l1.5,0.2c-3.7,19.4,2.3,35.2,16.7,48.2l-6.2,3.1
				c-8.2,4-15.5,9.5-21.6,16.2c-3.2,3.6-6,7.4-6.7,12.3c-0.5,3.3-0.2,6.8-0.3,10.2c0,1.2,0.4,1.5,1.5,1.6c4.4,0.4,8.8,0.9,13.3,1.2
				c11.1,0.8,22.1,1.6,33.2,2.4c12.9,1,25.8,1.1,38.7,0.4c16-1.1,32.1-2.4,48.1-3.6c2.3-0.2,4.7-0.5,7.1-0.8c0-2.4-0.1-4.7,0-6.9
				C810.2,176.4,809,172.4,806.6,169.3z"/>
		</g>
		<path d="M745.8,102.3c-0.1,6.5,5,11.8,11.5,11.9c3.7,0.1,7.3-1.6,9.5-4.6c3-3.9,3.2-9.3,0.5-13.4c-2.8-4.4-8.1-6.3-13.1-4.9
			c-3,0.9-5.6,2.9-7.2,5.7c-5.5-2.5-11-2.1-16.5,0c-0.3,0.1-1.1-0.3-1.3-0.7c-1.9-3.1-5.2-5-8.9-5.3c-4.6-0.6-9,1.8-11.2,5.8
			c-3.2,5.6-1.2,12.7,4.4,15.9c2.3,1.3,5,1.8,7.7,1.4c5.7-0.9,9.5-5.5,9.8-11.5c0.1-0.7,0.4-1.3,1-1.7c3.8-1.8,8.2-2,12.2-0.6
			C745.3,100.3,746,101.3,745.8,102.3L745.8,102.3z M757.7,95.3c3.9,0,7.1,3.1,7.1,7c0,0.1,0,0.2,0,0.2c0,3.9-3.1,7-7,7
			c-4.1,0-7.3-4.1-7.3-8.1S753.8,95.3,757.7,95.3L757.7,95.3z M719.4,109.5c-4.1,0-7.2-4.1-7.2-8.2c0-3.8,3.2-6,6.9-6
			c3.9-0.1,7.2,3,7.3,6.9c0,0.1,0,0.2,0,0.3C726.5,106.5,723.3,109.6,719.4,109.5C719.5,109.5,719.4,109.5,719.4,109.5L719.4,109.5z
			"/>
		<path d="M676.3,58.5c6.7,5.2,14.3,9.3,22.4,12c13,4.1,26.5,5.1,43.8,5.3c3.9-0.3,11.5-0.8,19.2-1.7c14.2-1.6,27.3-6.5,39.4-13.9
			c2.4-1.2,3.3-4.2,2.1-6.6c0-0.1-0.1-0.2-0.1-0.2c-1.5-2.4-4.6-3.1-7-1.7l0,0c-1.6,0.9-3.2,1.7-4.8,2.6c-7.5,4.6-15.7,7.8-24.2,9.5
			c-13,2.7-26.4,3.6-39.6,2.5C716.6,65.6,706,64,696.2,59c-4.8-2.4-9.5-5.3-14.1-8.1c-2.5-1.5-5.1-1.3-6.8,0.8
			C673.7,53.9,674.1,56.9,676.3,58.5z"/>
		<path d="M703.1,52.9c2,0.8,4,1.5,6.1,2.1c11.2,3.1,22.7,3.7,34.3,3.3c10.3-0.2,20.6-1.9,30.5-5c1.2-0.4,1.7-0.8,1.6-2.2
			c-0.1-5.2,0-10.4,0-15.7s0-10.3,0-15.5c0-3.8-1.7-5.3-5.5-5.3h-47.8c-4.9,0-9.8,0-14.7,0c-3.2,0-5.6,2-5.6,4.9
			c0,10.6,0,21.2,0,31.8C702.1,52,702.5,52.6,703.1,52.9z"/>
		<path d="M776.6,117.9l-0.7-0.1c-1,0.6-1.9,1.3-2.9,1.9c-5.2,3-10.5,3.9-16.2,1.1c-1.2-0.6-2.4-1.2-3.6-1.6c-3.1-1-6.3-1.9-9.5-2.5
			c-2.8-0.5-3.9,0.8-3.9,3.7c0.2,11.2,9.7,18.8,20.6,16.2c7.5-1.8,13.2-6,15.7-13.6C776.7,121.4,776.5,119.6,776.6,117.9z"/>
		<path d="M732.7,116.8c-4.2,1.2-8.3,2.7-12.4,4.3c-2.8,1.2-5.9,1.5-8.8,1c-3.4-0.8-6.7-2.4-9.4-4.6c-0.8,2.5-0.6,5.1,0.6,7.4
			c2.1,4.4,5.7,7.9,10.2,9.9c11.1,5.1,23.1,1.1,25.3-13C738.8,117.4,737.1,115.7,732.7,116.8z"/>
		<path d="M806.6,169.3c-7.3-10-17.1-17.1-28.2-22.4c-1.4-0.7-2.9-1.2-4.4-1.9c15.2-13.1,21.5-29.3,17.8-49.1l1.4-0.2
			c4.5-0.6,7.8-4.7,7.2-9.2c-0.5-4-3.8-7.1-7.9-7.3c-1.6-0.1-3.2-0.1-4.8,0c-2.6,0.3-4.6-0.3-5.7-2.9c-0.5-1.2-1.4-1.4-2.8-1.1
			c-14.8,3.3-29.8,5.7-45,5.2c-11.5-0.4-22.8-1.5-33.9-4.5c-3.4-0.9-3.5-1-5.4,2c-0.5,0.9-1.5,1.4-2.6,1.3c-2.4-0.1-4.7-0.1-7.1,0.1
			c-4.3,0.3-7.5,3.9-7.5,8.1c-0.1,4.1,2.9,7.7,7,8.3l1.5,0.2c-3.7,19.4,2.3,35.2,16.7,48.2l-6.2,3.1c-8.2,4-15.5,9.5-21.6,16.2
			c-3.2,3.6-6,7.4-6.7,12.3c-0.5,3.3-0.2,6.8-0.3,10.2c0,1.2,0.4,1.5,1.5,1.6c4.4,0.4,8.8,0.9,13.3,1.2c11.1,0.8,22.1,1.6,33.2,2.4
			c12.9,1,25.8,1.1,38.7,0.4c16-1.1,32.1-2.4,48.1-3.6c2.3-0.2,4.7-0.5,7.1-0.8c0-2.4-0.1-4.7,0-6.9
			C810.2,176.4,809,172.4,806.6,169.3z M726.9,181.1l-7.3-27.3l2.2,0.6c2.1,0.6,4.2,1.1,6.4,1.6c3,0.7,5.6,2.3,8.5,5.5
			C731.3,166.9,728.7,173.7,726.9,181.1z M749.8,179.1l-0.4,0.1c-1.5-6.6-3.6-12.9-8.6-17.7c3.3-3.6,8.9-6.1,15.3-6.8L749.8,179.1z
			 M736.4,150.6c-15-0.4-28.8-7.9-37.3-20.2c-7.5-10.5-9.3-22.2-6.2-34.7c1-4.1,1.5-8.3,3.8-12c0.8-1.3,1.5-1.7,3.1-1.3
			c18.6,4.6,37.9,5.6,56.9,3.2c7.3-1,14.6-2.4,21.9-3.7c0.8-0.3,1.6,0.1,2,0.8c0.6,0.8,1,1.7,1.4,2.6c2.4,6.9,4.5,14,4.3,21.3
			c-0.3,16.9-8.6,29.3-23,37.7C755.9,148.8,747.5,150.7,736.4,150.6L736.4,150.6z"/>
	</g>
</g>
</svg>
