<?xml version="1.0" encoding="utf-8"?>
<!-- Generator: Adobe Illustrator 21.1.0, SVG Export Plug-In . SVG Version: 6.00 Build 0)  -->
<svg version="1.1" id="Layer_1" xmlns="http://www.w3.org/2000/svg" xmlns:xlink="http://www.w3.org/1999/xlink" x="0px" y="0px"
	 viewBox="0 0 350 250" style="enable-background:new 0 0 350 250;" xml:space="preserve">
<style type="text/css">
	.st0{fill:#FFFFFF;}
</style>
<title>Alternative_Currency</title>
<g>
	<path class="st0" d="M22.2,50.3H6.7l-3.5,9.5H1.8L13.7,28h1.4l11.9,31.8h-1.3L22.2,50.3z M7.1,49.1h14.7l-7.3-19.7L7.1,49.1z"/>
	<path class="st0" d="M33.4,58.6h16.3v1.2H32.2V28h1.2L33.4,58.6z"/>
	<path class="st0" d="M70.3,29.2H58.8v30.6h-1.2V29.2H46.1V28h24.3V29.2z"/>
	<path class="st0" d="M93,44H77.1v14.6h18.1v1.2H75.9V28h19.3v1.2H77.1v13.6H93V44z"/>
	<path class="st0" d="M113.4,46.2h-11v13.6h-1.2V28h10.1c3.2,0,5.7,0.8,7.6,2.5c1.9,1.7,2.9,4.1,2.8,6.7c0,2.1-0.7,4.1-2,5.7
		c-1.3,1.6-3.1,2.7-5.1,3l8.5,13.6v0.3h-1.2L113.4,46.2z M102.4,45h10c2.2,0.1,4.3-0.7,5.9-2.2c1.5-1.5,2.3-3.5,2.3-5.6
		c0.1-2.2-0.8-4.4-2.5-5.8c-1.7-1.4-4-2.1-6.9-2.1h-8.8V45z"/>
	<path class="st0" d="M153.4,59.8h-1.2l-20.5-29.7v29.7h-1.2V28h1.2l20.5,29.7V28h1.2L153.4,59.8z"/>
	<path class="st0" d="M179.3,50.3h-15.6l-3.5,9.5h-1.3L170.8,28h1.4l11.9,31.8h-1.3L179.3,50.3z M164.2,49.1h14.7l-7.3-19.7
		L164.2,49.1z"/>
	<path class="st0" d="M207.5,29.2H196v30.6h-1.2V29.2h-11.6V28h24.3L207.5,29.2z"/>
	<path class="st0" d="M215.2,59.8H214V28h1.2V59.8z"/>
	<path class="st0" d="M233.1,56.7l0.6,1.9l0.6-1.9L245,28h1.3l-11.9,31.8H233L221.2,28h1.3L233.1,56.7z"/>
	<path class="st0" d="M268.5,44h-15.9v14.6h18.1v1.2h-19.3V28h19.3v1.2h-18.1v13.6h15.9V44z"/>
	<path class="st0" d="M27.1,103.6c-0.3,3.3-1.4,5.8-3.4,7.5c-2,1.7-4.6,2.6-7.9,2.6c-2.1,0-4.2-0.6-6-1.7c-1.8-1.2-3.2-2.9-4-4.9
		c-1-2.3-1.5-4.7-1.5-7.2v-4.9c0-2.5,0.4-5,1.4-7.2c0.8-2,2.2-3.7,4-4.9c1.8-1.2,3.9-1.8,6-1.7c3.3,0,6,0.9,7.9,2.6
		c2,1.7,3.1,4.2,3.4,7.5h-1.1c-0.3-2.9-1.4-5.1-3.1-6.7c-1.7-1.5-4.1-2.3-7.1-2.3c-2.9-0.1-5.7,1.2-7.5,3.5
		c-1.9,2.3-2.9,5.5-2.9,9.4v4.7c0,2.3,0.4,4.5,1.3,6.6c0.8,1.8,2,3.4,3.6,4.5c1.6,1.1,3.5,1.6,5.4,1.6c3,0,5.4-0.7,7.1-2.2
		c1.7-1.5,2.7-3.7,3-6.7L27.1,103.6z"/>
	<path class="st0" d="M55.8,81.6v21.5c0,3.4-1,6-2.9,7.9c-1.9,1.9-4.6,2.8-7.9,2.8c-3.3,0-6-0.9-7.9-2.8c-1.9-1.9-2.9-4.5-2.9-7.8
		V81.6h1.2V103c-0.1,2.6,0.8,5.2,2.7,7c1.9,1.8,4.4,2.7,7,2.6c2.6,0.1,5.1-0.8,7-2.6c1.8-1.9,2.8-4.4,2.6-7V81.6L55.8,81.6z"/>
	<path class="st0" d="M76.3,99.8h-11v13.6h-1.2V81.6h10.1c3.2,0,5.7,0.8,7.6,2.5c1.9,1.7,2.9,4.1,2.8,6.7c0,2.1-0.7,4.1-2,5.7
		c-1.3,1.6-3.1,2.7-5.1,3l8.5,13.6v0.3h-1.2L76.3,99.8z M65.3,98.6h10c2.2,0.1,4.3-0.7,5.9-2.2c1.5-1.5,2.3-3.5,2.3-5.6
		c0.1-2.2-0.8-4.4-2.5-5.9c-1.7-1.4-4-2.1-6.9-2.1h-8.8V98.6z"/>
	<path class="st0" d="M105.5,99.8h-11v13.6h-1.2V81.6h10.1c3.2,0,5.7,0.8,7.6,2.5c1.9,1.7,2.9,4.1,2.8,6.7c0,2.1-0.7,4.1-2,5.7
		c-1.3,1.6-3.1,2.7-5.1,3l8.5,13.6v0.3h-1.2L105.5,99.8z M94.5,98.6h10c2.2,0.1,4.3-0.7,5.9-2.2c1.5-1.5,2.3-3.5,2.3-5.6
		c0.1-2.2-0.8-4.4-2.5-5.9c-1.7-1.4-4-2.1-6.9-2.1h-8.8V98.6z"/>
	<path class="st0" d="M139.7,97.6h-15.9v14.6H142v1.2h-19.3V81.6H142v1.2h-18.1v13.6h15.9L139.7,97.6z"/>
	<path class="st0" d="M171,113.4h-1.2l-20.5-29.7v29.7h-1.2V81.6h1.2l20.5,29.7V81.6h1.2V113.4z"/>
	<path class="st0" d="M201.3,103.6c-0.3,3.3-1.4,5.8-3.4,7.5s-4.6,2.6-7.9,2.6c-2.1,0-4.2-0.6-6-1.7c-1.8-1.2-3.2-2.9-4-4.9
		c-1-2.3-1.5-4.7-1.4-7.2v-4.9c0-2.5,0.4-5,1.4-7.2c0.8-2,2.2-3.7,4-4.9c1.8-1.2,3.9-1.8,6-1.7c3.3,0,6,0.9,7.9,2.6
		c2,1.7,3.1,4.2,3.4,7.5h-1.2c-0.3-2.9-1.4-5.1-3.1-6.7c-1.7-1.5-4.1-2.3-7.1-2.3c-2.9-0.1-5.7,1.2-7.5,3.5
		c-1.9,2.3-2.8,5.4-2.8,9.4v4.7c0,2.3,0.4,4.5,1.3,6.6c0.8,1.8,2,3.4,3.6,4.5c1.6,1.1,3.5,1.6,5.4,1.6c3,0,5.4-0.7,7.1-2.2
		s2.7-3.7,3-6.7L201.3,103.6z"/>
	<path class="st0" d="M217.5,100.2l11.1-18.6h1.4l-12,19.7v12.1h-1.2v-12.1l-12-19.7h1.6L217.5,100.2z"/>
	<path class="st0" d="M7.2,135.2l13.1,30l13.1-30H35V167h-1.2v-30l-13.2,30h-0.9L6.7,137.1V167H5.5v-31.8H7.2z"/>
	<path class="st0" d="M60.9,157.5H45.3l-3.5,9.5h-1.3l11.9-31.8h1.4L65.7,167h-1.3L60.9,157.5z M45.8,156.3h14.7l-7.3-19.7
		L45.8,156.3z"/>
	<path class="st0" d="M70.8,167v-31.8h8.8c2.3,0,4.6,0.6,6.7,1.7c2,1.2,3.6,2.9,4.7,4.9c1.1,2.2,1.7,4.6,1.7,7.1v4.1
		c0,2.5-0.5,4.9-1.7,7.2c-1.1,2.1-2.7,3.8-4.7,5c-2,1.2-4.3,1.8-6.7,1.8L70.8,167z M72,136.4v29.4h7.6c2.1,0,4.2-0.5,6.1-1.6
		c1.8-1.1,3.3-2.7,4.3-4.5c1-2,1.6-4.2,1.6-6.5v-4.1c0-2.2-0.5-4.5-1.5-6.5c-1-1.9-2.4-3.5-4.2-4.5c-1.8-1.1-3.9-1.7-6-1.7L72,136.4
		z"/>
	<path class="st0" d="M117.2,151.2h-15.9v14.6h18.1v1.2h-19.3v-31.8h19.3v1.2h-18.1V150h15.9L117.2,151.2z"/>
	<path class="st0" d="M158.7,153.4c0,2.5-0.5,5-1.5,7.3c-0.9,2-2.3,3.7-4.2,4.9c-1.9,1.2-4.1,1.8-6.3,1.7c-3.3,0.1-6.5-1.3-8.7-3.8
		c-2.2-2.5-3.3-6-3.3-10.3v-4.6c0-2.5,0.5-5,1.5-7.3c0.9-2,2.4-3.7,4.2-4.9c3.9-2.3,8.7-2.3,12.6,0c1.9,1.2,3.3,2.9,4.2,4.9
		c1,2.3,1.5,4.8,1.5,7.3L158.7,153.4z M157.5,148.6c0-3.8-1-6.9-2.9-9.2c-4-4.3-10.7-4.6-15-0.7c-0.2,0.2-0.5,0.4-0.7,0.7
		c-1.9,2.3-2.9,5.4-2.9,9.4v4.6c0,2.3,0.4,4.6,1.3,6.7c0.8,1.8,2.1,3.4,3.8,4.5c1.7,1.1,3.7,1.6,5.7,1.6c3,0.1,5.9-1.1,7.9-3.4
		c1.9-2.3,2.9-5.4,2.9-9.4L157.5,148.6z"/>
	<path class="st0" d="M183.4,151.3h-16.3V167h-1.2v-31.8h19.7v1.2h-18.5v13.7h16.3L183.4,151.3z"/>
	<path class="st0" d="M28,207.1c0,2.5-0.5,5-1.5,7.3c-0.9,2-2.3,3.7-4.2,4.9c-1.9,1.2-4.1,1.8-6.3,1.7c-3.3,0.1-6.5-1.3-8.7-3.8
		c-2.2-2.5-3.3-6-3.3-10.3v-4.6c0-2.5,0.5-5,1.5-7.3c0.9-2,2.4-3.7,4.2-4.9c1.9-1.2,4.1-1.8,6.3-1.7c2.2,0,4.4,0.5,6.3,1.7
		c1.9,1.2,3.3,2.9,4.2,4.9c1,2.3,1.5,4.7,1.5,7.2V207.1z M26.8,202.3c0-3.8-1-6.9-2.9-9.2c-1.9-2.3-4.9-3.6-7.9-3.5
		c-3-0.1-5.9,1.1-7.8,3.4c-1.9,2.3-2.9,5.4-2.9,9.4v4.6c0,2.3,0.4,4.6,1.3,6.7c0.8,1.8,2.1,3.4,3.8,4.5c1.7,1.1,3.7,1.6,5.7,1.6
		c3,0.1,5.9-1.1,7.9-3.4c1.9-2.3,2.9-5.4,2.9-9.4L26.8,202.3z"/>
	<path class="st0" d="M47.3,207h-11v13.6h-1.2v-31.8h10.1c3.2,0,5.7,0.8,7.6,2.5c1.9,1.7,2.9,4.1,2.8,6.7c0,2.1-0.7,4.1-2,5.7
		c-1.3,1.6-3.1,2.7-5.1,3l8.5,13.6v0.3h-1.3L47.3,207z M36.3,205.8h10c2.2,0.1,4.3-0.7,5.9-2.2c1.5-1.5,2.3-3.5,2.3-5.6
		c0.1-2.2-0.8-4.4-2.5-5.8c-1.7-1.4-4-2.1-6.9-2.1h-8.8L36.3,205.8z"/>
	<path class="st0" d="M66.5,220.6h-1.2v-31.8h1.2L66.5,220.6z"/>
	<path class="st0" d="M98.5,217.2c-1.1,1.3-2.6,2.3-4.2,2.8c-2.1,0.7-4.4,1.1-6.6,1.1c-4.5,0.1-8.7-2.5-10.6-6.6
		c-1.1-2.2-1.6-4.6-1.6-7.1v-5.4c0-2.4,0.5-4.8,1.5-7c0.9-2,2.4-3.6,4.2-4.8c1.8-1.1,4-1.7,6.1-1.7c2.8-0.1,5.5,0.7,7.7,2.4
		c2,1.6,3.2,4,3.4,6.6h-1.2c-0.3-2.3-1.4-4.4-3.2-5.8c-2-1.4-4.4-2.2-6.9-2c-3-0.1-5.8,1.2-7.7,3.4c-2,2.3-2.9,5.3-2.9,9v5.1
		c0,2.3,0.4,4.6,1.4,6.6c1.7,3.8,5.5,6.3,9.7,6.2c2,0,4-0.3,5.9-0.9c1.4-0.4,2.7-1.2,3.8-2.3v-9.3h-9.7v-1.2h10.9V217.2z"/>
	<path class="st0" d="M108.8,220.6h-1.2v-31.8h1.2V220.6z"/>
	<path class="st0" d="M141.3,220.6h-1.2l-20.5-29.7v29.7h-1.2v-31.8h1.2l20.5,29.7v-29.7h1.2V220.6z"/>
	<path class="st0" d="M167.1,211.1h-15.6l-3.5,9.5h-1.3l11.9-31.8h1.4l11.9,31.8h-1.3L167.1,211.1z M152,209.9h14.7l-7.3-19.7
		L152,209.9z"/>
	<path class="st0" d="M178.3,219.4h16.3v1.2h-17.5v-31.8h1.2L178.3,219.4z"/>
	<path class="st0" d="M227.5,211.1H212l-3.5,9.5h-1.3l11.9-31.8h1.4l11.9,31.8h-1.3L227.5,211.1z M212.4,209.9h14.7l-7.3-19.7
		L212.4,209.9z"/>
	<path class="st0" d="M249.6,207h-11v13.6h-1.2v-31.8h10.1c3.2,0,5.7,0.8,7.6,2.5c1.9,1.7,2.9,4.1,2.8,6.7c0,2.1-0.7,4.1-2,5.7
		c-1.3,1.6-3.1,2.7-5.1,3l8.5,13.6v0.3H258L249.6,207z M238.6,205.8h10c2.2,0.1,4.3-0.7,5.9-2.2c1.5-1.5,2.3-3.5,2.3-5.6
		c0.1-2.2-0.8-4.4-2.5-5.8c-1.7-1.4-4-2.1-6.9-2.1h-8.8L238.6,205.8z"/>
	<path class="st0" d="M286.1,190h-11.6v30.6h-1.2V190h-11.6v-1.2h24.3V190z"/>
</g>
</svg>
