<svg id="Layer_1" data-name="Layer 1" xmlns="http://www.w3.org/2000/svg" viewBox="0 0 809.18 270.68">
  <defs>
    <style>
      .cls-1 {
        fill: #fff;
      }
    </style>
  </defs>
  <title>Artists_Partners_Collectors_icons2</title>
  <g>
    <path class="cls-1" d="M95.32-191.22c-10.54,4.11-14.73,14.56-9.74,26.62,1.32,3.19,2.94,6.46,3.29,9.81,1.2,11.38,6.41,16.06,16.93,15,3,7.12,6.55,13.91,8.46,21.15,1,3.79-.49,8.51-1.86,12.47-.37,1.07-4.38,1.06-6.75,1.22-20.59,1.46-36.41,10.43-45.77,29.29C54-63.83,48.34-51.83,42.76-39.8c-2.82,6.09-5.23,12.37-8.33,19.74H191.5c-2.19,5.95-4.27,11.29-6.05,16.73-.38,1.15.36,2.66.58,4,1.13-.7,2.72-1.14,3.31-2.15C192.09-6.2,194.76-11,197.1-16c1.46-3.08,3.3-4.22,6.82-4.19,25.49.17,51,.09,76.47.09h6.4c-1.26-3.6-2.08-6.59-3.31-9.39C276.93-44.3,270.09-59,263.7-74a48.19,48.19,0,0,0-21.3-23.65c-3.51-2-3.81-3.6-2.37-6.95,6.92-16.13,13.61-32.35,20.47-48.51a11.3,11.3,0,0,1,2.79-4c8.26-7.26,10.94-16.15,8.31-26.76-7,.9-14.11,8.92-15.63,17.41-.69,3.86-.76,8.06-2.4,11.5-6.7,14.05-13.9,27.87-20.92,41.77-4.5,8.92-4.51,8.92-14.34,8a3.21,3.21,0,0,1-.94-.46,24.22,24.22,0,0,1-1-3.73c-.52-4.76-1.88-9.71-1.09-14.26.88-5.07,3.67-9.83,5.89-14.61.36-.77,2.09-1.39,3.12-1.3,7.1.63,13.08-4,14.68-11.16a113.13,113.13,0,0,1,4.42-15.11c3.43-9.11,1.23-17.55-6.27-23.67a6.7,6.7,0,0,1-2.14-4.82A62.87,62.87,0,0,0,230.22-222c-12.5-29.94-47.18-48-78.92-40.58-24.47,5.7-43.06,19.24-51.6,43.56C96.78-210.63,96.81-201.25,95.32-191.22Z" transform="translate(-34.43 270)"/>
    <path d="M95.32-191.22c1.49-10,1.45-19.41,4.38-27.76,8.53-24.32,27.13-37.86,51.6-43.56,31.74-7.39,66.41,10.64,78.92,40.58A62.87,62.87,0,0,1,235-194.22a6.7,6.7,0,0,0,2.14,4.82c7.51,6.12,9.7,14.56,6.27,23.67A113.13,113.13,0,0,0,239-150.62c-1.59,7.12-7.58,11.79-14.68,11.16-1-.09-2.76.52-3.12,1.3-2.22,4.78-5,9.54-5.89,14.61-.79,4.56.57,9.5,1.09,14.26a24.22,24.22,0,0,0,1,3.73,3.21,3.21,0,0,0,.94.46c9.83.9,9.83.9,14.34-8,7-13.9,14.22-27.72,20.92-41.77,1.64-3.43,1.71-7.63,2.4-11.5,1.52-8.5,8.62-16.51,15.63-17.41,2.63,10.61-.05,19.5-8.31,26.76a11.3,11.3,0,0,0-2.79,4c-6.85,16.16-13.55,32.38-20.47,48.51-1.44,3.35-1.14,5,2.37,6.95A48.19,48.19,0,0,1,263.7-74c6.4,14.92,13.23,29.66,19.79,44.52,1.24,2.8,2.06,5.79,3.31,9.39h-6.4c-25.49,0-51,.08-76.47-.09-3.52,0-5.36,1.12-6.82,4.19-2.35,4.94-5,9.75-7.77,14.47-.59,1-2.18,1.45-3.31,2.15-.22-1.34-1-2.85-.58-4,1.78-5.44,3.86-10.78,6.05-16.73H34.43c3.09-7.37,5.51-13.65,8.33-19.74,5.58-12,11.23-24,17.12-35.91,9.36-18.86,25.18-27.83,45.77-29.29,2.36-.17,6.38-.16,6.75-1.22,1.37-4,2.86-8.68,1.86-12.47-1.91-7.24-5.51-14-8.46-21.15-10.52,1.1-15.73-3.58-16.93-15-.35-3.35-2-6.62-3.29-9.81C80.59-176.66,84.78-187.12,95.32-191.22Zm118.3,17.8c.53-6.51,2-12.34,7.29-14.72,7-3.14,7.09-8.43,6.46-14.32A58,58,0,0,0,225-214.68c-12.77-38.11-59.67-54.28-93.59-32.17-20.26,13.2-31,31.25-26.63,56.22,2.23,12.78,4.36,25.6,7.12,38.27,2,9.38,4.22,18.88,7.84,27.71,3.12,7.61,8.36,14.36,12.66,21.48a12.51,12.51,0,0,0,11.63,6.38c8.5-.08,17,0,25.49,0a19,19,0,0,0,13.94-5.66c7.47-7.37,15.36-14.36,22.33-22.17,6.46-7.25,11.45-15.51,7.92-26.09a11.18,11.18,0,0,1,0-3.13h7l-.82,1.17c2.35,1.9,4.7,5.34,7.06,5.35,3.89,0,4.13-4.23,4.85-7.58a72.14,72.14,0,0,1,3.72-11.77c2-4.91,2.71-9.66-.52-14.23-3.1-4.38-8.21-4.55-11.23-.22-1.57,2.25-2.39,5-3.62,7.71ZM44.64-27.11h121c12.87,0,12.79,0,12.27-12.8-.12-3-1-4.17-4.09-4-4.65.2-9.32,0-14,0q-51.43,0-102.86.07c-1.75,0-4.39.55-5.09,1.74C49.35-37.71,47.41-33,44.64-27.11ZM213-71.22c-6.48,0-12.45-.09-18.42.08a4.49,4.49,0,0,0-3.16,1.82c-8.14,13-7.22,27.39-6.22,42.2h39.3c11,0,10.5,0,11.19-11a52.23,52.23,0,0,0-8.24-32.3c-4.73,3.08-6,7.16-3.68,12.53H197.94c1.06-4.08,2.75-6.16,6.76-6C209.09-63.64,211.77-66.05,213-71.22ZM59.37-57.78a13.17,13.17,0,0,0,2.27.6q56.9,0,113.81,0c1.29,0,3.25-.69,3.76-1.65,2-3.74,3.47-7.72,5.19-11.71a10.92,10.92,0,0,0-2.14-.63q-56.9-.06-113.81,0a4.7,4.7,0,0,0-3.54,1.83C62.93-65.79,61.34-62,59.37-57.78ZM208-116.5c-5,5.14-9.39,9.17-13.24,13.65-8.62,10-19.07,15-32.52,13.65-5.76-.59-11.64-.15-17.46-.09-8.53.09-15.12-3.13-19.31-10.83-1.26-2.31-2.94-4.38-5-7.38L116.58-85h95.76Zm68.84,89.34c-2.65-5.81-4.78-10.74-7.19-15.54-.36-.72-2-1.13-3-1.15-7.14-.1-14.29-.16-21.43.08-1.08,0-2.92,1.64-3,2.65a70.94,70.94,0,0,0,0,11.44,3.42,3.42,0,0,0,2.28,2.41C254.88-27.1,265.29-27.16,276.88-27.16ZM111.2-97.25c-12.63-2.31-31.75,4.84-35.34,13.09,10.07,0,20,.07,30-.09,1.18,0,3.12-1.05,3.37-2C110.15-89.82,110.58-93.57,111.2-97.25Zm152,40.1c-2.12-4.82-3.75-8.74-5.6-12.56a3.15,3.15,0,0,0-2.32-1.46c-6.41-.12-12.82-.07-20.35-.07,2.15,4.9,3.78,8.83,5.64,12.65A3.17,3.17,0,0,0,243-57.21C249.38-57.1,255.8-57.15,263.21-57.15ZM97.87-184c-6.52,2.47-8.62,8.62-6.05,15.63,1.85,5.06,3,10.37,4.8,15.47a14.82,14.82,0,0,0,3.25,5.31c.62.64,2.59.54,3.61.06.69-.32,1.24-2,1.06-2.91C102.4-161.58,100.12-172.73,97.87-184ZM235.35-93.9l-3.89,8.8h14.82l.41-1.11ZM217.9-98.15l1.48,10.76h1.19L225-97.14Z" transform="translate(-34.43 270)"/>
    <path class="cls-1" d="M213.62-173.43h6.55c1.23-2.69,2.05-5.46,3.62-7.71,3-4.33,8.13-4.16,11.23.22,3.23,4.58,2.5,9.33.52,14.23a72.14,72.14,0,0,0-3.72,11.77c-.71,3.35-1,7.6-4.85,7.58-2.36,0-4.71-3.45-7.06-5.35l.82-1.17h-7a11.18,11.18,0,0,0,0,3.13c3.53,10.58-1.46,18.84-7.92,26.09-7,7.81-14.86,14.8-22.33,22.17a19,19,0,0,1-13.94,5.66c-8.5,0-17-.07-25.49,0a12.51,12.51,0,0,1-11.63-6.38c-4.31-7.13-9.54-13.87-12.66-21.48-3.62-8.83-5.8-18.33-7.84-27.71-2.76-12.67-4.89-25.49-7.12-38.27-4.37-25,6.36-43,26.63-56.22,33.93-22.11,80.82-5.93,93.59,32.17a58,58,0,0,1,2.33,12.21c.63,5.89.58,11.19-6.46,14.32C215.59-185.77,214.15-179.94,213.62-173.43Zm-40.86,28.64c2.77,6.15,5.95,12.45,8.4,19,1.14,3,3.08,3.59,5.25,2.79,1.14-.42,2.27-2.82,2.17-4.23a16.92,16.92,0,0,0-2.09-7.61c-5-8-10.24-15.91-15.8-23.55-2.17-3-5.8-3.44-9.61-2.3V-155c1.78,1.14,3.23,2,4.57,3,.12.09-.38,1.54-.69,1.59-4.17.55-7.4,2.33-9.13,6.37-.11.25-.93.25-1.42.28-4.26.25-8.67.75-8.82-5.35a31.65,31.65,0,0,1-5.25-.74,3.14,3.14,0,0,1-1.61-2.12c-.11-.49.84-1.73,1.3-1.73,4.18,0,4-3.28,4.64-5.88,1.55-6.8,2.74-13.7,4.5-20.45.85-3.25-.21-5.07-2.77-6.58a27.8,27.8,0,0,0-21.65-2.85c-5.32,1.33-10.17,3.5-13.8,7.86,3.7,3.79,3.7,3.79,9.22,2.23,4.28,2.32,7.06,4.79,10.17,5.3,5.27.86,6.35-4,8.55-8,1.17,1.52,2.07,3.12,1.87,4.56a94.14,94.14,0,0,1-2.28,10.21c-.57,2.23-.62,5.29-2.11,6.47-6.93,5.54-9.35,13.51-12.32,21.19-.9,2.32-.9,5-1.31,7.47,6.86,1.19,6.76,1.17,8.29-4.39.72-2.6,1.88-5.08,2.81-7.54,7.29,1.7,10.76,8.55,18.84,8.31S164-143.73,172.77-144.79Zm29.2-37.5c-7-8.49-23.33-10.79-33.88-4.83-3.79,2.14-6.12,1-6.58-3.37-.29-2.8.24-5.71-.28-8.43a4.45,4.45,0,0,0-3.43-2.65c-1.22,0-3.37,1.64-3.45,2.69A45.75,45.75,0,0,0,154.7-187c1.59,8.19,10.26,11.36,17,6.58a10.36,10.36,0,0,1,2.32-.87c1.34,4,2.92,7.34,7.72,7.44,5.07.11,6.66-3.4,8-7.48C194-180.4,198.32-175.34,202-182.29Zm-28.42,59c-4.13-5-11.55-6.79-16.45-5-1.72.63-4.15,1.38-5.48.65-5.49-3-10.33-.63-15.25,1.19-.91.34-1.46,1.66-2.67,3.14Zm-6.47,6.38H139.64c3.19,7.73,6.7,9.21,18.83,7.93C163.24-109.46,166-112.31,167.07-116.89Z" transform="translate(-34.43 270)"/>
    <path class="cls-1" d="M44.64-27.11c2.77-5.84,4.71-10.6,7.29-15,.7-1.19,3.34-1.73,5.09-1.74q51.43-.15,102.86-.07c4.66,0,9.33.15,14,0,3.08-.13,4,1.07,4.09,4,.52,12.8.6,12.8-12.27,12.8h-121Z" transform="translate(-34.43 270)"/>
    <path class="cls-1" d="M213-71.22c-1.24,5.17-3.93,7.59-8.32,7.38-4-.19-5.69,1.9-6.76,6h25.84c-2.33-5.37-1-9.46,3.68-12.53a52.23,52.23,0,0,1,8.24,32.3c-.69,10.94-.15,11-11.19,11h-39.3c-1-14.81-1.92-29.16,6.22-42.2a4.49,4.49,0,0,1,3.16-1.82C200.56-71.32,206.54-71.22,213-71.22Z" transform="translate(-34.43 270)"/>
    <path class="cls-1" d="M59.37-57.78c2-4.21,3.55-8,5.55-11.59a4.7,4.7,0,0,1,3.54-1.83q56.9-.11,113.81,0a10.92,10.92,0,0,1,2.14.63c-1.72,4-3.23,8-5.19,11.71-.51,1-2.47,1.65-3.76,1.65q-56.9.11-113.81,0A13.17,13.17,0,0,1,59.37-57.78Z" transform="translate(-34.43 270)"/>
    <path class="cls-1" d="M208-116.5,212.34-85H116.58l3.93-22.46c2.05,3,3.74,5.08,5,7.38,4.19,7.7,10.78,10.92,19.31,10.83,5.82-.06,11.69-.5,17.46.09,13.45,1.37,23.91-3.62,32.52-13.65C198.64-107.33,203-111.36,208-116.5Z" transform="translate(-34.43 270)"/>
    <path class="cls-1" d="M276.88-27.16c-11.59,0-22,.06-32.4-.11a3.42,3.42,0,0,1-2.28-2.41,70.94,70.94,0,0,1,0-11.44c.1-1,1.93-2.62,3-2.65,7.14-.24,14.28-.17,21.43-.08,1,0,2.65.43,3,1.15C272.09-37.9,274.23-33,276.88-27.16Z" transform="translate(-34.43 270)"/>
    <path class="cls-1" d="M111.2-97.25c-.62,3.68-1,7.42-2,11-.25.92-2.19,2-3.37,2-9.95.16-19.9.09-30,.09C79.44-92.41,98.57-99.55,111.2-97.25Z" transform="translate(-34.43 270)"/>
    <path class="cls-1" d="M263.21-57.15c-7.41,0-13.84.05-20.26-.06a3.17,3.17,0,0,1-2.38-1.37c-1.85-3.82-3.49-7.75-5.64-12.65,7.53,0,13.94-.05,20.35.07a3.15,3.15,0,0,1,2.32,1.46C259.46-65.89,261.1-62,263.21-57.15Z" transform="translate(-34.43 270)"/>
    <path class="cls-1" d="M97.87-184c2.25,11.22,4.53,22.38,6.67,33.57.17.92-.38,2.58-1.06,2.91-1,.48-3,.59-3.61-.06a14.82,14.82,0,0,1-3.25-5.31c-1.75-5.11-2.95-10.41-4.8-15.47C89.25-175.34,91.35-181.48,97.87-184Z" transform="translate(-34.43 270)"/>
    <path class="cls-1" d="M235.35-93.9l11.34,7.69-.41,1.11H231.46Z" transform="translate(-34.43 270)"/>
    <path class="cls-1" d="M217.9-98.15l7.1,1-4.44,9.75h-1.19Z" transform="translate(-34.43 270)"/>
    <path d="M172.77-144.79c-8.8,1.06-12,8.75-20.08,9s-11.55-6.61-18.84-8.31c-.93,2.46-2.09,4.94-2.81,7.54-1.53,5.55-1.44,5.58-8.29,4.39.41-2.48.41-5.15,1.31-7.47,3-7.68,5.39-15.65,12.32-21.19,1.48-1.19,1.54-4.24,2.11-6.47a94.14,94.14,0,0,0,2.28-10.21c.2-1.45-.7-3-1.87-4.56-2.2,4-3.28,8.86-8.55,8-3.1-.51-5.89-3-10.17-5.3-5.52,1.56-5.52,1.56-9.22-2.23,3.62-4.36,8.47-6.52,13.8-7.86a27.8,27.8,0,0,1,21.65,2.85c2.56,1.51,3.62,3.32,2.77,6.58-1.76,6.75-3,13.64-4.5,20.45-.59,2.6-.46,5.92-4.64,5.88-.46,0-1.41,1.24-1.3,1.73a3.14,3.14,0,0,0,1.61,2.12,31.65,31.65,0,0,0,5.25.74c.15,6.1,4.57,5.6,8.82,5.35.49,0,1.31,0,1.42-.28,1.73-4,5-5.83,9.13-6.37.31,0,.81-1.5.69-1.59-1.34-1-2.78-1.87-4.57-3v-5.64c3.81-1.14,7.43-.68,9.61,2.3,5.56,7.64,10.77,15.55,15.8,23.55a16.92,16.92,0,0,1,2.09,7.61c.1,1.42-1,3.82-2.17,4.23-2.17.79-4.11.26-5.25-2.79C178.71-132.34,175.53-138.64,172.77-144.79Z" transform="translate(-34.43 270)"/>
    <path d="M202-182.29c-3.64,7-8,1.88-12.17.95-1.37,4.08-3,7.59-8,7.48-4.8-.1-6.38-3.39-7.72-7.44a10.36,10.36,0,0,0-2.32.87c-6.77,4.78-15.44,1.61-17-6.58a45.75,45.75,0,0,1-.35-11.89c.08-1,2.23-2.66,3.45-2.69a4.45,4.45,0,0,1,3.43,2.65c.53,2.73,0,5.64.28,8.43.46,4.42,2.78,5.52,6.58,3.37C178.64-193.08,195-190.78,202-182.29Z" transform="translate(-34.43 270)"/>
    <path d="M173.54-123.27H133.69c1.21-1.47,1.76-2.8,2.67-3.14,4.92-1.82,9.76-4.18,15.25-1.19,1.33.72,3.76,0,5.48-.65C162-130.06,169.41-128.28,173.54-123.27Z" transform="translate(-34.43 270)"/>
    <path d="M167.07-116.89c-1.09,4.58-3.82,7.43-8.59,7.93-12.13,1.28-15.64-.2-18.83-7.93Z" transform="translate(-34.43 270)"/>
  </g>
  <g>
    <path class="cls-1" d="M409.2-159.42c2.55,7.76,7.32,12.35,15.45,12.32s12.78-4.7,15.34-12.4c2.06,7.1,6.28,11.54,13.22,12.31,8.93,1,14.61-3.54,17.42-12.08,3.67,8.25,8,12,14,12.21,8.67.34,14-4,16.75-12.36,2.55,7.75,7.32,12.35,15.44,12.33s12.79-4.7,15.35-12.41c2.06,7.1,6.28,11.49,13.21,12.33,8.4,1,13.8-3.29,16.89-11.21,1.17,1.74,2.15,3.23,3.16,4.69a15.46,15.46,0,0,0,18.89,5.46,15.38,15.38,0,0,0,6.28-23.35c-8.83-11.93-17.81-23.76-26.66-35.67a3.14,3.14,0,0,0-2.93-1.29q-28.61,0-57.22,0h-2.28v-15.24c.73,0,1.36-.08,2-.09h13.63a15.14,15.14,0,0,0,15-15.08q0-8,0-15.94A15.12,15.12,0,0,0,517-270H424.42a15.16,15.16,0,0,0-15.25,15.22q0,7.87,0,15.74a15.13,15.13,0,0,0,15.11,15.15h15.49v15.33H437.4q-28.61,0-57.22,0a3.45,3.45,0,0,0-2.46.92q-13.85,18.29-27.53,36.7A13.86,13.86,0,0,0,348-159.15c1.53,6.55,5.76,10.72,12.36,11.88s11.82-1.23,15.64-6.69c1-1.38,1.88-2.79,3-4.43,2.74,6.81,7,11.18,14.38,11.3C401.7-147,406.61-151.53,409.2-159.42ZM378.56-55H562.75v-84.26H378.56Zm215,30.81c0-.61,0-1.05,0-1.49a22.91,22.91,0,0,0-22.39-21.52q-100.23,0-200.45,0c-9.3,0-16.11,4.42-20.52,12.49a18.4,18.4,0,0,0-2.42,10.5Z" transform="translate(-34.43 270)"/>
    <path d="M409.2-159.42c-2.59,7.89-7.5,12.46-15.79,12.33-7.35-.12-11.64-4.48-14.38-11.3-1.1,1.63-2,3-3,4.43-3.83,5.47-9.16,7.83-15.64,6.69s-10.84-5.32-12.36-11.88a13.86,13.86,0,0,1,2.16-11.73q13.64-18.44,27.53-36.7a3.45,3.45,0,0,1,2.46-.92q28.61-.08,57.22,0h2.39v-15.33H424.3A15.13,15.13,0,0,1,409.19-239q0-7.87,0-15.74A15.16,15.16,0,0,1,424.42-270H517a15.12,15.12,0,0,1,15.16,15.1q0,8,0,15.94a15.14,15.14,0,0,1-15,15.08H503.49c-.63,0-1.25.05-2,.09v15.24h2.28q28.61,0,57.22,0a3.14,3.14,0,0,1,2.93,1.29c8.86,11.91,17.83,23.74,26.66,35.67a15.38,15.38,0,0,1-6.28,23.35,15.46,15.46,0,0,1-18.89-5.46c-1-1.46-2-2.94-3.16-4.69-3.09,7.92-8.49,12.22-16.89,11.21-6.93-.84-11.15-5.23-13.21-12.33-2.55,7.71-7.26,12.39-15.35,12.41s-12.89-4.57-15.44-12.33c-2.73,8.37-8.08,12.69-16.75,12.36-6-.23-10.33-4-14-12.21-2.8,8.54-8.48,13.06-17.42,12.08-6.94-.76-11.15-5.21-13.22-12.31-2.56,7.7-7.26,12.38-15.34,12.4S411.75-151.66,409.2-159.42Zm46.19-49.29h30.46v-15H455.39Zm15.36-30.73H489.7v-18.87H470.75Zm-31,.1v-11.49H428.52v-3.88h11.24v-3.59H424.7v11.43H436V-243H424.73v3.66ZM501.37-247h15.25v-11.25H497.69v18.89h3.68Zm-49.9,7.66v-7.47h7.72v7.44h3.66v-18.87h-3.79v7.4H451.4v-7.44h-3.66v18.94Z" transform="translate(-34.43 270)"/>
    <path d="M378.56-55v-84.26H562.75V-55Zm168.83-68.87H455.47v53.49h91.92Zm-107.56.06H394v53.44h45.83Z" transform="translate(-34.43 270)"/>
    <path d="M593.58-24.22H347.79a18.4,18.4,0,0,1,2.42-10.5c4.41-8.07,11.22-12.48,20.52-12.49q100.23,0,200.45,0a22.91,22.91,0,0,1,22.39,21.52C593.6-25.27,593.58-24.83,593.58-24.22Z" transform="translate(-34.43 270)"/>
    <path class="cls-1" d="M455.39-208.71v-15h30.46v15Z" transform="translate(-34.43 270)"/>
    <path class="cls-1" d="M470.75-239.44v-18.87H489.7v18.87Zm15.16-3.75V-254.5H474.64v11.31Z" transform="translate(-34.43 270)"/>
    <path class="cls-1" d="M439.79-239.34H424.73V-243H436v-3.88H424.7v-11.43h15.06v3.59H428.52v3.88h11.27Z" transform="translate(-34.43 270)"/>
    <path class="cls-1" d="M501.37-247v7.64h-3.68v-18.89h18.92V-247Zm.1-3.88h11.35v-3.73H501.47Z" transform="translate(-34.43 270)"/>
    <path class="cls-1" d="M451.47-239.37h-3.73v-18.94h3.66v7.44h7.65v-7.4h3.79v18.87h-3.66v-7.44h-7.72Z" transform="translate(-34.43 270)"/>
    <path class="cls-1" d="M547.39-123.91v53.49H455.47v-53.49Z" transform="translate(-34.43 270)"/>
    <path class="cls-1" d="M439.83-123.85v53.44H394v-53.44ZM416.9-101a7.46,7.46,0,0,0-7.72-7.72,7.46,7.46,0,0,0-7.67,7.58,7.47,7.47,0,0,0,7.63,7.81A7.46,7.46,0,0,0,416.9-101Z" transform="translate(-34.43 270)"/>
    <path d="M485.91-243.19H474.64V-254.5h11.27Z" transform="translate(-34.43 270)"/>
    <path d="M501.47-250.91v-3.73h11.35v3.73Z" transform="translate(-34.43 270)"/>
    <path d="M416.9-101a7.46,7.46,0,0,1-7.77,7.68,7.47,7.47,0,0,1-7.63-7.81,7.46,7.46,0,0,1,7.67-7.58A7.46,7.46,0,0,1,416.9-101Z" transform="translate(-34.43 270)"/>
  </g>
  <g>
    <path class="cls-1" d="M818.75-151.19l1.9-.27a11.16,11.16,0,0,0,9.83-11.78,11.1,11.1,0,0,0-10.7-10.49,36.92,36.92,0,0,0-6.45,0c-3.52.42-6.17-.42-7.73-3.86-.72-1.59-1.91-1.94-3.81-1.52-20,4.42-40.2,7.7-60.82,7.05-15.46-.48-30.76-2.06-45.73-6.15-4.62-1.27-4.69-1.34-7.32,2.74a3.52,3.52,0,0,1-3.47,1.76c-3.19-.07-6.39-.14-9.56.1a11,11,0,0,0-10.18,11,11.12,11.12,0,0,0,9.52,11.17l2.1.31c-4.93,26.15,3.12,47.56,22.59,65.13l-8.32,4.18c-11,5.56-21,12.59-29.18,21.9-4.25,4.83-8.12,10-9.1,16.55-.68,4.51-.27,9.17-.48,13.76-.07,1.6.59,2,2,2.15,6,.52,12,1.21,17.94,1.66q22.41,1.69,44.83,3.22a394.23,394.23,0,0,0,52.26.51c21.68-1.44,43.34-3.17,65-4.81,3.16-.24,6.3-.66,9.63-1,0-3.26-.18-6.3,0-9.31.4-5.65-1.52-10.55-4.74-15-9.91-13.56-23-23.12-38.1-30.21-1.92-.9-3.91-1.64-6-2.51C815.29-102.65,823.74-124.45,818.75-151.19Zm-21.89-81.65c0-7,0-13.94,0-20.91,0-5.14-2.26-7.22-7.41-7.22l-64.52,0c-6.6,0-13.2,0-19.8,0-4.29,0-7.51,2.73-7.53,6.55q-.09,21.47,0,42.94a2.78,2.78,0,0,0,1.44,2,73.5,73.5,0,0,0,8.19,2.82c15.17,4.14,30.68,5,46.31,4.52a149.71,149.71,0,0,0,41.13-6.68c1.56-.5,2.25-1.13,2.22-2.91C796.79-218.75,796.86-225.79,796.86-232.84Zm-44.6,54.4c5.23-.45,15.58-1.13,25.89-2.26,19.18-2.1,36.81-8.78,53.23-18.79,3.45-2.1,4.5-6,2.58-9.2a6.84,6.84,0,0,0-9.35-2.25c-2.15,1.16-4.36,2.25-6.42,3.55a99.9,99.9,0,0,1-32.73,12.84,187.75,187.75,0,0,1-53.54,3.41c-14.56-1.08-28.92-3.35-42.13-10-6.53-3.29-12.77-7.19-19-11-3.42-2.06-6.88-1.79-9.12,1.11a6.56,6.56,0,0,0,1.19,9.16c9.25,6.92,19.18,12.75,30.24,16.19C710.63-180.15,728.81-178.78,752.26-178.44Z" transform="translate(-34.43 270)"/>
    <path d="M818.75-151.19c5,26.73-3.46,48.54-24,66.26,2.08.87,4.07,1.61,6,2.51,15.06,7.09,28.19,16.65,38.1,30.21,3.21,4.4,5.14,9.3,4.74,15-.21,3,0,6.05,0,9.31-3.33.36-6.47.77-9.63,1-21.67,1.64-43.33,3.37-65,4.81a394.23,394.23,0,0,1-52.26-.51q-22.42-1.49-44.83-3.22c-6-.45-12-1.15-17.94-1.66-1.43-.12-2.1-.55-2-2.15.21-4.59-.2-9.25.48-13.76,1-6.5,4.85-11.72,9.1-16.55,8.2-9.31,18.14-16.34,29.18-21.9l8.32-4.18c-19.47-17.57-27.52-39-22.59-65.13l-2.1-.31a11.12,11.12,0,0,1-9.52-11.17,11,11,0,0,1,10.18-11c3.17-.24,6.38-.17,9.56-.1a3.52,3.52,0,0,0,3.47-1.76c2.63-4.08,2.7-4,7.32-2.74,15,4.1,30.27,5.67,45.73,6.15,20.63.65,40.79-2.63,60.82-7.05,1.89-.42,3.09-.07,3.81,1.52,1.56,3.44,4.21,4.28,7.73,3.86a36.92,36.92,0,0,1,6.45,0,11.1,11.1,0,0,1,10.7,10.49,11.16,11.16,0,0,1-9.83,11.78ZM744-77.36c15.07,0,26.37-2.54,36.63-8.55,19.39-11.35,30.56-28,31-50.87.2-10-2.67-19.48-5.88-28.84a22.69,22.69,0,0,0-1.93-3.5,2.18,2.18,0,0,0-2.73-1.13c-9.84,1.77-19.68,3.71-29.59,5a210.57,210.57,0,0,1-76.88-4.34c-2.17-.52-3.09,0-4.19,1.82-3.08,5-3.78,10.73-5.18,16.24-4.28,16.85-1.74,32.65,8.32,46.84C706.65-86.32,725-78,744-77.36Zm-12.75,41c2.34-9.91,6-19.09,13.18-26.41-4-4.37-7.47-6.57-11.47-7.47-2.89-.65-5.74-1.46-8.61-2.2l-2.92-.75Zm30.27-2.58.58-.08,8.51-33c-8.72.92-16.16,4.25-20.68,9.16C756.61-56.27,759.58-47.84,761.53-38.91Z" transform="translate(-34.43 270)"/>
    <path d="M796.86-232.84c0,7-.07,14.09,0,21.14,0,1.77-.66,2.41-2.22,2.91a149.71,149.71,0,0,1-41.13,6.68c-15.62.48-31.13-.38-46.31-4.52a73.5,73.5,0,0,1-8.19-2.82,2.78,2.78,0,0,1-1.44-2q-.12-21.47,0-42.94c0-3.82,3.24-6.53,7.53-6.55,6.6,0,13.2,0,19.8,0l64.52,0c5.14,0,7.36,2.08,7.41,7.22C796.9-246.78,796.86-239.81,796.86-232.84Z" transform="translate(-34.43 270)"/>
    <path d="M752.26-178.44c-23.45-.33-41.63-1.7-59.2-7.19-11.05-3.45-21-9.27-30.24-16.19a6.56,6.56,0,0,1-1.19-9.16c2.24-2.9,5.7-3.17,9.12-1.11,6.27,3.78,12.51,7.68,19,11,13.21,6.64,27.56,8.91,42.13,10a187.75,187.75,0,0,0,53.54-3.41,99.9,99.9,0,0,0,32.73-12.84c2.06-1.3,4.27-2.39,6.42-3.55A6.84,6.84,0,0,1,834-208.7c1.92,3.2.87,7.1-2.58,9.2-16.42,10-34,16.69-53.23,18.79C767.84-179.57,757.49-178.89,752.26-178.44Z" transform="translate(-34.43 270)"/>
    <path class="cls-1" d="M744-77.36c-19-.69-37.37-9-50.39-27.31-10.07-14.19-12.6-30-8.32-46.84,1.4-5.51,2.1-11.22,5.18-16.24,1.09-1.78,2-2.33,4.19-1.82a210.57,210.57,0,0,0,76.88,4.34c9.91-1.31,19.74-3.24,29.59-5a2.18,2.18,0,0,1,2.73,1.13,22.69,22.69,0,0,1,1.93,3.5c3.21,9.35,6.08,18.88,5.88,28.84-.46,22.86-11.62,39.52-31,50.87C770.39-79.9,759.09-77.32,744-77.36ZM758.53-150c-7.45-3.39-14.87-2.85-22.3,0-.44.16-1.44-.42-1.8-.93-2.94-4.18-6.8-6.82-12-7.19-6.6-.47-11.82,2.14-15.1,7.85a14.93,14.93,0,0,0,.62,16.82,15,15,0,0,0,15.66,6.67c7.73-1.25,12.78-7.38,13.29-15.58a3.14,3.14,0,0,1,1.35-2.34,22.2,22.2,0,0,1,16.47-.81,2.49,2.49,0,0,1,2,2.84,15.6,15.6,0,0,0,10.5,15.24,15.71,15.71,0,0,0,17.91-5.4,15.94,15.94,0,0,0,.7-18.15,15.75,15.75,0,0,0-17.69-6.61C764-156.49,760.92-153.79,758.53-150Zm39.82,28.36-.92-.16c-1.29.85-2.54,1.77-3.88,2.55-7,4.09-14.24,5.28-21.81,1.48a30.81,30.81,0,0,0-4.89-2.12A105.11,105.11,0,0,0,754-123.31c-3.81-.63-5.27,1.12-5.22,5,.2,15.13,13.11,25.41,27.83,21.89,10.12-2.42,17.76-8.1,21.17-18.33C798.5-116.9,798.19-119.35,798.35-121.65Zm-100.71-.41a12.82,12.82,0,0,0,.81,10,27.56,27.56,0,0,0,13.77,13.36c15,7,31.2,1.43,34.11-17.52.93-6.09-1.28-8.46-7.28-6.9a156.21,156.21,0,0,0-16.72,5.88,20.77,20.77,0,0,1-12,1.32C705.71-116.83,701.67-119.07,697.64-122.06Z" transform="translate(-34.43 270)"/>
    <path class="cls-1" d="M731.26-36.34l-9.82-36.83,2.92.75c2.87.74,5.72,1.54,8.61,2.2,4,.91,7.52,3.11,11.47,7.47C737.22-55.43,733.6-46.25,731.26-36.34Z" transform="translate(-34.43 270)"/>
    <path class="cls-1" d="M761.53-38.91c-2-8.92-4.92-17.36-11.59-23.93,4.52-4.91,12-8.24,20.68-9.16l-8.51,33Z" transform="translate(-34.43 270)"/>
    <path d="M758.53-150c2.39-3.78,5.44-6.48,9.66-7.64A15.75,15.75,0,0,1,785.88-151a15.94,15.94,0,0,1-.7,18.15,15.71,15.71,0,0,1-17.91,5.4,15.6,15.6,0,0,1-10.5-15.24,2.49,2.49,0,0,0-2-2.84,22.2,22.2,0,0,0-16.47.81,3.14,3.14,0,0,0-1.35,2.34c-.51,8.2-5.56,14.33-13.29,15.58A15,15,0,0,1,708-133.51a14.93,14.93,0,0,1-.62-16.82c3.28-5.71,8.5-8.32,15.1-7.85,5.16.37,9,3,12,7.19.36.51,1.36,1.1,1.8.93C743.66-152.86,751.08-153.4,758.53-150ZM773-132.93a9.4,9.4,0,0,0,9.44-9.42,9.53,9.53,0,0,0-9.62-9.76,9.64,9.64,0,0,0-9.61,9.59A9.54,9.54,0,0,0,773-132.93Zm-51.87,0a9.47,9.47,0,0,0,9.56-9.4,9.63,9.63,0,0,0-9.91-9.79,9.59,9.59,0,0,0-9.3,9.46A9.4,9.4,0,0,0,721.14-132.93Z" transform="translate(-34.43 270)"/>
    <path d="M798.35-121.65c-.16,2.29.16,4.75-.55,6.86-3.4,10.22-11,15.9-21.17,18.33-14.72,3.53-27.63-6.76-27.83-21.89,0-3.85,1.41-5.59,5.22-5a105.11,105.11,0,0,1,12.82,3.42,30.81,30.81,0,0,1,4.89,2.12c7.57,3.8,14.79,2.6,21.81-1.48,1.33-.78,2.59-1.7,3.88-2.55Z" transform="translate(-34.43 270)"/>
    <path d="M697.64-122.06c4,3,8.06,5.22,12.74,6.18a20.77,20.77,0,0,0,12-1.32,156.21,156.21,0,0,1,16.72-5.88c6-1.57,8.21.81,7.28,6.9-2.9,19-19.15,24.48-34.11,17.52A27.56,27.56,0,0,1,698.45-112,12.82,12.82,0,0,1,697.64-122.06Z" transform="translate(-34.43 270)"/>
    <path class="cls-1" d="M773-132.93a9.54,9.54,0,0,1-9.79-9.59,9.64,9.64,0,0,1,9.61-9.59,9.53,9.53,0,0,1,9.62,9.76A9.4,9.4,0,0,1,773-132.93Z" transform="translate(-34.43 270)"/>
    <path class="cls-1" d="M721.14-132.93a9.4,9.4,0,0,1-9.65-9.72,9.59,9.59,0,0,1,9.3-9.46,9.63,9.63,0,0,1,9.91,9.79A9.47,9.47,0,0,1,721.14-132.93Z" transform="translate(-34.43 270)"/>
  </g>
</svg>
