<?xml version="1.0" encoding="utf-8"?>
<!-- Generator: Adobe Illustrator 21.1.0, SVG Export Plug-In . SVG Version: 6.00 Build 0)  -->
<svg version="1.1" id="Layer_1" xmlns="http://www.w3.org/2000/svg" xmlns:xlink="http://www.w3.org/1999/xlink" x="0px" y="0px"
	 viewBox="0 0 658 60" style="enable-background:new 0 0 658 60;" xml:space="preserve">
<style type="text/css">
	.st0{fill:#FFFFFF;}
</style>
<g id="artists">
	<g>
		<g>
			<rect x="10" y="9.5" class="st0" width="204" height="41.5"/>
			<path d="M213.5,10v40.5h-203V10H213.5 M214.5,9H9.5v42.5h205V9z"/>
		</g>
		<g>
			<path d="M70.1,34.1H60.1l-2.3,6.1H57l7.7-20.5h0.9l7.7,20.5h-0.8L70.1,34.1z M60.4,33.4h9.5l-4.7-12.7L60.4,33.4z"/>
			<path d="M84.4,31.5h-7.1v8.8h-0.8V19.7H83c1.8-0.1,3.6,0.5,5,1.6c1.2,1.1,1.9,2.7,1.8,4.3c0,1.3-0.4,2.6-1.3,3.7
				c-0.8,1-2,1.8-3.3,2l5.5,8.8v0.2h-0.8L84.4,31.5z M77.3,30.7h6.5c1.4,0.1,2.8-0.5,3.8-1.4c1-1,1.5-2.3,1.4-3.6
				c0.1-1.4-0.5-2.8-1.6-3.8c-1.2-1-2.8-1.5-4.4-1.4h-5.7L77.3,30.7z"/>
			<path d="M108,20.5h-7.5v19.8h-0.8V20.5h-7.5v-0.8H108V20.5z"/>
			<path d="M112.9,40.3h-0.8V19.7h0.8V40.3z"/>
			<path d="M131.4,35.3c0-0.8-0.2-1.6-0.6-2.2c-0.5-0.7-1.2-1.2-1.9-1.6c-1.3-0.6-2.6-1.1-4-1.4c-1.4-0.3-2.7-0.8-4-1.5
				c-0.8-0.4-1.5-1-2-1.7c-0.4-0.7-0.6-1.6-0.6-2.4c0-1.5,0.7-2.8,1.9-3.6c1.4-1,3.2-1.5,4.9-1.4c1.2,0,2.4,0.2,3.5,0.8
				c1,0.5,1.8,1.2,2.4,2.2c0.6,0.9,0.9,2,0.9,3.1h-0.8c0-1.5-0.6-2.9-1.7-3.8c-1.2-1-2.8-1.6-4.4-1.5c-1.6-0.1-3.1,0.4-4.4,1.2
				c-1.7,1.1-2.2,3.4-1.1,5.1c0.2,0.4,0.5,0.7,0.9,0.9c1.5,1,3.1,1.6,4.8,2c1.7,0.4,3.4,1,4.9,2c1.3,0.9,2,2.3,2,3.9
				c0,1-0.3,1.9-0.9,2.7c-0.6,0.8-1.5,1.5-2.5,1.8c-1.2,0.4-2.4,0.7-3.6,0.7c-1.4,0-2.7-0.2-4-0.7c-1.1-0.4-2-1.2-2.7-2.1
				c-0.6-1-0.9-2.1-0.9-3.2h0.8c-0.1,1.5,0.6,3,1.9,3.9c1.4,1,3.2,1.5,4.9,1.4c1.6,0.1,3.1-0.4,4.4-1.2
				C130.8,37.9,131.4,36.7,131.4,35.3z"/>
			<path d="M149.9,20.5h-7.5v19.8h-0.8V20.5h-7.5v-0.8h15.7L149.9,20.5z"/>
			<path d="M165.5,35.3c0-0.8-0.2-1.6-0.6-2.2c-0.5-0.7-1.2-1.2-1.9-1.6c-1.3-0.6-2.6-1.1-4-1.4c-1.4-0.3-2.7-0.8-4-1.5
				c-0.8-0.4-1.5-1-2-1.7c-0.4-0.7-0.6-1.6-0.6-2.4c0-1.5,0.7-2.8,1.9-3.6c1.4-1,3.2-1.5,4.9-1.4c1.2,0,2.4,0.2,3.6,0.8
				c1,0.5,1.8,1.2,2.4,2.2c0.6,0.9,0.9,2,0.9,3.1h-0.8c0-1.5-0.6-2.9-1.7-3.8c-1.2-1-2.8-1.6-4.4-1.5c-1.6-0.1-3.1,0.4-4.4,1.2
				c-1.7,1.1-2.2,3.4-1.1,5.1c0.2,0.4,0.5,0.7,0.9,0.9c1.5,1,3.1,1.6,4.8,2c1.7,0.4,3.4,1,4.9,2c1.3,0.9,2,2.3,2,3.9
				c0,1-0.3,1.9-0.9,2.7c-0.6,0.8-1.4,1.5-2.4,1.8c-1.2,0.4-2.4,0.7-3.6,0.7c-1.4,0-2.7-0.2-4-0.7c-1.1-0.4-2-1.2-2.7-2.1
				c-0.6-1-0.9-2.1-0.9-3.2h0.8c-0.1,1.5,0.6,3,1.9,3.9c1.4,1,3.2,1.5,4.9,1.4c1.6,0.1,3.1-0.4,4.4-1.2
				C164.9,37.9,165.6,36.6,165.5,35.3z"/>
		</g>
	</g>
</g>
<g id="partners">
	<g>
		<g>
			<rect x="228" y="9.5" class="st0" width="204" height="41.5"/>
			<path d="M431.5,10v40.5h-203V10H431.5 M432.5,9h-205v42.5h205V9z"/>
		</g>
		<g>
			<path d="M263.3,31.6v8.7h-0.8V19.7h6.4c1.8-0.1,3.5,0.5,4.9,1.6c1.2,1.1,1.8,2.8,1.7,4.4c0.1,1.6-0.6,3.2-1.7,4.3
				c-1.4,1.1-3.1,1.6-4.8,1.5L263.3,31.6z M263.3,30.8h5.7c1.6,0.1,3.1-0.4,4.3-1.3c1.1-0.9,1.6-2.3,1.5-3.7
				c0.1-1.5-0.5-2.9-1.5-3.9c-1.2-1-2.8-1.5-4.3-1.4h-5.7L263.3,30.8z"/>
			<path d="M288.8,34.1h-10l-2.3,6.1h-0.8l7.7-20.5h0.9l7.7,20.5h-0.8L288.8,34.1z M279,33.4h9.5l-4.7-12.7L279,33.4z"/>
			<path d="M303,31.5h-7.1v8.8h-0.8V19.7h6.5c1.8-0.1,3.5,0.5,4.9,1.6c1.2,1.1,1.9,2.7,1.8,4.3c0,1.3-0.4,2.6-1.3,3.7
				c-0.8,1-2,1.8-3.3,2l5.5,8.8v0.2h-0.8L303,31.5z M295.9,30.7h6.5c1.4,0.1,2.8-0.5,3.8-1.4c1-1,1.5-2.3,1.5-3.6
				c0.1-1.4-0.5-2.8-1.6-3.8c-1.3-1-2.8-1.5-4.4-1.4h-5.7L295.9,30.7z"/>
			<path d="M326.6,20.5h-7.5v19.8h-0.8V20.5h-7.5v-0.8h15.7L326.6,20.5z"/>
			<path d="M345,40.3h-0.8L331,21v19.3h-0.8V19.7h0.8l13.3,19.2V19.7h0.7V40.3z"/>
			<path d="M361.7,30.1h-10.3v9.4h11.7v0.8h-12.5V19.7h12.5v0.8h-11.7v8.8h10.3V30.1z"/>
			<path d="M374.9,31.5h-7.1v8.8H367V19.7h6.5c1.8-0.1,3.5,0.5,4.9,1.6c1.2,1.1,1.9,2.7,1.8,4.3c0,1.3-0.4,2.6-1.3,3.7
				c-0.8,1-2,1.8-3.3,2l5.5,8.8v0.2h-0.8L374.9,31.5z M367.8,30.7h6.5c1.4,0.1,2.8-0.5,3.8-1.4c1-1,1.5-2.3,1.5-3.6
				c0.1-1.4-0.5-2.8-1.6-3.8c-1.3-1-2.8-1.5-4.4-1.4h-5.7L367.8,30.7z"/>
			<path d="M398.3,35.3c0-0.8-0.2-1.6-0.6-2.2c-0.5-0.7-1.2-1.2-1.9-1.6c-1.3-0.6-2.6-1.1-4-1.4c-1.4-0.3-2.7-0.8-4-1.5
				c-0.8-0.4-1.5-1-2-1.7c-0.4-0.7-0.6-1.6-0.6-2.4c0-1.5,0.7-2.8,1.9-3.6c1.5-1,3.2-1.5,5-1.4c1.2,0,2.4,0.2,3.5,0.8
				c1,0.5,1.9,1.2,2.5,2.1c0.6,0.9,0.9,2,0.9,3.1h-0.8c0-1.5-0.6-2.9-1.7-3.8c-1.2-1-2.8-1.6-4.4-1.5c-1.6-0.1-3.1,0.4-4.4,1.2
				c-1.7,1.1-2.2,3.4-1.1,5.1c0.2,0.4,0.5,0.7,0.9,0.9c1.5,1,3.1,1.6,4.8,2c1.7,0.4,3.4,1,4.9,2c1.3,0.9,2,2.3,2,3.9
				c0,1-0.3,1.9-0.9,2.7c-0.6,0.8-1.5,1.5-2.5,1.8c-1.2,0.4-2.4,0.7-3.6,0.7c-1.4,0-2.7-0.2-4-0.7c-1.1-0.4-2-1.2-2.7-2.1
				c-0.6-1-0.9-2.1-0.9-3.2h0.8c-0.1,1.5,0.6,3,1.9,3.9c1.4,1,3.2,1.5,4.9,1.4c1.6,0.1,3.1-0.4,4.4-1.2
				C397.7,37.8,398.3,36.6,398.3,35.3z"/>
		</g>
	</g>
</g>
<g id="collectors">
	<g>
		<g>
			<rect x="445" y="9.5" class="st0" width="204" height="41.5"/>
			<path d="M648.5,10v40.5h-203V10H648.5 M649.5,9h-205v42.5h205V9z"/>
		</g>
		<g>
			<path d="M476.5,34c-0.1,1.8-0.9,3.6-2.2,4.9c-1.4,1.2-3.3,1.8-5.1,1.7c-1.4,0-2.7-0.4-3.9-1.1c-1.2-0.8-2.1-1.9-2.6-3.1
				c-0.6-1.5-1-3.1-1-4.7v-3.2c0-1.6,0.3-3.2,0.9-4.7c0.5-1.3,1.5-2.4,2.6-3.2c1.2-0.8,2.5-1.2,3.9-1.1c1.9-0.1,3.7,0.5,5.1,1.7
				c1.3,1.3,2.1,3,2.2,4.9h-0.8c-0.1-1.6-0.8-3.2-2-4.3c-1.3-1-2.9-1.6-4.6-1.5c-1.9-0.1-3.7,0.8-4.8,2.3c-1.3,1.7-1.9,3.8-1.8,6v3
				c0,1.5,0.3,2.9,0.8,4.3c0.5,1.2,1.3,2.2,2.4,2.9c1,0.7,2.3,1,3.5,1c1.7,0.1,3.3-0.4,4.6-1.5c1.2-1.1,1.9-2.7,2-4.4L476.5,34z"/>
			<path d="M495.8,31.5c0,1.6-0.3,3.2-1,4.7c-0.6,1.3-1.5,2.4-2.7,3.2c-1.2,0.8-2.6,1.1-4.1,1.1c-2.1,0.1-4.2-0.8-5.6-2.5
				c-1.5-1.9-2.3-4.3-2.1-6.7v-3c0-1.6,0.3-3.2,1-4.7c0.6-1.3,1.5-2.4,2.7-3.1c2.5-1.5,5.6-1.5,8.1,0c1.2,0.8,2.2,1.9,2.7,3.2
				c0.7,1.5,1,3.1,1,4.7L495.8,31.5z M495,28.4c0.1-2.2-0.6-4.3-1.9-6c-2.6-2.8-6.9-3-9.7-0.5c-0.2,0.1-0.3,0.3-0.5,0.5
				c-1.3,1.7-2,3.9-1.9,6.1v3c0,1.5,0.3,3,0.9,4.3c0.5,1.2,1.4,2.2,2.4,2.9c1.1,0.7,2.4,1,3.7,1c2,0.1,3.8-0.7,5.1-2.2
				c1.3-1.7,2-3.9,1.9-6.1L495,28.4z"/>
			<path d="M501.3,39.5h10.5v0.8h-11.3V19.7h0.8L501.3,39.5z"/>
			<path d="M516.2,39.5h10.5v0.8h-11.3V19.7h0.8L516.2,39.5z"/>
			<path d="M541.3,30.1H531v9.4h11.7v0.8h-12.5V19.7h12.5v0.8H531v8.8h10.3L541.3,30.1z"/>
			<path d="M560.7,34c-0.1,1.8-0.9,3.6-2.2,4.9c-1.4,1.2-3.3,1.8-5.1,1.7c-1.4,0-2.7-0.4-3.9-1.1c-1.2-0.8-2.1-1.9-2.6-3.1
				c-0.6-1.5-1-3.1-0.9-4.7v-3.2c0-1.6,0.3-3.2,0.9-4.7c0.5-1.3,1.5-2.4,2.6-3.2c1.2-0.8,2.5-1.2,3.9-1.1c1.9-0.1,3.7,0.5,5.1,1.7
				c1.3,1.3,2.1,3,2.2,4.9h-0.8c-0.1-1.6-0.8-3.2-2-4.3c-1.3-1-2.9-1.6-4.6-1.5c-1.9-0.1-3.7,0.8-4.8,2.3c-1.3,1.7-1.9,3.8-1.8,6v3
				c0,1.5,0.3,2.9,0.8,4.3c0.5,1.2,1.3,2.2,2.3,2.9c1,0.7,2.3,1,3.5,1c1.7,0.1,3.3-0.4,4.6-1.5c1.2-1.1,1.9-2.7,2-4.4L560.7,34z"/>
			<path d="M578.7,20.5h-7.5v19.8h-0.8V20.5H563v-0.8h15.7V20.5z"/>
			<path d="M596.4,31.5c0,1.6-0.3,3.2-1,4.7c-0.6,1.3-1.5,2.4-2.7,3.2c-1.2,0.8-2.6,1.1-4.1,1.1c-2.1,0.1-4.2-0.8-5.6-2.5
				c-1.5-1.9-2.2-4.3-2.1-6.6v-3c0-1.6,0.3-3.2,1-4.7c0.6-1.3,1.5-2.4,2.7-3.2c2.5-1.5,5.6-1.5,8.1,0c1.2,0.8,2.2,1.9,2.7,3.2
				c0.7,1.5,1,3.1,1,4.7L596.4,31.5z M595.7,28.4c0.1-2.2-0.6-4.3-1.9-6c-2.6-2.8-6.9-3-9.7-0.5c-0.2,0.1-0.3,0.3-0.5,0.5
				c-1.3,1.7-2,3.9-1.9,6.1v3c0,1.5,0.3,3,0.8,4.3c0.5,1.2,1.4,2.2,2.4,2.9c1.1,0.7,2.4,1,3.7,1c2,0.1,3.8-0.7,5.1-2.2
				c1.3-1.8,2-3.9,1.9-6.1L595.7,28.4z"/>
			<path d="M609,31.5h-7.1v8.8h-0.8V19.7h6.5c1.8-0.1,3.5,0.5,4.9,1.6c1.2,1.1,1.9,2.7,1.8,4.3c0,1.3-0.4,2.6-1.3,3.7
				c-0.8,1-2,1.8-3.3,2l5.5,8.8v0.2h-0.8L609,31.5z M601.9,30.7h6.5c1.4,0.1,2.8-0.5,3.8-1.4c1-1,1.5-2.3,1.5-3.6
				c0.1-1.4-0.5-2.8-1.6-3.8c-1.3-1-2.8-1.5-4.4-1.4h-5.7L601.9,30.7z"/>
			<path d="M632.3,35.3c0-0.8-0.2-1.6-0.6-2.2c-0.5-0.7-1.2-1.2-1.9-1.6c-1.3-0.6-2.6-1.1-4-1.4c-1.4-0.3-2.7-0.8-4-1.5
				c-0.8-0.4-1.5-1-2-1.7c-0.4-0.7-0.6-1.6-0.6-2.4c0-1.5,0.7-2.8,1.9-3.6c1.5-1,3.2-1.5,4.9-1.4c1.2,0,2.4,0.2,3.5,0.8
				c1,0.5,1.9,1.2,2.5,2.1c0.6,0.9,0.9,2,0.9,3.1h-0.8c0-1.5-0.6-2.9-1.7-3.8c-1.2-1-2.8-1.6-4.4-1.5c-1.6-0.1-3.1,0.4-4.4,1.2
				c-1.7,1.1-2.2,3.4-1.1,5.1c0.2,0.4,0.5,0.7,0.9,0.9c1.5,1,3.1,1.6,4.8,2c1.7,0.4,3.4,1,4.9,2c1.3,0.9,2,2.3,2,3.9
				c0,1-0.3,1.9-0.9,2.7c-0.6,0.8-1.5,1.5-2.5,1.8c-1.2,0.4-2.4,0.7-3.6,0.7c-1.4,0-2.7-0.2-4-0.7c-1.1-0.4-2-1.2-2.7-2.1
				c-0.6-1-0.9-2.1-0.9-3.2h0.8c-0.1,1.5,0.6,3,1.9,3.9c1.4,1,3.2,1.5,4.9,1.4c1.6,0.1,3.1-0.4,4.4-1.2
				C631.7,37.9,632.3,36.6,632.3,35.3z"/>
		</g>
	</g>
</g>
</svg>
