<?xml version="1.0" encoding="utf-8"?>
<!-- Generator: Adobe Illustrator 21.1.0, SVG Export Plug-In . SVG Version: 6.00 Build 0)  -->
<svg version="1.1" xmlns="http://www.w3.org/2000/svg" xmlns:xlink="http://www.w3.org/1999/xlink" x="0px" y="0px"
	 viewBox="0 0 697.7 60" style="enable-background:new 0 0 697.7 60;" xml:space="preserve">
<style type="text/css">
	.st0{fill:#FFFFFF;}
	.st1{fill:#323232;}
	.st2{fill:#1E1E1E;stroke:#FFFFFF;stroke-width:2;stroke-miterlimit:10;}
</style>
<g id="artists">
	<path class="st0" d="M541,39.5h10.5v0.8h-11.3V19.7h0.8V39.5z"/>
	<path class="st0" d="M555.9,39.5h10.5v0.8h-11.3V19.7h0.8V39.5z"/>
	<path class="st0" d="M581,30.1h-10.3v9.4h11.7v0.8h-12.5V19.7h12.5v0.8h-11.7v8.8H581V30.1z"/>
	<g>
		<path class="st1" d="M213.2,2.8v55h-203v-55H213.2"/>
		<g>
			<path class="st0" d="M69.8,34.1h-10l-2.3,6.1h-0.8l7.7-20.5h0.9L73,40.2h-0.8L69.8,34.1z M60.1,33.4h9.5l-4.7-12.7L60.1,33.4z"/>
			<path class="st0" d="M84.1,31.5H77v8.8h-0.8V19.7h6.5c1.8-0.1,3.6,0.5,5,1.6c1.2,1.1,1.9,2.7,1.8,4.3c0,1.3-0.4,2.6-1.3,3.7
				c-0.8,1-2,1.8-3.3,2l5.5,8.8v0.2h-0.8L84.1,31.5z M77,30.7h6.5c1.4,0.1,2.8-0.5,3.8-1.4c1-1,1.5-2.3,1.4-3.6
				c0.1-1.4-0.5-2.8-1.6-3.8c-1.2-1-2.8-1.5-4.4-1.4H77L77,30.7z"/>
			<path class="st0" d="M107.7,20.5h-7.5v19.8h-0.8V20.5h-7.5v-0.8h15.8V20.5z"/>
			<path class="st0" d="M112.6,40.3h-0.8V19.7h0.8V40.3z"/>
			<path class="st0" d="M131.1,35.3c0-0.8-0.2-1.6-0.6-2.2c-0.5-0.7-1.2-1.2-1.9-1.6c-1.3-0.6-2.6-1.1-4-1.4s-2.7-0.8-4-1.5
				c-0.8-0.4-1.5-1-2-1.7c-0.4-0.7-0.6-1.6-0.6-2.4c0-1.5,0.7-2.8,1.9-3.6c1.4-1,3.2-1.5,4.9-1.4c1.2,0,2.4,0.2,3.5,0.8
				c1,0.5,1.8,1.2,2.4,2.2c0.6,0.9,0.9,2,0.9,3.1h-0.8c0-1.5-0.6-2.9-1.7-3.8c-1.2-1-2.8-1.6-4.4-1.5c-1.6-0.1-3.1,0.4-4.4,1.2
				c-1.7,1.1-2.2,3.4-1.1,5.1c0.2,0.4,0.5,0.7,0.9,0.9c1.5,1,3.1,1.6,4.8,2c1.7,0.4,3.4,1,4.9,2c1.3,0.9,2,2.3,2,3.9
				c0,1-0.3,1.9-0.9,2.7c-0.6,0.8-1.5,1.5-2.5,1.8c-1.2,0.4-2.4,0.7-3.6,0.7c-1.4,0-2.7-0.2-4-0.7c-1.1-0.4-2-1.2-2.7-2.1
				c-0.6-1-0.9-2.1-0.9-3.2h0.8c-0.1,1.5,0.6,3,1.9,3.9c1.4,1,3.2,1.5,4.9,1.4c1.6,0.1,3.1-0.4,4.4-1.2
				C130.5,37.9,131.1,36.7,131.1,35.3z"/>
			<path class="st0" d="M149.6,20.5h-7.5v19.8h-0.8V20.5h-7.5v-0.8h15.7L149.6,20.5z"/>
			<path class="st0" d="M165.2,35.3c0-0.8-0.2-1.6-0.6-2.2c-0.5-0.7-1.2-1.2-1.9-1.6c-1.3-0.6-2.6-1.1-4-1.4s-2.7-0.8-4-1.5
				c-0.8-0.4-1.5-1-2-1.7c-0.4-0.7-0.6-1.6-0.6-2.4c0-1.5,0.7-2.8,1.9-3.6c1.4-1,3.2-1.5,4.9-1.4c1.2,0,2.4,0.2,3.6,0.8
				c1,0.5,1.8,1.2,2.4,2.2c0.6,0.9,0.9,2,0.9,3.1H165c0-1.5-0.6-2.9-1.7-3.8c-1.2-1-2.8-1.6-4.4-1.5c-1.6-0.1-3.1,0.4-4.4,1.2
				c-1.7,1.1-2.2,3.4-1.1,5.1c0.2,0.4,0.5,0.7,0.9,0.9c1.5,1,3.1,1.6,4.8,2s3.4,1,4.9,2c1.3,0.9,2,2.3,2,3.9c0,1-0.3,1.9-0.9,2.7
				c-0.6,0.8-1.4,1.5-2.4,1.8c-1.2,0.4-2.4,0.7-3.6,0.7c-1.4,0-2.7-0.2-4-0.7c-1.1-0.4-2-1.2-2.7-2.1c-0.6-1-0.9-2.1-0.9-3.2h0.8
				c-0.1,1.5,0.6,3,1.9,3.9c1.4,1,3.2,1.5,4.9,1.4c1.6,0.1,3.1-0.4,4.4-1.2C164.6,37.9,165.3,36.6,165.2,35.3z"/>
		</g>
		<line class="st2" x1="10.2" y1="57.8" x2="213.2" y2="57.8"/>
	</g>
</g>
<g id="partners">
	<path class="st0" d="M541,39.5h10.5v0.8h-11.3V19.7h0.8V39.5z"/>
	<path class="st0" d="M555.9,39.5h10.5v0.8h-11.3V19.7h0.8V39.5z"/>
	<path class="st0" d="M581,30.1h-10.3v9.4h11.7v0.8h-12.5V19.7h12.5v0.8h-11.7v8.8H581V30.1z"/>
	<g>
		<path class="st1" d="M451.2,2.8v55h-203v-55H451.2"/>
		<g>
			<path class="st0" d="M283,31.6v8.7h-0.8V19.7h6.4c1.8-0.1,3.5,0.5,4.9,1.6c1.2,1.1,1.8,2.8,1.7,4.4c0.1,1.6-0.6,3.2-1.7,4.3
				c-1.4,1.1-3.1,1.6-4.8,1.5L283,31.6z M283,30.8h5.7c1.6,0.1,3.1-0.4,4.3-1.3c1.1-0.9,1.6-2.3,1.5-3.7c0.1-1.5-0.5-2.9-1.5-3.9
				c-1.2-1-2.8-1.5-4.3-1.4H283V30.8z"/>
			<path class="st0" d="M308.5,34.1h-10l-2.3,6.1h-0.8l7.7-20.5h0.9l7.7,20.5h-0.8L308.5,34.1z M298.7,33.4h9.5l-4.7-12.7
				L298.7,33.4z"/>
			<path class="st0" d="M322.7,31.5h-7.1v8.8h-0.8V19.7h6.5c1.8-0.1,3.5,0.5,4.9,1.6c1.2,1.1,1.9,2.7,1.8,4.3c0,1.3-0.4,2.6-1.3,3.7
				c-0.8,1-2,1.8-3.3,2l5.5,8.8v0.2h-0.8L322.7,31.5z M315.6,30.7h6.5c1.4,0.1,2.8-0.5,3.8-1.4c1-1,1.5-2.3,1.5-3.6
				c0.1-1.4-0.5-2.8-1.6-3.8c-1.3-1-2.8-1.5-4.4-1.4h-5.7L315.6,30.7z"/>
			<path class="st0" d="M346.3,20.5h-7.5v19.8H338V20.5h-7.5v-0.8h15.7L346.3,20.5z"/>
			<path class="st0" d="M364.7,40.3h-0.8L350.7,21v19.3h-0.8V19.7h0.8L364,38.9V19.7h0.7V40.3z"/>
			<path class="st0" d="M381.4,30.1h-10.3v9.4h11.7v0.8h-12.5V19.7h12.5v0.8h-11.7v8.8h10.3V30.1z"/>
			<path class="st0" d="M394.6,31.5h-7.1v8.8h-0.8V19.7h6.5c1.8-0.1,3.5,0.5,4.9,1.6c1.2,1.1,1.9,2.7,1.8,4.3c0,1.3-0.4,2.6-1.3,3.7
				c-0.8,1-2,1.8-3.3,2l5.5,8.8v0.2H400L394.6,31.5z M387.5,30.7h6.5c1.4,0.1,2.8-0.5,3.8-1.4c1-1,1.5-2.3,1.5-3.6
				c0.1-1.4-0.5-2.8-1.6-3.8c-1.3-1-2.8-1.5-4.4-1.4h-5.7L387.5,30.7z"/>
			<path class="st0" d="M418,35.3c0-0.8-0.2-1.6-0.6-2.2c-0.5-0.7-1.2-1.2-1.9-1.6c-1.3-0.6-2.6-1.1-4-1.4s-2.7-0.8-4-1.5
				c-0.8-0.4-1.5-1-2-1.7c-0.4-0.7-0.6-1.6-0.6-2.4c0-1.5,0.7-2.8,1.9-3.6c1.5-1,3.2-1.5,5-1.4c1.2,0,2.4,0.2,3.5,0.8
				c1,0.5,1.9,1.2,2.5,2.1s0.9,2,0.9,3.1h-0.8c0-1.5-0.6-2.9-1.7-3.8c-1.2-1-2.8-1.6-4.4-1.5c-1.6-0.1-3.1,0.4-4.4,1.2
				c-1.7,1.1-2.2,3.4-1.1,5.1c0.2,0.4,0.5,0.7,0.9,0.9c1.5,1,3.1,1.6,4.8,2c1.7,0.4,3.4,1,4.9,2c1.3,0.9,2,2.3,2,3.9
				c0,1-0.3,1.9-0.9,2.7s-1.5,1.5-2.5,1.8c-1.2,0.4-2.4,0.7-3.6,0.7c-1.4,0-2.7-0.2-4-0.7c-1.1-0.4-2-1.2-2.7-2.1
				c-0.6-1-0.9-2.1-0.9-3.2h0.8c-0.1,1.5,0.6,3,1.9,3.9c1.4,1,3.2,1.5,4.9,1.4c1.6,0.1,3.1-0.4,4.4-1.2
				C417.4,37.8,418,36.6,418,35.3z"/>
		</g>
		<line class="st2" x1="248.2" y1="57.8" x2="451.2" y2="57.8"/>
	</g>
</g>
<g id="collectors">
	<path class="st0" d="M535.5,31.5c0,1.6-0.3,3.2-1,4.7c-0.6,1.3-1.5,2.4-2.7,3.2s-2.6,1.1-4.1,1.1c-2.1,0.1-4.2-0.8-5.6-2.5
		c-1.5-1.9-2.3-4.3-2.1-6.7v-3c0-1.6,0.3-3.2,1-4.7c0.6-1.3,1.5-2.4,2.7-3.1c2.5-1.5,5.6-1.5,8.1,0c1.2,0.8,2.2,1.9,2.7,3.2
		c0.7,1.5,1,3.1,1,4.7V31.5z M534.7,28.4c0.1-2.2-0.6-4.3-1.9-6c-2.6-2.8-6.9-3-9.7-0.5c-0.2,0.1-0.3,0.3-0.5,0.5
		c-1.3,1.7-2,3.9-1.9,6.1v3c0,1.5,0.3,3,0.9,4.3c0.5,1.2,1.4,2.2,2.4,2.9c1.1,0.7,2.4,1,3.7,1c2,0.1,3.8-0.7,5.1-2.2
		c1.3-1.7,2-3.9,1.9-6.1V28.4z"/>
	<g>
		<path class="st1" d="M688.2,2.8v55h-203v-55H688.2"/>
		<line class="st2" x1="485.2" y1="57.8" x2="688.2" y2="57.8"/>
	</g>
	<g>
		<path class="st0" d="M516,34.2c-0.2,2.1-0.9,3.7-2.2,4.9c-1.3,1.1-3,1.7-5.1,1.7c-1.5,0-2.7-0.4-3.9-1.1c-1.1-0.7-2-1.8-2.6-3.1
			c-0.6-1.4-0.9-2.9-0.9-4.6v-3.2c0-1.7,0.3-3.3,0.9-4.7c0.6-1.4,1.5-2.4,2.6-3.2c1.1-0.7,2.4-1.1,3.9-1.1c2.1,0,3.8,0.6,5.1,1.7
			s2,2.7,2.2,4.8h-0.8c-0.2-1.9-0.9-3.3-2-4.3s-2.6-1.5-4.6-1.5c-2,0-3.6,0.7-4.8,2.2s-1.8,3.5-1.8,6v3c0,1.6,0.3,3,0.8,4.3
			s1.3,2.2,2.3,2.9c1,0.7,2.2,1,3.5,1c2,0,3.5-0.5,4.6-1.4s1.7-2.4,1.9-4.3H516z"/>
		<path class="st0" d="M535.2,31.8c0,1.8-0.3,3.3-0.9,4.7c-0.6,1.4-1.5,2.4-2.7,3.2c-1.2,0.7-2.5,1.1-4,1.1c-2.3,0-4.2-0.8-5.6-2.5
			s-2.1-3.8-2.1-6.6v-2.9c0-1.8,0.3-3.3,0.9-4.7c0.6-1.4,1.5-2.4,2.7-3.2c1.2-0.7,2.5-1.1,4-1.1c1.5,0,2.9,0.4,4.1,1.1
			s2.1,1.8,2.7,3.2c0.6,1.4,1,2.9,1,4.7V31.8z M534.5,28.7c0-2.5-0.6-4.5-1.9-5.9c-1.3-1.5-2.9-2.2-5.1-2.2c-2.1,0-3.8,0.7-5,2.2
			c-1.3,1.5-1.9,3.5-1.9,6.1v3c0,1.6,0.3,3.1,0.8,4.3c0.6,1.3,1.4,2.2,2.4,2.9c1,0.7,2.3,1,3.7,1c2.1,0,3.8-0.7,5.1-2.2
			c1.2-1.5,1.9-3.5,1.9-6.1V28.7z"/>
		<path class="st0" d="M540.7,39.7h10.5v0.8h-11.3V20h0.8V39.7z"/>
		<path class="st0" d="M555.5,39.7H566v0.8h-11.3V20h0.8V39.7z"/>
		<path class="st0" d="M580.6,30.3h-10.3v9.4H582v0.8h-12.4V20H582v0.8h-11.7v8.8h10.3V30.3z"/>
		<path class="st0" d="M599.9,34.2c-0.2,2.1-0.9,3.7-2.2,4.9c-1.3,1.1-3,1.7-5.1,1.7c-1.5,0-2.7-0.4-3.9-1.1c-1.1-0.7-2-1.8-2.6-3.1
			c-0.6-1.4-0.9-2.9-0.9-4.6v-3.2c0-1.7,0.3-3.3,0.9-4.7c0.6-1.4,1.5-2.4,2.6-3.2s2.4-1.1,3.9-1.1c2.1,0,3.8,0.6,5.1,1.7
			s2,2.7,2.2,4.8h-0.8c-0.2-1.9-0.9-3.3-2-4.3s-2.6-1.5-4.6-1.5c-2,0-3.6,0.7-4.8,2.2c-1.2,1.5-1.8,3.5-1.8,6v3c0,1.6,0.3,3,0.8,4.3
			c0.5,1.2,1.3,2.2,2.3,2.9c1,0.7,2.2,1,3.5,1c2,0,3.5-0.5,4.6-1.4s1.7-2.4,1.9-4.3H599.9z"/>
		<path class="st0" d="M617.8,20.8h-7.4v19.7h-0.8V20.8h-7.4V20h15.6V20.8z"/>
		<path class="st0" d="M635.5,31.8c0,1.8-0.3,3.3-0.9,4.7c-0.6,1.4-1.5,2.4-2.7,3.2c-1.2,0.7-2.5,1.1-4,1.1c-2.3,0-4.2-0.8-5.6-2.5
			s-2.1-3.8-2.1-6.6v-2.9c0-1.8,0.3-3.3,0.9-4.7c0.6-1.4,1.5-2.4,2.7-3.2s2.5-1.1,4-1.1c1.5,0,2.9,0.4,4.1,1.1s2.1,1.8,2.7,3.2
			c0.6,1.4,1,2.9,1,4.7V31.8z M634.7,28.7c0-2.5-0.6-4.5-1.9-5.9c-1.3-1.5-2.9-2.2-5.1-2.2c-2.1,0-3.8,0.7-5,2.2
			c-1.3,1.5-1.9,3.5-1.9,6.1v3c0,1.6,0.3,3.1,0.8,4.3c0.6,1.3,1.4,2.2,2.4,2.9c1,0.7,2.3,1,3.7,1c2.1,0,3.8-0.7,5.1-2.2
			c1.2-1.5,1.9-3.5,1.9-6.1V28.7z"/>
		<path class="st0" d="M647.9,31.7h-7.1v8.8h-0.8V20h6.5c2.1,0,3.7,0.5,4.9,1.6c1.2,1.1,1.8,2.5,1.8,4.3c0,1.4-0.4,2.6-1.3,3.7
			c-0.9,1-2,1.7-3.3,1.9l5.5,8.8v0.2h-0.8L647.9,31.7z M640.9,31h6.4c1.6,0,2.8-0.5,3.8-1.4c1-1,1.5-2.2,1.5-3.6
			c0-1.6-0.5-2.8-1.6-3.8c-1.1-0.9-2.5-1.4-4.4-1.4h-5.7V31z"/>
		<path class="st0" d="M671.2,35.6c0-0.9-0.2-1.6-0.6-2.2c-0.4-0.6-1-1.1-1.9-1.6s-2.2-0.9-4-1.4c-1.8-0.5-3.1-1-4-1.5
			c-0.9-0.5-1.5-1.1-1.9-1.7c-0.4-0.7-0.6-1.5-0.6-2.4c0-1.5,0.6-2.7,1.9-3.6c1.3-0.9,2.9-1.4,4.9-1.4c1.3,0,2.5,0.3,3.5,0.8
			c1,0.5,1.9,1.2,2.4,2.1c0.6,0.9,0.9,2,0.9,3.1H671c0-1.5-0.6-2.8-1.7-3.8c-1.1-1-2.6-1.5-4.4-1.5c-1.8,0-3.3,0.4-4.4,1.2
			c-1.1,0.8-1.7,1.8-1.7,3c0,1.2,0.5,2.2,1.4,3c1,0.7,2.6,1.4,4.8,2c2.2,0.6,3.8,1.2,4.9,2c1.3,1,2,2.3,2,3.9c0,1-0.3,1.9-0.9,2.7
			c-0.6,0.8-1.4,1.4-2.5,1.8s-2.3,0.6-3.6,0.6c-1.5,0-2.8-0.2-4-0.7c-1.2-0.5-2.1-1.2-2.7-2.1c-0.6-0.9-0.9-2-0.9-3.2h0.8
			c0,1.7,0.6,3,1.9,3.9c1.3,0.9,2.9,1.4,4.9,1.4c1.8,0,3.3-0.4,4.4-1.2C670.7,37.9,671.2,36.9,671.2,35.6z"/>
	</g>
</g>
</svg>
