<?xml version="1.0" encoding="utf-8"?>
<!-- Generator: Adobe Illustrator 21.1.0, SVG Export Plug-In . SVG Version: 6.00 Build 0)  -->
<svg version="1.1" id="Layer_1" xmlns="http://www.w3.org/2000/svg" xmlns:xlink="http://www.w3.org/1999/xlink" x="0px" y="0px"
	 viewBox="0 0 400 100" style="enable-background:new 0 0 400 100;" xml:space="preserve">
<style type="text/css">
	.st0{fill:#780A23;}
	.st1{fill:#FFFFFF;}
</style>
<title>campaign-logo</title>
<g>
	<rect x="147.5" y="21" class="st0" width="158.5" height="57.5"/>
	<g>
		<path d="M194.2,46.2c-0.4,0.1-0.8,0.6-1.1,1c0.4,0.2,0.9,0.7,1.2,0.6s0.9-0.5,1.3-0.8l-0.1-0.4C195.1,46.4,194.6,46.1,194.2,46.2z
			"/>
		<path d="M199.4,47.2c-0.6,0.3-1.4,1.1-1.3,1.5c0.2,0.7,0.9,1.3,1.4,1.9l1-1C200.5,48,199.9,46.9,199.4,47.2z"/>
		<path d="M219.3,49c0,0.3,0.4,0.7,0.6,1c0.3-0.3,0.8-0.5,0.8-0.8s-0.4-0.8-0.8-1.5C219.6,48.4,219.3,48.7,219.3,49z"/>
		<path d="M201,59.2c-0.6,0.3-1.5,1.1-1.4,1.6c0.1,0.7,0.9,1.3,1.4,1.9l1.7-2.1C202,60,201.3,59.1,201,59.2z"/>
		<path d="M185.9,44.1c0.4,0,0.9-0.5,1-0.9c0.1-0.2-0.5-0.7-0.9-1.2c-0.5,0.4-1.1,0.8-1,1C185.1,43.5,185.5,44.1,185.9,44.1z"/>
		<path d="M193.8,59c-0.8,0-1.8,0.3-1.7,1.2c0.1,0.6,0.8,1.2,1.3,1.8c1.3-0.3,1.8-0.8,1.8-1.7S194.6,59,193.8,59z"/>
		<path d="M190.3,40.3H190l-4.8,15.4h9.8L190.3,40.3z"/>
		<path d="M185.9,48.8c0.6-0.3,0.9-0.9,1.7-1.7l-1.8-1.6c-0.6,0.5-1,1.1-1.4,1.7C184.2,47.8,185.4,49.1,185.9,48.8z"/>
		<path d="M275.2,33.7l-1.4,0.1v0.7l1.4,0.2L275.2,33.7z"/>
		<path d="M235.1,35.7c-2.5-0.2-5-0.2-7.5-0.2c-0.3,0-0.8,0.4-0.8,0.7c0,3.9,0,7.8,0,11.9c0.2,0.1,0.4,0.1,0.6,0.1
			c2.2,0,4.4,0,6.6,0c4-0.1,6-2.1,6.2-6.1C240.2,38.6,238.2,36,235.1,35.7z"/>
		<path d="M274.7,45.7c-1.1,0-1.3,0.7-1.3,1.7c0,0.3-0.4,0.6-0.7,0.8c-0.5,0.3-1.1,0.4-1.5,0.7c-0.8,0.3-1.2,1.2-0.9,1.9
			c0.1,0.3,0.3,0.5,0.5,0.7c0.7,0.6,1.5,1.1,2.4,1.5c1.1,0.4,1.7,0,1.7-1.2c-0.1-0.8,0.3-1.5,0.9-2c0.4-0.4,0.7-0.9,0.9-1.5
			c0-0.4,0-0.4,0-0.5C276.7,46.7,275.8,45.8,274.7,45.7z"/>
		<path d="M-0.7,20.8v58.5h360.2V20.8H-0.7z M200.3,72.8c-0.8-2.5-1.6-5-2.3-7.5c-0.2-0.9-0.7-1.1-1.5-1.1c-4.3,0-8.6,0-12.9,0
			c-0.7-0.1-1.4,0.4-1.5,1.1c0,0,0,0,0,0c-0.7,2.5-1.6,5-2.3,7.4h-11.7c2.4-6.5,4.7-13,7.1-19.5c0.2-0.4,0.6-0.7,1-0.9
			c1.3-0.6,1.4-1,0.7-2.2c-0.2-0.4-0.2-0.8-0.1-1.2c2.5-7,5.1-13.9,7.6-20.9c0.1-0.7,0.8-1.1,1.5-1c2.7,0,5.4,0.1,8.1,0
			c0.8-0.1,1.5,0.4,1.7,1.2c5.1,13.9,10.2,27.8,15.4,41.7c0.4,1,0.7,1.9,1.1,2.8L200.3,72.8z M251.3,70.3c-0.9,0.6-1.9,1.1-2.9,1.5
			c-0.5,0.2-1.1,0.2-1.6,0c-1.3-0.7-2.9-0.2-3.5,1.1h-2.6c-2.6-5.2-5.1-10.4-7.7-15.6c-0.1-0.3-0.4-0.5-0.7-0.5c-1.8,0-3.6,0-5.6,0
			c0,0.8,0,1.3,0,1.9c0,4.8,0,9.5-0.1,14.3h-1.1l-3.9-1.9l0.6,1.8h-5.6l-1-0.5v-45h20.7c-0.2,0.7-0.2,1.5-0.2,2.3
			c0.1,1.1,0.9,1.4,1.7,0.6c0.5-0.4,0.8-0.9,1.1-1.4c0.4-1,1-1.1,1.9-0.7c1.2,0.5,2.7,0.5,3.4,2c0.1,0.2,0.2,0.3,0.4,0.3
			c3,0.2,4,2.6,5,4.7c3.3,6.8,0.6,15-6.1,18.5c-0.2,0.1-0.4,0.2-0.6,0.4l1.2,2.5c-0.5,0.8-0.8,1.7-1.1,2.6c0,0.5,0.3,0.9,0.7,1.1
			c3.1,0.8,3.3,1,4.3,4c-3.3,0.4-3.6,1.4-2.6,4.6c0.6,2,0.7,1.9,2.6,1.2c0.8-0.3,1.7-0.4,2.6-0.4c0.4,0.1,0.8,0.2,1.2,0.4
			L251.3,70.3z M292.9,35.8h-4.7c-2.5,0-5,0.1-7.4,0c-1.3,0-1.6,0.3-1.6,1.6c0,11.3,0,22.6,0,33.9v1.6c-0.4,0-0.7,0.2-0.8,0
			c-2-1.7-4.3-1.1-6.5-1c-1.2,0-2.4,0.4-3.1-1c-0.3-0.5-0.5-1.1-0.5-1.6c0-10.6,0-21.2,0-31.8v-1.7h-13.7v-8.5c2.5,0,5,0,7.4,0
			c1.2,0.1,2.4,0.3,3.6,0.5c0.4-0.2,0.9-0.4,1.4-0.5c5.3,0,10.7,0,16,0c0.5,0.1,0.9,0.3,1.2,0.6c0.7,0.7,1.9,1.1,2.5,0.3
			c1-1.4,2.3-0.8,3.6-1c-1,2.9-0.1,4.3,2.7,4.1L292.9,35.8z"/>
		<path d="M273.4,42.2c-0.4-0.3-0.8-0.8-1.1-0.7c-0.8,0.2-1.3,0.8-0.8,2.1L273.4,42.2z"/>
		<path d="M238.9,55c0.7,0.6,1.5,1.1,2.5,0.5c0.1-0.3,0.1-0.6,0-0.9c-0.7-0.6-1.8-0.5-2.3,0.2C239,54.9,238.9,54.9,238.9,55z"/>
	</g>
	<g>
		<g>
			<path class="st1" d="M64,58.2v8.4h-0.7V46.7h6.2c1.7-0.1,3.4,0.4,4.7,1.5c1.2,1.1,1.8,2.7,1.7,4.3c0.1,1.6-0.5,3.1-1.7,4.2
				c-1.3,1.1-3,1.6-4.7,1.5L64,58.2z M64,57.5h5.5c1.5,0.1,3-0.4,4.2-1.3c1-0.9,1.6-2.3,1.5-3.6c0.1-1.4-0.5-2.8-1.5-3.8
				c-1.2-1-2.7-1.4-4.2-1.3H64V57.5z"/>
			<path class="st1" d="M87.7,58.1h-6.9v8.5H80V46.7h6.3c1.7-0.1,3.4,0.5,4.8,1.5c1.2,1.1,1.8,2.6,1.8,4.2c0,1.3-0.4,2.6-1.2,3.6
				c-0.8,1-2,1.7-3.2,1.9l5.3,8.5v0.2H93L87.7,58.1z M80.8,57.3h6.3c1.4,0.1,2.7-0.4,3.7-1.4c0.9-0.9,1.5-2.2,1.4-3.5
				c0.1-1.4-0.5-2.8-1.6-3.7c-1.2-1-2.7-1.4-4.3-1.3h-5.6L80.8,57.3z"/>
			<path class="st1" d="M99.7,66.6H99V46.7h0.7L99.7,66.6z"/>
			<path class="st1" d="M117.7,61.8c0-0.8-0.2-1.5-0.6-2.2c-0.5-0.7-1.1-1.2-1.9-1.6c-1.2-0.6-2.5-1.1-3.9-1.4
				c-1.3-0.3-2.6-0.8-3.9-1.4c-0.8-0.4-1.4-1-1.9-1.7c-0.4-0.7-0.6-1.5-0.6-2.3c0-1.4,0.7-2.7,1.8-3.5c1.4-1,3.1-1.4,4.8-1.3
				c1.2,0,2.4,0.2,3.4,0.8c1,0.5,1.8,1.2,2.4,2.1c0.6,0.9,0.8,1.9,0.8,3h-0.7c0-1.4-0.6-2.8-1.6-3.7c-1.2-1-2.7-1.5-4.3-1.5
				c-1.5-0.1-3,0.3-4.3,1.2c-1.7,1.1-2.1,3.3-1.1,4.9c0.2,0.3,0.5,0.7,0.8,0.9c1.4,0.9,3,1.6,4.7,1.9c1.7,0.4,3.3,1.1,4.8,2
				c1.2,0.9,2,2.3,1.9,3.8c0,1-0.3,1.9-0.9,2.7c-0.6,0.8-1.5,1.4-2.4,1.8c-1.1,0.4-2.3,0.6-3.5,0.6c-1.3,0-2.7-0.2-3.9-0.7
				c-1-0.4-1.9-1.1-2.6-2c-0.6-0.9-0.9-2-0.9-3.1h0.7c-0.1,1.5,0.6,2.9,1.8,3.8c1.4,1,3.1,1.4,4.8,1.4c1.5,0.1,3-0.4,4.3-1.2
				C117.1,64.3,117.7,63.1,117.7,61.8z"/>
			<path class="st1" d="M136.4,58.1c0,1.6-0.3,3.1-0.9,4.6c-0.6,1.3-1.5,2.3-2.6,3.1c-1.2,0.7-2.5,1.1-3.9,1.1
				c-2.1,0.1-4.1-0.8-5.4-2.4c-1.5-1.8-2.2-4.1-2.1-6.5v-2.8c0-1.6,0.3-3.1,0.9-4.6c0.6-1.3,1.5-2.3,2.7-3.1c2.4-1.5,5.5-1.5,7.9,0
				c1.2,0.7,2.1,1.8,2.6,3.1c0.6,1.4,1,3,0.9,4.6L136.4,58.1z M135.7,55.1c0.1-2.1-0.5-4.1-1.8-5.8c-2.5-2.7-6.7-2.9-9.4-0.4
				c-0.2,0.1-0.3,0.3-0.4,0.4c-1.3,1.7-1.9,3.8-1.8,5.9v2.9c0,1.4,0.3,2.9,0.8,4.2c0.5,1.1,1.3,2.1,2.4,2.8c1.1,0.7,2.3,1,3.6,1
				c1.9,0.1,3.7-0.7,4.9-2.2c1.3-1.7,2-3.8,1.8-6L135.7,55.1z"/>
			<path class="st1" d="M155.4,66.6h-0.7l-12.9-18.7v18.7H141V46.7h0.8l12.9,18.6V46.7h0.7L155.4,66.6z"/>
		</g>
		<g>
			<path class="st1" d="M65.6,39.5h-0.8v-5.2l-1.6,0.6v-0.7l2.2-0.8h0.1L65.6,39.5z"/>
			<path class="st1" d="M68.3,36.4l0.3-3h3.1v0.7h-2.5L69,35.7c0.3-0.2,0.6-0.3,1-0.3c0.5,0,1,0.2,1.3,0.5c0.3,0.4,0.5,0.9,0.5,1.5
				c0,0.5-0.2,1.1-0.5,1.5c-0.4,0.4-0.9,0.6-1.4,0.5c-0.5,0-1-0.1-1.3-0.5c-0.3-0.3-0.6-0.8-0.6-1.2h0.7c0,0.3,0.2,0.6,0.4,0.8
				c0.2,0.2,0.5,0.3,0.8,0.3c0.3,0,0.6-0.1,0.8-0.4c0.2-0.3,0.3-0.6,0.3-1c0-0.4-0.1-0.7-0.3-1c-0.2-0.3-0.6-0.4-0.9-0.4
				c-0.3,0-0.6,0.1-0.8,0.2l-0.2,0.2L68.3,36.4z"/>
			<path class="st1" d="M73,40h-0.7l2.6-6.6h0.7L73,40z"/>
			<path class="st1" d="M78.8,39.5H78v-5.2l-1.6,0.6v-0.7l2.2-0.8h0.1L78.8,39.5z"/>
			<path class="st1" d="M84.9,36.9c0,0.7-0.1,1.4-0.5,2c-0.7,0.8-1.9,0.9-2.7,0.2c-0.1-0.1-0.1-0.1-0.2-0.2
				c-0.4-0.6-0.5-1.3-0.5-1.9v-1c0-0.7,0.1-1.4,0.5-2c0.8-0.8,2-0.8,2.8-0.1c0,0,0.1,0.1,0.1,0.1c0.4,0.6,0.5,1.3,0.5,2L84.9,36.9z
				 M84.1,35.8c0-0.5-0.1-1-0.3-1.4c-0.2-0.3-0.5-0.5-0.9-0.5c-0.4,0-0.7,0.1-0.9,0.5c-0.2,0.4-0.3,0.9-0.3,1.4V37
				c0,0.5,0.1,1,0.3,1.5c0.2,0.3,0.5,0.5,0.9,0.5c0.3,0,0.7-0.1,0.8-0.4c0.2-0.4,0.3-0.9,0.3-1.4L84.1,35.8z"/>
			<path class="st1" d="M86.1,40h-0.7l2.5-6.6h0.7L86.1,40z"/>
			<path class="st1" d="M93.4,39.5h-4v-0.6l2.1-2.3c0.2-0.3,0.5-0.6,0.6-0.9c0.1-0.2,0.2-0.4,0.2-0.7c0-0.3-0.1-0.6-0.3-0.8
				c-0.2-0.2-0.5-0.3-0.8-0.3c-0.3,0-0.7,0.1-0.9,0.3c-0.2,0.3-0.3,0.6-0.3,0.9h-0.8c0-0.5,0.2-1,0.5-1.4c0.4-0.4,0.9-0.5,1.4-0.5
				c0.5,0,1,0.1,1.4,0.5c0.3,0.3,0.5,0.7,0.5,1.2c-0.1,0.8-0.5,1.6-1.1,2.2l-1.6,1.8h3.1V39.5z"/>
			<path class="st1" d="M98.1,36.9c0,0.7-0.1,1.4-0.5,2c-0.7,0.8-1.9,0.9-2.7,0.2c-0.1-0.1-0.1-0.1-0.2-0.2
				c-0.4-0.6-0.5-1.3-0.5-1.9v-1c0-0.7,0.1-1.4,0.5-2c0.8-0.8,2-0.8,2.8-0.1c0,0,0.1,0.1,0.1,0.1c0.4,0.6,0.5,1.3,0.5,2V36.9z
				 M97.3,35.8c0-0.5-0.1-1-0.3-1.4c-0.2-0.3-0.5-0.5-0.9-0.5c-0.4,0-0.7,0.1-0.9,0.5c-0.2,0.4-0.3,0.9-0.3,1.4V37
				c0,0.5,0.1,1,0.3,1.5c0.2,0.3,0.5,0.5,0.9,0.5c0.3,0,0.7-0.1,0.9-0.4c0.2-0.4,0.3-0.9,0.3-1.4L97.3,35.8z"/>
			<path class="st1" d="M101.6,39.5h-0.8v-5.2l-1.6,0.6v-0.7l2.2-0.8h0.1V39.5z"/>
			<path class="st1" d="M107.8,33.8l-2.5,5.7h-0.8L107,34h-3.3v-0.6h4.1L107.8,33.8z"/>
			<path class="st1" d="M110.4,37.2h-2v-0.6h2V37.2z"/>
			<path class="st1" d="M115.1,39.5h-4v-0.6l2.1-2.3c0.2-0.3,0.5-0.6,0.6-0.9c0.1-0.2,0.2-0.4,0.2-0.7c0-0.3-0.1-0.6-0.3-0.8
				c-0.2-0.2-0.5-0.3-0.8-0.3c-0.3,0-0.7,0.1-0.9,0.3c-0.2,0.3-0.3,0.6-0.3,0.9H111c0-0.5,0.2-1,0.5-1.4c0.4-0.4,0.9-0.5,1.4-0.5
				c0.5,0,1,0.1,1.4,0.5c0.3,0.3,0.5,0.7,0.5,1.2c-0.1,0.8-0.5,1.6-1.1,2.2l-1.7,1.8h3.1L115.1,39.5z"/>
			<path class="st1" d="M117,36h0.6c0.3,0,0.6-0.1,0.9-0.3c0.2-0.2,0.3-0.5,0.3-0.8c0-0.6-0.4-1-0.9-1.1c0,0-0.1,0-0.1,0
				c-0.3,0-0.6,0.1-0.8,0.3c-0.2,0.2-0.3,0.5-0.3,0.8h-0.8c0-0.5,0.2-0.9,0.5-1.2c0.4-0.3,0.9-0.5,1.4-0.5c0.5,0,1,0.1,1.4,0.5
				c0.3,0.3,0.5,0.8,0.5,1.3c0,0.3-0.1,0.5-0.3,0.8c-0.2,0.3-0.4,0.4-0.7,0.6c0.3,0.1,0.6,0.3,0.8,0.5c0.2,0.3,0.3,0.6,0.3,0.9
				c0,0.5-0.2,1-0.5,1.3c-0.4,0.3-0.9,0.5-1.4,0.5c-0.5,0-1-0.1-1.4-0.5c-0.4-0.3-0.6-0.8-0.5-1.2h0.8c0,0.3,0.1,0.6,0.3,0.8
				c0.2,0.2,0.5,0.3,0.8,0.3c0.3,0,0.6-0.1,0.9-0.3c0.2-0.2,0.3-0.5,0.3-0.8c0-0.3-0.1-0.6-0.3-0.8c-0.3-0.2-0.6-0.3-0.9-0.3H117V36
				z"/>
			<path class="st1" d="M121,40h-0.7l2.6-6.6h0.7L121,40z"/>
			<path class="st1" d="M126.8,39.5H126v-5.2l-1.6,0.6v-0.7l2.2-0.8h0.1L126.8,39.5z"/>
			<path class="st1" d="M133.1,39.5h-4v-0.6l2.1-2.3c0.2-0.3,0.5-0.6,0.6-0.9c0.1-0.2,0.2-0.4,0.2-0.7c0-0.3-0.1-0.6-0.3-0.8
				c-0.2-0.2-0.5-0.3-0.8-0.3c-0.3,0-0.7,0.1-0.9,0.3c-0.2,0.3-0.3,0.6-0.3,0.9H129c0-0.5,0.2-1,0.5-1.4c0.4-0.4,0.9-0.5,1.4-0.5
				c0.5,0,1,0.1,1.4,0.5c0.3,0.3,0.5,0.7,0.5,1.2c-0.1,0.8-0.5,1.6-1.1,2.2l-1.7,1.8h3.1L133.1,39.5z"/>
			<path class="st1" d="M134.1,40h-0.7l2.5-6.6h0.7L134.1,40z"/>
			<path class="st1" d="M141.4,39.5h-4v-0.6l2.1-2.3c0.2-0.3,0.5-0.6,0.6-0.9c0.1-0.2,0.2-0.4,0.2-0.7c0-0.3-0.1-0.6-0.3-0.8
				c-0.2-0.2-0.5-0.3-0.8-0.3c-0.3,0-0.7,0.1-0.9,0.3c-0.2,0.3-0.3,0.6-0.3,0.9h-0.8c0-0.5,0.2-1,0.5-1.4c0.4-0.4,0.9-0.5,1.4-0.5
				c0.5,0,1,0.1,1.4,0.5c0.3,0.3,0.5,0.7,0.5,1.2c-0.1,0.8-0.5,1.6-1.1,2.2l-1.6,1.8h3.1V39.5z"/>
			<path class="st1" d="M146.1,36.9c0,0.7-0.1,1.4-0.5,2c-0.7,0.8-1.9,0.9-2.7,0.2c-0.1-0.1-0.1-0.1-0.2-0.2
				c-0.4-0.6-0.5-1.3-0.5-1.9v-1c0-0.7,0.1-1.4,0.5-2c0.8-0.8,2-0.8,2.8-0.1c0,0,0.1,0.1,0.1,0.1c0.4,0.6,0.5,1.3,0.5,2V36.9z
				 M145.3,35.8c0-0.5-0.1-1-0.3-1.4c-0.2-0.3-0.5-0.5-0.9-0.5c-0.4,0-0.7,0.1-0.9,0.5c-0.2,0.4-0.3,0.9-0.3,1.4V37
				c0,0.5,0.1,1,0.3,1.5c0.2,0.3,0.5,0.5,0.9,0.5c0.3,0,0.7-0.1,0.9-0.4c0.2-0.4,0.3-0.9,0.3-1.4L145.3,35.8z"/>
			<path class="st1" d="M149.6,39.5h-0.8v-5.2l-1.6,0.6v-0.7l2.2-0.8h0.1V39.5z"/>
			<path class="st1" d="M155.8,33.8l-2.5,5.7h-0.8L155,34h-3.3v-0.6h4.1L155.8,33.8z"/>
		</g>
	</g>
</g>
</svg>
