<?xml version="1.0" encoding="utf-8"?>
<!-- Generator: Adobe Illustrator 21.1.0, SVG Export Plug-In . SVG Version: 6.00 Build 0)  -->
<svg version="1.1" id="Layer_1" xmlns="http://www.w3.org/2000/svg" xmlns:xlink="http://www.w3.org/1999/xlink" x="0px" y="0px"
	 viewBox="0 0 400 100" style="enable-background:new 0 0 400 100;" xml:space="preserve">
<style type="text/css">
	.st0{fill:#780A23;}
	.st1{fill:#FFFFFF;}
	.st2{fill:none;stroke:#780A23;stroke-width:3;stroke-miterlimit:10;}
</style>
<title>campaign-logo</title>
<rect x="138.4" y="8.5" class="st0" width="213.5" height="77.5"/>
<path d="M201.3,42.4c-0.5,0.1-1.1,0.8-1.4,1.3c0.5,0.3,1.2,0.9,1.6,0.8c0.4-0.1,1.2-0.6,1.7-1.1l-0.1-0.5
	C202.4,42.7,201.8,42.3,201.3,42.4z"/>
<path d="M208.3,43.8c-0.8,0.4-1.9,1.4-1.7,2c0.3,0.9,1.2,1.7,1.9,2.5l1.3-1.3C209.7,44.9,208.9,43.3,208.3,43.8z"/>
<path d="M235,46.2c0,0.4,0.5,0.9,0.8,1.3c0.4-0.4,1.1-0.6,1.1-1.1c0-0.4-0.5-1.1-1.1-2C235.5,45.4,235,45.8,235,46.2z"/>
<path d="M210.4,60c-0.8,0.4-2,1.4-1.9,2.2c0.1,0.9,1.2,1.7,1.9,2.5l2.2-2.8C211.8,61,210.8,59.8,210.4,60z"/>
<path d="M190,39.6c0.5,0,1.2-0.6,1.3-1.2c0.1-0.3-0.6-0.9-1.2-1.6c-0.6,0.5-1.4,1.1-1.3,1.3C188.9,38.7,189.5,39.6,190,39.6z"/>
<path d="M200.7,59.7c-1.1,0-2.4,0.4-2.2,1.6c0.1,0.8,1.1,1.6,1.7,2.4c1.7-0.4,2.4-1.1,2.4-2.2C202.6,60.2,201.8,59.7,200.7,59.7z"/>
<path d="M196,34.4h-0.4l-6.5,20.8h13.2L196,34.4z"/>
<path d="M190,45.9c0.8-0.4,1.2-1.2,2.2-2.2l-2.4-2.2c-0.8,0.6-1.3,1.4-1.9,2.2C187.8,44.6,189.4,46.3,190,45.9z"/>
<path d="M310.3,25.5l-1.9,0.1v0.9l1.9,0.4V25.5z"/>
<path d="M256.3,28.2C253,28,249.6,28,246.3,28c-0.4,0-1.1,0.5-1.1,0.9c0,5.2,0,10.5,0,16c0.3,0.1,0.5,0.1,0.8,0.1c3,0,5.9,0,8.9,0
	c5.4-0.1,8.1-2.8,8.4-8.2C263.2,32.2,260.6,28.7,256.3,28.2z"/>
<path d="M309.7,41.7c-1.4,0-1.7,0.9-1.7,2.2c0,0.4-0.5,0.8-0.9,1.1c-0.6,0.4-1.4,0.5-2,0.9c-1.1,0.4-1.6,1.6-1.2,2.5
	c0.1,0.4,0.4,0.6,0.6,0.9c0.9,0.8,2,1.4,3.2,2c1.4,0.5,2.2,0,2.2-1.6c-0.1-1.1,0.4-2,1.2-2.7c0.5-0.5,0.9-1.2,1.2-2
	c0-0.5,0-0.5,0-0.6C312.4,43.1,311.1,41.9,309.7,41.7z"/>
<path d="M3.4,8.2V87h354.9V8.2H3.4z M209.4,78.3c-1.1-3.3-2.2-6.7-3.1-10.1c-0.3-1.2-0.9-1.4-2-1.4c-5.8,0-11.6,0-17.3,0
	c-0.9-0.1-1.9,0.5-2,1.4l0,0c-0.9,3.3-2.2,6.7-3.1,10h-15.7c3.2-8.7,6.3-17.5,9.5-26.2c0.3-0.5,0.8-0.9,1.3-1.2
	c1.7-0.8,1.9-1.3,0.9-3c-0.3-0.5-0.3-1.1-0.1-1.6c3.3-9.4,6.8-18.7,10.2-28.1c0.1-0.9,1.1-1.4,2-1.3c3.6,0,7.3,0.1,10.9,0
	c1.1-0.1,2,0.5,2.2,1.6c6.8,18.7,13.7,37.5,20.8,56.2c0.5,1.3,0.9,2.5,1.4,3.8H209.4z M278.2,74.9c-1.2,0.8-2.5,1.4-3.9,2
	c-0.6,0.3-1.4,0.3-2.2,0c-1.7-0.9-3.9-0.3-4.7,1.4H264c-3.5-7-6.8-14-10.3-21c-0.1-0.4-0.5-0.6-0.9-0.6c-2.4,0-4.9,0-7.5,0
	c0,1.1,0,1.7,0,2.5c0,6.5,0,12.8-0.1,19.2h-1.4l-5.2-2.5l0.8,2.4h-7.5l-1.3-0.6V17.1h27.9c-0.3,0.9-0.3,2-0.3,3.1
	c0.1,1.4,1.2,1.9,2.2,0.8c0.6-0.5,1.1-1.2,1.4-1.9c0.5-1.3,1.3-1.4,2.5-0.9c1.6,0.6,3.6,0.6,4.6,2.7c0.1,0.3,0.3,0.4,0.5,0.4
	c4,0.3,5.4,3.5,6.7,6.3c4.4,9.2,0.8,20.2-8.2,24.9c-0.3,0.1-0.5,0.3-0.8,0.5l1.6,3.3c-0.6,1.1-1.1,2.2-1.4,3.5
	c0,0.6,0.4,1.2,0.9,1.4c4.1,1.1,4.4,1.3,5.8,5.4c-4.4,0.5-4.9,1.9-3.5,6.2c0.8,2.7,0.9,2.5,3.5,1.6c1.1-0.4,2.2-0.5,3.5-0.5
	c0.5,0.1,1.1,0.3,1.6,0.5L278.2,74.9z M334.2,28.4h-6.3c-3.3,0-6.7,0.1-10,0c-1.7,0-2.2,0.4-2.2,2.2c0,15.2,0,30.5,0,45.6v2.2
	c-0.5,0-0.9,0.3-1.1,0c-2.7-2.2-5.8-1.4-8.7-1.3c-1.6,0-3.2,0.5-4.1-1.3c-0.4-0.6-0.6-1.4-0.6-2.2c0-14.3,0-28.6,0-42.9v-2.2h-18.4
	V16.9c3.3,0,6.7,0,10,0c1.6,0.1,3.2,0.4,4.9,0.6c0.5-0.3,1.2-0.5,1.9-0.6c7.1,0,14.4,0,21.6,0c0.6,0.1,1.2,0.4,1.6,0.8
	c0.9,0.9,2.5,1.4,3.3,0.4c1.3-1.9,3.1-1.1,4.9-1.3c-1.3,3.9-0.1,5.8,3.6,5.5L334.2,28.4z"/>
<path d="M307.9,37c-0.5-0.4-1.1-1.1-1.4-0.9c-1.1,0.3-1.7,1.1-1.1,2.8L307.9,37z"/>
<path d="M261.5,54.3c0.9,0.8,2,1.4,3.3,0.6c0.1-0.4,0.1-0.8,0-1.2c-0.9-0.8-2.4-0.6-3.1,0.3C261.6,54.1,261.5,54.1,261.5,54.3z"/>
<g>
	<g>
		<path class="st1" d="M25.9,58.6v11.3H25V43.1h8.4c2.2-0.1,4.6,0.5,6.3,2c1.6,1.4,2.4,3.6,2.2,5.8c0.1,2.2-0.6,4.1-2.2,5.7
			c-1.7,1.4-4,2.2-6.3,2h-7.5C25.9,58.4,25.9,58.6,25.9,58.6z M25.9,57.6h7.4c2,0.1,4-0.5,5.7-1.7c1.3-1.2,2.2-3.1,2-4.9
			c0.1-1.9-0.6-3.8-2-5.1c-1.6-1.3-3.6-1.9-5.7-1.7h-7.4C25.9,44.2,25.9,57.6,25.9,57.6z"/>
		<path class="st1" d="M57.8,58.4h-9.3v11.4h-1.1V43.1h8.4c2.2-0.1,4.6,0.6,6.5,2c1.6,1.4,2.4,3.5,2.4,5.7c0,1.7-0.5,3.5-1.6,4.9
			c-1.1,1.3-2.7,2.2-4.3,2.5l7.1,11.4v0.3h-1.1L57.8,58.4z M48.5,57.3H57c1.9,0.1,3.6-0.5,4.9-1.9c1.2-1.2,2-3,1.9-4.7
			c0.1-1.9-0.6-3.8-2.2-4.9C60,44.5,58,44,55.9,44.1h-7.5L48.5,57.3z"/>
		<path class="st1" d="M73.9,69.9H73V43.1h0.9V69.9z"/>
		<path class="st1" d="M98.2,63.5c0-1.1-0.3-2-0.8-3c-0.6-0.9-1.4-1.6-2.5-2.2c-1.6-0.8-3.3-1.4-5.2-1.9c-1.7-0.4-3.5-1.1-5.2-1.9
			c-1.1-0.5-1.9-1.3-2.5-2.2c-0.5-0.9-0.8-2-0.8-3.1c0-1.9,0.9-3.6,2.4-4.7c1.9-1.3,4.1-1.9,6.5-1.7c1.6,0,3.2,0.3,4.6,1.1
			c1.3,0.6,2.4,1.6,3.2,2.8c0.8,1.2,1.1,2.5,1.1,4H98c0-1.9-0.8-3.8-2.2-4.9c-1.6-1.3-3.6-2-5.8-2c-2-0.1-4,0.4-5.8,1.6
			c-2.2,1.4-2.8,4.4-1.4,6.6c0.3,0.4,0.6,0.9,1.1,1.2c1.9,1.2,4,2.2,6.3,2.5c2.2,0.5,4.4,1.4,6.5,2.7c1.6,1.2,2.7,3.1,2.5,5.1
			c0,1.3-0.4,2.5-1.2,3.6s-2,1.9-3.2,2.4c-1.4,0.5-3.1,0.8-4.7,0.8c-1.7,0-3.6-0.3-5.2-0.9c-1.3-0.5-2.5-1.4-3.5-2.7
			c-0.8-1.2-1.2-2.7-1.2-4.1h0.9c-0.1,2,0.8,3.9,2.4,5.1c1.9,1.3,4.1,1.9,6.5,1.9c2,0.1,4-0.5,5.8-1.6
			C97.4,66.8,98.2,65.2,98.2,63.5z"/>
		<path class="st1" d="M123.4,58.4c0,2.2-0.4,4.1-1.2,6.2c-0.8,1.7-2,3.1-3.5,4.1c-1.6,0.9-3.3,1.4-5.2,1.4
			c-2.8,0.1-5.5-1.1-7.3-3.2c-2-2.4-3-5.5-2.8-8.7v-3.8c0-2.2,0.4-4.1,1.2-6.2c0.8-1.7,2-3.1,3.6-4.1c3.2-2,7.4-2,10.6,0
			c1.6,0.9,2.8,2.4,3.5,4.1c0.8,1.9,1.3,4,1.2,6.2L123.4,58.4z M122.5,54.4c0.1-2.8-0.6-5.5-2.4-7.8c-3.3-3.6-9-3.9-12.7-0.5
			c-0.3,0.1-0.4,0.4-0.5,0.5c-1.7,2.2-2.5,5.1-2.4,7.9v3.9c0,1.9,0.4,3.9,1.1,5.7c0.6,1.4,1.7,2.8,3.2,3.8c1.4,0.9,3.1,1.3,4.9,1.3
			c2.5,0.1,4.9-0.9,6.6-3c1.7-2.2,2.7-5.1,2.4-8.1L122.5,54.4z"/>
		<path class="st1" d="M149,69.9h-0.9l-17.3-25.2v25.2h-1.1V43.1h1.1l17.3,25.1V43.1h0.9V69.9z"/>
	</g>
	<g>
		<path class="st1" d="M28,33.4h-1.1v-7l-2.2,0.8v-0.9l3-1.1h0.1L28,33.4z"/>
		<path class="st1" d="M31.6,29.2l0.4-4h4.1v0.9h-3.3l-0.3,2.2c0.4-0.3,0.8-0.4,1.3-0.4c0.6,0,1.3,0.3,1.7,0.6
			c0.4,0.5,0.6,1.2,0.6,2c0,0.6-0.3,1.4-0.6,2c-0.5,0.5-1.2,0.8-1.9,0.6c-0.6,0-1.3-0.1-1.7-0.6c-0.4-0.4-0.8-1.1-0.8-1.6h0.9
			c0,0.4,0.3,0.8,0.5,1.1c0.3,0.3,0.6,0.4,1.1,0.4c0.4,0,0.8-0.1,1.1-0.5c0.3-0.4,0.4-0.8,0.4-1.3c0-0.5-0.1-0.9-0.4-1.3
			c-0.3-0.4-0.8-0.5-1.2-0.5c-0.4,0-0.8,0.1-1.1,0.3L32.2,29L31.6,29.2z"/>
		<path class="st1" d="M38,34.1h-0.9l3.5-8.9h0.9L38,34.1z"/>
		<path class="st1" d="M45.8,33.4h-1.1v-7l-2.2,0.8v-0.9l3-1.1h0.1L45.8,33.4z"/>
		<path class="st1" d="M54,29.9c0,0.9-0.1,1.9-0.6,2.7c-0.9,1.1-2.5,1.2-3.6,0.3c-0.1-0.1-0.1-0.1-0.3-0.3c-0.5-0.8-0.6-1.7-0.6-2.5
			v-1.3c0-0.9,0.1-1.9,0.6-2.7c1.1-1.1,2.7-1.1,3.8-0.1l0.1,0.1c0.5,0.8,0.6,1.7,0.6,2.7V29.9z M52.9,28.4c0-0.6-0.1-1.3-0.4-1.9
			c-0.3-0.4-0.6-0.6-1.2-0.6c-0.5,0-0.9,0.1-1.2,0.6c-0.3,0.5-0.4,1.2-0.4,1.9V30c0,0.6,0.1,1.3,0.4,2c0.3,0.4,0.6,0.6,1.2,0.6
			c0.4,0,0.9-0.1,1.1-0.5c0.3-0.5,0.4-1.2,0.4-1.9L52.9,28.4z"/>
		<path class="st1" d="M55.6,34.1h-0.9l3.3-8.9h0.9L55.6,34.1z"/>
		<path class="st1" d="M65.5,33.4h-5.4v-0.8l2.8-3.1c0.3-0.4,0.6-0.8,0.8-1.2c0.1-0.3,0.3-0.5,0.3-0.9s-0.1-0.8-0.4-1.1
			C63.3,26.1,63,26,62.5,26c-0.4,0-0.9,0.1-1.2,0.4c-0.3,0.4-0.4,0.8-0.4,1.2h-1.1c0-0.6,0.3-1.3,0.6-1.9c0.5-0.5,1.2-0.6,1.9-0.6
			c0.6,0,1.3,0.1,1.9,0.6c0.4,0.4,0.6,0.9,0.6,1.6c-0.1,1.1-0.6,2.2-1.4,3l-2.2,2.4h4.1L65.5,33.4L65.5,33.4z"/>
		<path class="st1" d="M71.8,29.9c0,0.9-0.1,1.9-0.6,2.7c-0.9,1.1-2.5,1.2-3.6,0.3c-0.1-0.1-0.1-0.1-0.3-0.3
			c-0.5-0.8-0.6-1.7-0.6-2.5v-1.3c0-0.9,0.1-1.9,0.6-2.7c1.1-1.1,2.7-1.1,3.8-0.1l0.1,0.1c0.5,0.8,0.6,1.7,0.6,2.7
			C71.8,28.7,71.8,29.9,71.8,29.9z M70.7,28.4c0-0.6-0.1-1.3-0.4-1.9c-0.3-0.4-0.6-0.6-1.2-0.6c-0.5,0-0.9,0.1-1.2,0.6
			c-0.3,0.5-0.4,1.2-0.4,1.9V30c0,0.6,0.1,1.3,0.4,2c0.3,0.4,0.6,0.6,1.2,0.6c0.4,0,0.9-0.1,1.2-0.5c0.3-0.5,0.4-1.2,0.4-1.9V28.4z"
			/>
		<path class="st1" d="M76.5,33.4h-1.1v-7l-2.2,0.8v-0.9l3-1.1h0.1v8.2H76.5z"/>
		<path class="st1" d="M84.9,25.7l-3.3,7.6h-1.1l3.3-7.4h-4.4v-0.8h5.5V25.7z"/>
		<path class="st1" d="M88.4,30.3h-2.7v-0.8h2.7V30.3z"/>
		<path class="st1" d="M94.7,33.4h-5.4v-0.8l2.8-3.1c0.3-0.4,0.6-0.8,0.8-1.2c0.1-0.3,0.3-0.5,0.3-0.9s-0.1-0.8-0.4-1.1
			c-0.3-0.3-0.6-0.4-1.1-0.4c-0.4,0-0.9,0.1-1.2,0.4c-0.3,0.4-0.4,0.8-0.4,1.2h-0.9c0-0.6,0.3-1.3,0.6-1.9c0.5-0.5,1.2-0.6,1.9-0.6
			c0.6,0,1.3,0.1,1.9,0.6c0.4,0.4,0.6,0.9,0.6,1.6c-0.1,1.1-0.6,2.2-1.4,3l-2.2,2.4h4.1L94.7,33.4z"/>
		<path class="st1" d="M97.3,28.7h0.8c0.4,0,0.8-0.1,1.2-0.4c0.3-0.3,0.4-0.6,0.4-1.1c0-0.8-0.5-1.3-1.2-1.4h-0.1
			c-0.4,0-0.8,0.1-1.1,0.4c-0.3,0.3-0.4,0.6-0.4,1.1h-1.1c0-0.6,0.3-1.2,0.6-1.6c0.5-0.4,1.2-0.6,1.9-0.6c0.6,0,1.3,0.1,1.9,0.6
			c0.4,0.4,0.6,1.1,0.6,1.7c0,0.4-0.1,0.6-0.4,1.1c-0.3,0.4-0.5,0.5-0.9,0.8c0.4,0.1,0.8,0.4,1.1,0.6c0.3,0.4,0.4,0.8,0.4,1.2
			c0,0.6-0.3,1.3-0.6,1.7c-0.5,0.4-1.2,0.6-1.9,0.6c-0.6,0-1.3-0.1-1.9-0.6c-0.5-0.4-0.8-1.1-0.6-1.6h1.1c0,0.4,0.1,0.8,0.4,1.1
			c0.3,0.3,0.6,0.4,1.1,0.4c0.4,0,0.8-0.1,1.2-0.4c0.3-0.3,0.4-0.6,0.4-1.1s-0.1-0.8-0.4-1.1c-0.4-0.3-0.8-0.4-1.2-0.4h-1.2
			L97.3,28.7L97.3,28.7z"/>
		<path class="st1" d="M102.6,34.1h-0.9l3.5-8.9h0.9L102.6,34.1z"/>
		<path class="st1" d="M110.4,33.4h-1.1v-7l-2.2,0.8v-0.9l3-1.1h0.1L110.4,33.4z"/>
		<path class="st1" d="M118.9,33.4h-5.4v-0.8l2.8-3.1c0.3-0.4,0.6-0.8,0.8-1.2c0.1-0.3,0.3-0.5,0.3-0.9s-0.1-0.8-0.4-1.1
			c-0.3-0.3-0.6-0.4-1.1-0.4c-0.4,0-0.9,0.1-1.2,0.4c-0.3,0.4-0.4,0.8-0.4,1.2h-0.9c0-0.6,0.3-1.3,0.6-1.9c0.5-0.5,1.2-0.6,1.9-0.6
			c0.6,0,1.3,0.1,1.9,0.6c0.4,0.4,0.6,0.9,0.6,1.6c-0.1,1.1-0.6,2.2-1.4,3l-2.2,2.4h4.1L118.9,33.4z"/>
		<path class="st1" d="M120.3,34.1h-0.9l3.3-8.9h0.9L120.3,34.1z"/>
		<path class="st1" d="M130.1,33.4h-5.4v-0.8l2.8-3.1c0.3-0.4,0.6-0.8,0.8-1.2c0.1-0.3,0.3-0.5,0.3-0.9s-0.1-0.8-0.4-1.1
			c-0.3-0.3-0.6-0.4-1.1-0.4c-0.4,0-0.9,0.1-1.2,0.4c-0.3,0.4-0.4,0.8-0.4,1.2h-1.1c0-0.6,0.3-1.3,0.6-1.9c0.5-0.5,1.2-0.6,1.9-0.6
			c0.7,0,1.3,0.1,1.9,0.6c0.4,0.4,0.6,0.9,0.6,1.6c-0.1,1.1-0.6,2.2-1.4,3l-2.2,2.4h4.1L130.1,33.4L130.1,33.4z"/>
		<path class="st1" d="M136.5,29.9c0,0.9-0.1,1.9-0.6,2.7c-0.9,1.1-2.5,1.2-3.6,0.3c-0.1-0.1-0.1-0.1-0.3-0.3
			c-0.5-0.8-0.6-1.7-0.6-2.5v-1.3c0-0.9,0.1-1.9,0.6-2.7c1.1-1.1,2.7-1.1,3.8-0.1l0.1,0.1c0.5,0.8,0.6,1.7,0.6,2.7V29.9L136.5,29.9z
			 M135.4,28.4c0-0.6-0.1-1.3-0.4-1.9c-0.3-0.4-0.6-0.6-1.2-0.6c-0.5,0-0.9,0.1-1.2,0.6c-0.3,0.5-0.4,1.2-0.4,1.9V30
			c0,0.6,0.1,1.3,0.4,2c0.3,0.4,0.6,0.6,1.2,0.6c0.4,0,0.9-0.1,1.2-0.5c0.3-0.5,0.4-1.2,0.4-1.9V28.4z"/>
		<path class="st1" d="M141.1,33.4h-1.1v-7l-2.2,0.8v-0.9l3-1.1h0.1v8.2H141.1z"/>
		<path class="st1" d="M149.5,25.7l-3.3,7.6h-1.1l3.3-7.4H144v-0.8h5.5L149.5,25.7L149.5,25.7z"/>
	</g>
</g>
<rect x="4.7" y="8.2" class="st2" width="353.1" height="78.8"/>
</svg>
