<?xml version="1.0" encoding="utf-8"?>
<!-- Generator: Adobe Illustrator 21.1.0, SVG Export Plug-In . SVG Version: 6.00 Build 0)  -->
<svg version="1.1" id="Layer_1" xmlns="http://www.w3.org/2000/svg" xmlns:xlink="http://www.w3.org/1999/xlink" x="0px" y="0px"
	 viewBox="0 0 400 100" style="enable-background:new 0 0 400 100;" xml:space="preserve">
<style type="text/css">
	.st0{opacity:0.5;}
	.st1{fill:#FFFFFF;}
	.st2{fill:none;stroke:#780A23;stroke-width:3;stroke-miterlimit:10;}
</style>
<title>campaign</title>
<g>
	<g class="st0">
		<path d="M228.4,45.1c-0.6,0.1-1,0.9-1.6,1.5c0.6,0.3,1.3,1,1.8,0.9c0.7-0.1,1.3-0.9,1.9-1.3c0-0.1,0-0.4-0.1-0.6
			C229.8,45.4,229,45,228.4,45.1z"/>
		<path d="M236.2,46.6c-0.9,0.4-2.1,1.6-1.9,2.2c0.3,1,1.3,1.9,2.1,2.8c0.6-0.6,1.3-1.3,1.5-1.5C237.9,47.8,237,46.2,236.2,46.6z"/>
		<path d="M266.1,49.5c0,0.4,0.6,1,0.9,1.5c0.4-0.4,1.2-0.7,1.2-1.2c0-0.6-0.6-1.2-1.2-2.2C266.5,48.4,266.1,48.9,266.1,49.5z"/>
		<path d="M238.6,64.6c-0.9,0.4-2.2,1.6-2.1,2.4c0.1,1,1.3,1.9,2.1,2.8c0.7-0.9,1.5-1.8,2.5-3.1C240.1,65.8,239.1,64.5,238.6,64.6z"
			/>
		<path d="M216,42c0.6,0,1.3-0.7,1.5-1.3c0.1-0.3-0.7-1-1.3-1.8c-0.7,0.6-1.6,1.2-1.5,1.5C214.8,41.1,215.4,42,216,42z"/>
		<path d="M227.8,64.3c-1.2,0-2.7,0.4-2.5,1.8c0.1,0.9,1.2,1.8,1.9,2.7c1.9-0.4,2.7-1.2,2.7-2.5C230.1,64.8,229,64.3,227.8,64.3z"/>
		<path d="M222.6,36.4c-0.1,0-0.3,0-0.4,0c-2.4,7.6-4.8,15.4-7.2,23.1c5.1,0,9.9,0,14.7,0C227.4,51.7,225,44.1,222.6,36.4z"/>
		<path d="M216,49c0.9-0.4,1.3-1.3,2.5-2.5c-1.2-1-1.9-1.8-2.7-2.4c-0.7,0.9-1.6,1.6-2.1,2.5C213.4,47.5,215.4,49.5,216,49z"/>
		<path d="M349.9,26.4c-0.7,0-1.3,0.1-2.1,0.1c0,0.3,0,0.7,0,1c0.7,0.1,1.3,0.1,2.1,0.3C349.9,27.4,349.9,27,349.9,26.4z"/>
		<path d="M289.8,29.4c-3.7-0.3-7.5-0.3-11.2-0.3c-0.4,0-1.2,0.6-1.2,1c-0.1,5.8,0,11.7,0,17.7c0.4,0.1,0.6,0.1,0.9,0.1
			c3.3,0,6.6,0,9.9,0c6-0.1,9-3.1,9.3-9.1C297.4,33.7,294.4,29.8,289.8,29.4z"/>
		<path d="M349.1,44.4c-1.6,0-1.9,1-1.9,2.5c0,0.4-0.6,0.9-1,1.2c-0.7,0.4-1.6,0.6-2.4,1c-1.6,1-1.9,2.5-0.4,3.9
			c1,0.9,2.4,1.8,3.6,2.2c1.6,0.6,2.5-0.1,2.5-1.8c0-1.3,0.3-2.2,1.3-3c0.7-0.6,1-1.8,1.3-2.2c0-0.6,0-0.6,0-0.7
			C352.1,45.9,350.8,44.4,349.1,44.4z"/>
		<path d="M4.2,7v87.7h393V7H4.2z M237.6,85c-1.2-3.7-2.4-7.5-3.3-11.2c-0.3-1.3-1-1.6-2.2-1.6c-6.4,0-12.9,0-19.3,0
			c-1.3,0-1.8,0.4-2.2,1.6c-1,3.7-2.4,7.5-3.4,11.1c-5.8,0-11.7,0-17.5,0c3.6-9.7,7-19.5,10.6-29.2c0.1-0.6,0.9-1,1.5-1.3
			c1.9-0.9,2.1-1.5,1-3.3c-0.3-0.4-0.3-1.2-0.1-1.8c3.7-10.5,7.6-20.8,11.4-31.3c0.4-1.2,1-1.5,2.2-1.5c4,0,8.1,0.1,12.1,0
			c1.5,0,2.1,0.4,2.5,1.8c7.6,20.8,15.3,41.7,23.1,62.4c0.6,1.5,1,2.8,1.6,4.3C249.6,85,243.6,85,237.6,85z M314,81.2
			c-1.5,0.7-2.8,1.6-4.3,2.2c-0.7,0.3-1.6,0.1-2.4,0c-2.2-0.9-3.9-0.4-5.2,1.6c-1.3,0-2.7,0-4,0c-3.9-7.8-7.6-15.6-11.5-23.4
			c-0.1-0.3-0.6-0.7-1-0.7c-2.7,0-5.5,0-8.4,0c0,1.2,0,1.9,0,2.8c0,7.2,0,14.2-0.1,21.4c-0.6,0-1,0-1.6,0c-1.6-0.7-3.4-1.6-5.7-2.7
			c0.4,1.2,0.7,1.9,1,2.7c-2.8,0-5.5,0-8.4,0c-0.4-0.3-1-0.4-1.5-0.7c0-22.3,0-45,0-67.6c10.3,0,20.7,0,31,0
			c-0.1,1.2-0.4,2.2-0.3,3.4c0.1,1.6,1.3,2.1,2.5,0.9c0.7-0.6,1.3-1.3,1.6-2.1c0.6-1.5,1.5-1.6,2.8-1c1.8,0.7,4,0.7,5.1,3
			c0.1,0.1,0.4,0.4,0.6,0.4c4.5,0.3,6,3.9,7.5,7c4.9,10.3,0.9,22.2-9.1,27.9c-0.3,0.1-0.6,0.3-0.9,0.6c0.7,1.3,1.3,2.7,1.8,3.7
			c-0.7,1.5-1.3,2.7-1.8,3.9c-0.1,0.4,0.6,1.6,1,1.6c4.6,1.2,4.9,1.5,6.4,6c-4.9,0.6-5.4,2.1-3.9,6.9c0.9,3,1,2.8,3.9,1.8
			c1.2-0.4,2.5-0.4,3.9-0.6c0.6,0,1.2,0.4,1.8,0.6C314.6,80.9,314.3,81.1,314,81.2z M376.3,29.5c-2.4,0-4.6,0-7,0
			c-3.7,0-7.5,0.1-11.1,0c-1.9,0-2.4,0.4-2.4,2.4c0.1,16.9,0,33.9,0,50.8c0,0.7,0,1.5,0,2.4c-0.6,0-1,0.3-1.2,0
			c-3-2.5-6.4-1.6-9.7-1.5c-1.8,0-3.6,0.6-4.6-1.5c-0.4-0.7-0.7-1.6-0.7-2.4c0-15.9,0-31.8,0-47.7c0-0.7,0-1.5,0-2.5
			c-6.9,0-13.6,0-20.4,0c0-4.2,0-8.5,0-12.7c3.7,0,7.3,0,11.1,0c1.8,0,3.6,0.4,5.4,0.7c0.6-0.1,1.3-0.7,2.1-0.7c7.9,0,16,0,24,0
			c0.6,0,1.3,0.4,1.8,0.9c1,1,2.8,1.6,3.6,0.4c1.5-2.1,3.4-1.2,5.4-1.5c-1.5,4.3-0.1,6.4,4,6.1C376.3,25,376.3,27.1,376.3,29.5z"/>
		<path d="M347.2,39.1c-0.6-0.3-1.2-1.2-1.6-1c-1.2,0.3-1.9,1.2-1.2,3.1C345.4,40.3,346.3,39.7,347.2,39.1z"/>
		<path d="M295.5,58.3c1,0.9,2.2,1.6,3.6,0.7c0.1-0.1,0.1-1.2,0-1.3C297.8,57,296.5,57,295.5,58.3z"/>
	</g>
	<g>
		<g>
			<path class="st1" d="M33.2,63.1v12.6h-1V45.9h9.3c3,0,5.4,0.7,7,2.2s2.5,3.7,2.5,6.4s-0.7,4.8-2.4,6.3c-1.6,1.5-4,2.2-7,2.2
				L33.2,63.1L33.2,63.1z M33.2,62.1h8.2c2.7,0,4.8-0.6,6.3-1.9c1.5-1.3,2.2-3.1,2.2-5.4c0-2.4-0.7-4.3-2.2-5.7
				c-1.5-1.3-3.6-1.9-6.3-1.9h-8.2V62.1z"/>
			<path class="st1" d="M68.8,63H58.4v12.7h-1.2V45.9h9.6c3,0,5.4,0.7,7.2,2.2c1.8,1.5,2.7,3.6,2.7,6.3c0,2.1-0.6,3.7-1.9,5.4
				c-1.2,1.5-2.8,2.4-4.8,2.8l7.9,12.7v0.3h-1.2L68.8,63z M58.4,61.8h9.4c2.2,0,4.2-0.7,5.5-2.1c1.3-1.3,2.1-3.1,2.1-5.2
				c0-2.4-0.7-4.2-2.4-5.5c-1.5-1.3-3.7-1.9-6.4-1.9h-8.4v14.8C58.3,61.8,58.4,61.8,58.4,61.8z"/>
			<path class="st1" d="M86.8,75.7h-1V45.9h1V75.7z"/>
			<path class="st1" d="M113.8,68.5c0-1.2-0.3-2.4-0.9-3.3s-1.5-1.6-2.8-2.4c-1.3-0.7-3.1-1.3-5.8-2.1c-2.5-0.7-4.5-1.5-5.8-2.1
				c-1.3-0.7-2.2-1.5-2.8-2.5c-0.6-0.9-0.9-2.1-0.9-3.4c0-2.2,0.9-3.9,2.7-5.2c1.8-1.3,4.2-1.9,7.2-1.9c1.9,0,3.6,0.3,5.1,1
				s2.7,1.8,3.6,3.1s1.2,2.8,1.2,4.5h-1c0-2.2-0.7-4-2.4-5.5s-3.7-2.2-6.4-2.2c-2.7,0-4.8,0.6-6.4,1.8S96,51,96,52.6
				c0,1.8,0.7,3.3,2.1,4.3c1.3,1,3.7,2.1,7,2.8c3.3,0.9,5.5,1.8,7.2,3c1.9,1.3,2.8,3.3,2.8,5.7c0,1.5-0.4,2.8-1.2,4
				c-0.9,1.2-2.1,2.1-3.6,2.7S107,76,105.1,76c-2.1,0-4-0.3-5.8-1s-3-1.8-3.9-3c-0.9-1.3-1.3-2.8-1.3-4.6h1c0,2.4,0.9,4.3,2.7,5.7
				c1.8,1.3,4.2,2.1,7.2,2.1c2.5,0,4.8-0.6,6.4-1.8C112.9,72.1,113.8,70.5,113.8,68.5z"/>
			<path class="st1" d="M141.9,63c0,2.5-0.4,4.9-1.3,6.9c-0.9,1.9-2.2,3.6-3.9,4.6c-1.6,1-3.7,1.6-5.8,1.6c-3.3,0-6.1-1.2-8.1-3.6
				c-2.1-2.4-3.1-5.7-3.1-9.7v-4.3c0-2.5,0.4-4.8,1.3-6.9c0.9-1.9,2.2-3.6,3.9-4.6c1.6-1,3.7-1.6,5.8-1.6c2.2,0,4.2,0.6,5.8,1.6
				s3,2.7,3.9,4.6c0.9,1.9,1.3,4.3,1.3,6.9V63C141.8,63,141.9,63,141.9,63z M140.7,58.5c0-3.6-0.9-6.4-2.7-8.7
				c-1.8-2.2-4.3-3.3-7.5-3.3c-3.1,0-5.5,1-7.3,3.3c-1.8,2.1-2.7,5.1-2.7,8.8V63c0,2.4,0.4,4.5,1.2,6.3c0.9,1.8,1.9,3.3,3.6,4.2
				c1.5,1,3.3,1.5,5.4,1.5c3.1,0,5.5-1,7.3-3.3c1.8-2.2,2.7-5.1,2.7-8.8V58.5z"/>
			<path class="st1" d="M170.3,75.7h-1l-19.3-28v28h-1.2V45.9h1.2l19.3,27.9V45.9h1V75.7z"/>
		</g>
		<g>
			<path class="st1" d="M35.6,35.1h-1.2v-7.8L32,28.2v-1l3.3-1.2h0.1v9.1C35.5,35.1,35.6,35.1,35.6,35.1z"/>
			<path class="st1" d="M39.7,30.4l0.4-4.5h4.6v1H41l-0.3,2.5c0.4-0.3,0.9-0.4,1.5-0.4c0.9,0,1.5,0.3,1.9,0.9s0.7,1.3,0.7,2.2
				c0,0.9-0.3,1.6-0.7,2.2C43.7,34.9,42.9,35,42,35c-0.7,0-1.5-0.1-1.9-0.6c-0.4-0.4-0.7-1-0.9-1.8h1c0,0.4,0.3,0.9,0.6,1.2
				s0.7,0.4,1.2,0.4c0.6,0,0.9-0.1,1.2-0.6c0.3-0.3,0.4-0.9,0.4-1.5c0-0.6-0.1-1-0.4-1.5c-0.3-0.3-0.7-0.6-1.3-0.6
				c-0.4,0-0.9,0.1-1.2,0.3l-0.3,0.3L39.7,30.4z"/>
			<path class="st1" d="M46.7,35.8h-1l3.7-9.9h1L46.7,35.8z"/>
			<path class="st1" d="M55.4,35.1h-1.2v-7.8l-2.4,0.9v-1l3.3-1.2h0.1v9.1C55.3,35.1,55.4,35.1,55.4,35.1z"/>
			<path class="st1" d="M64.6,31.2c0,1.3-0.3,2.4-0.7,3c-0.4,0.6-1.2,1-2.2,1s-1.6-0.3-2.1-0.9c-0.4-0.6-0.7-1.6-0.7-2.8V30
				c0-1.3,0.3-2.4,0.7-3s1.2-1,2.2-1s1.6,0.3,2.2,0.9c0.6,0.6,0.7,1.6,0.7,2.8L64.6,31.2L64.6,31.2z M63.4,29.5c0-1-0.1-1.6-0.4-2.1
				c-0.3-0.4-0.7-0.7-1.3-0.7s-1,0.1-1.3,0.6c-0.3,0.4-0.4,1.2-0.4,2.1v1.9c0,1,0.1,1.6,0.4,2.2c0.3,0.4,0.7,0.7,1.3,0.7
				s1-0.1,1.3-0.6c0.3-0.4,0.4-1.2,0.4-2.1V29.5z"/>
			<path class="st1" d="M66.4,35.8h-1l3.7-9.9h1L66.4,35.8z"/>
			<path class="st1" d="M77.3,35.1h-6v-0.9l3.1-3.4c0.4-0.6,0.7-0.9,0.9-1.3c0.1-0.3,0.3-0.7,0.3-1c0-0.4-0.1-0.9-0.4-1.2
				c-0.3-0.3-0.6-0.4-1.2-0.4s-1,0.1-1.3,0.4s-0.4,0.7-0.4,1.3H71c0-0.9,0.3-1.5,0.7-2.1c0.6-0.4,1.2-0.7,2.2-0.7
				c0.9,0,1.5,0.1,1.9,0.6c0.4,0.4,0.7,1,0.7,1.8c0,0.9-0.6,1.9-1.6,3.1L72.5,34h4.6v1.1H77.3z"/>
			<path class="st1" d="M84.4,31.2c0,1.3-0.3,2.4-0.7,3c-0.4,0.6-1.2,1-2.2,1s-1.6-0.3-2.1-0.9c-0.4-0.6-0.7-1.6-0.7-2.8V30
				c0-1.3,0.3-2.4,0.7-3c0.4-0.6,1.2-1,2.2-1s1.6,0.3,2.2,0.9s0.7,1.6,0.7,2.8L84.4,31.2C84.5,31.2,84.4,31.2,84.4,31.2z M83.2,29.5
				c0-1-0.1-1.6-0.4-2.1c-0.3-0.4-0.7-0.7-1.3-0.7c-0.6,0-1,0.1-1.3,0.6c-0.3,0.4-0.4,1.2-0.4,2.1v1.9c0,1,0.1,1.6,0.4,2.2
				c0.3,0.4,0.7,0.7,1.3,0.7c0.6,0,1-0.1,1.3-0.6c0.3-0.4,0.4-1.2,0.4-2.1V29.5z"/>
			<path class="st1" d="M89.6,35.1h-1.2v-7.8L86,28.2v-1l3.3-1.2h0.1v9.1C89.5,35.1,89.6,35.1,89.6,35.1z"/>
			<path class="st1" d="M98.9,26.5L95.2,35H94l3.7-8.2h-4.9v-0.9h6.1C98.9,25.9,98.9,26.5,98.9,26.5z"/>
			<path class="st1" d="M102.8,31.6h-3v-0.9h3V31.6z"/>
			<path class="st1" d="M109.9,35.1h-6v-0.9l3.1-3.4c0.4-0.6,0.7-0.9,0.9-1.3c0.1-0.3,0.3-0.7,0.3-1c0-0.4-0.1-0.9-0.4-1.2
				c-0.3-0.3-0.6-0.4-1.2-0.4s-1,0.1-1.3,0.4s-0.4,0.7-0.4,1.3h-1c0-0.9,0.3-1.5,0.7-2.1c0.6-0.4,1.2-0.7,2.2-0.7
				c0.9,0,1.5,0.1,1.9,0.6c0.4,0.4,0.7,1,0.7,1.8c0,0.9-0.6,1.9-1.6,3.1l-2.4,2.7h4.6L109.9,35.1L109.9,35.1z"/>
			<path class="st1" d="M112.7,29.8h0.9c0.6,0,1-0.1,1.3-0.4s0.4-0.6,0.4-1.2c0-1-0.6-1.6-1.6-1.6c-0.4,0-0.9,0.1-1.2,0.4
				c-0.3,0.3-0.4,0.6-0.4,1.2h-1.2c0-0.7,0.3-1.3,0.7-1.8c0.6-0.4,1.2-0.7,1.9-0.7c0.9,0,1.5,0.3,2.1,0.7c0.4,0.4,0.7,1,0.7,1.9
				c0,0.4-0.1,0.7-0.4,1.2c-0.3,0.3-0.6,0.6-1,0.9c0.4,0.1,0.9,0.4,1.2,0.7c0.3,0.3,0.4,0.7,0.4,1.3c0,0.7-0.3,1.5-0.7,1.9
				c-0.6,0.4-1.2,0.7-2.1,0.7s-1.5-0.3-2.1-0.7s-0.7-1-0.7-1.8h1.2c0,0.4,0.1,0.9,0.4,1.2s0.7,0.4,1.2,0.4c0.6,0,1-0.1,1.3-0.4
				s0.4-0.7,0.4-1.2c0-0.6-0.1-0.9-0.4-1.2c-0.3-0.3-0.7-0.4-1.3-0.4h-1C112.7,30.9,112.7,29.8,112.7,29.8z"/>
			<path class="st1" d="M118.7,35.8h-1l3.7-9.9h1L118.7,35.8z"/>
			<path class="st1" d="M127.4,35.1h-1.2v-7.8l-2.4,0.9v-1l3.3-1.2h0.1v9.1C127.2,35.1,127.4,35.1,127.4,35.1z"/>
			<path class="st1" d="M136.8,35.1h-6v-0.9l3.1-3.4c0.4-0.6,0.7-0.9,0.9-1.3c0.1-0.3,0.3-0.7,0.3-1c0-0.4-0.1-0.9-0.4-1.2
				c-0.3-0.3-0.6-0.4-1.2-0.4c-0.6,0-1,0.1-1.3,0.4s-0.4,0.7-0.4,1.3h-1c0-0.9,0.3-1.5,0.7-2.1c0.6-0.4,1.2-0.7,2.2-0.7
				c0.9,0,1.5,0.1,1.9,0.6c0.4,0.4,0.7,1,0.7,1.8c0,0.9-0.6,1.9-1.6,3.1l-2.4,2.7h4.6L136.8,35.1L136.8,35.1z"/>
			<path class="st1" d="M138.3,35.8h-1l3.7-9.9h1L138.3,35.8z"/>
			<path class="st1" d="M149.3,35.1h-6v-0.9l3.1-3.4c0.4-0.6,0.7-0.9,0.9-1.3c0.1-0.3,0.3-0.7,0.3-1c0-0.4-0.1-0.9-0.4-1.2
				c-0.3-0.3-0.6-0.4-1.2-0.4c-0.6,0-1,0.1-1.3,0.4s-0.4,0.7-0.4,1.3H143c0-0.9,0.3-1.5,0.7-2.1c0.6-0.4,1.2-0.7,2.2-0.7
				c0.9,0,1.5,0.1,1.9,0.6c0.4,0.4,0.7,1,0.7,1.8c0,0.9-0.6,1.9-1.6,3.1l-2.4,2.7h4.6v1.1H149.3z"/>
			<path class="st1" d="M156.3,31.2c0,1.3-0.3,2.4-0.7,3s-1.2,1-2.2,1s-1.6-0.3-2.1-0.9c-0.4-0.6-0.7-1.6-0.7-2.8V30
				c0-1.3,0.3-2.4,0.7-3s1.2-1,2.2-1s1.6,0.3,2.2,0.9s0.7,1.6,0.7,2.8L156.3,31.2C156.4,31.2,156.3,31.2,156.3,31.2z M155.1,29.5
				c0-1-0.1-1.6-0.4-2.1c-0.3-0.4-0.7-0.7-1.3-0.7s-1,0.1-1.3,0.6c-0.3,0.4-0.4,1.2-0.4,2.1v1.9c0,1,0.1,1.6,0.4,2.2
				c0.3,0.4,0.7,0.7,1.3,0.7s1-0.1,1.3-0.6c0.3-0.4,0.4-1.2,0.4-2.1V29.5z"/>
			<path class="st1" d="M161.6,35.1h-1.2v-7.8l-2.4,0.9v-1l3.3-1.2h0.1v9.1C161.4,35.1,161.6,35.1,161.6,35.1z"/>
			<path class="st1" d="M170.9,26.5l-3.7,8.5H166l3.7-8.2h-4.9v-0.9h6.1L170.9,26.5L170.9,26.5z"/>
		</g>
	</g>
</g>
<rect x="4.2" y="7" class="st2" width="393" height="87.7"/>
</svg>
