<?xml version="1.0" encoding="utf-8"?>
<!-- Generator: Adobe Illustrator 21.1.0, SVG Export Plug-In . SVG Version: 6.00 Build 0)  -->
<svg version="1.1" id="Layer_1" xmlns="http://www.w3.org/2000/svg" xmlns:xlink="http://www.w3.org/1999/xlink" x="0px" y="0px"
	 viewBox="0 0 400 100" style="enable-background:new 0 0 400 100;" xml:space="preserve">
<style type="text/css">
	.st0{opacity:0.5;}
	.st1{fill:#FFFFFF;}
	.st2{opacity:0.7;}
	.st3{fill:#780A23;}
</style>
<title>campaign</title>
<g>
	<g class="st0">
		<path d="M235.2,46.2c-0.4,0.1-0.7,0.6-1.1,1c0.4,0.2,0.9,0.7,1.2,0.6c0.5-0.1,0.9-0.6,1.3-0.9c0-0.1,0-0.3-0.1-0.4
			C236.1,46.4,235.6,46.1,235.2,46.2z"/>
		<path d="M240.4,47.2c-0.6,0.3-1.4,1.1-1.3,1.5c0.2,0.7,0.9,1.3,1.4,1.9c0.4-0.4,0.9-0.9,1-1C241.5,48,240.9,46.9,240.4,47.2z"/>
		<path d="M260.3,49.1c0,0.3,0.4,0.7,0.6,1c0.3-0.3,0.8-0.5,0.8-0.8c0-0.4-0.4-0.8-0.8-1.5C260.6,48.4,260.3,48.7,260.3,49.1z"/>
		<path d="M242,59.2c-0.6,0.3-1.5,1.1-1.4,1.6c0.1,0.7,0.9,1.3,1.4,1.9c0.5-0.6,1-1.2,1.7-2.1C243,60,242.3,59.1,242,59.2z"/>
		<path d="M226.9,44.1c0.4,0,0.9-0.5,1-0.9c0.1-0.2-0.5-0.7-0.9-1.2c-0.5,0.4-1.1,0.8-1,1C226.1,43.5,226.5,44.1,226.9,44.1z"/>
		<path d="M234.8,59c-0.8,0-1.8,0.3-1.7,1.2c0.1,0.6,0.8,1.2,1.3,1.8c1.3-0.3,1.8-0.8,1.8-1.7C236.3,59.3,235.6,59,234.8,59z"/>
		<path d="M231.3,40.4c-0.1,0-0.2,0-0.3,0c-1.6,5.1-3.2,10.3-4.8,15.4c3.4,0,6.6,0,9.8,0C234.5,50.6,232.9,45.5,231.3,40.4z"/>
		<path d="M226.9,48.8c0.6-0.3,0.9-0.9,1.7-1.7c-0.8-0.7-1.3-1.2-1.8-1.6c-0.5,0.6-1.1,1.1-1.4,1.7
			C225.2,47.8,226.5,49.1,226.9,48.8z"/>
		<path d="M316.2,33.7c-0.5,0-0.9,0.1-1.4,0.1c0,0.2,0,0.5,0,0.7c0.5,0.1,0.9,0.1,1.4,0.2C316.2,34.4,316.2,34.1,316.2,33.7z"/>
		<path d="M276.1,35.7c-2.5-0.2-5-0.2-7.5-0.2c-0.3,0-0.8,0.4-0.8,0.7c-0.1,3.9,0,7.8,0,11.8c0.3,0.1,0.4,0.1,0.6,0.1
			c2.2,0,4.4,0,6.6,0c4-0.1,6-2.1,6.2-6.1C281.2,38.6,279.2,36,276.1,35.7z"/>
		<path d="M315.7,45.7c-1.1,0-1.3,0.7-1.3,1.7c0,0.3-0.4,0.6-0.7,0.8c-0.5,0.3-1.1,0.4-1.6,0.7c-1.1,0.7-1.3,1.7-0.3,2.6
			c0.7,0.6,1.6,1.2,2.4,1.5c1.1,0.4,1.7-0.1,1.7-1.2c0-0.9,0.2-1.5,0.9-2c0.5-0.4,0.7-1.2,0.9-1.5c0-0.4,0-0.4,0-0.5
			C317.7,46.7,316.8,45.7,315.7,45.7z"/>
		<path d="M40.3,20.8v58.5h360.2V20.8H40.3z M241.3,72.8c-0.8-2.5-1.6-5-2.2-7.5c-0.2-0.9-0.7-1.1-1.5-1.1c-4.3,0-8.6,0-12.9,0
			c-0.9,0-1.2,0.3-1.5,1.1c-0.7,2.5-1.6,5-2.3,7.4c-3.9,0-7.8,0-11.7,0c2.4-6.5,4.7-13,7.1-19.5c0.1-0.4,0.6-0.7,1-0.9
			c1.3-0.6,1.4-1,0.7-2.2c-0.2-0.3-0.2-0.8-0.1-1.2c2.5-7,5.1-13.9,7.6-20.9c0.3-0.8,0.7-1,1.5-1c2.7,0,5.4,0.1,8.1,0
			c1,0,1.4,0.3,1.7,1.2c5.1,13.9,10.2,27.8,15.4,41.6c0.4,1,0.7,1.9,1.1,2.9C249.3,72.8,245.3,72.8,241.3,72.8z M292.3,70.3
			c-1,0.5-1.9,1.1-2.9,1.5c-0.5,0.2-1.1,0.1-1.6,0c-1.5-0.6-2.6-0.3-3.5,1.1c-0.9,0-1.8,0-2.7,0c-2.6-5.2-5.1-10.4-7.7-15.6
			c-0.1-0.2-0.4-0.5-0.7-0.5c-1.8,0-3.7,0-5.6,0c0,0.8,0,1.3,0,1.9c0,4.8,0,9.5-0.1,14.3c-0.4,0-0.7,0-1.1,0
			c-1.1-0.5-2.3-1.1-3.8-1.8c0.3,0.8,0.5,1.3,0.7,1.8c-1.9,0-3.7,0-5.6,0c-0.3-0.2-0.7-0.3-1-0.5c0-14.9,0-30,0-45.1
			c6.9,0,13.8,0,20.7,0c-0.1,0.8-0.3,1.5-0.2,2.3c0.1,1.1,0.9,1.4,1.7,0.6c0.5-0.4,0.9-0.9,1.1-1.4c0.4-1,1-1.1,1.9-0.7
			c1.2,0.5,2.7,0.5,3.4,2c0.1,0.1,0.3,0.3,0.4,0.3c3,0.2,4,2.6,5,4.7c3.3,6.9,0.6,14.8-6.1,18.6c-0.2,0.1-0.4,0.2-0.6,0.4
			c0.5,0.9,0.9,1.8,1.2,2.5c-0.5,1-0.9,1.8-1.2,2.6c-0.1,0.3,0.4,1.1,0.7,1.1c3.1,0.8,3.3,1,4.3,4c-3.3,0.4-3.6,1.4-2.6,4.6
			c0.6,2,0.7,1.9,2.6,1.2c0.8-0.3,1.7-0.3,2.6-0.4c0.4,0,0.8,0.3,1.2,0.4C292.7,70.1,292.5,70.2,292.3,70.3z M333.8,35.8
			c-1.6,0-3.1,0-4.7,0c-2.5,0-5,0.1-7.4,0c-1.3,0-1.6,0.3-1.6,1.6c0.1,11.3,0,22.6,0,33.9c0,0.5,0,1,0,1.6c-0.4,0-0.7,0.2-0.8,0
			c-2-1.7-4.3-1.1-6.5-1c-1.2,0-2.4,0.4-3.1-1c-0.3-0.5-0.5-1.1-0.5-1.6c0-10.6,0-21.2,0-31.8c0-0.5,0-1,0-1.7c-4.6,0-9.1,0-13.6,0
			c0-2.8,0-5.7,0-8.5c2.5,0,4.9,0,7.4,0c1.2,0,2.4,0.3,3.6,0.5c0.4-0.1,0.9-0.5,1.4-0.5c5.3,0,10.7,0,16,0c0.4,0,0.9,0.3,1.2,0.6
			c0.7,0.7,1.9,1.1,2.4,0.3c1-1.4,2.3-0.8,3.6-1c-1,2.9-0.1,4.3,2.7,4.1C333.8,32.8,333.8,34.2,333.8,35.8z"/>
		<path d="M314.4,42.2c-0.4-0.2-0.8-0.8-1.1-0.7c-0.8,0.2-1.3,0.8-0.8,2.1C313.2,43,313.8,42.6,314.4,42.2z"/>
		<path d="M279.9,55c0.7,0.6,1.5,1.1,2.4,0.5c0.1-0.1,0.1-0.8,0-0.9C281.5,54.1,280.6,54.1,279.9,55z"/>
	</g>
	<g>
		<g>
			<path class="st1" d="M105,58.2v8.4h-0.7V46.7h6.2c2,0,3.6,0.5,4.7,1.5c1.1,1,1.7,2.5,1.7,4.3c0,1.8-0.5,3.2-1.6,4.2
				c-1.1,1-2.7,1.5-4.7,1.5H105z M105,57.5h5.5c1.8,0,3.2-0.4,4.2-1.3c1-0.9,1.5-2.1,1.5-3.6c0-1.6-0.5-2.9-1.5-3.8
				c-1-0.9-2.4-1.3-4.2-1.3H105V57.5z"/>
			<path class="st1" d="M128.7,58.1h-6.9v8.5H121V46.7h6.4c2,0,3.6,0.5,4.8,1.5c1.2,1,1.8,2.4,1.8,4.2c0,1.4-0.4,2.5-1.3,3.6
				c-0.8,1-1.9,1.6-3.2,1.9l5.3,8.5v0.2H134L128.7,58.1z M121.8,57.3h6.3c1.5,0,2.8-0.5,3.7-1.4c0.9-0.9,1.4-2.1,1.4-3.5
				c0-1.6-0.5-2.8-1.6-3.7c-1-0.9-2.5-1.3-4.3-1.3h-5.6V57.3z"/>
			<path class="st1" d="M140.7,66.6H140V46.7h0.7V66.6z"/>
			<path class="st1" d="M158.7,61.8c0-0.8-0.2-1.6-0.6-2.2c-0.4-0.6-1-1.1-1.9-1.6c-0.9-0.5-2.1-0.9-3.9-1.4c-1.7-0.5-3-1-3.9-1.4
				c-0.9-0.5-1.5-1-1.9-1.7c-0.4-0.6-0.6-1.4-0.6-2.3c0-1.5,0.6-2.6,1.8-3.5c1.2-0.9,2.8-1.3,4.8-1.3c1.3,0,2.4,0.2,3.4,0.7
				c1,0.5,1.8,1.2,2.4,2.1c0.6,0.9,0.8,1.9,0.8,3h-0.7c0-1.5-0.5-2.7-1.6-3.7c-1.1-1-2.5-1.5-4.3-1.5c-1.8,0-3.2,0.4-4.3,1.2
				c-1.1,0.8-1.6,1.8-1.6,2.9c0,1.2,0.5,2.2,1.4,2.9c0.9,0.7,2.5,1.4,4.7,1.9c2.2,0.6,3.7,1.2,4.8,2c1.3,0.9,1.9,2.2,1.9,3.8
				c0,1-0.3,1.9-0.8,2.7c-0.6,0.8-1.4,1.4-2.4,1.8c-1,0.4-2.2,0.6-3.5,0.6c-1.4,0-2.7-0.2-3.9-0.7c-1.2-0.5-2-1.2-2.6-2
				c-0.6-0.9-0.9-1.9-0.9-3.1h0.7c0,1.6,0.6,2.9,1.8,3.8c1.2,0.9,2.8,1.4,4.8,1.4c1.7,0,3.2-0.4,4.3-1.2
				C158.1,64.2,158.7,63.1,158.7,61.8z"/>
			<path class="st1" d="M177.5,58.1c0,1.7-0.3,3.3-0.9,4.6c-0.6,1.3-1.5,2.4-2.6,3.1c-1.1,0.7-2.5,1.1-3.9,1.1
				c-2.2,0-4.1-0.8-5.4-2.4c-1.4-1.6-2.1-3.8-2.1-6.5v-2.9c0-1.7,0.3-3.2,0.9-4.6c0.6-1.3,1.5-2.4,2.6-3.1c1.1-0.7,2.5-1.1,3.9-1.1
				c1.5,0,2.8,0.4,3.9,1.1c1.1,0.7,2,1.8,2.6,3.1c0.6,1.3,0.9,2.9,0.9,4.6V58.1z M176.7,55.1c0-2.4-0.6-4.3-1.8-5.8
				c-1.2-1.5-2.9-2.2-5-2.2c-2.1,0-3.7,0.7-4.9,2.2c-1.2,1.4-1.8,3.4-1.8,5.9v2.9c0,1.6,0.3,3,0.8,4.2c0.6,1.2,1.3,2.2,2.4,2.8
				c1,0.7,2.2,1,3.6,1c2.1,0,3.7-0.7,4.9-2.2c1.2-1.5,1.8-3.4,1.8-5.9V55.1z"/>
			<path class="st1" d="M196.4,66.6h-0.7l-12.9-18.7v18.7H182V46.7h0.8l12.9,18.6V46.7h0.7V66.6z"/>
		</g>
		<g>
			<path class="st1" d="M106.6,39.5h-0.8v-5.2l-1.6,0.6v-0.7l2.2-0.8h0.1V39.5z"/>
			<path class="st1" d="M109.3,36.4l0.3-3h3.1v0.7h-2.5l-0.2,1.7c0.3-0.2,0.6-0.3,1-0.3c0.6,0,1,0.2,1.3,0.6
				c0.3,0.4,0.5,0.9,0.5,1.5c0,0.6-0.2,1.1-0.5,1.5s-0.8,0.5-1.4,0.5c-0.5,0-1-0.1-1.3-0.4c-0.3-0.3-0.5-0.7-0.6-1.2h0.7
				c0,0.3,0.2,0.6,0.4,0.8c0.2,0.2,0.5,0.3,0.8,0.3c0.4,0,0.6-0.1,0.8-0.4c0.2-0.2,0.3-0.6,0.3-1c0-0.4-0.1-0.7-0.3-1
				c-0.2-0.2-0.5-0.4-0.9-0.4c-0.3,0-0.6,0.1-0.8,0.2l-0.2,0.2L109.3,36.4z"/>
			<path class="st1" d="M114,40h-0.7l2.5-6.6h0.7L114,40z"/>
			<path class="st1" d="M119.8,39.5H119v-5.2l-1.6,0.6v-0.7l2.2-0.8h0.1V39.5z"/>
			<path class="st1" d="M125.9,36.9c0,0.9-0.2,1.6-0.5,2c-0.3,0.4-0.8,0.7-1.5,0.7c-0.7,0-1.1-0.2-1.4-0.6c-0.3-0.4-0.5-1.1-0.5-1.9
				v-1c0-0.9,0.2-1.6,0.5-2c0.3-0.4,0.8-0.7,1.5-0.7c0.7,0,1.1,0.2,1.5,0.6s0.5,1.1,0.5,1.9V36.9z M125.1,35.8
				c0-0.7-0.1-1.1-0.3-1.4c-0.2-0.3-0.5-0.5-0.9-0.5c-0.4,0-0.7,0.1-0.9,0.4c-0.2,0.3-0.3,0.8-0.3,1.4V37c0,0.7,0.1,1.1,0.3,1.5
				c0.2,0.3,0.5,0.5,0.9,0.5c0.4,0,0.7-0.1,0.9-0.4c0.2-0.3,0.3-0.8,0.3-1.4V35.8z"/>
			<path class="st1" d="M127.1,40h-0.7l2.5-6.6h0.7L127.1,40z"/>
			<path class="st1" d="M134.4,39.5h-4v-0.6l2.1-2.3c0.3-0.4,0.5-0.6,0.6-0.9c0.1-0.2,0.2-0.5,0.2-0.7c0-0.3-0.1-0.6-0.3-0.8
				c-0.2-0.2-0.4-0.3-0.8-0.3c-0.4,0-0.7,0.1-0.9,0.3c-0.2,0.2-0.3,0.5-0.3,0.9h-0.8c0-0.6,0.2-1,0.5-1.4c0.4-0.3,0.8-0.5,1.5-0.5
				c0.6,0,1,0.1,1.3,0.4c0.3,0.3,0.5,0.7,0.5,1.2c0,0.6-0.4,1.3-1.1,2.1l-1.6,1.8h3.1V39.5z"/>
			<path class="st1" d="M139.1,36.9c0,0.9-0.2,1.6-0.5,2c-0.3,0.4-0.8,0.7-1.5,0.7c-0.7,0-1.1-0.2-1.4-0.6c-0.3-0.4-0.5-1.1-0.5-1.9
				v-1c0-0.9,0.2-1.6,0.5-2c0.3-0.4,0.8-0.7,1.5-0.7c0.7,0,1.1,0.2,1.5,0.6s0.5,1.1,0.5,1.9V36.9z M138.3,35.8
				c0-0.7-0.1-1.1-0.3-1.4c-0.2-0.3-0.5-0.5-0.9-0.5c-0.4,0-0.7,0.1-0.9,0.4c-0.2,0.3-0.3,0.8-0.3,1.4V37c0,0.7,0.1,1.1,0.3,1.5
				c0.2,0.3,0.5,0.5,0.9,0.5c0.4,0,0.7-0.1,0.9-0.4c0.2-0.3,0.3-0.8,0.3-1.4V35.8z"/>
			<path class="st1" d="M142.6,39.5h-0.8v-5.2l-1.6,0.6v-0.7l2.2-0.8h0.1V39.5z"/>
			<path class="st1" d="M148.8,33.8l-2.5,5.7h-0.8L148,34h-3.3v-0.6h4.1V33.8z"/>
			<path class="st1" d="M151.4,37.2h-2v-0.6h2V37.2z"/>
			<path class="st1" d="M156.1,39.5h-4v-0.6l2.1-2.3c0.3-0.4,0.5-0.6,0.6-0.9c0.1-0.2,0.2-0.5,0.2-0.7c0-0.3-0.1-0.6-0.3-0.8
				c-0.2-0.2-0.4-0.3-0.8-0.3c-0.4,0-0.7,0.1-0.9,0.3c-0.2,0.2-0.3,0.5-0.3,0.9H152c0-0.6,0.2-1,0.5-1.4c0.4-0.3,0.8-0.5,1.5-0.5
				c0.6,0,1,0.1,1.3,0.4c0.3,0.3,0.5,0.7,0.5,1.2c0,0.6-0.4,1.3-1.1,2.1l-1.6,1.8h3.1V39.5z"/>
			<path class="st1" d="M158,36h0.6c0.4,0,0.7-0.1,0.9-0.3c0.2-0.2,0.3-0.4,0.3-0.8c0-0.7-0.4-1.1-1.1-1.1c-0.3,0-0.6,0.1-0.8,0.3
				c-0.2,0.2-0.3,0.4-0.3,0.8h-0.8c0-0.5,0.2-0.9,0.5-1.2c0.4-0.3,0.8-0.5,1.3-0.5c0.6,0,1,0.2,1.4,0.5c0.3,0.3,0.5,0.7,0.5,1.3
				c0,0.3-0.1,0.5-0.3,0.8c-0.2,0.2-0.4,0.4-0.7,0.6c0.3,0.1,0.6,0.3,0.8,0.5c0.2,0.2,0.3,0.5,0.3,0.9c0,0.5-0.2,1-0.5,1.3
				c-0.4,0.3-0.8,0.5-1.4,0.5c-0.6,0-1-0.2-1.4-0.5c-0.4-0.3-0.5-0.7-0.5-1.2h0.8c0,0.3,0.1,0.6,0.3,0.8c0.2,0.2,0.5,0.3,0.8,0.3
				c0.4,0,0.7-0.1,0.9-0.3c0.2-0.2,0.3-0.5,0.3-0.8c0-0.4-0.1-0.6-0.3-0.8c-0.2-0.2-0.5-0.3-0.9-0.3H158V36z"/>
			<path class="st1" d="M162,40h-0.7l2.5-6.6h0.7L162,40z"/>
			<path class="st1" d="M167.8,39.5H167v-5.2l-1.6,0.6v-0.7l2.2-0.8h0.1V39.5z"/>
			<path class="st1" d="M174.1,39.5h-4v-0.6l2.1-2.3c0.3-0.4,0.5-0.6,0.6-0.9c0.1-0.2,0.2-0.5,0.2-0.7c0-0.3-0.1-0.6-0.3-0.8
				c-0.2-0.2-0.4-0.3-0.8-0.3c-0.4,0-0.7,0.1-0.9,0.3c-0.2,0.2-0.3,0.5-0.3,0.9H170c0-0.6,0.2-1,0.5-1.4c0.4-0.3,0.8-0.5,1.5-0.5
				c0.6,0,1,0.1,1.3,0.4c0.3,0.3,0.5,0.7,0.5,1.2c0,0.6-0.4,1.3-1.1,2.1l-1.6,1.8h3.1V39.5z"/>
			<path class="st1" d="M175.1,40h-0.7l2.5-6.6h0.7L175.1,40z"/>
			<path class="st1" d="M182.4,39.5h-4v-0.6l2.1-2.3c0.3-0.4,0.5-0.6,0.6-0.9c0.1-0.2,0.2-0.5,0.2-0.7c0-0.3-0.1-0.6-0.3-0.8
				c-0.2-0.2-0.4-0.3-0.8-0.3c-0.4,0-0.7,0.1-0.9,0.3c-0.2,0.2-0.3,0.5-0.3,0.9h-0.8c0-0.6,0.2-1,0.5-1.4c0.4-0.3,0.8-0.5,1.5-0.5
				c0.6,0,1,0.1,1.3,0.4c0.3,0.3,0.5,0.7,0.5,1.2c0,0.6-0.4,1.3-1.1,2.1l-1.6,1.8h3.1V39.5z"/>
			<path class="st1" d="M187.1,36.9c0,0.9-0.2,1.6-0.5,2c-0.3,0.4-0.8,0.7-1.5,0.7c-0.7,0-1.1-0.2-1.4-0.6c-0.3-0.4-0.5-1.1-0.5-1.9
				v-1c0-0.9,0.2-1.6,0.5-2c0.3-0.4,0.8-0.7,1.5-0.7c0.7,0,1.1,0.2,1.5,0.6s0.5,1.1,0.5,1.9V36.9z M186.3,35.8
				c0-0.7-0.1-1.1-0.3-1.4c-0.2-0.3-0.5-0.5-0.9-0.5c-0.4,0-0.7,0.1-0.9,0.4c-0.2,0.3-0.3,0.8-0.3,1.4V37c0,0.7,0.1,1.1,0.3,1.5
				c0.2,0.3,0.5,0.5,0.9,0.5c0.4,0,0.7-0.1,0.9-0.4c0.2-0.3,0.3-0.8,0.3-1.4V35.8z"/>
			<path class="st1" d="M190.6,39.5h-0.8v-5.2l-1.6,0.6v-0.7l2.2-0.8h0.1V39.5z"/>
			<path class="st1" d="M196.8,33.8l-2.5,5.7h-0.8L196,34h-3.3v-0.6h4.1V33.8z"/>
		</g>
	</g>
</g>
<rect x="-9.8" y="229.8" class="st2" width="394.1" height="55.4"/>
<rect x="29.4" y="289.4" class="st2" width="355" height="5.3"/>
<rect x="70.4" y="298.2" class="st2" width="314" height="5.3"/>
<g>
	<path class="st3" d="M236.9,290c-0.4-0.2-0.8-0.4-1.2-0.6c0-18,0-36,0-54.2c8.3,0,16.6,0,24.9,0c-0.1,0.9-0.4,1.8-0.3,2.7
		c0.2,1.4,1.1,1.7,2.1,0.8c0.5-0.5,1.1-1.1,1.4-1.7c0.5-1.2,1.2-1.3,2.3-0.9c1.5,0.6,3.3,0.6,4.1,2.4c0.1,0.2,0.3,0.4,0.5,0.4
		c3.6,0.2,4.8,3.1,6,5.7c3.9,8.3,0.7,17.8-7.3,22.3c-0.2,0.1-0.4,0.3-0.7,0.5c0.6,1.1,1.1,2.2,1.5,3c-0.5,1.2-1.1,2.1-1.4,3.1
		c-0.1,0.4,0.4,1.3,0.8,1.4c3.7,1,4,1.2,5.2,4.7c-4,0.5-4.3,1.7-3.1,5.5c0.7,2.4,0.8,2.3,3.2,1.4c1-0.4,2.1-0.4,3.1-0.4
		c0.5,0,1,0.3,1.5,0.5c-0.3,0.1-0.6,0.2-0.8,0.2c-1.1,0.6-2.2,1.3-3.4,1.8c-0.5,0.2-1.3,0.2-1.9,0c-1.8-0.7-3.1-0.4-4.3,1.3
		c-1.1,0-2.1,0-3.2,0c-3.1-6.3-6.2-12.5-9.3-18.8c-0.1-0.3-0.5-0.6-0.8-0.6c-2.2-0.1-4.4,0-6.7,0c0,0.9,0,1.6,0,2.3
		c0,5.7-0.1,11.4-0.1,17.2c-0.4,0-0.9,0-1.3,0c-1.4-0.7-2.7-1.3-4.6-2.2c0.3,0.9,0.6,1.6,0.8,2.2C241.4,290,239.2,290,236.9,290z
		 M248.8,260.2c0.4,0.1,0.5,0.2,0.7,0.2c2.7,0,5.3,0,8,0c4.8-0.1,7.2-2.6,7.4-7.3c0.2-4.2-2.1-7.4-6-7.7c-3-0.3-6-0.2-9.1-0.2
		c-0.3,0-1,0.5-1,0.8C248.8,250.7,248.8,255.4,248.8,260.2z M263.5,268.5c0.9,0.7,1.8,1.4,2.9,0.6c0.2-0.1,0.2-1,0-1.1
		C265.5,267.5,264.4,267.4,263.5,268.5z M240.9,259.8c-0.5,0.7-0.9,1.2-0.9,1.5c0,0.4,0.5,0.8,0.8,1.2c0.4-0.3,1-0.6,1-1
		C241.8,261.1,241.3,260.7,240.9,259.8z"/>
	<path class="st3" d="M178.6,290c2.9-7.8,5.7-15.7,8.6-23.5c0.2-0.5,0.7-0.9,1.2-1.1c1.5-0.8,1.7-1.2,0.8-2.6
		c-0.2-0.4-0.3-1-0.1-1.4c3-8.4,6.1-16.7,9.2-25.1c0.3-0.9,0.8-1.2,1.8-1.2c3.2,0,6.5,0.1,9.7,0c1.1,0,1.6,0.4,2,1.4
		c6.1,16.7,12.3,33.4,18.5,50c0.4,1.1,0.9,2.3,1.3,3.4c-4.8,0-9.6,0-14.3,0c-0.9-3-1.9-6-2.7-9c-0.3-1-0.8-1.3-1.8-1.3
		c-5.2,0-10.3,0-15.5,0c-1,0-1.5,0.3-1.8,1.3c-0.9,3-1.9,6-2.8,9C187.9,290,183.3,290,178.6,290z M205.1,250.9c-0.1,0-0.2,0-0.3,0
		c-1.9,6.2-3.8,12.3-5.7,18.6c4.1,0,7.9,0,11.8,0C208.9,263.2,207,257,205.1,250.9z M201.9,259c-0.9-0.9-1.6-1.4-2.2-2
		c-0.6,0.7-1.4,1.3-1.7,2.1c-0.3,0.7,1.2,2.3,1.8,2C200.6,260.7,201,259.9,201.9,259z M217.4,262c0-1.9-0.7-3.2-1.4-2.9
		c-0.7,0.3-1.7,1.3-1.6,1.8c0.2,0.9,1.1,1.6,1.7,2.3C216.7,262.7,217.2,262.2,217.4,262z M208.9,276.9c1.5-0.3,2.1-0.9,2.2-2
		c0.1-1.2-0.8-1.6-1.7-1.6c-1,0-2.1,0.4-2,1.5C207.4,275.6,208.4,276.2,208.9,276.9z M220,275.2c-0.8-0.7-1.7-1.8-2-1.7
		c-0.7,0.3-1.8,1.3-1.7,1.9c0.1,0.8,1.1,1.6,1.7,2.3C218.6,277,219.2,276.3,220,275.2z M211.5,258.8c0-0.2-0.1-0.4-0.1-0.5
		c-0.5-0.1-1.2-0.5-1.6-0.4c-0.5,0.2-0.9,0.8-1.3,1.2c0.5,0.3,1,0.8,1.5,0.8C210.5,259.7,211,259.2,211.5,258.8z M200,253
		c-0.6,0.5-1.3,1-1.3,1.2c0.1,0.5,0.7,1.2,1.1,1.2c0.4,0,1.1-0.6,1.3-1.1C201.2,254.1,200.5,253.6,200,253z"/>
	<path class="st3" d="M282.2,235.2c3,0,5.9,0,8.9,0.1c1.4,0,2.9,0.4,4.3,0.6c0.5-0.2,1.1-0.6,1.7-0.6c6.4,0,12.9,0,19.3,0
		c0.5,0,1.1,0.4,1.4,0.7c0.8,0.9,2.3,1.3,2.9,0.4c1.2-1.7,2.8-0.9,4.3-1.2c-1.2,3.5-0.1,5.2,3.3,4.9c0,1.7,0,3.4,0,5.2
		c-1.9,0-3.8,0-5.6,0c-3,0-6,0.1-8.9,0c-1.5-0.1-2,0.3-2,1.9c0.1,13.6,0,27.2,0,40.8c0,0.6,0,1.3,0,2c-0.4,0-0.8,0.2-1,0.1
		c-2.4-2-5.2-1.3-7.9-1.3c-1.4,0-2.9,0.5-3.8-1.2c-0.3-0.6-0.6-1.3-0.6-2c0-12.7,0-25.5,0-38.2c0-0.6,0-1.2,0-2c-5.6,0-11,0-16.4,0
		C282.2,242,282.2,238.6,282.2,235.2z M309,260.4c0-0.5,0-0.5,0-0.6c-0.1-1.3-1.1-2.5-2.4-2.5c-1.3,0-1.6,0.9-1.6,2
		c0,0.3-0.5,0.7-0.8,1c-0.6,0.4-1.3,0.5-1.9,0.9c-1.3,0.8-1.6,2.1-0.4,3.1c0.8,0.8,1.9,1.4,2.9,1.8c1.3,0.5,2-0.1,2-1.5
		c0-1,0.2-1.8,1.1-2.4C308.6,261.7,308.8,260.8,309,260.4z M302.7,254.8c0.9-0.7,1.6-1.2,2.3-1.7c-0.5-0.3-1-0.9-1.3-0.8
		C302.8,252.5,302.2,253.2,302.7,254.8z M305.5,243.1c0,0.3,0,0.6,0,0.9c0.6,0.1,1.1,0.2,1.7,0.3c0-0.4,0-0.8,0.1-1.2
		C306.7,243,306.1,243,305.5,243.1z"/>
</g>
<g>
	<g>
		<path class="st1" d="M32.3,267.3v10.1h-0.9v-24h7.5c2.4,0,4.3,0.6,5.7,1.9c1.4,1.2,2,2.9,2,5.1c0,2.2-0.7,3.9-2,5
			c-1.3,1.2-3.2,1.8-5.6,1.8H32.3z M32.3,266.4h6.6c2.2,0,3.8-0.5,5-1.6c1.2-1,1.8-2.5,1.8-4.4c0-1.9-0.6-3.4-1.8-4.5
			c-1.2-1.1-2.9-1.6-5-1.6h-6.6V266.4z"/>
		<path class="st1" d="M60.8,267.2h-8.3v10.3h-0.9v-24h7.6c2.4,0,4.3,0.6,5.7,1.9c1.4,1.2,2.1,2.9,2.1,5.1c0,1.6-0.5,3.1-1.5,4.3
			c-1,1.2-2.3,2-3.9,2.3l6.4,10.3v0.2h-0.9L60.8,267.2z M52.4,266.3H60c1.8,0,3.3-0.6,4.5-1.7c1.1-1.1,1.7-2.5,1.7-4.2
			c0-1.9-0.6-3.3-1.9-4.4c-1.3-1.1-3-1.6-5.2-1.6h-6.7V266.3z"/>
		<path class="st1" d="M75.2,277.4h-0.9v-24h0.9V277.4z"/>
		<path class="st1" d="M96.8,271.7c0-1-0.2-1.9-0.7-2.6c-0.5-0.7-1.2-1.3-2.3-1.9c-1-0.5-2.6-1.1-4.7-1.7c-2.1-0.6-3.6-1.1-4.7-1.7
			c-1-0.6-1.8-1.3-2.3-2c-0.5-0.8-0.7-1.7-0.7-2.8c0-1.7,0.7-3.2,2.2-4.2c1.5-1.1,3.4-1.6,5.7-1.6c1.5,0,2.9,0.3,4.1,0.9
			c1.2,0.6,2.2,1.4,2.8,2.5c0.7,1.1,1,2.3,1,3.7h-0.9c0-1.8-0.7-3.3-2-4.4c-1.3-1.2-3-1.8-5.1-1.8c-2.1,0-3.8,0.5-5.1,1.4
			c-1.3,0.9-2,2.1-2,3.5c0,1.4,0.6,2.6,1.7,3.5c1.1,0.9,3,1.7,5.6,2.3c2.6,0.7,4.5,1.5,5.7,2.3c1.5,1.1,2.3,2.6,2.3,4.5
			c0,1.2-0.3,2.3-1,3.2c-0.7,0.9-1.6,1.6-2.9,2.1c-1.3,0.5-2.7,0.8-4.2,0.8c-1.7,0-3.3-0.3-4.7-0.9c-1.4-0.6-2.4-1.4-3.1-2.5
			c-0.7-1.1-1-2.3-1-3.8h0.9c0,2,0.7,3.5,2.2,4.6c1.5,1.1,3.4,1.6,5.7,1.6c2.1,0,3.8-0.5,5.2-1.4C96.2,274.5,96.8,273.2,96.8,271.7z
			"/>
		<path class="st1" d="M119.4,267.2c0,2.1-0.4,3.9-1.1,5.5c-0.7,1.6-1.8,2.8-3.2,3.7c-1.4,0.9-3,1.3-4.7,1.3c-2.7,0-4.9-1-6.6-2.9
			c-1.7-1.9-2.5-4.5-2.5-7.8v-3.5c0-2.1,0.4-3.9,1.1-5.5c0.7-1.6,1.8-2.8,3.2-3.7c1.4-0.9,3-1.3,4.7-1.3c1.8,0,3.4,0.4,4.7,1.3
			c1.4,0.9,2.4,2.1,3.2,3.7c0.7,1.6,1.1,3.4,1.1,5.5V267.2z M118.5,263.6c0-2.9-0.7-5.2-2.2-7c-1.5-1.8-3.5-2.6-6-2.6
			c-2.5,0-4.4,0.9-5.9,2.6c-1.5,1.7-2.2,4.1-2.2,7.1v3.5c0,1.9,0.3,3.6,1,5.1c0.7,1.5,1.6,2.6,2.8,3.4c1.2,0.8,2.7,1.2,4.3,1.2
			c2.5,0,4.5-0.9,5.9-2.6c1.5-1.7,2.2-4.1,2.2-7.1V263.6z"/>
		<path class="st1" d="M142.1,277.4h-0.9L125.8,255v22.5h-0.9v-24h0.9l15.5,22.4v-22.4h0.9V277.4z"/>
	</g>
	<g>
		<path class="st1" d="M35.2,244.8h-0.9v-6.2l-1.9,0.7v-0.8l2.7-1h0.1V244.8z"/>
		<path class="st1" d="M38.4,241.1l0.4-3.7h3.8v0.9h-3l-0.2,2c0.4-0.2,0.8-0.3,1.2-0.3c0.7,0,1.2,0.2,1.6,0.7c0.4,0.4,0.6,1,0.6,1.8
			c0,0.8-0.2,1.4-0.6,1.8c-0.4,0.4-1,0.7-1.7,0.7c-0.6,0-1.2-0.2-1.6-0.5c-0.4-0.4-0.6-0.9-0.7-1.5H39c0.1,0.4,0.2,0.7,0.4,0.9
			c0.2,0.2,0.6,0.3,1,0.3c0.4,0,0.8-0.1,1-0.4c0.2-0.3,0.4-0.7,0.4-1.2c0-0.5-0.1-0.9-0.4-1.2c-0.3-0.3-0.6-0.4-1.1-0.4
			c-0.4,0-0.7,0.1-1,0.3l-0.2,0.2L38.4,241.1z"/>
		<path class="st1" d="M44,245.4h-0.8l3.1-8h0.8L44,245.4z"/>
		<path class="st1" d="M51.1,244.8h-0.9v-6.2l-1.9,0.7v-0.8l2.7-1h0.1V244.8z"/>
		<path class="st1" d="M58.4,241.6c0,1.1-0.2,1.9-0.6,2.4c-0.4,0.5-1,0.8-1.7,0.8c-0.8,0-1.4-0.3-1.7-0.8c-0.4-0.5-0.6-1.3-0.6-2.3
			v-1.2c0-1.1,0.2-1.9,0.6-2.4c0.4-0.5,1-0.8,1.8-0.8c0.8,0,1.4,0.3,1.7,0.8c0.4,0.5,0.6,1.3,0.6,2.3V241.6z M57.5,240.4
			c0-0.8-0.1-1.4-0.3-1.7c-0.2-0.4-0.6-0.5-1.1-0.5c-0.5,0-0.8,0.2-1,0.5c-0.2,0.4-0.3,0.9-0.3,1.7v1.5c0,0.8,0.1,1.4,0.3,1.8
			c0.2,0.4,0.6,0.6,1,0.6c0.5,0,0.8-0.2,1-0.5c0.2-0.4,0.3-0.9,0.4-1.7V240.4z"/>
		<path class="st1" d="M59.9,245.4h-0.8l3.1-8h0.8L59.9,245.4z"/>
		<path class="st1" d="M68.7,244.8h-4.8v-0.7l2.5-2.8c0.4-0.4,0.6-0.8,0.8-1c0.1-0.3,0.2-0.5,0.2-0.8c0-0.4-0.1-0.7-0.3-0.9
			c-0.2-0.2-0.5-0.4-0.9-0.4c-0.5,0-0.8,0.1-1.1,0.4c-0.3,0.3-0.4,0.6-0.4,1.1h-0.9c0-0.7,0.2-1.2,0.7-1.6c0.4-0.4,1-0.6,1.7-0.6
			c0.7,0,1.2,0.2,1.6,0.5c0.4,0.4,0.6,0.8,0.6,1.4c0,0.7-0.5,1.6-1.4,2.6l-2,2.1h3.7V244.8z"/>
		<path class="st1" d="M74.2,241.6c0,1.1-0.2,1.9-0.6,2.4c-0.4,0.5-1,0.8-1.7,0.8c-0.8,0-1.4-0.3-1.7-0.8c-0.4-0.5-0.6-1.3-0.6-2.3
			v-1.2c0-1.1,0.2-1.9,0.6-2.4c0.4-0.5,1-0.8,1.8-0.8c0.8,0,1.4,0.3,1.7,0.8c0.4,0.5,0.6,1.3,0.6,2.3V241.6z M73.3,240.4
			c0-0.8-0.1-1.4-0.3-1.7c-0.2-0.4-0.6-0.5-1.1-0.5c-0.5,0-0.8,0.2-1,0.5c-0.2,0.4-0.3,0.9-0.3,1.7v1.5c0,0.8,0.1,1.4,0.3,1.8
			c0.2,0.4,0.6,0.6,1,0.6c0.5,0,0.8-0.2,1-0.5c0.2-0.4,0.3-0.9,0.4-1.7V240.4z"/>
		<path class="st1" d="M78.5,244.8h-0.9v-6.2l-1.9,0.7v-0.8l2.7-1h0.1V244.8z"/>
		<path class="st1" d="M86,238l-3,6.8h-1l3-6.6h-4v-0.8h5V238z"/>
		<path class="st1" d="M89.1,242h-2.5v-0.8h2.5V242z"/>
		<path class="st1" d="M94.7,244.8h-4.8v-0.7l2.5-2.8c0.4-0.4,0.6-0.8,0.8-1c0.1-0.3,0.2-0.5,0.2-0.8c0-0.4-0.1-0.7-0.3-0.9
			c-0.2-0.2-0.5-0.4-0.9-0.4c-0.5,0-0.8,0.1-1.1,0.4c-0.3,0.3-0.4,0.6-0.4,1.1h-0.9c0-0.7,0.2-1.2,0.7-1.6s1-0.6,1.7-0.6
			c0.7,0,1.2,0.2,1.6,0.5c0.4,0.4,0.6,0.8,0.6,1.4c0,0.7-0.5,1.6-1.4,2.6l-2,2.1h3.7V244.8z"/>
		<path class="st1" d="M97,240.6h0.7c0.4,0,0.8-0.1,1-0.3s0.4-0.5,0.4-0.9c0-0.9-0.4-1.3-1.3-1.3c-0.4,0-0.7,0.1-1,0.3
			c-0.2,0.2-0.4,0.5-0.4,0.9h-0.9c0-0.6,0.2-1.1,0.6-1.4c0.4-0.4,1-0.6,1.6-0.6c0.7,0,1.2,0.2,1.6,0.5c0.4,0.4,0.6,0.9,0.6,1.5
			c0,0.3-0.1,0.6-0.3,0.9c-0.2,0.3-0.5,0.5-0.8,0.7c0.4,0.1,0.7,0.3,0.9,0.6s0.3,0.7,0.3,1.1c0,0.7-0.2,1.2-0.6,1.6
			c-0.4,0.4-1,0.6-1.7,0.6c-0.7,0-1.2-0.2-1.7-0.6c-0.4-0.4-0.6-0.9-0.6-1.5h0.9c0,0.4,0.1,0.7,0.4,0.9c0.3,0.2,0.6,0.3,1,0.3
			c0.5,0,0.8-0.1,1-0.4c0.2-0.2,0.4-0.6,0.4-1c0-0.4-0.1-0.8-0.4-1c-0.3-0.2-0.6-0.3-1.1-0.4H97V240.6z"/>
		<path class="st1" d="M101.8,245.4H101l3.1-8h0.8L101.8,245.4z"/>
		<path class="st1" d="M108.8,244.8h-0.9v-6.2l-1.9,0.7v-0.8l2.7-1h0.1V244.8z"/>
		<path class="st1" d="M116.3,244.8h-4.8v-0.7l2.5-2.8c0.4-0.4,0.6-0.8,0.8-1c0.1-0.3,0.2-0.5,0.2-0.8c0-0.4-0.1-0.7-0.3-0.9
			c-0.2-0.2-0.5-0.4-0.9-0.4c-0.5,0-0.8,0.1-1.1,0.4c-0.3,0.3-0.4,0.6-0.4,1.1h-0.9c0-0.7,0.2-1.2,0.7-1.6s1-0.6,1.7-0.6
			c0.7,0,1.2,0.2,1.6,0.5c0.4,0.4,0.6,0.8,0.6,1.4c0,0.7-0.5,1.6-1.4,2.6l-2,2.1h3.7V244.8z"/>
		<path class="st1" d="M117.6,245.4h-0.8l3.1-8h0.8L117.6,245.4z"/>
		<path class="st1" d="M126.4,244.8h-4.8v-0.7l2.5-2.8c0.4-0.4,0.6-0.8,0.8-1c0.1-0.3,0.2-0.5,0.2-0.8c0-0.4-0.1-0.7-0.3-0.9
			c-0.2-0.2-0.5-0.4-0.9-0.4c-0.5,0-0.8,0.1-1.1,0.4c-0.3,0.3-0.4,0.6-0.4,1.1h-0.9c0-0.7,0.2-1.2,0.7-1.6c0.4-0.4,1-0.6,1.7-0.6
			c0.7,0,1.2,0.2,1.6,0.5c0.4,0.4,0.6,0.8,0.6,1.4c0,0.7-0.5,1.6-1.4,2.6l-2,2.1h3.7V244.8z"/>
		<path class="st1" d="M132,241.6c0,1.1-0.2,1.9-0.6,2.4c-0.4,0.5-1,0.8-1.7,0.8c-0.8,0-1.4-0.3-1.7-0.8c-0.4-0.5-0.6-1.3-0.6-2.3
			v-1.2c0-1.1,0.2-1.9,0.6-2.4c0.4-0.5,1-0.8,1.8-0.8c0.8,0,1.4,0.3,1.7,0.8c0.4,0.5,0.6,1.3,0.6,2.3V241.6z M131,240.4
			c0-0.8-0.1-1.4-0.3-1.7c-0.2-0.4-0.6-0.5-1.1-0.5c-0.5,0-0.8,0.2-1,0.5c-0.2,0.4-0.3,0.9-0.3,1.7v1.5c0,0.8,0.1,1.4,0.3,1.8
			c0.2,0.4,0.6,0.6,1,0.6c0.5,0,0.8-0.2,1-0.5c0.2-0.4,0.3-0.9,0.4-1.7V240.4z"/>
		<path class="st1" d="M136.2,244.8h-0.9v-6.2l-1.9,0.7v-0.8l2.7-1h0.1V244.8z"/>
		<path class="st1" d="M143.7,238l-3,6.8h-1l3-6.6h-4v-0.8h5V238z"/>
	</g>
</g>
</svg>
