<?xml version="1.0" encoding="utf-8"?>
<!-- Generator: Adobe Illustrator 21.1.0, SVG Export Plug-In . SVG Version: 6.00 Build 0)  -->
<svg version="1.1" id="Layer_1" xmlns="http://www.w3.org/2000/svg" xmlns:xlink="http://www.w3.org/1999/xlink" x="0px" y="0px"
	 viewBox="0 0 400 100" style="enable-background:new 0 0 400 100;" xml:space="preserve">
<style type="text/css">
	.st0{fill:#780A23;}
	.st1{fill:#FFFFFF;}
	.st2{fill:none;stroke:#780A23;stroke-width:3;stroke-miterlimit:10;}
</style>
<title>campaign-logo</title>
<rect x="153.6" y="8.5" class="st0" width="237.6" height="86.2"/>
<path d="M223.6,46.3c-0.6,0.1-1.2,0.9-1.6,1.5c0.6,0.3,1.3,1,1.8,0.9c0.4-0.1,1.3-0.7,1.9-1.2l-0.1-0.6
	C224.9,46.6,224.2,46.1,223.6,46.3z"/>
<path d="M231.4,47.8c-0.9,0.4-2.1,1.6-1.9,2.2c0.3,1,1.3,1.9,2.1,2.8l1.5-1.5C233,49,232.1,47.3,231.4,47.8z"/>
<path d="M261.2,50.5c0,0.4,0.6,1,0.9,1.5c0.4-0.4,1.2-0.7,1.2-1.2s-0.6-1.2-1.2-2.2C261.7,49.6,261.2,50,261.2,50.5z"/>
<path d="M233.8,65.8c-0.9,0.4-2.2,1.6-2.1,2.4c0.1,1,1.3,1.9,2.1,2.8l2.5-3.1C235.3,67,234.2,65.6,233.8,65.8z"/>
<path d="M211.1,43.1c0.6,0,1.3-0.7,1.5-1.3c0.1-0.3-0.7-1-1.3-1.8c-0.7,0.6-1.6,1.2-1.5,1.5C209.9,42.2,210.5,43.1,211.1,43.1z"/>
<path d="M223,65.5c-1.2,0-2.7,0.4-2.5,1.8c0.1,0.9,1.2,1.8,1.9,2.7c1.9-0.4,2.7-1.2,2.7-2.5C225.1,66.1,224.2,65.5,223,65.5z"/>
<path d="M217.7,37.4h-0.4l-7.2,23.1h14.7L217.7,37.4z"/>
<path d="M211.1,50.2c0.9-0.4,1.3-1.3,2.5-2.5l-2.7-2.4c-0.9,0.7-1.5,1.6-2.1,2.5C208.6,48.7,210.4,50.6,211.1,50.2z"/>
<path d="M345,27.5l-2.1,0.1v1L345,29V27.5z"/>
<path d="M284.9,30.5c-3.7-0.3-7.5-0.3-11.2-0.3c-0.4,0-1.2,0.6-1.2,1c0,5.8,0,11.7,0,17.8c0.3,0.1,0.6,0.1,0.9,0.1
	c3.3,0,6.6,0,9.9,0c6-0.1,9-3.1,9.3-9.1C292.5,34.9,289.6,31,284.9,30.5z"/>
<path d="M344.3,45.5c-1.6,0-1.9,1-1.9,2.5c0,0.4-0.6,0.9-1,1.2c-0.7,0.4-1.6,0.6-2.2,1c-1.2,0.4-1.8,1.8-1.3,2.8
	c0.1,0.4,0.4,0.7,0.7,1c1,0.9,2.2,1.6,3.6,2.2c1.6,0.6,2.5,0,2.5-1.8c-0.1-1.2,0.4-2.2,1.3-3c0.6-0.6,1-1.3,1.3-2.2
	c0-0.6,0-0.6,0-0.7C347.3,47,345.9,45.7,344.3,45.5z"/>
<path d="M3.4,8.2v87.7h395V8.2H3.4z M232.7,86.2c-1.2-3.7-2.4-7.5-3.4-11.2c-0.3-1.3-1-1.6-2.2-1.6c-6.4,0-12.9,0-19.3,0
	c-1-0.1-2.1,0.6-2.2,1.6l0,0c-1,3.7-2.4,7.5-3.4,11.1h-17.5c3.6-9.7,7-19.5,10.6-29.2c0.3-0.6,0.9-1,1.5-1.3c1.9-0.9,2.1-1.5,1-3.3
	c-0.3-0.6-0.3-1.2-0.1-1.8c3.7-10.5,7.6-20.8,11.4-31.3c0.1-1,1.2-1.6,2.2-1.5c4,0,8.1,0.1,12.1,0c1.2-0.1,2.2,0.6,2.5,1.8
	c7.6,20.8,15.3,41.7,23.1,62.5c0.6,1.5,1,2.8,1.6,4.2H232.7z M309.2,82.4c-1.3,0.9-2.8,1.6-4.3,2.2c-0.7,0.3-1.6,0.3-2.4,0
	c-1.9-1-4.3-0.3-5.2,1.6h-3.9c-3.9-7.8-7.6-15.6-11.5-23.4c-0.1-0.4-0.6-0.7-1-0.7c-2.7,0-5.4,0-8.4,0c0,1.2,0,1.9,0,2.8
	c0,7.2,0,14.2-0.1,21.4h-1.6l-5.8-2.8l0.9,2.7h-8.4l-1.5-0.7V18.1h31c-0.3,1-0.3,2.2-0.3,3.4c0.1,1.6,1.3,2.1,2.5,0.9
	c0.7-0.6,1.2-1.3,1.6-2.1c0.6-1.5,1.5-1.6,2.8-1c1.8,0.7,4,0.7,5.1,3c0.1,0.3,0.3,0.4,0.6,0.4c4.5,0.3,6,3.9,7.5,7
	c4.9,10.2,0.9,22.5-9.1,27.7c-0.3,0.1-0.6,0.3-0.9,0.6l1.8,3.7c-0.7,1.2-1.2,2.5-1.6,3.9c0,0.7,0.4,1.3,1,1.6c4.6,1.2,4.9,1.5,6.4,6
	c-4.9,0.6-5.4,2.1-3.9,6.9c0.9,3,1,2.8,3.9,1.8c1.2-0.4,2.5-0.6,3.9-0.6c0.6,0.1,1.2,0.3,1.8,0.6L309.2,82.4z M371.6,30.7h-7
	c-3.7,0-7.5,0.1-11.1,0c-1.9,0-2.4,0.4-2.4,2.4c0,16.9,0,33.9,0,50.8v2.4c-0.6,0-1,0.3-1.2,0c-3-2.5-6.4-1.6-9.7-1.5
	c-1.8,0-3.6,0.6-4.6-1.5c-0.4-0.7-0.7-1.6-0.7-2.4c0-15.9,0-31.8,0-47.7v-2.5h-20.5V17.9c3.7,0,7.5,0,11.1,0
	c1.8,0.1,3.6,0.4,5.4,0.7c0.6-0.3,1.3-0.6,2.1-0.7c7.9,0,16,0,24,0c0.7,0.1,1.3,0.4,1.8,0.9c1,1,2.8,1.6,3.7,0.4
	c1.5-2.1,3.4-1.2,5.4-1.5c-1.5,4.3-0.1,6.4,4,6.1L371.6,30.7z"/>
<path d="M342.3,40.3c-0.6-0.4-1.2-1.2-1.6-1c-1.2,0.3-1.9,1.2-1.2,3.1L342.3,40.3z"/>
<path d="M290.6,59.5c1,0.9,2.2,1.6,3.7,0.7c0.1-0.4,0.1-0.9,0-1.3c-1-0.9-2.7-0.7-3.4,0.3C290.8,59.3,290.6,59.3,290.6,59.5z"/>
<g>
	<g>
		<path class="st1" d="M28.4,64.3v12.6h-1V47h9.3c2.5-0.1,5.1,0.6,7,2.2c1.8,1.6,2.7,4,2.5,6.4c0.1,2.4-0.7,4.6-2.5,6.3
			c-1.9,1.6-4.5,2.4-7,2.2h-8.3V64.3z M28.4,63.2h8.2c2.2,0.1,4.5-0.6,6.3-1.9c1.5-1.3,2.4-3.4,2.2-5.4c0.1-2.1-0.7-4.2-2.2-5.7
			c-1.8-1.5-4-2.1-6.3-1.9h-8.2C28.4,48.3,28.4,63.2,28.4,63.2z"/>
		<path class="st1" d="M63.9,64.1H53.6v12.7h-1.2V47h9.4c2.5-0.1,5.1,0.7,7.2,2.2c1.8,1.6,2.7,3.9,2.7,6.3c0,1.9-0.6,3.9-1.8,5.4
			c-1.2,1.5-3,2.5-4.8,2.8L73,76.4v0.3h-1.2L63.9,64.1z M53.6,62.9H63c2.1,0.1,4-0.6,5.5-2.1c1.3-1.3,2.2-3.3,2.1-5.2
			c0.1-2.1-0.7-4.2-2.4-5.5c-1.8-1.5-4-2.1-6.4-1.9h-8.4L53.6,62.9z"/>
		<path class="st1" d="M81.9,76.9h-1V47h1V76.9z"/>
		<path class="st1" d="M108.9,69.7c0-1.2-0.3-2.2-0.9-3.3c-0.7-1-1.6-1.8-2.8-2.4c-1.8-0.9-3.7-1.6-5.8-2.1
			c-1.9-0.4-3.9-1.2-5.8-2.1c-1.2-0.6-2.1-1.5-2.8-2.5c-0.6-1-0.9-2.2-0.9-3.4c0-2.1,1-4,2.7-5.2c2.1-1.5,4.6-2.1,7.2-1.9
			c1.8,0,3.6,0.3,5.1,1.2c1.5,0.7,2.7,1.8,3.6,3.1s1.2,2.8,1.2,4.5h-1c0-2.1-0.9-4.2-2.4-5.5c-1.8-1.5-4-2.2-6.4-2.2
			c-2.2-0.1-4.5,0.4-6.4,1.8c-2.5,1.6-3.1,4.9-1.6,7.3c0.3,0.4,0.7,1,1.2,1.3c2.1,1.3,4.5,2.4,7,2.8c2.5,0.6,4.9,1.6,7.2,3
			c1.8,1.3,3,3.4,2.8,5.7c0,1.5-0.4,2.8-1.3,4s-2.2,2.1-3.6,2.7c-1.6,0.6-3.4,0.9-5.2,0.9c-1.9,0-4-0.3-5.8-1
			c-1.5-0.6-2.8-1.6-3.9-3c-0.9-1.3-1.3-3-1.3-4.6h1c-0.1,2.2,0.9,4.3,2.7,5.7c2.1,1.5,4.6,2.1,7.2,2.1c2.2,0.1,4.5-0.6,6.4-1.8
			C108,73.4,108.9,71.6,108.9,69.7z"/>
		<path class="st1" d="M136.9,64.1c0,2.4-0.4,4.6-1.3,6.9c-0.9,1.9-2.2,3.4-3.9,4.6c-1.8,1-3.7,1.6-5.8,1.6
			c-3.1,0.1-6.1-1.2-8.1-3.6c-2.2-2.7-3.3-6.1-3.1-9.7v-4.2c0-2.4,0.4-4.6,1.3-6.9c0.9-1.9,2.2-3.4,4-4.6c3.6-2.2,8.2-2.2,11.8,0
			c1.8,1,3.1,2.7,3.9,4.6c0.9,2.1,1.5,4.5,1.3,6.9L136.9,64.1z M135.9,59.6c0.1-3.1-0.7-6.1-2.7-8.7c-3.7-4-10-4.3-14.1-0.6
			c-0.3,0.1-0.4,0.4-0.6,0.6c-1.9,2.5-2.8,5.7-2.7,8.8V64c0,2.1,0.4,4.3,1.2,6.3c0.7,1.6,1.9,3.1,3.6,4.2c1.6,1,3.4,1.5,5.4,1.5
			c2.8,0.1,5.5-1,7.3-3.3c1.9-2.5,3-5.7,2.7-9L135.9,59.6z"/>
		<path class="st1" d="M165.4,76.9h-1l-19.3-28v28h-1.2V47h1.2l19.3,27.9V47h1V76.9z"/>
	</g>
	<g>
		<path class="st1" d="M30.8,36.2h-1.2v-7.8l-2.4,0.9v-1l3.3-1.2h0.1L30.8,36.2z"/>
		<path class="st1" d="M34.8,31.6l0.4-4.5h4.6v1h-3.7l-0.3,2.4c0.4-0.3,0.9-0.4,1.5-0.4c0.7,0,1.5,0.3,1.9,0.7
			c0.4,0.6,0.7,1.3,0.7,2.2c0,0.7-0.3,1.6-0.7,2.2c-0.6,0.6-1.3,0.9-2.1,0.7c-0.7,0-1.5-0.1-1.9-0.7c-0.4-0.4-0.9-1.2-0.9-1.8h1
			c0,0.4,0.3,0.9,0.6,1.2s0.7,0.4,1.2,0.4c0.4,0,0.9-0.1,1.2-0.6c0.3-0.4,0.4-0.9,0.4-1.5s-0.1-1-0.4-1.5C38,31,37.4,30.8,37,30.8
			c-0.4,0-0.9,0.1-1.2,0.3l-0.3,0.3L34.8,31.6z"/>
		<path class="st1" d="M41.9,37h-1l3.9-9.9h1L41.9,37z"/>
		<path class="st1" d="M50.6,36.2h-1.2v-7.8L47,29.3v-1l3.3-1.2h0.1L50.6,36.2z"/>
		<path class="st1" d="M59.7,32.3c0,1-0.1,2.1-0.7,3c-1,1.2-2.8,1.3-4,0.3c-0.1-0.1-0.1-0.1-0.3-0.3c-0.6-0.9-0.7-1.9-0.7-2.8V31
			c0-1,0.1-2.1,0.7-3c1.2-1.2,3-1.2,4.2-0.1L59,28c0.6,0.9,0.7,1.9,0.7,3V32.3z M58.5,30.7c0-0.7-0.1-1.5-0.4-2.1
			c-0.3-0.4-0.7-0.7-1.3-0.7s-1,0.1-1.3,0.7s-0.4,1.3-0.4,2.1v1.8c0,0.7,0.1,1.5,0.4,2.2c0.3,0.4,0.7,0.7,1.3,0.7
			c0.4,0,1-0.1,1.2-0.6c0.3-0.6,0.4-1.3,0.4-2.1L58.5,30.7z"/>
		<path class="st1" d="M61.5,37h-1l3.7-9.9h1L61.5,37z"/>
		<path class="st1" d="M72.5,36.2h-6v-0.9l3.1-3.4c0.3-0.4,0.7-0.9,0.9-1.3c0.1-0.3,0.3-0.6,0.3-1s-0.1-0.9-0.4-1.2
			c-0.3-0.3-0.7-0.4-1.2-0.4c-0.4,0-1,0.1-1.3,0.4c-0.3,0.4-0.4,0.9-0.4,1.3h-1.2c0-0.7,0.3-1.5,0.7-2.1c0.6-0.6,1.3-0.7,2.1-0.7
			c0.7,0,1.5,0.1,2.1,0.7c0.4,0.4,0.7,1,0.7,1.8c-0.1,1.2-0.7,2.4-1.6,3.3l-2.4,2.7h4.6L72.5,36.2L72.5,36.2z"/>
		<path class="st1" d="M79.5,32.3c0,1-0.1,2.1-0.7,3c-1,1.2-2.8,1.3-4,0.3c-0.1-0.1-0.1-0.1-0.3-0.3c-0.6-0.9-0.7-1.9-0.7-2.8V31
			c0-1,0.1-2.1,0.7-3c1.2-1.2,3-1.2,4.2-0.1l0.1,0.1c0.6,0.9,0.7,1.9,0.7,3C79.5,31,79.5,32.3,79.5,32.3z M78.3,30.7
			c0-0.7-0.1-1.5-0.4-2.1c-0.3-0.4-0.7-0.7-1.3-0.7c-0.6,0-1,0.1-1.3,0.7s-0.4,1.3-0.4,2.1v1.8c0,0.7,0.1,1.5,0.4,2.2
			c0.3,0.4,0.7,0.7,1.3,0.7c0.4,0,1-0.1,1.3-0.6c0.3-0.6,0.4-1.3,0.4-2.1V30.7z"/>
		<path class="st1" d="M84.8,36.2h-1.2v-7.8l-2.4,0.9v-1l3.3-1.2h0.1v9.1H84.8z"/>
		<path class="st1" d="M94.1,27.7l-3.7,8.5h-1.2l3.7-8.2H88v-0.9h6.1V27.7z"/>
		<path class="st1" d="M98,32.8h-3v-0.9h3V32.8z"/>
		<path class="st1" d="M105,36.2h-6v-0.9l3.1-3.4c0.3-0.4,0.7-0.9,0.9-1.3c0.1-0.3,0.3-0.6,0.3-1s-0.1-0.9-0.4-1.2
			c-0.3-0.3-0.7-0.4-1.2-0.4c-0.4,0-1,0.1-1.3,0.4c-0.3,0.4-0.4,0.9-0.4,1.3h-1c0-0.7,0.3-1.5,0.7-2.1c0.6-0.6,1.3-0.7,2.1-0.7
			c0.7,0,1.5,0.1,2.1,0.7c0.4,0.4,0.7,1,0.7,1.8c-0.1,1.2-0.7,2.4-1.6,3.3l-2.5,2.7h4.6L105,36.2z"/>
		<path class="st1" d="M107.9,31h0.9c0.4,0,0.9-0.1,1.3-0.4c0.3-0.3,0.4-0.7,0.4-1.2c0-0.9-0.6-1.5-1.3-1.6h-0.1
			c-0.4,0-0.9,0.1-1.2,0.4c-0.3,0.3-0.4,0.7-0.4,1.2h-1.2c0-0.7,0.3-1.3,0.7-1.8c0.6-0.4,1.3-0.7,2.1-0.7c0.7,0,1.5,0.1,2.1,0.7
			c0.4,0.4,0.7,1.2,0.7,1.9c0,0.4-0.1,0.7-0.4,1.2s-0.6,0.6-1,0.9c0.4,0.1,0.9,0.4,1.2,0.7c0.3,0.4,0.4,0.9,0.4,1.3
			c0,0.7-0.3,1.5-0.7,1.9c-0.6,0.4-1.3,0.7-2.1,0.7c-0.7,0-1.5-0.1-2.1-0.7c-0.6-0.4-0.9-1.2-0.7-1.8h1.2c0,0.4,0.1,0.9,0.4,1.2
			s0.7,0.4,1.2,0.4c0.4,0,0.9-0.1,1.3-0.4c0.3-0.3,0.4-0.7,0.4-1.2s-0.1-0.9-0.4-1.2c-0.4-0.3-0.9-0.4-1.3-0.4H108L107.9,31
			L107.9,31z"/>
		<path class="st1" d="M113.8,37h-1l3.9-9.9h1L113.8,37z"/>
		<path class="st1" d="M122.5,36.2h-1.2v-7.8l-2.4,0.9v-1l3.3-1.2h0.1L122.5,36.2z"/>
		<path class="st1" d="M132,36.2h-6v-0.9l3.1-3.4c0.3-0.4,0.7-0.9,0.9-1.3c0.1-0.3,0.3-0.6,0.3-1s-0.1-0.9-0.4-1.2
			c-0.3-0.3-0.7-0.4-1.2-0.4c-0.4,0-1,0.1-1.3,0.4c-0.3,0.4-0.4,0.9-0.4,1.3h-1c0-0.7,0.3-1.5,0.7-2.1c0.6-0.6,1.3-0.7,2.1-0.7
			c0.7,0,1.5,0.1,2.1,0.7c0.4,0.4,0.7,1,0.7,1.8c-0.1,1.2-0.7,2.4-1.6,3.3l-2.5,2.7h4.6L132,36.2z"/>
		<path class="st1" d="M133.5,37h-1l3.7-9.9h1L133.5,37z"/>
		<path class="st1" d="M144.4,36.2h-6v-0.9l3.1-3.4c0.3-0.4,0.7-0.9,0.9-1.3c0.1-0.3,0.3-0.6,0.3-1s-0.1-0.9-0.4-1.2
			c-0.3-0.3-0.7-0.4-1.2-0.4c-0.4,0-1,0.1-1.3,0.4c-0.3,0.4-0.4,0.9-0.4,1.3h-1.2c0-0.7,0.3-1.5,0.7-2.1c0.6-0.6,1.3-0.7,2.1-0.7
			s1.5,0.1,2.1,0.7c0.4,0.4,0.7,1,0.7,1.8c-0.1,1.2-0.7,2.4-1.6,3.3l-2.4,2.7h4.6L144.4,36.2L144.4,36.2z"/>
		<path class="st1" d="M151.5,32.3c0,1-0.1,2.1-0.7,3c-1,1.2-2.8,1.3-4,0.3c-0.1-0.1-0.1-0.1-0.3-0.3c-0.6-0.9-0.7-1.9-0.7-2.8V31
			c0-1,0.1-2.1,0.7-3c1.2-1.2,3-1.2,4.2-0.1l0.1,0.1c0.6,0.9,0.7,1.9,0.7,3V32.3L151.5,32.3z M150.3,30.7c0-0.7-0.1-1.5-0.4-2.1
			c-0.3-0.4-0.7-0.7-1.3-0.7s-1,0.1-1.3,0.7s-0.4,1.3-0.4,2.1v1.8c0,0.7,0.1,1.5,0.4,2.2c0.3,0.4,0.7,0.7,1.3,0.7
			c0.4,0,1-0.1,1.3-0.6c0.3-0.6,0.4-1.3,0.4-2.1V30.7z"/>
		<path class="st1" d="M156.7,36.2h-1.2v-7.8l-2.4,0.9v-1l3.3-1.2h0.1v9.1H156.7z"/>
		<path class="st1" d="M166,27.7l-3.7,8.5h-1.2l3.7-8.2h-4.9v-0.9h6.1L166,27.7L166,27.7z"/>
	</g>
</g>
<rect x="4.9" y="8.2" class="st2" width="393" height="87.7"/>
</svg>
