<?xml version="1.0" encoding="utf-8"?>
<!-- Generator: Adobe Illustrator 21.1.0, SVG Export Plug-In . SVG Version: 6.00 Build 0)  -->
<svg version="1.1" id="Layer_1" xmlns="http://www.w3.org/2000/svg" xmlns:xlink="http://www.w3.org/1999/xlink" x="0px" y="0px"
	 viewBox="0 0 400 100" style="enable-background:new 0 0 400 100;" xml:space="preserve">
<style type="text/css">
	.st0{opacity:0.5;}
	.st1{fill:#FFFFFF;}
</style>
<title>campaign</title>
<g>
	<g class="st0">
		<path d="M235.2,46.2c-0.4,0.1-0.7,0.6-1.1,1c0.4,0.2,0.9,0.7,1.2,0.6c0.5-0.1,0.9-0.6,1.3-0.9c0-0.1,0-0.3-0.1-0.4
			C236.1,46.4,235.6,46.1,235.2,46.2z"/>
		<path d="M240.4,47.2c-0.6,0.3-1.4,1.1-1.3,1.5c0.2,0.7,0.9,1.3,1.4,1.9c0.4-0.4,0.9-0.9,1-1C241.5,48,240.9,46.9,240.4,47.2z"/>
		<path d="M260.3,49.1c0,0.3,0.4,0.7,0.6,1c0.3-0.3,0.8-0.5,0.8-0.8c0-0.4-0.4-0.8-0.8-1.5C260.6,48.4,260.3,48.7,260.3,49.1z"/>
		<path d="M242,59.2c-0.6,0.3-1.5,1.1-1.4,1.6c0.1,0.7,0.9,1.3,1.4,1.9c0.5-0.6,1-1.2,1.7-2.1C243,60,242.3,59.1,242,59.2z"/>
		<path d="M226.9,44.1c0.4,0,0.9-0.5,1-0.9c0.1-0.2-0.5-0.7-0.9-1.2c-0.5,0.4-1.1,0.8-1,1C226.1,43.5,226.5,44.1,226.9,44.1z"/>
		<path d="M234.8,59c-0.8,0-1.8,0.3-1.7,1.2c0.1,0.6,0.8,1.2,1.3,1.8c1.3-0.3,1.8-0.8,1.8-1.7C236.3,59.3,235.6,59,234.8,59z"/>
		<path d="M231.3,40.4c-0.1,0-0.2,0-0.3,0c-1.6,5.1-3.2,10.3-4.8,15.4c3.4,0,6.6,0,9.8,0C234.5,50.6,232.9,45.5,231.3,40.4z"/>
		<path d="M226.9,48.8c0.6-0.3,0.9-0.9,1.7-1.7c-0.8-0.7-1.3-1.2-1.8-1.6c-0.5,0.6-1.1,1.1-1.4,1.7
			C225.2,47.8,226.5,49.1,226.9,48.8z"/>
		<path d="M316.2,33.7c-0.5,0-0.9,0.1-1.4,0.1c0,0.2,0,0.5,0,0.7c0.5,0.1,0.9,0.1,1.4,0.2C316.2,34.4,316.2,34.1,316.2,33.7z"/>
		<path d="M276.1,35.7c-2.5-0.2-5-0.2-7.5-0.2c-0.3,0-0.8,0.4-0.8,0.7c-0.1,3.9,0,7.8,0,11.8c0.3,0.1,0.4,0.1,0.6,0.1
			c2.2,0,4.4,0,6.6,0c4-0.1,6-2.1,6.2-6.1C281.2,38.6,279.2,36,276.1,35.7z"/>
		<path d="M315.7,45.7c-1.1,0-1.3,0.7-1.3,1.7c0,0.3-0.4,0.6-0.7,0.8c-0.5,0.3-1.1,0.4-1.6,0.7c-1.1,0.7-1.3,1.7-0.3,2.6
			c0.7,0.6,1.6,1.2,2.4,1.5c1.1,0.4,1.7-0.1,1.7-1.2c0-0.9,0.2-1.5,0.9-2c0.5-0.4,0.7-1.2,0.9-1.5c0-0.4,0-0.4,0-0.5
			C317.7,46.7,316.8,45.7,315.7,45.7z"/>
		<path d="M40.3,20.8v58.5h360.2V20.8H40.3z M241.3,72.8c-0.8-2.5-1.6-5-2.2-7.5c-0.2-0.9-0.7-1.1-1.5-1.1c-4.3,0-8.6,0-12.9,0
			c-0.9,0-1.2,0.3-1.5,1.1c-0.7,2.5-1.6,5-2.3,7.4c-3.9,0-7.8,0-11.7,0c2.4-6.5,4.7-13,7.1-19.5c0.1-0.4,0.6-0.7,1-0.9
			c1.3-0.6,1.4-1,0.7-2.2c-0.2-0.3-0.2-0.8-0.1-1.2c2.5-7,5.1-13.9,7.6-20.9c0.3-0.8,0.7-1,1.5-1c2.7,0,5.4,0.1,8.1,0
			c1,0,1.4,0.3,1.7,1.2c5.1,13.9,10.2,27.8,15.4,41.6c0.4,1,0.7,1.9,1.1,2.9C249.3,72.8,245.3,72.8,241.3,72.8z M292.3,70.3
			c-1,0.5-1.9,1.1-2.9,1.5c-0.5,0.2-1.1,0.1-1.6,0c-1.5-0.6-2.6-0.3-3.5,1.1c-0.9,0-1.8,0-2.7,0c-2.6-5.2-5.1-10.4-7.7-15.6
			c-0.1-0.2-0.4-0.5-0.7-0.5c-1.8,0-3.7,0-5.6,0c0,0.8,0,1.3,0,1.9c0,4.8,0,9.5-0.1,14.3c-0.4,0-0.7,0-1.1,0
			c-1.1-0.5-2.3-1.1-3.8-1.8c0.3,0.8,0.5,1.3,0.7,1.8c-1.9,0-3.7,0-5.6,0c-0.3-0.2-0.7-0.3-1-0.5c0-14.9,0-30,0-45.1
			c6.9,0,13.8,0,20.7,0c-0.1,0.8-0.3,1.5-0.2,2.3c0.1,1.1,0.9,1.4,1.7,0.6c0.5-0.4,0.9-0.9,1.1-1.4c0.4-1,1-1.1,1.9-0.7
			c1.2,0.5,2.7,0.5,3.4,2c0.1,0.1,0.3,0.3,0.4,0.3c3,0.2,4,2.6,5,4.7c3.3,6.9,0.6,14.8-6.1,18.6c-0.2,0.1-0.4,0.2-0.6,0.4
			c0.5,0.9,0.9,1.8,1.2,2.5c-0.5,1-0.9,1.8-1.2,2.6c-0.1,0.3,0.4,1.1,0.7,1.1c3.1,0.8,3.3,1,4.3,4c-3.3,0.4-3.6,1.4-2.6,4.6
			c0.6,2,0.7,1.9,2.6,1.2c0.8-0.3,1.7-0.3,2.6-0.4c0.4,0,0.8,0.3,1.2,0.4C292.7,70.1,292.5,70.2,292.3,70.3z M333.8,35.8
			c-1.6,0-3.1,0-4.7,0c-2.5,0-5,0.1-7.4,0c-1.3,0-1.6,0.3-1.6,1.6c0.1,11.3,0,22.6,0,33.9c0,0.5,0,1,0,1.6c-0.4,0-0.7,0.2-0.8,0
			c-2-1.7-4.3-1.1-6.5-1c-1.2,0-2.4,0.4-3.1-1c-0.3-0.5-0.5-1.1-0.5-1.6c0-10.6,0-21.2,0-31.8c0-0.5,0-1,0-1.7c-4.6,0-9.1,0-13.6,0
			c0-2.8,0-5.7,0-8.5c2.5,0,4.9,0,7.4,0c1.2,0,2.4,0.3,3.6,0.5c0.4-0.1,0.9-0.5,1.4-0.5c5.3,0,10.7,0,16,0c0.4,0,0.9,0.3,1.2,0.6
			c0.7,0.7,1.9,1.1,2.4,0.3c1-1.4,2.3-0.8,3.6-1c-1,2.9-0.1,4.3,2.7,4.1C333.8,32.8,333.8,34.2,333.8,35.8z"/>
		<path d="M314.4,42.2c-0.4-0.2-0.8-0.8-1.1-0.7c-0.8,0.2-1.3,0.8-0.8,2.1C313.2,43,313.8,42.6,314.4,42.2z"/>
		<path d="M279.9,55c0.7,0.6,1.5,1.1,2.4,0.5c0.1-0.1,0.1-0.8,0-0.9C281.5,54.1,280.6,54.1,279.9,55z"/>
	</g>
	<g>
		<g>
			<path class="st1" d="M105,58.2v8.4h-0.7V46.7h6.2c2,0,3.6,0.5,4.7,1.5s1.7,2.5,1.7,4.3s-0.5,3.2-1.6,4.2s-2.7,1.5-4.7,1.5H105z
				 M105,57.5h5.5c1.8,0,3.2-0.4,4.2-1.3c1-0.9,1.5-2.1,1.5-3.6c0-1.6-0.5-2.9-1.5-3.8c-1-0.9-2.4-1.3-4.2-1.3H105V57.5z"/>
			<path class="st1" d="M128.7,58.1h-6.9v8.5H121V46.7h6.4c2,0,3.6,0.5,4.8,1.5s1.8,2.4,1.8,4.2c0,1.4-0.4,2.5-1.3,3.6
				c-0.8,1-1.9,1.6-3.2,1.9l5.3,8.5v0.2H134L128.7,58.1z M121.8,57.3h6.3c1.5,0,2.8-0.5,3.7-1.4s1.4-2.1,1.4-3.5
				c0-1.6-0.5-2.8-1.6-3.7c-1-0.9-2.5-1.3-4.3-1.3h-5.6v9.9H121.8z"/>
			<path class="st1" d="M140.7,66.6H140V46.7h0.7V66.6z"/>
			<path class="st1" d="M158.7,61.8c0-0.8-0.2-1.6-0.6-2.2c-0.4-0.6-1-1.1-1.9-1.6s-2.1-0.9-3.9-1.4c-1.7-0.5-3-1-3.9-1.4
				c-0.9-0.5-1.5-1-1.9-1.7c-0.4-0.6-0.6-1.4-0.6-2.3c0-1.5,0.6-2.6,1.8-3.5s2.8-1.3,4.8-1.3c1.3,0,2.4,0.2,3.4,0.7s1.8,1.2,2.4,2.1
				c0.6,0.9,0.8,1.9,0.8,3h-0.7c0-1.5-0.5-2.7-1.6-3.7s-2.5-1.5-4.3-1.5s-3.2,0.4-4.3,1.2s-1.6,1.8-1.6,2.9c0,1.2,0.5,2.2,1.4,2.9
				s2.5,1.4,4.7,1.9c2.2,0.6,3.7,1.2,4.8,2c1.3,0.9,1.9,2.2,1.9,3.8c0,1-0.3,1.9-0.8,2.7c-0.6,0.8-1.4,1.4-2.4,1.8s-2.2,0.6-3.5,0.6
				c-1.4,0-2.7-0.2-3.9-0.7s-2-1.2-2.6-2c-0.6-0.9-0.9-1.9-0.9-3.1h0.7c0,1.6,0.6,2.9,1.8,3.8s2.8,1.4,4.8,1.4
				c1.7,0,3.2-0.4,4.3-1.2C158.1,64.2,158.7,63.1,158.7,61.8z"/>
			<path class="st1" d="M177.5,58.1c0,1.7-0.3,3.3-0.9,4.6c-0.6,1.3-1.5,2.4-2.6,3.1s-2.5,1.1-3.9,1.1c-2.2,0-4.1-0.8-5.4-2.4
				c-1.4-1.6-2.1-3.8-2.1-6.5v-2.9c0-1.7,0.3-3.2,0.9-4.6c0.6-1.3,1.5-2.4,2.6-3.1c1.1-0.7,2.5-1.1,3.9-1.1c1.5,0,2.8,0.4,3.9,1.1
				c1.1,0.7,2,1.8,2.6,3.1s0.9,2.9,0.9,4.6v3H177.5z M176.7,55.1c0-2.4-0.6-4.3-1.8-5.8s-2.9-2.2-5-2.2s-3.7,0.7-4.9,2.2
				c-1.2,1.4-1.8,3.4-1.8,5.9v2.9c0,1.6,0.3,3,0.8,4.2c0.6,1.2,1.3,2.2,2.4,2.8c1,0.7,2.2,1,3.6,1c2.1,0,3.7-0.7,4.9-2.2
				c1.2-1.5,1.8-3.4,1.8-5.9V55.1z"/>
			<path class="st1" d="M196.4,66.6h-0.7l-12.9-18.7v18.7H182V46.7h0.8l12.9,18.6V46.7h0.7V66.6z"/>
		</g>
		<g>
			<path class="st1" d="M106.6,39.5h-0.8v-5.2l-1.6,0.6v-0.7l2.2-0.8h0.1v6.1H106.6z"/>
			<path class="st1" d="M109.3,36.4l0.3-3h3.1v0.7h-2.5l-0.2,1.7c0.3-0.2,0.6-0.3,1-0.3c0.6,0,1,0.2,1.3,0.6
				c0.3,0.4,0.5,0.9,0.5,1.5s-0.2,1.1-0.5,1.5s-0.8,0.5-1.4,0.5c-0.5,0-1-0.1-1.3-0.4c-0.3-0.3-0.5-0.7-0.6-1.2h0.7
				c0,0.3,0.2,0.6,0.4,0.8c0.2,0.2,0.5,0.3,0.8,0.3c0.4,0,0.6-0.1,0.8-0.4c0.2-0.2,0.3-0.6,0.3-1s-0.1-0.7-0.3-1
				c-0.2-0.2-0.5-0.4-0.9-0.4c-0.3,0-0.6,0.1-0.8,0.2l-0.2,0.2L109.3,36.4z"/>
			<path class="st1" d="M114,40h-0.7l2.5-6.6h0.7L114,40z"/>
			<path class="st1" d="M119.8,39.5H119v-5.2l-1.6,0.6v-0.7l2.2-0.8h0.1v6.1H119.8z"/>
			<path class="st1" d="M125.9,36.9c0,0.9-0.2,1.6-0.5,2s-0.8,0.7-1.5,0.7s-1.1-0.2-1.4-0.6c-0.3-0.4-0.5-1.1-0.5-1.9v-1
				c0-0.9,0.2-1.6,0.5-2s0.8-0.7,1.5-0.7s1.1,0.2,1.5,0.6s0.5,1.1,0.5,1.9L125.9,36.9L125.9,36.9z M125.1,35.8
				c0-0.7-0.1-1.1-0.3-1.4c-0.2-0.3-0.5-0.5-0.9-0.5s-0.7,0.1-0.9,0.4c-0.2,0.3-0.3,0.8-0.3,1.4V37c0,0.7,0.1,1.1,0.3,1.5
				c0.2,0.3,0.5,0.5,0.9,0.5s0.7-0.1,0.9-0.4c0.2-0.3,0.3-0.8,0.3-1.4V35.8z"/>
			<path class="st1" d="M127.1,40h-0.7l2.5-6.6h0.7L127.1,40z"/>
			<path class="st1" d="M134.4,39.5h-4v-0.6l2.1-2.3c0.3-0.4,0.5-0.6,0.6-0.9c0.1-0.2,0.2-0.5,0.2-0.7c0-0.3-0.1-0.6-0.3-0.8
				s-0.4-0.3-0.8-0.3c-0.4,0-0.7,0.1-0.9,0.3s-0.3,0.5-0.3,0.9h-0.8c0-0.6,0.2-1,0.5-1.4c0.4-0.3,0.8-0.5,1.5-0.5
				c0.6,0,1,0.1,1.3,0.4c0.3,0.3,0.5,0.7,0.5,1.2c0,0.6-0.4,1.3-1.1,2.1l-1.6,1.8h3.1V39.5z"/>
			<path class="st1" d="M139.1,36.9c0,0.9-0.2,1.6-0.5,2s-0.8,0.7-1.5,0.7s-1.1-0.2-1.4-0.6c-0.3-0.4-0.5-1.1-0.5-1.9v-1
				c0-0.9,0.2-1.6,0.5-2s0.8-0.7,1.5-0.7s1.1,0.2,1.5,0.6s0.5,1.1,0.5,1.9v1H139.1z M138.3,35.8c0-0.7-0.1-1.1-0.3-1.4
				c-0.2-0.3-0.5-0.5-0.9-0.5s-0.7,0.1-0.9,0.4c-0.2,0.3-0.3,0.8-0.3,1.4V37c0,0.7,0.1,1.1,0.3,1.5c0.2,0.3,0.5,0.5,0.9,0.5
				s0.7-0.1,0.9-0.4c0.2-0.3,0.3-0.8,0.3-1.4V35.8z"/>
			<path class="st1" d="M142.6,39.5h-0.8v-5.2l-1.6,0.6v-0.7l2.2-0.8h0.1v6.1H142.6z"/>
			<path class="st1" d="M148.8,33.8l-2.5,5.7h-0.8L148,34h-3.3v-0.6h4.1V33.8z"/>
			<path class="st1" d="M151.4,37.2h-2v-0.6h2V37.2z"/>
			<path class="st1" d="M156.1,39.5h-4v-0.6l2.1-2.3c0.3-0.4,0.5-0.6,0.6-0.9c0.1-0.2,0.2-0.5,0.2-0.7c0-0.3-0.1-0.6-0.3-0.8
				s-0.4-0.3-0.8-0.3c-0.4,0-0.7,0.1-0.9,0.3s-0.3,0.5-0.3,0.9H152c0-0.6,0.2-1,0.5-1.4c0.4-0.3,0.8-0.5,1.5-0.5
				c0.6,0,1,0.1,1.3,0.4c0.3,0.3,0.5,0.7,0.5,1.2c0,0.6-0.4,1.3-1.1,2.1l-1.6,1.8h3.1L156.1,39.5L156.1,39.5z"/>
			<path class="st1" d="M158,36h0.6c0.4,0,0.7-0.1,0.9-0.3s0.3-0.4,0.3-0.8c0-0.7-0.4-1.1-1.1-1.1c-0.3,0-0.6,0.1-0.8,0.3
				s-0.3,0.4-0.3,0.8h-0.8c0-0.5,0.2-0.9,0.5-1.2c0.4-0.3,0.8-0.5,1.3-0.5c0.6,0,1,0.2,1.4,0.5c0.3,0.3,0.5,0.7,0.5,1.3
				c0,0.3-0.1,0.5-0.3,0.8c-0.2,0.2-0.4,0.4-0.7,0.6c0.3,0.1,0.6,0.3,0.8,0.5s0.3,0.5,0.3,0.9c0,0.5-0.2,1-0.5,1.3
				c-0.4,0.3-0.8,0.5-1.4,0.5c-0.6,0-1-0.2-1.4-0.5s-0.5-0.7-0.5-1.2h0.8c0,0.3,0.1,0.6,0.3,0.8s0.5,0.3,0.8,0.3
				c0.4,0,0.7-0.1,0.9-0.3s0.3-0.5,0.3-0.8c0-0.4-0.1-0.6-0.3-0.8s-0.5-0.3-0.9-0.3H158V36z"/>
			<path class="st1" d="M162,40h-0.7l2.5-6.6h0.7L162,40z"/>
			<path class="st1" d="M167.8,39.5H167v-5.2l-1.6,0.6v-0.7l2.2-0.8h0.1v6.1H167.8z"/>
			<path class="st1" d="M174.1,39.5h-4v-0.6l2.1-2.3c0.3-0.4,0.5-0.6,0.6-0.9c0.1-0.2,0.2-0.5,0.2-0.7c0-0.3-0.1-0.6-0.3-0.8
				s-0.4-0.3-0.8-0.3c-0.4,0-0.7,0.1-0.9,0.3s-0.3,0.5-0.3,0.9H170c0-0.6,0.2-1,0.5-1.4c0.4-0.3,0.8-0.5,1.5-0.5
				c0.6,0,1,0.1,1.3,0.4c0.3,0.3,0.5,0.7,0.5,1.2c0,0.6-0.4,1.3-1.1,2.1l-1.6,1.8h3.1L174.1,39.5L174.1,39.5z"/>
			<path class="st1" d="M175.1,40h-0.7l2.5-6.6h0.7L175.1,40z"/>
			<path class="st1" d="M182.4,39.5h-4v-0.6l2.1-2.3c0.3-0.4,0.5-0.6,0.6-0.9c0.1-0.2,0.2-0.5,0.2-0.7c0-0.3-0.1-0.6-0.3-0.8
				s-0.4-0.3-0.8-0.3c-0.4,0-0.7,0.1-0.9,0.3s-0.3,0.5-0.3,0.9h-0.8c0-0.6,0.2-1,0.5-1.4c0.4-0.3,0.8-0.5,1.5-0.5
				c0.6,0,1,0.1,1.3,0.4c0.3,0.3,0.5,0.7,0.5,1.2c0,0.6-0.4,1.3-1.1,2.1l-1.6,1.8h3.1V39.5z"/>
			<path class="st1" d="M187.1,36.9c0,0.9-0.2,1.6-0.5,2s-0.8,0.7-1.5,0.7s-1.1-0.2-1.4-0.6c-0.3-0.4-0.5-1.1-0.5-1.9v-1
				c0-0.9,0.2-1.6,0.5-2s0.8-0.7,1.5-0.7s1.1,0.2,1.5,0.6s0.5,1.1,0.5,1.9v1H187.1z M186.3,35.8c0-0.7-0.1-1.1-0.3-1.4
				c-0.2-0.3-0.5-0.5-0.9-0.5s-0.7,0.1-0.9,0.4c-0.2,0.3-0.3,0.8-0.3,1.4V37c0,0.7,0.1,1.1,0.3,1.5c0.2,0.3,0.5,0.5,0.9,0.5
				s0.7-0.1,0.9-0.4c0.2-0.3,0.3-0.8,0.3-1.4V35.8z"/>
			<path class="st1" d="M190.6,39.5h-0.8v-5.2l-1.6,0.6v-0.7l2.2-0.8h0.1v6.1H190.6z"/>
			<path class="st1" d="M196.8,33.8l-2.5,5.7h-0.8L196,34h-3.3v-0.6h4.1V33.8z"/>
		</g>
	</g>
</g>
</svg>
