<?xml version="1.0" encoding="utf-8"?>
<!-- Generator: Adobe Illustrator 21.1.0, SVG Export Plug-In . SVG Version: 6.00 Build 0)  -->
<svg version="1.1" id="Layer_1" xmlns="http://www.w3.org/2000/svg" xmlns:xlink="http://www.w3.org/1999/xlink" x="0px" y="0px"
	 viewBox="0 0 350 100" style="enable-background:new 0 0 350 100;" xml:space="preserve">
<style type="text/css">
	.st0{opacity:0.5;}
	.st1{fill:#FFFFFF;}
	.st2{fill:none;stroke:#780A23;stroke-width:3;stroke-miterlimit:10;}
</style>
<title>campaign</title>
<g>
	<g class="st0">
		<path d="M198.7,36.7c-0.5,0.1-0.8,0.7-1.4,1.3c0.5,0.2,1.2,0.8,1.6,0.7c0.6-0.1,1.2-0.7,1.6-1.2c0-0.1,0-0.3-0.1-0.5
			C200,36.9,199.2,36.6,198.7,36.7z"/>
		<path d="M205.5,38c-0.7,0.3-1.8,1.4-1.6,1.9c0.2,0.8,1.2,1.6,1.8,2.4c0.5-0.5,1.2-1.2,1.3-1.3C206.9,39,206.1,37.7,205.5,38z"/>
		<path d="M231.3,40.5c0,0.3,0.5,0.8,0.7,1.3c0.3-0.3,1.1-0.6,1.1-1.1c0-0.5-0.5-1.1-1.1-1.9C231.6,39.6,231.3,40,231.3,40.5z"/>
		<path d="M207.5,53.6c-0.7,0.3-1.9,1.4-1.8,2.1c0.1,0.8,1.2,1.6,1.8,2.4c0.6-0.7,1.3-1.6,2.1-2.6C208.8,54.6,207.9,53.4,207.5,53.6
			z"/>
		<path d="M188,34c0.5,0,1.2-0.6,1.3-1.2c0.1-0.2-0.6-0.8-1.2-1.6c-0.6,0.5-1.4,1.1-1.3,1.3C186.9,33.2,187.5,34,188,34z"/>
		<path d="M198.2,53.2c-1.1,0-2.3,0.3-2.1,1.6c0.1,0.7,1.1,1.6,1.6,2.3c1.6-0.3,2.3-1.1,2.3-2.1C200.2,53.7,199.2,53.2,198.2,53.2z"
			/>
		<path d="M193.7,29.2c-0.1,0-0.2,0-0.3,0c-2.1,6.6-4.1,13.3-6.2,19.9c4.4,0,8.6,0,12.7,0C197.8,42.4,195.7,35.9,193.7,29.2z"/>
		<path d="M188,40.1c0.7-0.3,1.2-1.2,2.1-2.1c-1.1-0.8-1.6-1.6-2.3-2.1c-0.6,0.7-1.4,1.4-1.8,2.1C185.8,38.7,187.5,40.5,188,40.1z"
			/>
		<path d="M303.6,20.5c-0.6,0-1.2,0.1-1.8,0.1c0,0.2,0,0.6,0,0.8c0.6,0.1,1.2,0.1,1.8,0.2C303.6,21.4,303.6,21,303.6,20.5z"/>
		<path d="M251.7,23.2c-3.2-0.2-6.5-0.2-9.6-0.2c-0.3,0-1.1,0.5-1.1,0.8c-0.1,5,0,10.1,0,15.2c0.3,0.1,0.5,0.1,0.7,0.1
			c2.9,0,5.7,0,8.6,0c5.2-0.1,7.7-2.6,8-7.8C258.3,26.9,255.7,23.5,251.7,23.2z"/>
		<path d="M303,36.1c-1.4,0-1.6,0.8-1.6,2.1c0,0.3-0.5,0.7-0.8,1.1c-0.6,0.3-1.4,0.5-2.1,0.8c-1.4,0.8-1.6,2.1-0.3,3.4
			c0.8,0.7,2.1,1.6,3.1,1.9c1.4,0.5,2.1-0.1,2.1-1.6c0-1.2,0.2-1.9,1.2-2.5c0.6-0.5,0.8-1.6,1.2-1.9c0-0.5,0-0.5,0-0.6
			C305.5,37.4,304.5,36.1,303,36.1z"/>
		<path d="M5,3.8v75.7h339.5V3.8H5z M206.6,71.1c-1.1-3.2-2.1-6.5-2.9-9.6c-0.2-1.2-0.8-1.4-1.9-1.4c-5.5,0-11.1,0-16.6,0
			c-1.2,0-1.6,0.3-1.9,1.4c-0.8,3.2-2.1,6.5-3,9.6c-5,0-10.1,0-15.1,0c3.1-8.4,6-16.8,9.1-25.2c0.1-0.5,0.7-0.8,1.3-1.2
			c1.6-0.7,1.8-1.3,0.8-2.9c-0.2-0.3-0.2-1.1-0.1-1.6c3.2-9.1,6.6-18,9.8-27c0.3-1.1,0.8-1.3,1.9-1.3c3.5,0,7,0.1,10.5,0
			c1.3,0,1.8,0.3,2.1,1.6c6.6,18,13.2,36,19.9,53.9c0.5,1.3,0.8,2.4,1.4,3.7C217,71.1,211.8,71.1,206.6,71.1z M272.6,67.9
			c-1.3,0.6-2.4,1.4-3.7,1.9c-0.6,0.2-1.4,0.1-2.1,0c-1.9-0.7-3.4-0.3-4.4,1.4c-1.2,0-2.3,0-3.5,0c-3.4-6.8-6.6-13.4-10-20.2
			c-0.1-0.2-0.5-0.6-0.8-0.6c-2.3,0-4.8,0-7.3,0c0,1.1,0,1.6,0,2.4c0,6.2,0,12.3-0.1,18.5c-0.5,0-0.8,0-1.4,0
			c-1.4-0.6-3-1.4-4.9-2.3c0.3,1.1,0.6,1.6,0.8,2.3c-2.4,0-4.8,0-7.3,0c-0.3-0.2-0.8-0.3-1.3-0.6c0-19.3,0-38.9,0-58.3
			c8.9,0,17.9,0,26.8,0c-0.1,1.1-0.3,1.9-0.2,3c0.1,1.4,1.2,1.8,2.1,0.7c0.6-0.5,1.2-1.2,1.4-1.8c0.5-1.3,1.3-1.4,2.4-0.8
			c1.6,0.6,3.5,0.6,4.4,2.5c0.1,0.1,0.3,0.3,0.5,0.3c3.9,0.2,5.2,3.4,6.5,6c4.2,8.9,0.7,19.2-7.8,24.1c-0.2,0.1-0.5,0.2-0.7,0.5
			c0.6,1.2,1.2,2.3,1.6,3.2c-0.6,1.3-1.2,2.3-1.6,3.4c-0.1,0.3,0.5,1.4,0.8,1.4c4,1.1,4.2,1.3,5.5,5.2c-4.2,0.5-4.7,1.8-3.4,5.9
			c0.7,2.5,0.8,2.4,3.4,1.6c1.1-0.3,2.1-0.3,3.4-0.5c0.5,0,1.1,0.3,1.6,0.5C273.1,67.6,272.9,67.7,272.6,67.9z M326.5,23.3
			c-2.1,0-4,0-6,0c-3.2,0-6.5,0.1-9.6,0c-1.6,0-2.1,0.3-2.1,2.1c0.1,14.6,0,29.3,0,43.8c0,0.6,0,1.3,0,2.1c-0.5,0-0.8,0.2-1.1,0
			c-2.5-2.1-5.5-1.4-8.4-1.3c-1.6,0-3.1,0.5-4-1.3c-0.3-0.6-0.6-1.4-0.6-2.1c0-13.8,0-27.4,0-41.2c0-0.6,0-1.3,0-2.1
			c-5.9,0-11.8,0-17.6,0c0-3.6,0-7.3,0-11c3.2,0,6.4,0,9.6,0c1.6,0,3.1,0.3,4.7,0.6c0.5-0.1,1.2-0.6,1.8-0.6c6.8,0,13.9,0,20.8,0
			c0.5,0,1.2,0.3,1.6,0.7c0.8,0.8,2.4,1.4,3.1,0.3c1.3-1.8,3-1.1,4.7-1.3c-1.3,3.7-0.1,5.5,3.5,5.3
			C326.5,19.4,326.5,21.2,326.5,23.3z"/>
		<path d="M301.3,31.5c-0.5-0.2-1.1-1.1-1.4-0.8c-1.1,0.2-1.6,1.1-1.1,2.6C299.7,32.6,300.6,32.1,301.3,31.5z"/>
		<path d="M256.6,48c0.8,0.7,1.9,1.4,3.1,0.6c0.1-0.1,0.1-1.1,0-1.2C258.6,47,257.6,47,256.6,48z"/>
	</g>
	<g>
		<g>
			<path class="st1" d="M30.1,52.3v10.8h-0.8V37.4h8c2.5,0,4.7,0.6,6,1.9c1.4,1.3,2.1,3.2,2.1,5.5s-0.6,4.1-2.1,5.4
				c-1.4,1.3-3.5,1.9-6,1.9L30.1,52.3L30.1,52.3z M30.1,51.3h7.1c2.3,0,4.1-0.5,5.4-1.6c1.3-1.2,1.9-2.6,1.9-4.7
				c0-2.1-0.6-3.7-1.9-4.9s-3.1-1.6-5.4-1.6h-7.1V51.3z"/>
			<path class="st1" d="M60.8,52.2h-9v10.9h-1.1V37.4H59c2.5,0,4.7,0.6,6.2,1.9c1.6,1.3,2.3,3.1,2.3,5.4c0,1.8-0.5,3.2-1.6,4.7
				c-1.1,1.3-2.4,2.1-4.1,2.4l6.8,11v0.3h-1.1L60.8,52.2z M51.9,51.1h8.2c1.9,0,3.6-0.6,4.8-1.8c1.2-1.2,1.8-2.6,1.8-4.4
				c0-2.1-0.6-3.6-2.1-4.8c-1.3-1.2-3.2-1.6-5.5-1.6h-7.3v12.8C51.8,51.1,51.9,51.1,51.9,51.1z"/>
			<path class="st1" d="M76.4,63.1h-0.8V37.4h0.8V63.1z"/>
			<path class="st1" d="M99.7,56.9c0-1.1-0.2-2.1-0.7-2.9c-0.5-0.7-1.3-1.4-2.4-2.1c-1.2-0.6-2.6-1.2-5-1.8c-2.1-0.6-3.9-1.3-5-1.8
				c-1.2-0.6-1.9-1.3-2.4-2.1c-0.5-0.7-0.7-1.8-0.7-3c0-1.9,0.7-3.4,2.3-4.4c1.6-1.2,3.6-1.6,6.2-1.6c1.6,0,3.1,0.2,4.4,0.8
				c1.4,0.6,2.3,1.6,3.1,2.6s1.1,2.4,1.1,3.9h-0.8c0-1.9-0.6-3.5-2.1-4.8S94.4,38,92,38c-2.3,0-4.1,0.5-5.5,1.6s-2.1,2.3-2.1,3.7
				c0,1.6,0.6,2.9,1.8,3.7c1.2,0.8,3.2,1.8,6,2.4c2.9,0.7,4.8,1.6,6.2,2.5c1.6,1.2,2.4,2.9,2.4,4.9c0,1.3-0.3,2.4-1.1,3.5
				s-1.8,1.8-3.1,2.3c-1.3,0.5-2.9,0.7-4.4,0.7c-1.8,0-3.5-0.2-5-0.8C85.8,61.9,84.8,61,84,60c-0.7-1.2-1.2-2.4-1.2-4h0.8
				c0,2.1,0.7,3.7,2.3,4.9c1.6,1.2,3.6,1.8,6.2,1.8c2.1,0,4.1-0.5,5.5-1.6C98.9,60,99.7,58.6,99.7,56.9z"/>
			<path class="st1" d="M124,52.2c0,2.1-0.3,4.2-1.2,5.9c-0.7,1.6-1.9,3.1-3.4,4c-1.4,0.8-3.2,1.4-5,1.4c-2.9,0-5.3-1.1-7-3.1
				c-1.8-2.1-2.6-4.9-2.6-8.4v-3.8c0-2.1,0.3-4.1,1.2-5.9c0.7-1.6,1.9-3.1,3.4-4c1.4-0.8,3.2-1.4,5-1.4c1.9,0,3.6,0.5,5,1.4
				s2.5,2.3,3.4,4c0.7,1.6,1.2,3.7,1.2,5.9v3.9H124z M123,48.3c0-3.1-0.7-5.5-2.3-7.5c-1.6-1.9-3.7-2.9-6.5-2.9
				c-2.6,0-4.8,0.8-6.4,2.9c-1.6,1.8-2.3,4.4-2.3,7.6v3.8c0,2.1,0.3,3.9,1.1,5.4c0.7,1.6,1.6,2.9,3.1,3.6c1.3,0.8,2.9,1.3,4.7,1.3
				c2.6,0,4.8-0.8,6.4-2.9c1.6-1.9,2.3-4.4,2.3-7.6V48.3z"/>
			<path class="st1" d="M148.5,63.1h-0.8L131,38.9v24.1H130V37.4h1.1l16.6,24.1V37.4h0.8V63.1z"/>
		</g>
		<g>
			<path class="st1" d="M32.2,28h-1.1v-6.8L29,22v-0.8l2.9-1.1H32v7.8C32.1,28,32.2,28,32.2,28z"/>
			<path class="st1" d="M35.7,24l0.3-3.9h4v0.8h-3.2l-0.2,2.1c0.3-0.2,0.7-0.3,1.3-0.3c0.7,0,1.3,0.2,1.6,0.7s0.6,1.2,0.6,1.9
				c0,0.7-0.2,1.4-0.6,1.9c-0.3,0.5-1.1,0.6-1.8,0.6c-0.6,0-1.3-0.1-1.6-0.5c-0.3-0.3-0.6-0.8-0.7-1.6h0.8c0,0.3,0.2,0.7,0.5,1.1
				c0.2,0.2,0.6,0.3,1.1,0.3c0.5,0,0.7-0.1,1.1-0.5c0.2-0.2,0.3-0.7,0.3-1.3s-0.1-0.8-0.3-1.3c-0.2-0.2-0.6-0.5-1.2-0.5
				c-0.3,0-0.7,0.1-1.1,0.2l-0.3,0.3L35.7,24z"/>
			<path class="st1" d="M41.7,28.7h-0.8l3.2-8.6h0.8L41.7,28.7z"/>
			<path class="st1" d="M49.3,28h-1.1v-6.8L46.1,22v-0.8l2.9-1.1h0.1v7.8C49.2,28,49.3,28,49.3,28z"/>
			<path class="st1" d="M57.2,24.6c0,1.2-0.2,2.1-0.6,2.5c-0.3,0.5-1.1,0.8-1.9,0.8c-0.8,0-1.4-0.2-1.8-0.7
				c-0.3-0.5-0.6-1.4-0.6-2.4v-1.3c0-1.2,0.2-2.1,0.6-2.5c0.3-0.5,1.1-0.8,1.9-0.8s1.4,0.2,1.9,0.7s0.6,1.4,0.6,2.4L57.2,24.6
				L57.2,24.6z M56.1,23.3c0-0.8-0.1-1.4-0.3-1.8c-0.2-0.3-0.6-0.6-1.2-0.6c-0.5,0-0.8,0.1-1.2,0.5c-0.2,0.3-0.3,1.1-0.3,1.8v1.6
				c0,0.8,0.1,1.4,0.3,1.9c0.2,0.3,0.6,0.6,1.2,0.6c0.5,0,0.8-0.1,1.2-0.5c0.2-0.3,0.3-1.1,0.3-1.8V23.3z"/>
			<path class="st1" d="M58.8,28.7h-0.8l3.2-8.6H62L58.8,28.7z"/>
			<path class="st1" d="M68.2,28H63v-0.7l2.6-3c0.3-0.5,0.6-0.7,0.7-1.2c0.1-0.2,0.2-0.6,0.2-0.8c0-0.3-0.1-0.7-0.3-1.1
				c-0.2-0.2-0.5-0.3-1.1-0.3c-0.5,0-0.8,0.1-1.2,0.3c-0.2,0.2-0.3,0.6-0.3,1.2h-1.2c0-0.7,0.2-1.3,0.6-1.8c0.5-0.3,1.1-0.6,1.9-0.6
				c0.7,0,1.3,0.1,1.6,0.5c0.3,0.3,0.6,0.8,0.6,1.6c0,0.7-0.5,1.6-1.4,2.6l-2.1,2.3h4v1C67.9,28,68.2,28,68.2,28z"/>
			<path class="st1" d="M74.4,24.6c0,1.2-0.2,2.1-0.6,2.5c-0.3,0.5-1.1,0.8-1.9,0.8c-0.8,0-1.4-0.2-1.8-0.7
				c-0.3-0.5-0.6-1.4-0.6-2.4v-1.3c0-1.2,0.2-2.1,0.6-2.5s1.1-0.8,1.9-0.8c0.8,0,1.4,0.2,1.9,0.7c0.5,0.5,0.6,1.4,0.6,2.4L74.4,24.6
				L74.4,24.6z M73.3,23.3c0-0.8-0.1-1.4-0.3-1.8c-0.2-0.3-0.6-0.6-1.2-0.6c-0.5,0-0.8,0.1-1.2,0.5c-0.2,0.3-0.3,1.1-0.3,1.8v1.6
				c0,0.8,0.1,1.4,0.3,1.9c0.2,0.3,0.6,0.6,1.2,0.6c0.5,0,0.8-0.1,1.2-0.5c0.2-0.3,0.3-1.1,0.3-1.8V23.3z"/>
			<path class="st1" d="M78.8,28h-1.1v-6.8L75.6,22v-0.8l2.9-1.1h0.1v7.8C78.7,28,78.8,28,78.8,28z"/>
			<path class="st1" d="M86.9,20.6l-3.2,7.3h-1.1l3.2-7.1h-4.2v-0.7h5.3V20.6z"/>
			<path class="st1" d="M90.2,25.1h-2.5v-0.7h2.5V25.1z"/>
			<path class="st1" d="M96.4,28h-5.2v-0.7l2.6-3c0.3-0.5,0.6-0.7,0.7-1.2c0.1-0.2,0.2-0.6,0.2-0.8c0-0.3-0.1-0.7-0.3-1.1
				c-0.2-0.2-0.5-0.3-1.1-0.3c-0.5,0-0.8,0.1-1.2,0.3c-0.2,0.2-0.3,0.6-0.3,1.2h-0.8c0-0.7,0.2-1.3,0.6-1.8c0.5-0.3,1.1-0.6,1.9-0.6
				c0.7,0,1.3,0.1,1.6,0.5c0.3,0.3,0.6,0.8,0.6,1.6c0,0.7-0.5,1.6-1.4,2.6l-2.1,2.3h4L96.4,28L96.4,28z"/>
			<path class="st1" d="M98.7,23.5h0.7c0.5,0,0.8-0.1,1.2-0.3c0.2-0.2,0.3-0.5,0.3-1.1c0-0.8-0.5-1.4-1.4-1.4
				c-0.3,0-0.7,0.1-1.1,0.3c-0.2,0.2-0.3,0.5-0.3,1.1h-1.1c0-0.6,0.2-1.2,0.6-1.6c0.5-0.3,1.1-0.6,1.6-0.6c0.7,0,1.3,0.2,1.8,0.6
				c0.3,0.3,0.6,0.8,0.6,1.6c0,0.3-0.1,0.6-0.3,1.1c-0.2,0.2-0.5,0.5-0.8,0.7c0.3,0.1,0.7,0.3,1.1,0.6c0.2,0.2,0.3,0.6,0.3,1.2
				c0,0.6-0.2,1.3-0.6,1.6c-0.5,0.3-1.1,0.6-1.8,0.6s-1.3-0.2-1.8-0.6c-0.5-0.3-0.6-0.8-0.6-1.6h1.1c0,0.3,0.1,0.7,0.3,1.1
				c0.2,0.2,0.6,0.3,1.1,0.3c0.5,0,0.8-0.1,1.2-0.3c0.2-0.2,0.3-0.6,0.3-1.1c0-0.5-0.1-0.7-0.3-1.1c-0.2-0.2-0.6-0.3-1.2-0.3h-0.8
				C98.7,24.4,98.7,23.5,98.7,23.5z"/>
			<path class="st1" d="M103.9,28.7h-0.8l3.2-8.6h0.8L103.9,28.7z"/>
			<path class="st1" d="M111.4,28h-1.1v-6.8l-2.1,0.7v-0.8l2.9-1.1h0.1v7.8C111.3,28,111.4,28,111.4,28z"/>
			<path class="st1" d="M119.6,28h-5.2v-0.7l2.6-3c0.3-0.5,0.6-0.7,0.7-1.2c0.1-0.2,0.2-0.6,0.2-0.8c0-0.3-0.1-0.7-0.3-1.1
				c-0.2-0.2-0.5-0.3-1.1-0.3s-0.8,0.1-1.2,0.3c-0.2,0.2-0.3,0.6-0.3,1.2h-0.8c0-0.7,0.2-1.3,0.6-1.8c0.5-0.3,1.1-0.6,1.9-0.6
				c0.7,0,1.3,0.1,1.6,0.5c0.3,0.3,0.6,0.8,0.6,1.6c0,0.7-0.5,1.6-1.4,2.6l-2.1,2.3h4V28L119.6,28z"/>
			<path class="st1" d="M120.8,28.7H120l3.2-8.6h0.8L120.8,28.7z"/>
			<path class="st1" d="M130.4,28h-5.2v-0.7l2.6-3c0.3-0.5,0.6-0.7,0.7-1.2c0.1-0.2,0.2-0.6,0.2-0.8c0-0.3-0.1-0.7-0.3-1.1
				c-0.2-0.2-0.5-0.3-1.1-0.3c-0.5,0-0.8,0.1-1.2,0.3c-0.2,0.2-0.3,0.6-0.3,1.2h-1.2c0-0.7,0.2-1.3,0.6-1.8c0.5-0.3,1.1-0.6,1.9-0.6
				c0.7,0,1.3,0.1,1.6,0.5c0.3,0.3,0.6,0.8,0.6,1.6c0,0.7-0.5,1.6-1.4,2.6l-2.1,2.3h4v1C130.2,28,130.4,28,130.4,28z"/>
			<path class="st1" d="M136.4,24.6c0,1.2-0.2,2.1-0.6,2.5c-0.3,0.5-1.1,0.8-1.9,0.8c-0.8,0-1.4-0.2-1.8-0.7
				c-0.3-0.5-0.6-1.4-0.6-2.4v-1.3c0-1.2,0.2-2.1,0.6-2.5c0.4-0.4,1.1-0.8,1.9-0.8s1.4,0.2,1.9,0.7c0.5,0.5,0.6,1.4,0.6,2.4
				L136.4,24.6C136.5,24.6,136.4,24.6,136.4,24.6z M135.4,23.3c0-0.8-0.1-1.4-0.3-1.8c-0.2-0.3-0.6-0.6-1.2-0.6
				c-0.5,0-0.8,0.1-1.2,0.5c-0.2,0.3-0.3,1.1-0.3,1.8v1.6c0,0.8,0.1,1.4,0.3,1.9c0.2,0.3,0.6,0.6,1.2,0.6c0.5,0,0.8-0.1,1.2-0.5
				c0.2-0.3,0.3-1.1,0.3-1.8V23.3z"/>
			<path class="st1" d="M141,28h-1.1v-6.8l-2.1,0.7v-0.8l2.9-1.1h0.1v7.8C140.9,28,141,28,141,28z"/>
			<path class="st1" d="M149,20.6l-3.2,7.3h-1.1l3.2-7.1h-4.2v-0.7h5.3V20.6L149,20.6z"/>
		</g>
	</g>
</g>
<rect x="5" y="3.8" class="st2" width="339.5" height="75.7"/>
</svg>
