<?xml version="1.0" encoding="utf-8"?>
<!-- Generator: Adobe Illustrator 21.1.0, SVG Export Plug-In . SVG Version: 6.00 Build 0)  -->
<svg version="1.1" id="Layer_1" xmlns="http://www.w3.org/2000/svg" xmlns:xlink="http://www.w3.org/1999/xlink" x="0px" y="0px"
	 viewBox="0 0 100 100" style="enable-background:new 0 0 100 100;" xml:space="preserve">
<style type="text/css">
	.st0{fill:#FFFFFF;}
	.st1{fill:#404040;}
	.st2{fill:#5C5C5C;}
	.st3{fill:#6E6E6E;}
	.st4{fill:#9E9E9E;}
	.st5{fill:#DCDCDC;}
	.st6{fill:#EEF8F3;}
	.st7{fill:#FEFEFE;}
	.st8{fill:#282828;}
</style>
<title>Google_Map-BW</title>
<rect x="79.4" y="87.7" class="st0" width="8.8" height="8.8"/>
<path class="st1" d="M55.3,12.2H3.9v76.6c0.5,0,0.7-0.3,1-0.6c16.3-16.4,32.7-32.7,49-49.3c0.3-0.2,0.6-0.4,0.6-0.8
	c0-0.3-0.2-0.6-0.4-0.9c-1.7-2.8-2.8-6-3.1-9.3c-0.4-5.2,1-10.5,4-14.8C55.2,12.9,55.5,12.6,55.3,12.2z"/>
<path class="st0" d="M46.2,46v50.5h34.6c4,0,7.3-3.3,7.3-7.3V46H46.2z"/>
<path class="st2" d="M54.4,38.4c-0.6-1.2-1.2-2.3-1.8-3.5c-2.9-6.5-2.4-12.8,0.6-19.1c0.6-1.2,1.4-2.3,2.1-3.5
	c1.8-2.3,3.9-4.3,6.4-5.8c4.9-3.1,10.7-4.2,16.4-3.1c6.2,0.9,11.7,4.4,15.1,9.7c5.5,8.3,5.7,16.9,0.3,25.5c-1.7,2.7-3.7,5.1-5.5,7.7
	c-0.3,0.6-0.7,1.3-1.1,1.8c-2.8,3.6-5.2,7.5-7.2,11.6c-2,4.3-3.3,8.9-4,13.6c0,0.3-0.1,0.5-0.1,0.8c-0.3,1.4-0.7,1.6-2.2,1.4
	c-0.7-0.5-0.7-1.2-0.9-2c-0.4-1.1-0.7-2.3-0.8-3.5c-1.4-6.3-3.9-12.2-7.5-17.5c-1.1-1.7-2.3-3.3-3.5-5c-1.6-2.2-3.4-4.4-5-6.7
	C55.1,40.1,54.7,39.3,54.4,38.4z"/>
<path class="st3" d="M46,62l34.3,34.3c-0.1,0.3-0.4,0.2-0.5,0.2H11.6c-0.1-0.4,0.3-0.6,0.5-0.9l33.1-33.1C45.4,62.3,45.6,62,46,62z"
	/>
<path class="st4" d="M46,62c-2.9,2.8-5.8,5.7-8.6,8.5C29,79,20.6,87.4,12.1,95.8c-0.2,0.2-0.4,0.4-0.5,0.6c-3.8,0.4-7.3-2.4-7.7-6.2
	c0,0,0,0,0-0.1v-1.4c2.5-2.5,5.1-5,7.6-7.5l42.6-42.6l0.3-0.3c1.5,2.2,3.1,4.4,4.7,6.5c0.6,0.8,1.1,1.5,1.7,2.3
	c0,0.4-0.3,0.6-0.5,0.8l-6,6c-0.2,0.2-0.5,0.4-0.8,0.5C51,57,48.5,59.5,46,62z"/>
<path class="st5" d="M73.5,75.4c1.5,0.1,1.8-0.2,2-1.7c1-7.4,3.7-14.6,7.9-20.8c1.5-2.3,3.1-4.5,4.8-6.6V88c0,0.2,0.1,0.6-0.2,0.7
	s-0.4-0.2-0.6-0.4L77,77.9C75.9,76.8,75.1,75.4,73.5,75.4z"/>
<path class="st5" d="M53.5,54.5l7.3-7.3c6.1,7.7,10.3,16.2,11.8,25.9v0.3c-1.3-1.3-2.6-2.7-3.9-4L54.4,55.1
	C54.1,54.9,53.9,54.6,53.5,54.5z"/>
<path class="st6" d="M88.1,89.9v0.7H88L88.1,89.9z"/>
<path class="st7" d="M29.8,27.6h5.4c0.5,0,0.7,0.1,0.8,0.6c0.7,4.2-0.7,10.1-5.4,12.8c-7.4,4.2-17.5,0.7-19.4-8.6
	c-1.1-5.3,1.3-10.8,6-13.6c4.6-2.7,10.4-2.3,14.6,1c0.6,0.5,0.6,0.7,0.1,1.2c-0.9,0.8-1.7,1.6-2.5,2.5c-0.4,0.4-0.6,0.4-1.1,0.1
	c-3.5-2.5-8.3-1.7-10.8,1.7c-0.9,1.2-1.4,2.7-1.5,4.2c-0.2,3.7,2.3,7.1,5.9,8c3.4,0.9,7-0.7,8.5-3.9c0.4-0.9,0.4-1-0.7-1h-5.2
	c-0.5,0-0.8-0.1-0.8-0.7v-3.6c0-0.5,0.2-0.7,0.7-0.7L29.8,27.6z"/>
<path class="st8" d="M82.2,26.4c0,4.5-3.7,8.1-8.2,8.1c-4.5,0-8.1-3.7-8.1-8.2c0-4.5,3.7-8.1,8.2-8.1C78.6,18.2,82.2,21.9,82.2,26.4
	C82.2,26.4,82.2,26.4,82.2,26.4z"/>
<rect x="3.9" y="89" class="st4" width="7.5" height="7.5"/>
</svg>
