<?xml version="1.0" encoding="utf-8"?>
<!-- Generator: Adobe Illustrator 21.1.0, SVG Export Plug-In . SVG Version: 6.00 Build 0)  -->
<svg version="1.1" id="Layer_1" xmlns="http://www.w3.org/2000/svg" xmlns:xlink="http://www.w3.org/1999/xlink" x="0px" y="0px"
	 viewBox="0 0 100 100" style="enable-background:new 0 0 100 100;" xml:space="preserve">
<style type="text/css">
	.st0{fill:#FFFFFF;}
	.st1{fill:#018736;}
	.st2{fill:#DC1E14;}
	.st3{fill:#1C61FE;}
	.st4{fill:#FEDC1C;}
	.st5{fill:#DCDCDC;}
	.st6{fill:#EEF8F3;}
	.st7{fill:#FEFEFE;}
	.st8{fill:#590705;}
</style>
<title>Google_Map</title>
<g>
	<path class="st0" d="M46.2,46v50.5h34.6c4,0,7.3-3.3,7.3-7.3V46L46.2,46z"/>
	<path class="st1" d="M3.9,88.8c0-4.6,0-9.3,0-13.9c0-18.3,0-36.6,0-55c0-4.7,2.9-7.7,7.7-7.7h42.7c0.3,0,0.7,0,1,0
		c0.2,0.4-0.1,0.7-0.3,0.9c-3,4.3-4.4,9.6-4,14.8c0.3,3.3,1.4,6.5,3.1,9.3c0.2,0.3,0.4,0.6,0.4,0.9c0,0.4-0.3,0.6-0.6,0.8
		C37.6,55.5,21.2,71.8,4.9,88.2C4.6,88.5,4.4,88.8,3.9,88.8z"/>
	<path class="st2" d="M54.4,38.4c-0.6-1.2-1.2-2.3-1.8-3.5c-2.9-6.5-2.4-12.8,0.6-19.1c0.6-1.2,1.4-2.3,2.1-3.5
		c1.8-2.3,4-4.3,6.4-5.8c4.9-3.1,10.7-4.2,16.4-3.1c6.4,1.1,11.6,4.3,15.1,9.7c5.5,8.3,5.7,16.9,0.3,25.5c-1.7,2.7-3.7,5.1-5.5,7.7
		c-0.3,0.7-0.7,1.3-1.1,1.8c-2.8,3.6-5.2,7.5-7.2,11.6c-2,4.3-3.3,8.9-4,13.6c0,0.3-0.1,0.5-0.1,0.8c-0.3,1.4-0.7,1.6-2.2,1.4
		c-0.7-0.5-0.7-1.2-0.9-2c-0.4-1.1-0.7-2.3-0.8-3.5c-1.4-6.3-3.9-12.2-7.5-17.5c-1.1-1.7-2.3-3.3-3.5-5c-1.6-2.2-3.4-4.4-5-6.7
		C55.2,40,54.6,39.3,54.4,38.4z"/>
	<path class="st3" d="M46,62l34.3,34.3c-0.1,0.3-0.4,0.2-0.5,0.2H12.3c-0.2,0-0.5,0-0.7,0c-0.1-0.4,0.3-0.6,0.5-0.9
		c11-11,22-22,33.1-33.1C45.4,62.3,45.6,62,46,62z"/>
	<path class="st4" d="M46,62c-2.9,2.8-5.8,5.7-8.6,8.5C29,79,20.6,87.4,12.1,95.8c-0.2,0.2-0.4,0.4-0.5,0.6
		c-3.8,0.4-7.3-2.4-7.7-6.3c0-0.5,0-0.9,0-1.4c2.5-2.5,5.1-5,7.6-7.5l42.6-42.6c0.1-0.1,0.2-0.2,0.3-0.3c1.5,2.2,3.1,4.4,4.7,6.5
		c0.6,0.8,1.1,1.5,1.7,2.3c0,0.4-0.3,0.6-0.5,0.8l-6,6c-0.2,0.2-0.5,0.4-0.8,0.5C51,57,48.5,59.5,46,62z"/>
	<path class="st5" d="M73.5,75.4c1.5,0.1,1.8-0.2,2-1.7c1-7.4,3.7-14.6,7.9-20.8c1.5-2.3,3.1-4.5,4.8-6.6c0,13.9,0,27.8,0,41.7
		c0,0.2,0.1,0.6-0.2,0.7c-0.3,0.1-0.4-0.2-0.6-0.4c-3.5-3.5-6.9-6.9-10.4-10.4C75.9,76.8,75.1,75.4,73.5,75.4z"/>
	<path class="st5" d="M53.5,54.5l7.3-7.3c6.1,7.7,10.3,16.2,11.8,25.9c0,0.1,0,0.2,0,0.3c-1.3-1.3-2.6-2.7-3.9-4
		c-4.8-4.8-9.5-9.5-14.3-14.3C54.1,54.9,53.9,54.6,53.5,54.5z"/>
	<path class="st6" d="M88.1,89.9v0.7H88L88.1,89.9L88.1,89.9z"/>
	<path class="st7" d="M29.8,27.6c1.8,0,3.6,0,5.4,0c0.5,0,0.7,0.1,0.8,0.6c0.7,4.2-0.7,10.1-5.4,12.8c-7.4,4.2-17.5,0.7-19.4-8.6
		c-1.1-5.4,1.3-10.8,6-13.6c4.6-2.7,10.4-2.3,14.6,1c0.6,0.5,0.6,0.7,0.1,1.2c-0.9,0.8-1.7,1.6-2.5,2.5c-0.4,0.4-0.6,0.4-1.1,0.1
		c-3.5-2.5-8.3-1.7-10.8,1.7c-0.9,1.2-1.4,2.7-1.5,4.2c-0.3,3.6,2.2,7,5.9,8c3.4,0.9,7-0.7,8.5-3.9c0.4-0.9,0.4-1-0.7-1
		c-1.7,0-3.5,0-5.2,0c-0.5,0-0.8-0.1-0.8-0.7c0-1.2,0-2.4,0-3.6c0-0.5,0.2-0.7,0.7-0.7C26.2,27.6,28,27.6,29.8,27.6L29.8,27.6z"/>
	<path class="st8" d="M82.2,26.4c0,4.5-3.7,8.1-8.2,8.1c-4.5,0-8.1-3.7-8.1-8.2s3.7-8.1,8.2-8.1C78.6,18.2,82.2,21.9,82.2,26.4z"/>
</g>
</svg>
