<?xml version="1.0" encoding="utf-8"?>
<!-- Generator: Adobe Illustrator 22.0.1, SVG Export Plug-In . SVG Version: 6.00 Build 0)  -->
<svg version="1.1" id="Layer_1" xmlns="http://www.w3.org/2000/svg" xmlns:xlink="http://www.w3.org/1999/xlink" x="0px" y="0px"
	 viewBox="0 0 25 22.1" style="enable-background:new 0 0 25 22.1;" xml:space="preserve">
<style type="text/css">
	.st0{fill:none;}
	.st1{fill:#FFFFFF;}
</style>
<title>icon_Pinterest-white</title>
<path class="st0" d="M17.8,0H0v22h6.6c-0.1-0.4-0.1-0.7-0.2-1.1c0.1-1.8,0.4-3.6,0.9-5.3c0.3-0.9,0.5-2,0.7-2.9c0-0.1,0-0.2-0.1-0.3
	C7.4,11,7.6,9.5,8.5,8.3c0.4-0.6,1.3-0.9,2-0.6c0.8,0.2,1.2,1,1,1.8c-0.1,0.8-0.4,1.6-0.7,2.5l-0.4,1.8c0,0.3,0,0.5,0,0.8
	c0.1,0.5,0.4,0.8,0.9,0.9c1,0.4,2.2,0.1,2.9-0.8c0.7-0.8,1.2-1.9,1.4-3c0.3-1.2,0.2-2.5-0.2-3.7c-0.4-1.3-1.3-2.4-2.6-2.8
	c-1.6-0.6-3.3-0.4-4.7,0.5C6.9,6.4,6,7.4,5.6,8.6c-0.4,0.9-0.5,2-0.2,3c0.1,0.4,0.3,0.7,0.5,1c0.4,0.6,0.4,1.3-0.1,1.9
	C6.1,14.6,6,14.6,6,14.6c-1.2-0.3-2.1-1.2-2.4-2.4c-0.8-2.5,0.1-5.1,2-6.9c1.1-1,2.5-1.7,4-1.9c2.3-0.4,4.6,0.1,6.5,1.4
	c1.2,0.8,2.1,2.1,2.3,3.6c0.6,2.5,0,5-1.5,7.1c-1.1,1.6-3.1,2.4-5,2.1c-0.6-0.1-1.1-0.3-1.5-0.7l-0.8-0.6c-0.1,0.7-0.3,1.5-0.5,2.2
	C8.9,19.8,8.4,21,7.7,22H22v-6l0,0V0H17.8z"/>
<g>
	<path class="st1" d="M9.3,14.8c0.1,0.1,0.1,0.1,0.1,0.2c0.2,0.3,0.6,0.6,0.9,0.8c0.8,0.4,1.7,0.5,2.6,0.4c1-0.2,2-0.6,2.7-1.3
		c0.7-0.6,1.3-1.4,1.7-2.2c0.4-0.8,0.6-1.7,0.8-2.6c0.2-1.2,0.2-2.3-0.2-3.5c-0.3-1-0.9-1.8-1.6-2.6c-0.7-0.7-1.4-1.2-2.3-1.5
		c-1-0.4-2-0.6-3-0.6c-0.9,0-1.8,0.1-2.7,0.4C7.5,2.4,6.7,2.8,5.9,3.3c-0.6,0.4-1.2,1-1.6,1.6C3.5,5.9,3,6.9,2.9,8.2
		c-0.2,1.3,0,2.6,0.7,3.7C4,12.5,4.5,13,5.2,13.3c0.3,0.1,0.5,0,0.6-0.3c0.1-0.2,0.1-0.5,0.2-0.7c0.1-0.4,0.1-0.7-0.2-1
		c-0.4-0.5-0.6-1.1-0.6-1.7C5,8.3,5.3,7.2,6.1,6.1c0.6-0.8,1.3-1.4,2.2-1.8c1.2-0.5,2.4-0.6,3.7-0.4c0.8,0.1,1.6,0.5,2.2,1.1
		c0.7,0.7,1.1,1.5,1.2,2.5c0.1,1.2,0,2.4-0.4,3.5c-0.3,1-0.8,1.9-1.6,2.6c-0.7,0.6-1.8,0.9-2.7,0.3c-0.5-0.3-0.9-1.1-0.7-1.7
		c0.3-0.9,0.5-1.9,0.8-2.8c0.1-0.5,0.3-1,0.2-1.6c-0.1-1-0.8-1.7-1.8-1.5C8.5,6.4,8,6.9,7.7,7.5c-0.6,1.1-0.5,2.2-0.2,3.3
		c0.1,0.2,0.1,0.4,0,0.5C7.4,12.1,7.2,13,7,13.8c-0.2,0.7-0.3,1.4-0.5,2c-0.2,0.7-0.3,1.3-0.4,2c-0.2,1.2-0.1,2.4,0.1,3.6
		c0,0.1,0.1,0.2,0.1,0.2c0.1,0,0.2,0,0.2-0.1C6.6,21.3,6.8,21,7,20.7c0.5-0.7,1-1.4,1.2-2.3c0.3-1,0.6-2.1,0.9-3.1
		C9.2,15.2,9.2,15,9.3,14.8z"/>
	<path class="st1" d="M9.3,14.8c-0.1,0.2-0.1,0.4-0.2,0.6c-0.3,1-0.5,2.1-0.9,3.1C8,19.3,7.5,20,7,20.7c-0.2,0.3-0.4,0.6-0.6,0.8
		c0,0.1-0.1,0.1-0.2,0.1c-0.1,0-0.1-0.1-0.1-0.2C5.9,20.3,5.8,19,6,17.8c0.1-0.7,0.3-1.3,0.4-2c0.2-0.7,0.3-1.4,0.5-2
		c0.2-0.8,0.4-1.7,0.6-2.5c0-0.2,0.1-0.4,0-0.5C7.2,9.6,7.2,8.5,7.7,7.5c0.3-0.6,0.8-1,1.5-1.2c1.1-0.2,1.8,0.4,1.8,1.5
		c0,0.5-0.1,1.1-0.2,1.6c-0.3,0.9-0.6,1.9-0.8,2.8c-0.2,0.6,0.2,1.4,0.7,1.7c0.9,0.6,2,0.3,2.7-0.3c0.8-0.7,1.3-1.6,1.6-2.6
		c0.4-1.1,0.5-2.3,0.4-3.5c-0.1-1-0.5-1.8-1.2-2.5c-0.6-0.6-1.4-0.9-2.2-1.1c-1.3-0.2-2.5-0.2-3.7,0.4c-0.9,0.4-1.6,1-2.2,1.8
		C5.3,7.2,5,8.3,5.1,9.6c0,0.6,0.2,1.2,0.6,1.7c0.3,0.3,0.3,0.6,0.2,1c-0.1,0.2-0.1,0.5-0.2,0.7c-0.1,0.3-0.3,0.4-0.6,0.3
		C4.5,13,4,12.5,3.6,11.9c-0.7-1.2-0.8-2.4-0.7-3.7C3,6.9,3.5,5.9,4.3,4.9c0.5-0.6,1-1.1,1.6-1.6c0.8-0.5,1.6-0.9,2.5-1.1
		c0.9-0.2,1.8-0.4,2.7-0.4c1,0,2.1,0.2,3,0.6c0.9,0.4,1.6,0.9,2.3,1.5c0.7,0.7,1.3,1.6,1.6,2.6c0.4,1.2,0.4,2.3,0.2,3.5
		c-0.1,0.9-0.4,1.8-0.8,2.6c-0.4,0.8-0.9,1.6-1.7,2.2c-0.8,0.7-1.7,1.1-2.7,1.3c-0.9,0.2-1.8,0.1-2.6-0.4C10,15.5,9.6,15.3,9.4,15
		C9.4,14.9,9.3,14.9,9.3,14.8z"/>
</g>
</svg>
