<?xml version="1.0" encoding="utf-8"?>
<!-- Generator: Adobe Illustrator 22.0.1, SVG Export Plug-In . SVG Version: 6.00 Build 0)  -->
<svg version="1.1" id="Layer_1" xmlns="http://www.w3.org/2000/svg" xmlns:xlink="http://www.w3.org/1999/xlink" x="0px" y="0px"
	 viewBox="0 0 25 22.1" style="enable-background:new 0 0 25 22.1;" xml:space="preserve">
<style type="text/css">
	.st0{fill:none;}
	.st1{stroke:#FFFFFF;stroke-miterlimit:10;}
	.st2{fill:none;stroke:#FFFFFF;stroke-width:1.5;stroke-miterlimit:10;}
	.st3{fill:#FFFFFF;}
</style>
<g>
	<path class="st0" d="M10.9,7.3c-2,0-3.7,1.6-3.7,3.6s1.6,3.7,3.6,3.7s3.7-1.6,3.7-3.6c0,0,0,0,0-0.1l0,0C14.6,9,12.9,7.4,10.9,7.3z
		"/>
	<path class="st0" d="M17.7,0H0v22h22v-6.1l0,0V0H17.7z M19.5,3.7C19.5,4.4,19,5,18.3,5C17.5,5,17,4.4,17,3.7s0.6-1.3,1.2-1.3
		C18.9,2.5,19.4,3,19.5,3.7z M11,17.2L11,17.2c-3.5,0-6.3-2.7-6.3-6.1s2.7-6.2,6.1-6.2S17,7.6,17,11l0,0C17,14.4,14.4,17.1,11,17.2z
		"/>
</g>
<title>icon_Instagram_white</title>
<path class="st1" d="M15.4,19.7H4c-1.7,0-3-1.4-3-3V5.3c0-1.7,1.3-3,3-3h11.4c1.6,0,3,1.3,3,3v11.4C18.4,18.4,17.1,19.7,15.4,19.7z"
	/>
<circle class="st2" cx="9.7" cy="11" r="4.7"/>
<circle class="st3" cx="15.4" cy="5.2" r="1.4"/>
</svg>
