<?xml version="1.0" encoding="utf-8"?>
<!-- Generator: Adobe Illustrator 21.1.0, SVG Export Plug-In . SVG Version: 6.00 Build 0)  -->
<svg version="1.1" id="Layer_1" xmlns="http://www.w3.org/2000/svg" xmlns:xlink="http://www.w3.org/1999/xlink" x="0px" y="0px"
	 viewBox="0 0 60 60" style="enable-background:new 0 0 60 60;" xml:space="preserve">
<style type="text/css">
	.st0{fill:#6E6E6E;}
</style>
<title>icon_Pinterest</title>
<path class="st0" d="M25.6,15.9H23H9.5H7.2h-6v5.8v2.5v13.2v2.7V46h9c0,0-0.2-1.1-0.2-1.5c0.1-2.5,0.5-4.9,1.2-7.3
	c0.4-1.3,0.7-2.7,1-4c0-0.2,0-0.3-0.1-0.4c-0.8-1.9-0.6-4,0.7-5.6c0.6-0.9,1.8-1.2,2.7-0.8c1,0.3,1.6,1.4,1.3,2.4
	c-0.2,1.1-0.6,2.2-0.9,3.4c-0.2,0.8-0.4,1.6-0.6,2.4c-0.1,0.4,0,0.8,0,1.1c0.1,0.6,0.6,1.2,1.2,1.3c1.4,0.5,3,0.1,4-1.1
	c1-1.2,1.7-2.6,1.9-4.1c0.4-1.6,0.3-3.3-0.1-4.9c-0.5-1.8-1.8-3.2-3.6-3.8c-2.1-0.8-4.5-0.5-6.4,0.7c-1.6,0.8-2.8,2.2-3.5,3.9
	c-0.6,1.3-0.7,2.7-0.3,4.1c0.2,0.5,0.4,1,0.7,1.4C9.7,34,9.7,35,9.1,35.8C9.5,36,9.4,36,9.3,36c-1.6-0.3-2.9-1.6-3.3-3.3
	c-0.8-3.7,0.1-6.9,2.9-9.5c1.5-1.4,3.4-2.3,5.5-2.6c3.2-0.4,6.2,0,8.9,1.9c1.7,1.1,2.8,2.9,3.2,4.9c0.6,3.5,0.1,6.8-2.1,9.7
	c-1.5,2.2-4.1,3.3-6.8,2.9c-0.8-0.1-1.5-0.4-2.1-0.9l-1.1-0.8c-0.2,1-0.4,2-0.7,3c-0.4,1.7-1,3.3-2,4.7H23h2h6.3v-8.3l0,0
	c0-1.9,0-3.8,0-5.7v-7.9v-2.5v-5.8L25.6,15.9L25.6,15.9z"/>
</svg>
