<?xml version="1.0" encoding="utf-8"?>
<!-- Generator: Adobe Illustrator 22.0.1, SVG Export Plug-In . SVG Version: 6.00 Build 0)  -->
<svg version="1.1" id="Layer_1" xmlns="http://www.w3.org/2000/svg" xmlns:xlink="http://www.w3.org/1999/xlink" x="0px" y="0px"
	 viewBox="0 0 25 22.1" style="enable-background:new 0 0 25 22.1;" xml:space="preserve">
<style type="text/css">
	.st0{fill:none;}
	.st1{fill:#FFFFFF;}
</style>
<title>icon_YouTube_white-01</title>
<path class="st0" d="M0,0v22h10.9c0-2.8,0-5.5,0.1-8.4H8.6c-0.2,0.1-0.3,0-0.3-0.2V10H11V8.4c0-1,0.4-2.1,1-2.9
	c0.7-1,1.8-1.7,3.1-1.8H18c0.1,0,0.1,0.1,0.1,0.2v3.2c0,0.1-0.1,0.2-0.2,0.2h-2.8c-0.3,0-0.6,0.2-0.7,0.4c-0.1,0.2-0.1,0.4-0.1,0.6
	V10H18v3.4c0,0.1-0.1,0.2-0.2,0.2h-3.5V22H22V0H0z"/>
<path class="st1" d="M17.3,4.6c0.4,0,0.8,0.1,1.2,0.2c1,0.3,1.5,1,1.7,2c0.1,0.8,0.2,1.7,0.3,2.6c0,1.4,0,2.8-0.1,4.1
	c0,0.8-0.1,1.6-0.4,2.3c-0.3,0.8-0.9,1.3-1.8,1.5c-0.6,0.1-1.3,0.2-2,0.2c-3.1,0.2-6.3,0.2-9.4,0.1c-0.9,0-1.8-0.1-2.7-0.2
	c-1.4-0.2-2.2-0.9-2.4-2.3c-0.4-2.4-0.4-4.8-0.1-7.3c0-0.3,0.1-0.7,0.1-1c0.3-1.3,1-2,2.3-2.1c1.4-0.1,2.9-0.2,4.3-0.3
	c0.8,0,1.7,0,2.5,0C12.3,4.4,15.2,4.4,17.3,4.6z M9.2,8.2c0,1.9,0,3.7,0,5.6c1.6-0.9,3.2-1.8,4.8-2.8C12.4,10,10.8,9.1,9.2,8.2z"/>
</svg>
