<?xml version="1.0" encoding="utf-8"?>
<!-- Generator: Adobe Illustrator 21.1.0, SVG Export Plug-In . SVG Version: 6.00 Build 0)  -->
<svg version="1.1" id="Layer_1" xmlns="http://www.w3.org/2000/svg" xmlns:xlink="http://www.w3.org/1999/xlink" x="0px" y="0px"
	 viewBox="0 0 60 60" style="enable-background:new 0 0 60 60;" xml:space="preserve">
<style type="text/css">
	.st0{fill:#343A40;}
</style>
<title>icon_Instagram</title>
<g>
	<g>
		<path class="st0" d="M16.3,25.9c-2.8,0-5,2.2-5,5s2.2,5,5,5s5-2.2,5-5c0,0,0,0,0-0.1C21.3,28.1,19,25.9,16.3,25.9z"/>
		<path class="st0" d="M31.3,32.1c0-3.5,0-7,0-10.4c0-3.2-2.5-5.7-5.7-5.8h-0.1c-6.1,0-12.1,0-18.2,0c-0.5,0-0.9,0-1.4,0.1
			c-2.7,0.6-4.6,2.9-4.6,5.7c0,0.9,0,1.7,0,2.6c0,5.3,0,10.5,0,15.8c0,0.5,0.1,1,0.2,1.4c0.6,2.6,3,4.4,5.6,4.3c3,0,6.1,0,9.1,0H25
			c0.5,0,1.1,0,1.6-0.1c2.7-0.5,4.6-2.9,4.6-5.7C31.3,37.5,31.3,34.8,31.3,32.1z M16.3,39.3c-4.6,0-8.4-3.8-8.4-8.4s3.8-8.4,8.4-8.4
			s8.3,3.7,8.4,8.3s-3.6,8.5-8.3,8.6C16.4,39.3,16.3,39.3,16.3,39.3L16.3,39.3z M26.3,22.6c-0.9,0-1.7-0.7-1.7-1.7
			c0-0.9,0.7-1.7,1.7-1.7c0.9,0,1.7,0.7,1.7,1.7l0,0C28,21.8,27.2,22.6,26.3,22.6z"/>
	</g>
</g>
</svg>
