<?xml version="1.0" encoding="utf-8"?>
<!-- Generator: Adobe Illustrator 21.1.0, SVG Export Plug-In . SVG Version: 6.00 Build 0)  -->
<svg version="1.1" id="Layer_1" xmlns="http://www.w3.org/2000/svg" xmlns:xlink="http://www.w3.org/1999/xlink" x="0px" y="0px"
	 viewBox="0 0 25 22.1" style="enable-background:new 0 0 25 22.1;" xml:space="preserve">
<style type="text/css">
	.st0{fill:#FFFFFF;}
</style>
<title>icon_Pinterest-white</title>
<path class="st0" d="M17.8,0H0v22h6.6c-0.1-0.4-0.1-0.7-0.2-1.1c0.1-1.8,0.4-3.6,0.9-5.3c0.3-0.9,0.5-2,0.7-2.9c0-0.1,0-0.2-0.1-0.3
	C7.4,11,7.6,9.5,8.5,8.3c0.4-0.6,1.3-0.9,2-0.6c0.8,0.2,1.2,1,1,1.8c-0.1,0.8-0.4,1.6-0.7,2.5l-0.4,1.8c0,0.3,0,0.5,0,0.8
	c0.1,0.5,0.4,0.8,0.9,0.9c1,0.4,2.2,0.1,2.9-0.8c0.7-0.8,1.2-1.9,1.4-3c0.3-1.2,0.2-2.5-0.2-3.7c-0.4-1.3-1.3-2.4-2.6-2.8
	c-1.6-0.6-3.3-0.4-4.7,0.5C6.9,6.4,6,7.4,5.6,8.6c-0.4,0.9-0.5,2-0.2,3c0.1,0.4,0.3,0.7,0.5,1c0.4,0.6,0.4,1.3-0.1,1.9
	c0.3,0.1,0.2,0.1,0.2,0.1c-1.2-0.3-2.1-1.2-2.4-2.4C2.8,9.7,3.7,7.1,5.6,5.3c1.1-1,2.5-1.7,4-1.9c2.3-0.4,4.6,0.1,6.5,1.4
	c1.2,0.8,2.1,2.1,2.3,3.6c0.6,2.5,0,5-1.5,7.1c-1.1,1.6-3.1,2.4-5,2.1c-0.6-0.1-1.1-0.3-1.5-0.7l-0.8-0.6c-0.1,0.7-0.3,1.5-0.5,2.2
	C8.9,19.8,8.4,21,7.7,22H22v-6l0,0V0H17.8z"/>
</svg>
