<?xml version="1.0" encoding="utf-8"?>
<!-- Generator: Adobe Illustrator 21.1.0, SVG Export Plug-In . SVG Version: 6.00 Build 0)  -->
<svg version="1.1" id="Layer_1" xmlns="http://www.w3.org/2000/svg" xmlns:xlink="http://www.w3.org/1999/xlink" x="0px" y="0px"
	 viewBox="0 0 25 22.1" style="enable-background:new 0 0 25 22.1;" xml:space="preserve">
<style type="text/css">
	.st0{fill:#FFFFFF;}
</style>
<title>icon_Instagram_white</title>
<g>
	<path class="st0" d="M10.9,7.3c-2,0-3.7,1.6-3.7,3.6c0,2,1.6,3.7,3.6,3.7c2,0,3.7-1.6,3.7-3.6c0,0,0,0,0-0.1l0,0
		C14.6,9,12.9,7.4,10.9,7.3z"/>
	<path class="st0" d="M17.7,0H0v22h22v-6.1l0,0V0H17.7z M19.5,3.7c0,0.7-0.5,1.3-1.2,1.3C17.5,5,17,4.4,17,3.7s0.6-1.3,1.2-1.3
		C18.9,2.5,19.4,3,19.5,3.7z M11,17.2C11,17.2,11,17.2,11,17.2c-3.5,0-6.3-2.7-6.3-6.1s2.7-6.2,6.1-6.2c3.4,0,6.2,2.7,6.2,6.1
		c0,0,0,0,0,0C17,14.4,14.4,17.1,11,17.2z"/>
</g>
</svg>
