<?xml version="1.0" encoding="utf-8"?>
<!-- Generator: Adobe Illustrator 21.1.0, SVG Export Plug-In . SVG Version: 6.00 Build 0)  -->
<svg version="1.1" id="Layer_1" xmlns="http://www.w3.org/2000/svg" xmlns:xlink="http://www.w3.org/1999/xlink" x="0px" y="0px"
	 viewBox="0 0 25 22.1" style="enable-background:new 0 0 25 22.1;" xml:space="preserve">
<style type="text/css">
	.st0{fill:#FFFFFF;}
</style>
<title>icon_Facebook_white</title>
<path class="st0" d="M0,0v22h10.9c0-2.8,0-5.5,0.1-8.4H8.6c-0.2,0.1-0.3,0-0.3-0.2V10h2.7V8.4c0-1,0.4-2,1-2.9
	c0.7-1,1.8-1.7,3.1-1.8H18c0.1,0,0.1,0.1,0.1,0.2v3.2c0,0.1-0.1,0.2-0.2,0.2c0,0,0,0-0.1,0h-2.7c-0.3,0-0.6,0.2-0.7,0.4
	c-0.1,0.2-0.1,0.4-0.1,0.6V10h3.7v3.4c0,0.1-0.1,0.2-0.2,0.2c0,0,0,0-0.1,0h-3.4V22H22V0H0z"/>
</svg>
