<?xml version="1.0" encoding="utf-8"?>
<!-- Generator: Adobe Illustrator 22.0.1, SVG Export Plug-In . SVG Version: 6.00 Build 0)  -->
<svg version="1.1" id="Layer_1" xmlns="http://www.w3.org/2000/svg" xmlns:xlink="http://www.w3.org/1999/xlink" x="0px" y="0px"
	 viewBox="0 0 25 22.1" style="enable-background:new 0 0 25 22.1;" xml:space="preserve">
<style type="text/css">
	.st0{fill:none;}
	.st1{fill:#FFFFFF;}
</style>
<g>
	<path class="st0" d="M10.8,14.6"/>
	<path class="st0" d="M0,22h22v-6.1l0,0V0h-4.3H0"/>
</g>
<g>
	<path class="st1" d="M10.8,15.8c-0.7,0.6-1.3,1.2-2,1.8c-0.7,0.6-1,0.5-1.2-0.3c-0.4-1.3-0.8-2.7-1.3-4c-0.1-0.3-0.4-0.5-0.7-0.7
		c-1.2-0.5-2.4-0.9-3.5-1.4c-0.2-0.1-0.4-0.3-0.6-0.5c0.2-0.2,0.3-0.4,0.6-0.5c1.4-0.6,2.9-1.1,4.3-1.6c3.1-1.2,6.2-2.4,9.3-3.6
		c0.9-0.4,1.9-0.7,2.8-1.1C18.9,3.9,19.1,4,19,4.6c-0.9,4.2-1.8,8.4-2.7,12.6c-0.1,0.6-0.2,1.1-0.4,1.7c-0.2,0.9-0.7,1.1-1.3,0.4
		c-1.2-1.1-2.4-2.2-3.5-3.3C11,16,10.9,15.9,10.8,15.8z M7.9,16.5c0.1,0,0.2,0,0.2,0c0-0.3,0.1-0.6,0.1-0.9c0.1-0.9,0.2-1.7,0.9-2.4
		c2.1-1.9,4.1-4,6.2-6c0.2-0.2,0.3-0.4,0.5-0.5c0,0-0.1-0.1-0.1-0.1c-0.2,0.1-0.3,0.2-0.5,0.3c-1.2,0.8-2.5,1.6-3.7,2.4
		c-1.5,1-2.9,1.9-4.4,2.9c-0.2,0.1-0.4,0.4-0.3,0.5C7.1,14,7.5,15.3,7.9,16.5z"/>
</g>
</svg>
