<?xml version="1.0" encoding="utf-8"?>
<!-- Generator: Adobe Illustrator 21.1.0, SVG Export Plug-In . SVG Version: 6.00 Build 0)  -->
<svg version="1.1" id="Layer_1" xmlns="http://www.w3.org/2000/svg" xmlns:xlink="http://www.w3.org/1999/xlink" x="0px" y="0px"
	 viewBox="0 0 60 60" style="enable-background:new 0 0 60 60;" xml:space="preserve">
<style type="text/css">
	.st0{fill:#6E6E6E;}
</style>
<title>icon_Instagram</title>
<g>
	<g>
		<path class="st0" d="M16.3,25.9c-2.8,0-5,2.2-5,5s2.2,5,5,5s5-2.2,5-5c0,0,0,0,0-0.1C21.3,28.1,19,25.9,16.3,25.9z"/>
		<path class="st0" d="M25.6,15.9L25.6,15.9c-0.9,0-1.7,0-2.5,0c-4.5,0-9,0-13.5,0c-0.8,0-1.5,0-2.3,0h-6v5.8c0,0.8,0,1.6,0,2.5
			c0,0.1,0,0.1,0,0.1c0,4.4,0,8.8,0,13.3c0,0.8,0,1.7,0,2.5v5.7h8.3l0,0c2.2,0,4.5,0,6.7,0h6.9l0,0h8.3v-8.3l0,0c0-1.8,0-3.6,0-5.5
			c0-2.7,0-5.3,0-7.9c0-0.8,0-1.6,0-2.5v-5.8L25.6,15.9L25.6,15.9z M28,20.9c0,0.9-0.8,1.7-1.7,1.7c-0.9,0-1.7-0.7-1.7-1.7
			c0-0.9,0.7-1.7,1.7-1.7C27.2,19.2,28,19.9,28,20.9z M16.4,39.4c0-0.1-0.1-0.1-0.1-0.1c-4.6,0-8.4-3.8-8.4-8.4s3.8-8.4,8.4-8.4
			s8.3,3.7,8.4,8.3S21.1,39.3,16.4,39.4z"/>
	</g>
</g>
</svg>
