<svg id="Layer_1" data-name="Layer 1" xmlns="http://www.w3.org/2000/svg" viewBox="0 0 25 22.08">
  <title>icon_Pinterest</title>
  <path d="M17.83,0H0V22H6.58a10.09,10.09,0,0,1-.15-1.09,21.87,21.87,0,0,1,.88-5.32c.29-.95.51-2,.73-2.91,0-.15,0-.22-.07-.29a3.93,3.93,0,0,1,.51-4.08,1.64,1.64,0,0,1,2-.58,1.43,1.43,0,0,1,1,1.75c-.15.8-.44,1.6-.66,2.48l-.44,1.75a2.93,2.93,0,0,0,0,.8,1.17,1.17,0,0,0,.88.95,2.65,2.65,0,0,0,2.92-.8,5.93,5.93,0,0,0,1.39-3A7.38,7.38,0,0,0,15.42,8a4,4,0,0,0-2.63-2.77,5.32,5.32,0,0,0-4.68.51A5.43,5.43,0,0,0,5.55,8.63a4.21,4.21,0,0,0-.22,3,4.44,4.44,0,0,0,.51,1,1.64,1.64,0,0,1-.07,1.89c.29.15.22.15.15.15a3.13,3.13,0,0,1-2.41-2.4A6.86,6.86,0,0,1,5.63,5.35a7.39,7.39,0,0,1,4-1.89,8.92,8.92,0,0,1,6.5,1.38,5.48,5.48,0,0,1,2.34,3.57A8.72,8.72,0,0,1,17,15.48a5,5,0,0,1-5,2.11,2.91,2.91,0,0,1-1.53-.66l-.8-.58c-.15.73-.29,1.46-.51,2.19A9.54,9.54,0,0,1,7.67,22H22V16h0V0Z"/>
</svg>
