<?xml version="1.0" encoding="utf-8"?>
<!-- Generator: Adobe Illustrator 21.1.0, SVG Export Plug-In . SVG Version: 6.00 Build 0)  -->
<svg version="1.1" id="Layer_1" xmlns="http://www.w3.org/2000/svg" xmlns:xlink="http://www.w3.org/1999/xlink" x="0px" y="0px"
	 viewBox="0 0 300 100" style="enable-background:new 0 0 300 100;" xml:space="preserve">
<style type="text/css">
	.st0{fill:#FFFFFF;}
	.st1{fill:none;stroke:#FFFFFF;stroke-miterlimit:10;}
	.st2{opacity:0.2;}
	.st3{fill:#323232;}
	.st4{fill:#C8C8C8;}
</style>
<title>Icon_Sell_Artmoney</title>
<g>
	<g>
		<path class="st0" d="M141.3,120.1l30,2.9l2.4,29.5L144,182l-32.3-32.3L141.3,120.1 M140.9,119.1l-30.7,30.6l33.8,33.7l30.6-30.6
			l-2.4-30.8L140.9,119.1L140.9,119.1z"/>
		<path class="st1" d="M173.3,137.3c2.8-1.4,5.4-3.2,7.5-5.4c7.8-7.8,9.9-18.4,4.6-23.7c-5.3-5.3-15.9-3.2-23.7,4.6
			s-9.9,18.4-4.6,23.7"/>
	</g>
	<circle class="st0" cx="156.5" cy="136.8" r="3.4"/>
</g>
<g id="artists" class="st2">
	<g>
		<g id="white">
			<g>
				<path class="st3" d="M187,88.6c-2-4.5-4-8.9-5.9-13.4c-1.3-3-3.5-5.5-6.4-7.1c-1.1-0.6-1.1-1.1-0.7-2.1
					c2.1-4.9,4.1-9.7,6.1-14.6c0.2-0.4,0.5-0.9,0.8-1.2c2.5-2.2,3.3-4.9,2.5-8c-2.1,0.3-4.2,2.7-4.7,5.2c-0.2,1.1-0.2,2.4-0.7,3.4
					c-2,4.2-4.2,8.4-6.3,12.6c-1.3,2.7-1.3,2.7-4.3,2.4c-0.1,0-0.2-0.1-0.3-0.1c-0.1-0.4-0.2-0.8-0.3-1.1c-0.2-1.4-0.6-2.9-0.3-4.3
					c0.3-1.5,1.1-3,1.8-4.4c0.2-0.3,0.6-0.4,1-0.4c2.1,0.2,4-1.3,4.4-3.4c0.3-1.5,0.8-3,1.3-4.5c1-2.7,0.4-5.3-1.9-7.1
					c-0.4-0.4-0.6-0.9-0.6-1.5c0.2-2.9-0.3-5.7-1.4-8.4c-3.7-9-14.1-14.4-23.7-12.2c-7.4,1.7-12.9,5.8-15.5,13.1
					c-0.9,2.5-0.9,5.3-1.3,8.4c-3.2,1.2-4.4,4.4-2.9,8c0.4,1,0.9,1.9,1,2.9c0.4,3.4,1.9,4.8,5.1,4.5c0.9,2.1,2,4.2,2.5,6.4
					c0.3,1.1-0.2,2.6-0.6,3.8c-0.1,0.3-1.3,0.3-2,0.4c-6.2,0.4-11,3.1-13.8,8.8c-1.8,3.6-3.5,7.2-5.1,10.8c-0.8,1.8-1.6,3.7-2.5,5.9
					h47.2c-0.7,1.8-1.3,3.4-1.8,5c-0.1,0.4,0.1,0.8,0.2,1.2c0.4-0.2,0.8-0.4,1-0.6c0.8-1.4,1.6-2.9,2.3-4.4c0.4-0.9,1-1.3,2.1-1.3
					c7.7,0,15.3,0,23,0h1.9C187.6,90.3,187.3,89.4,187,88.6z"/>
			</g>
		</g>
		<path class="st4" d="M187,88.6c-2-4.5-4-8.9-5.9-13.4c-1.3-3-3.5-5.5-6.4-7.1c-1.1-0.6-1.1-1.1-0.7-2.1c2.1-4.9,4.1-9.7,6.1-14.6
			c0.2-0.4,0.5-0.9,0.8-1.2c2.5-2.2,3.3-4.9,2.5-8c-2.1,0.3-4.2,2.7-4.7,5.2c-0.2,1.1-0.2,2.4-0.7,3.4c-2,4.2-4.2,8.4-6.3,12.6
			c-1.3,2.7-1.3,2.7-4.3,2.4c-0.1,0-0.2-0.1-0.3-0.1c-0.1-0.4-0.2-0.8-0.3-1.1c-0.2-1.4-0.6-2.9-0.3-4.3c0.3-1.5,1.1-3,1.8-4.4
			c0.2-0.3,0.6-0.4,1-0.4c2.1,0.2,4-1.3,4.4-3.4c0.3-1.5,0.8-3,1.3-4.5c1-2.7,0.4-5.3-1.9-7.1c-0.4-0.4-0.6-0.9-0.6-1.5
			c0.2-2.9-0.3-5.7-1.4-8.4c-3.7-9-14.1-14.4-23.7-12.2c-7.4,1.7-12.9,5.8-15.5,13.1c-0.9,2.5-0.9,5.3-1.3,8.4
			c-3.2,1.2-4.4,4.4-2.9,8c0.4,1,0.9,1.9,1,2.9c0.4,3.4,1.9,4.8,5.1,4.5c0.9,2.1,2,4.2,2.5,6.4c0.3,1.1-0.2,2.6-0.6,3.8
			c-0.1,0.3-1.3,0.3-2,0.4c-6.2,0.4-11,3.1-13.8,8.8c-1.8,3.6-3.5,7.2-5.1,10.8c-0.8,1.8-1.6,3.7-2.5,5.9h47.2
			c-0.7,1.8-1.3,3.4-1.8,5c-0.1,0.4,0.1,0.8,0.2,1.2c0.4-0.2,0.8-0.4,1-0.6c0.8-1.4,1.6-2.9,2.3-4.4c0.4-0.9,1-1.3,2.1-1.3
			c7.7,0,15.3,0,23,0h1.9C187.6,90.3,187.3,89.4,187,88.6z M172.5,69.2l3.4,2.3l-0.1,0.3h-4.5L172.5,69.2z M169.4,68.2l-1.3,2.9
			h-0.4l-0.4-3.2L169.4,68.2z M132.8,53.1c-0.3,0.2-0.9,0.2-1.1,0c-0.4-0.4-0.8-1-1-1.6c-0.5-1.5-0.9-3.2-1.4-4.7
			c-0.8-2.1-0.2-4,1.8-4.7c0.7,3.4,1.3,6.7,2,10.1C133.2,52.5,133.1,52.9,132.8,53.1z M135.4,51.6c-0.8-3.8-1.5-7.7-2.1-11.5
			c-1.3-7.5,1.9-12.9,8-16.9c10.2-6.7,24.3-1.8,28.2,9.7c0.4,1.2,0.6,2.4,0.7,3.7c0.2,1.8,0.2,3.4-1.9,4.3c-1.6,0.7-2,2.5-2.2,4.4h2
			c0.3-0.8,0.7-1.6,1.1-2.3c0.9-1.3,2.5-1.3,3.4,0.1s0.8,2.8,0.2,4.3c-0.5,1.1-0.9,2.3-1.1,3.5c-0.2,1-0.3,2.3-1.5,2.3
			c-0.7,0-1.4-1-2.1-1.6l0.2-0.4H166c0,0.3,0,0.6,0,1c1.1,3.2-0.4,5.7-2.4,7.8c-2.1,2.3-4.5,4.4-6.7,6.7c-1.1,1.1-2.6,1.7-4.2,1.7
			c-2.5,0-5.1,0-7.7,0c-1.4,0.1-2.8-0.7-3.5-1.9c-1.3-2.1-2.9-4.2-3.8-6.5C136.6,57.3,136,54.4,135.4,51.6z M165.6,71.9h-28.8
			l1.2-6.8c0.6,0.9,1.1,1.5,1.5,2.2c1.3,2.3,3.2,3.3,5.8,3.2c1.7,0,3.5-0.2,5.3,0c4,0.4,7.2-1.1,9.8-4.1c1.1-1.3,2.5-2.6,4-4.1
			L165.6,71.9z M135.1,68.2c-0.2,1.1-0.3,2.2-0.6,3.3c-0.1,0.3-0.7,0.6-1,0.6c-3,0-6,0-9,0C125.6,69.7,131.3,67.5,135.1,68.2z
			 M151.5,89.3h-36.4c0.8-1.7,1.4-3.2,2.2-4.5c0.2-0.4,1-0.5,1.5-0.5c10.3,0,20.6,0,30.9,0c1.4,0,2.8,0,4.2,0c0.9,0,1.2,0.3,1.2,1.2
			C155.4,89.3,155.4,89.3,151.5,89.3z M155.6,79.8c-0.3,0.3-0.7,0.5-1.1,0.5c-11.4,0-22.8,0-34.2,0c-0.2,0-0.5-0.1-0.7-0.2
			c0.6-1.3,1.1-2.4,1.7-3.5c0.3-0.3,0.7-0.6,1.1-0.6c11.4,0,22.8,0,34.2,0c0.2,0,0.4,0.1,0.6,0.2C156.6,77.4,156.2,78.6,155.6,79.8
			L155.6,79.8z M172.6,86c-0.2,3.3,0,3.3-3.4,3.3h-11.8c-0.3-4.5-0.6-8.8,1.9-12.7c0.2-0.3,0.6-0.5,1-0.6c1.8,0,3.6,0,5.5,0
			c-0.4,1.5-1.2,2.3-2.5,2.2c-1.2,0-1.7,0.6-2,1.8h7.8c-0.7-1.6-0.3-2.9,1.1-3.8C172,79.2,172.8,82.6,172.6,86z M174.1,79.8
			c-0.6-1.1-1-2.3-1.7-3.8c2.3,0,4.2,0,6.1,0c0.3,0,0.6,0.2,0.7,0.4c0.6,1.1,1,2.3,1.7,3.8c-2.2,0-4.2,0-6.1,0
			C174.5,80.2,174.2,80.1,174.1,79.8L174.1,79.8z M175.3,89.2c-0.4-0.1-0.6-0.4-0.7-0.7c-0.1-1.1-0.1-2.3,0-3.4
			c0.2-0.4,0.5-0.7,0.9-0.8c2.1-0.1,4.3,0,6.5,0c0.3,0,0.8,0.1,0.9,0.4c0.7,1.4,1.3,2.9,2.2,4.7C181.5,89.3,178.3,89.3,175.3,89.2
			L175.3,89.2z"/>
		<path class="st4" d="M140.9,45.1c1.6,0.3,1.9-1.2,2.6-2.4c0.4,0.4,0.6,0.9,0.6,1.3c-0.2,1-0.4,2.1-0.7,3.1
			c-0.2,0.7-0.2,1.6-0.6,1.9c-2.1,1.7-2.8,4.1-3.7,6.4c-0.3,0.7-0.3,1.5-0.4,2.3c2.1,0.4,2,0.4,2.5-1.3c0.2-0.8,0.6-1.5,0.8-2.3
			c2.2,0.5,3.2,2.6,5.7,2.5c2.4-0.1,3.4-2.4,6.1-2.7c0.8,1.9,1.8,3.7,2.5,5.7c0.4,0.9,0.9,1.1,1.6,0.8c0.4-0.1,0.7-0.8,0.7-1.3
			c0-0.8-0.2-1.6-0.6-2.3c-1.5-2.4-3.1-4.8-4.8-7.1c-0.7-0.9-1.7-1-2.9-0.7v1.7c0.6,0.4,1,0.6,1.4,0.9c0,0-0.1,0.5-0.2,0.5
			c-1.3,0.2-2.2,0.7-2.7,1.9c0,0.1-0.3,0.1-0.4,0.1c-1.3,0.1-2.6,0.2-2.7-1.6c-0.5,0-1.1-0.1-1.6-0.2c-0.2-0.1-0.4-0.4-0.5-0.6
			c0-0.2,0.2-0.5,0.4-0.5c1.3,0,1.2-1,1.4-1.8c0.5-2.1,0.8-4.1,1.3-6.1c0.3-1-0.1-1.5-0.8-2c-2-1.1-4.3-1.5-6.5-0.9
			c-1.6,0.4-3,1-4.2,2.4c1.1,1.1,1.1,1.1,2.8,0.7C139.1,44.2,140,44.9,140.9,45.1z"/>
		<path class="st4" d="M153.4,43.2c0.2-0.1,0.4-0.2,0.7-0.3c0.4,1.2,0.9,2.2,2.3,2.3c1.5,0,2-1,2.4-2.3c1.3,0.3,2.6,1.8,3.6-0.3
			c-2.1-2.6-7-3.2-10.2-1.5c-1.1,0.6-1.9,0.3-2-1c-0.1-0.8,0.1-1.7-0.1-2.5c-0.2-0.4-0.6-0.7-1-0.8c-0.4,0-1,0.5-1,0.8
			c-0.1,1.2-0.1,2.4,0.1,3.6C148.7,43.6,151.3,44.6,153.4,43.2z"/>
		<path class="st4" d="M149,58.8c-0.5,0.2-1.3,0.4-1.7,0.2c-1.7-0.9-3.1-0.2-4.6,0.4c-0.3,0.1-0.4,0.5-0.8,1h12
			C152.6,58.8,150.4,58.3,149,58.8z"/>
		<path class="st4" d="M149.4,64.7c1.4-0.2,2.3-1,2.6-2.4h-8.2C144.6,64.6,145.7,65.1,149.4,64.7z"/>
	</g>
</g>
</svg>
