<?xml version="1.0" encoding="utf-8"?>
<!-- Generator: Adobe Illustrator 21.1.0, SVG Export Plug-In . SVG Version: 6.00 Build 0)  -->
<svg version="1.1" id="Layer_1" xmlns="http://www.w3.org/2000/svg" xmlns:xlink="http://www.w3.org/1999/xlink" x="0px" y="0px"
	 viewBox="0 0 60 60" style="enable-background:new 0 0 60 60;" xml:space="preserve">
<style type="text/css">
	.st0{fill:#343A40;}
</style>
<title>icon_Facebook</title>
<path class="st0" d="M16.2,45.9H6.4c-2.8,0-5.1-2.3-5.1-5.1V21.1c0-2.8,2.3-5.2,5.2-5.2h19.7c2.8,0,5.1,2.3,5.1,5.2v19.7
	c0,2.8-2.3,5.1-5.2,5.1H21V34.6h4.7c0.2,0,0.3-0.1,0.3-0.3c0-1.5,0-2.9,0-4.4v-0.3h-5c0-0.1,0-0.2,0-0.3c0-0.6,0-1.1,0-1.7
	c0-0.3,0.1-0.6,0.2-0.8c0.1-0.4,0.5-0.6,0.9-0.6c1.2,0,2.4,0,3.6,0c0.2,0,0.3-0.1,0.3-0.3c0-1.5,0-2.9,0-4.4c0-0.2,0-0.3-0.2-0.3
	c-1.3,0-2.6,0-3.9,0c-1.7,0.1-3.3,1-4.2,2.4c-0.8,1.1-1.3,2.5-1.3,3.9c0,0.7,0,1.3,0,2.1h-3.7v0.3c0,1.4,0,2.9,0,4.3
	c0,0.3,0.1,0.4,0.4,0.3c1,0,2,0,3,0h0.3C16.2,38.4,16.2,42.1,16.2,45.9z"/>
</svg>
