<?xml version="1.0" encoding="utf-8"?>
<!-- Generator: Adobe Illustrator 21.1.0, SVG Export Plug-In . SVG Version: 6.00 Build 0)  -->
<svg version="1.1" id="Layer_1" xmlns="http://www.w3.org/2000/svg" xmlns:xlink="http://www.w3.org/1999/xlink" x="0px" y="0px"
	 viewBox="0 0 300 100" style="enable-background:new 0 0 300 100;" xml:space="preserve">
<style type="text/css">
	.st0{fill:none;stroke:#FFFFFF;stroke-miterlimit:10;}
	.st1{fill:#FFFFFF;}
	.st2{opacity:0.2;}
	.st3{fill:#323232;}
	.st4{fill:#646464;}
	.st5{fill:#C8C8C8;}
</style>
<title>Icon_Use_Artmoney</title>
<g>
	<path class="st0" d="M136.6,167.1c-15.4-7.1-22.1-25.4-15-40.8c5-10.9,15.9-17.8,27.9-17.8"/>
	<path class="st0" d="M161.2,110.8c15.7,6.5,23.2,24.4,16.7,40.1c-4.7,11.5-15.9,19-28.4,19"/>
	<polygon class="st1" points="149.5,116.1 149.5,101.3 158.7,108.7 	"/>
	<polygon class="st1" points="149.5,175.4 149.5,160.7 140.3,168.1 	"/>
</g>
<g id="partners" class="st2">
	<g>
		<g>
			<path class="st3" d="M118.6,55.6c1.8,0.3,3.4-0.3,4.5-1.9c0.3-0.4,0.5-0.8,0.9-1.3c0.8,1.9,2,3.2,4.1,3.2c2.4,0,3.7-1.3,4.5-3.5
				c0.7,2.2,2.1,3.5,4.4,3.5s3.6-1.3,4.3-3.5c0.6,2,1.8,3.3,3.7,3.5c2.5,0.3,4.2-1,4.9-3.4c1,2.4,2.3,3.4,4,3.5
				c2.5,0.1,4-1.1,4.8-3.5c0.7,2.2,2.1,3.5,4.4,3.5c2.3,0,3.6-1.3,4.3-3.5c0.6,2,1.8,3.3,3.7,3.5c2.4,0.3,3.9-0.9,4.8-3.2
				c0.3,0.5,0.6,0.9,0.9,1.3c1.4,2,4.2,2.4,6.1,1c2-1.4,2.4-4.2,1-6.1c-2.5-3.4-5.1-6.7-7.6-10.2c-0.2-0.3-0.5-0.4-0.8-0.4
				c-5.3,0-10.8,0-16.2,0h-0.6v-4.3c0.2,0,0.4,0,0.6,0h3.9c2.4,0,4.3-1.9,4.3-4.3c0-1.5,0-3,0-4.5c0-2.4-1.9-4.3-4.3-4.3l0,0h-26.3
				c-2.4,0-4.3,1.9-4.3,4.3v0c0,1.5,0,3,0,4.5c0,2.4,1.9,4.3,4.3,4.3l0,0h4.4v4.4h-0.7c-5.4,0-10.9,0-16.3,0c-0.3,0-0.5,0.1-0.7,0.3
				c-2.6,3.5-5.2,7-7.8,10.5c-0.7,1-0.9,2.2-0.6,3.3C115.6,54.1,116.8,55.3,118.6,55.6z M154.3,38.1h-8.7v-4.3h8.7V38.1z"/>
			<path class="st4" d="M178.6,84c-19,0-38,0-57,0c-2.7,0-4.6,1.3-5.8,3.6c-0.5,0.9-0.7,1.9-0.7,3H185c0-0.2,0-0.3,0-0.4
				C184.8,86.8,182,84.1,178.6,84z"/>
			<path class="st3" d="M123.8,81.8h52.4v-24h-52.4V81.8z"/>
		</g>
		<path class="st5" d="M118.6,55.6c1.8,0.3,3.4-0.3,4.5-1.9c0.3-0.4,0.5-0.8,0.9-1.3c0.8,1.9,2,3.2,4.1,3.2c2.4,0,3.7-1.3,4.5-3.5
			c0.7,2.2,2.1,3.5,4.4,3.5s3.6-1.3,4.3-3.5c0.6,2,1.8,3.3,3.7,3.5c2.5,0.3,4.2-1,4.9-3.4c1,2.4,2.3,3.4,4,3.5
			c2.5,0.1,4-1.1,4.8-3.5c0.7,2.2,2.1,3.5,4.4,3.5c2.3,0,3.6-1.3,4.3-3.5c0.6,2,1.8,3.3,3.7,3.5c2.4,0.3,3.9-0.9,4.8-3.2
			c0.3,0.5,0.6,0.9,0.9,1.3c1.4,2,4.2,2.4,6.1,1c2-1.4,2.4-4.2,1-6.1c-2.5-3.4-5.1-6.7-7.6-10.2c-0.2-0.3-0.5-0.4-0.8-0.4
			c-5.3,0-10.8,0-16.2,0h-0.6v-4.3c0.2,0,0.4,0,0.6,0h3.9c2.4,0,4.3-1.9,4.3-4.3c0-1.5,0-3,0-4.5c0-2.4-1.9-4.3-4.3-4.3l0,0h-26.3
			c-2.4,0-4.3,1.9-4.3,4.3v0c0,1.5,0,3,0,4.5c0,2.4,1.9,4.3,4.3,4.3l0,0h4.4v4.4h-0.7c-5.4,0-10.9,0-16.3,0c-0.3,0-0.5,0.1-0.7,0.3
			c-2.6,3.5-5.2,7-7.8,10.5c-0.7,1-0.9,2.2-0.6,3.3C115.6,54.1,116.8,55.3,118.6,55.6z M157.7,24h5.4v3.2h-4.3v2.2h-1V24z
			 M154.3,38.1h-8.7v-4.3h8.7V38.1z M150,24h5.4v5.4H150V24z M143.5,24h1v2.1h2.2V24h1.1v5.4h-1v-2.1h-2.2v2.1h-1V24z M137,29.4v-1
			h3.2v-1.1h-3.2V24h4.3v1H138v1.1h3.2v3.3C141.2,29.4,137,29.4,137,29.4z"/>
		<path class="st5" d="M178.6,84c-19,0-38,0-57,0c-2.7,0-4.6,1.3-5.8,3.6c-0.5,0.9-0.7,1.9-0.7,3H185c0-0.2,0-0.3,0-0.4
			C184.8,86.8,182,84.1,178.6,84z"/>
		<path class="st5" d="M151.2,28.3h3.2v-3.2h-3.2V28.3z"/>
		<path class="st5" d="M162,25h-3.2v1h3.2V25z"/>
		<path class="st5" d="M123.8,81.8h52.4v-24h-52.4V81.8z M145.7,62.2h26.2v15.2h-26.2V62.2z M128.2,62.2h13v15.2h-13V62.2z"/>
		<path class="st5" d="M132.5,66.5c-1.2,0-2.2,1-2.2,2.2c0,1.2,1,2.2,2.2,2.2c1.2,0,2.2-1,2.2-2.2c0-1.2-0.9-2.2-2.1-2.2
			C132.6,66.5,132.6,66.5,132.5,66.5z"/>
	</g>
</g>
</svg>
