<?xml version="1.0" encoding="utf-8"?>
<!-- Generator: Adobe Illustrator 21.1.0, SVG Export Plug-In . SVG Version: 6.00 Build 0)  -->
<svg version="1.1" id="Layer_1" xmlns="http://www.w3.org/2000/svg" xmlns:xlink="http://www.w3.org/1999/xlink" x="0px" y="0px"
	 viewBox="0 0 60 60" style="enable-background:new 0 0 60 60;" xml:space="preserve">
<style type="text/css">
	.st0{fill:#6E6E6E;}
</style>
<title>icon_Facebook</title>
<path class="st0" d="M1.3,15.9v30h14.9c0-3.8,0-7.5,0.2-11.4h-0.3c-1,0-2,0-3,0c-0.3,0.1-0.4,0-0.4-0.3c0-1.4,0-2.9,0-4.3v-0.3h3.7
	c0-0.8,0-1.4,0-2.1c0-1.4,0.5-2.8,1.3-3.9c0.9-1.4,2.5-2.3,4.2-2.4c1.3,0,2.6,0,3.9,0c0.2,0,0.2,0.1,0.2,0.3c0,1.5,0,2.9,0,4.4
	c0,0.2-0.1,0.3-0.3,0.3c-1.2,0-2.4,0-3.6,0c-0.4,0-0.8,0.2-0.9,0.6C21.1,27,21,27.3,21,27.6c0,0.6,0,1.1,0,1.7c0,0.1,0,0.2,0,0.3h5
	v0.3c0,1.5,0,2.9,0,4.4c0,0.2-0.1,0.3-0.3,0.3H21v11.3h10.3v-30C31.3,15.9,1.3,15.9,1.3,15.9z"/>
</svg>
