<?xml version="1.0" encoding="utf-8"?>
<!-- Generator: Adobe Illustrator 22.0.1, SVG Export Plug-In . SVG Version: 6.00 Build 0)  -->
<svg version="1.1" id="Layer_1" xmlns="http://www.w3.org/2000/svg" xmlns:xlink="http://www.w3.org/1999/xlink" x="0px" y="0px"
	 viewBox="0 0 25 22.1" style="enable-background:new 0 0 25 22.1;" xml:space="preserve">
<style type="text/css">
	.st0{fill:none;}
	.st1{fill:#FFFFFF;}
</style>
<title>icon_Facebook_white</title>
<path class="st0" d="M0,0v22h10.9c0-2.8,0-5.5,0.1-8.4H8.6c-0.2,0.1-0.3,0-0.3-0.2V10H11V8.4c0-1,0.4-2,1-2.9c0.7-1,1.8-1.7,3.1-1.8
	H18c0.1,0,0.1,0.1,0.1,0.2v3.2c0,0.1-0.1,0.2-0.2,0.2c0,0,0,0-0.1,0h-2.7c-0.3,0-0.6,0.2-0.7,0.4c-0.1,0.2-0.1,0.4-0.1,0.6V10H18
	v3.4c0,0.1-0.1,0.2-0.2,0.2c0,0,0,0-0.1,0h-3.4V22H22V0H0z"/>
<g>
	<path class="st1" d="M11.7,21.2v-8.6h3.6c0.1,0,0.1,0,0.1,0c0.1,0,0.2-0.1,0.2-0.2V8.8h-3.9V7c0-0.2,0-0.4,0.1-0.6
		C11.9,6.2,12.2,6,12.5,6h2.8c0.1,0,0.1,0,0.1,0c0.1,0,0.2-0.1,0.2-0.2V2.4c0-0.1,0-0.2-0.1-0.2h-3C11.2,2.3,10,3,9.3,4.1
		c-0.6,0.9-1,2-1,3v1.7H5.4v3.6c0,0.2,0.1,0.3,0.3,0.2h2.5c-0.1,3-0.1,5.7-0.1,8.6H11.7z"/>
</g>
</svg>
