<?xml version="1.0" encoding="utf-8"?>
<!-- Generator: Adobe Illustrator 21.1.0, SVG Export Plug-In . SVG Version: 6.00 Build 0)  -->
<svg version="1.1" id="Layer_1" xmlns="http://www.w3.org/2000/svg" xmlns:xlink="http://www.w3.org/1999/xlink" x="0px" y="0px"
	 viewBox="0 0 300 100" style="enable-background:new 0 0 300 100;" xml:space="preserve">
<style type="text/css">
	.st0{fill:#FFFFFF;}
	.st1{fill:none;stroke:#FFFFFF;stroke-miterlimit:10;}
	.st2{opacity:0.2;}
	.st3{fill:#323232;}
	.st4{fill:#C8C8C8;}
</style>
<title>Icon_Buy_Artmoney</title>
<g>
	<path class="st0" d="M175.3,136.9l9.1,46.1H119l9.1-46.2L175.3,136.9 M176.2,135.8h-48.8l-9.6,48.2h67.8L176.2,135.8L176.2,135.8z"
		/>
	<circle class="st0" cx="138.9" cy="148.1" r="3.4"/>
	<circle class="st0" cx="163.3" cy="148.1" r="3.4"/>
	<path class="st1" d="M163.3,149.4c-0.2-21.8-5.6-39.3-12.2-39.3s-12,17.5-12.2,39.3"/>
</g>
<g id="collectors" class="st2">
	<g>
		<g>
			<path class="st3" d="M123.5,38.3c2.8,2.2,6.1,3.9,9.5,5.1c5.5,1.7,11.2,2.2,18.6,2.2c1.7-0.1,4.9-0.3,8.1-0.7
				c6-0.7,11.6-2.8,16.7-5.9c1-0.5,1.4-1.8,0.9-2.8c0,0,0-0.1,0-0.1c-0.6-1-1.9-1.3-3-0.7l0,0c-0.7,0.4-1.4,0.7-2,1.1
				c-3.2,1.9-6.7,3.3-10.3,4c-5.5,1.1-11.2,1.5-16.8,1.1c-4.6-0.3-9.1-1-13.3-3.1c-2-1-4-2.2-6-3.4c-1.1-0.6-2.2-0.6-2.9,0.3
				C122.4,36.4,122.5,37.6,123.5,38.3z"/>
			<path class="st3" d="M134.8,35.9c0.8,0.3,1.7,0.6,2.6,0.9c4.7,1.3,9.6,1.6,14.5,1.4c4.4-0.1,8.7-0.8,12.9-2.1
				c0.5-0.2,0.7-0.3,0.7-0.9c0-2.2,0-4.4,0-6.7s0-4.4,0-6.6c0-1.6-0.7-2.2-2.3-2.2H143c-2.1,0-4.2,0-6.2,0c-1.4,0-2.4,0.8-2.4,2.1
				c0,4.5,0,9,0,13.5C134.4,35.6,134.6,35.8,134.8,35.9z"/>
			<path class="st3" d="M178.7,85.2c-3.1-4.2-7.2-7.2-11.9-9.5c-0.6-0.3-1.2-0.5-1.9-0.8c6.4-5.5,9.1-12.4,7.5-20.8l0.6-0.1
				c1.9-0.3,3.3-2,3.1-3.9c-0.2-1.7-1.6-3-3.3-3.1c-0.7,0-1.4,0-2,0c-1.1,0.1-1.9-0.1-2.4-1.2c-0.2-0.5-0.6-0.6-1.2-0.5
				c-6.3,1.4-12.6,2.4-19.1,2.2c-4.9-0.2-9.7-0.6-14.4-1.9c-1.4-0.4-1.5-0.4-2.3,0.8c-0.2,0.4-0.6,0.6-1.1,0.6c-1,0-2,0-3,0
				c-1.8,0.1-3.2,1.7-3.2,3.4c0,1.7,1.2,3.3,3,3.5l0.6,0.1c-1.6,8.2,1,14.9,7.1,20.4l-2.6,1.3c-3.5,1.7-6.6,4-9.2,6.9
				c-1.4,1.5-2.5,3.1-2.8,5.2c-0.2,1.4-0.1,2.9-0.1,4.3c0,0.5,0.2,0.6,0.6,0.7c1.9,0.2,3.7,0.4,5.6,0.5c4.7,0.3,9.4,0.7,14.1,1
				c5.5,0.4,10.9,0.5,16.4,0.2c6.8-0.5,13.6-1,20.4-1.5c1-0.1,2-0.2,3-0.3c0-1,0-2,0-2.9C180.2,88.3,179.7,86.6,178.7,85.2z"/>
		</g>
		<path class="st4" d="M152.9,56.9c0,2.8,2.1,5,4.9,5c1.6,0,3.1-0.7,4-1.9c1.3-1.7,1.4-3.9,0.2-5.7c-1.2-1.9-3.4-2.7-5.5-2.1
			c-1.3,0.4-2.4,1.2-3.1,2.4c-2.3-1.1-4.7-0.9-7,0c-0.1,0-0.5-0.1-0.6-0.3c-0.8-1.3-2.2-2.1-3.8-2.2c-1.9-0.3-3.8,0.8-4.7,2.5
			c-1.4,2.4-0.5,5.4,1.9,6.7c1,0.6,2.1,0.8,3.3,0.6c2.4-0.4,4-2.3,4.2-4.9c0-0.3,0.2-0.6,0.4-0.7c1.6-0.8,3.5-0.8,5.2-0.3
			C152.7,56,153,56.4,152.9,56.9L152.9,56.9z M158,53.9c1.7,0,3,1.3,3,3c0,0,0,0.1,0,0.1c0,1.7-1.3,3-3,3c-1.7,0-3.1-1.7-3.1-3.4
			C154.9,54.8,156.3,53.9,158,53.9L158,53.9z M141.7,59.9c-1.7,0-3.1-1.7-3.1-3.5c0-1.6,1.4-2.5,2.9-2.5c1.7,0,3.1,1.3,3.1,2.9
			c0,0,0,0.1,0,0.1C144.7,58.6,143.4,60,141.7,59.9C141.8,59.9,141.7,59.9,141.7,59.9L141.7,59.9z"/>
		<path class="st4" d="M123.5,38.3c2.8,2.2,6.1,3.9,9.5,5.1c5.5,1.7,11.2,2.2,18.6,2.2c1.7-0.1,4.9-0.3,8.1-0.7
			c6-0.7,11.6-2.8,16.7-5.9c1-0.5,1.4-1.8,0.9-2.8c0,0,0-0.1,0-0.1c-0.6-1-1.9-1.3-3-0.7l0,0c-0.7,0.4-1.4,0.7-2,1.1
			c-3.2,1.9-6.7,3.3-10.3,4c-5.5,1.1-11.2,1.5-16.8,1.1c-4.6-0.3-9.1-1-13.3-3.1c-2-1-4-2.2-6-3.4c-1.1-0.6-2.2-0.6-2.9,0.3
			C122.4,36.4,122.5,37.6,123.5,38.3z"/>
		<path class="st4" d="M134.8,35.9c0.8,0.3,1.7,0.6,2.6,0.9c4.7,1.3,9.6,1.6,14.5,1.4c4.4-0.1,8.7-0.8,12.9-2.1
			c0.5-0.2,0.7-0.3,0.7-0.9c0-2.2,0-4.4,0-6.7s0-4.4,0-6.6c0-1.6-0.7-2.2-2.3-2.2H143c-2.1,0-4.2,0-6.2,0c-1.4,0-2.4,0.8-2.4,2.1
			c0,4.5,0,9,0,13.5C134.4,35.6,134.6,35.8,134.8,35.9z"/>
		<path class="st4" d="M166,63.5l-0.3,0c-0.4,0.3-0.8,0.6-1.2,0.8c-2.2,1.3-4.4,1.7-6.9,0.5c-0.5-0.3-1-0.5-1.5-0.7
			c-1.3-0.4-2.7-0.8-4-1.1c-1.2-0.2-1.7,0.3-1.7,1.6c0.1,4.7,4.1,8,8.7,6.9c3.2-0.8,5.6-2.5,6.7-5.8C166,65,165.9,64.2,166,63.5z"/>
		<path class="st4" d="M147.4,63c-1.8,0.5-3.5,1.1-5.3,1.8c-1.2,0.5-2.5,0.6-3.7,0.4c-1.4-0.3-2.8-1-4-1.9c-0.3,1.1-0.3,2.2,0.3,3.1
			c0.9,1.9,2.4,3.3,4.3,4.2c4.7,2.2,9.8,0.5,10.7-5.5C150,63.3,149.2,62.5,147.4,63z"/>
		<path class="st4" d="M178.7,85.2c-3.1-4.2-7.2-7.2-11.9-9.5c-0.6-0.3-1.2-0.5-1.9-0.8c6.4-5.5,9.1-12.4,7.5-20.8l0.6-0.1
			c1.9-0.3,3.3-2,3.1-3.9c-0.2-1.7-1.6-3-3.3-3.1c-0.7,0-1.4,0-2,0c-1.1,0.1-1.9-0.1-2.4-1.2c-0.2-0.5-0.6-0.6-1.2-0.5
			c-6.3,1.4-12.6,2.4-19.1,2.2c-4.9-0.2-9.7-0.6-14.4-1.9c-1.4-0.4-1.5-0.4-2.3,0.8c-0.2,0.4-0.6,0.6-1.1,0.6c-1,0-2,0-3,0
			c-1.8,0.1-3.2,1.7-3.2,3.4c0,1.7,1.2,3.3,3,3.5l0.6,0.1c-1.6,8.2,1,14.9,7.1,20.4l-2.6,1.3c-3.5,1.7-6.6,4-9.2,6.9
			c-1.4,1.5-2.5,3.1-2.8,5.2c-0.2,1.4-0.1,2.9-0.1,4.3c0,0.5,0.2,0.6,0.6,0.7c1.9,0.2,3.7,0.4,5.6,0.5c4.7,0.3,9.4,0.7,14.1,1
			c5.5,0.4,10.9,0.5,16.4,0.2c6.8-0.5,13.6-1,20.4-1.5c1-0.1,2-0.2,3-0.3c0-1,0-2,0-2.9C180.2,88.3,179.7,86.6,178.7,85.2z
			 M144.9,90.2l-3.1-11.6l0.9,0.3c0.9,0.3,1.8,0.5,2.7,0.7c1.3,0.3,2.4,1,3.6,2.3C146.8,84.2,145.7,87.1,144.9,90.2z M154.6,89.4
			l-0.2,0c-0.6-2.8-1.5-5.5-3.6-7.5c1.4-1.5,3.8-2.6,6.5-2.9L154.6,89.4z M148.9,77.3c-6.4-0.2-12.2-3.3-15.8-8.6
			c-3.2-4.4-3.9-9.4-2.6-14.7c0.4-1.7,0.6-3.5,1.6-5.1c0.3-0.6,0.6-0.7,1.3-0.6c7.9,1.9,16.1,2.4,24.1,1.4c3.1-0.4,6.2-1,9.3-1.6
			c0.3-0.1,0.7,0,0.8,0.3c0.3,0.3,0.4,0.7,0.6,1.1c1,2.9,1.9,5.9,1.8,9c-0.1,7.2-3.6,12.4-9.7,16C157.2,76.6,153.6,77.4,148.9,77.3
			L148.9,77.3z"/>
	</g>
</g>
</svg>
