<?xml version="1.0" encoding="utf-8"?>
<!-- Generator: Adobe Illustrator 21.1.0, SVG Export Plug-In . SVG Version: 6.00 Build 0)  -->
<svg version="1.1" id="Layer_1" xmlns="http://www.w3.org/2000/svg" xmlns:xlink="http://www.w3.org/1999/xlink" x="0px" y="0px"
	 viewBox="0 0 150 150" style="enable-background:new 0 0 150 150;" xml:space="preserve">
<style type="text/css">
	.st0{fill:#CCCCCC;}
</style>
<title>loader_logo</title>
<g>
	<g>
		<path class="st0" d="M121.9,53.2c12-0.1,21.7,9.5,21.9,21.5c0.1,12-9.5,21.7-21.5,21.9S100.5,87,100.4,75c0,0,0,0,0,0l0,0
			C100.4,63.1,109.9,53.3,121.9,53.2 M122.3,51.6c-12.9,0-23.4,10.5-23.4,23.4c0,12.9,10.5,23.4,23.4,23.4
			c12.9,0,23.4-10.5,23.4-23.4C145.7,62.1,135.2,51.6,122.3,51.6L122.3,51.6z"/>
		<path class="st0" d="M28.2,53.2c12.1,0,21.8,9.8,21.8,21.9c0,12.1-9.8,21.8-21.9,21.8C16.1,96.8,6.4,87.1,6.4,75l0,0
			C6.8,62.9,16.5,53.2,28.2,53.2 M28.2,51.6C15.3,51.6,4.8,62.1,4.8,75c0,12.9,10.5,23.4,23.4,23.4c12.9,0,23.4-10.5,23.4-23.4l0,0
			c0.1-12.8-10.2-23.3-23.1-23.4C28.5,51.6,28.3,51.6,28.2,51.6L28.2,51.6z"/>
		<path class="st0" d="M75.1,53.2c12.1,0,21.9,9.8,21.9,21.9s-9.8,21.9-21.9,21.9C63,96.8,53.6,86.7,53.6,75
			C53.5,63.1,63.1,53.3,75.1,53.2 M75.1,51.6c-12.9,0-23.4,10.5-23.4,23.4c0,12.9,10.5,23.4,23.4,23.4C88,98.4,98.5,87.9,98.5,75
			C98.9,62.1,88.3,51.6,75.1,51.6L75.1,51.6z"/>
	</g>
	<g>
		<path class="st0" d="M98.9,93.7L98.9,93.7c7.7,0.1,14.9,4.2,18.7,10.9c5.8,10.5,2.3,23.8-7.8,29.7c-3.3,1.9-7.1,2.8-10.9,2.7
			c-12,0-21.7-9.7-21.7-21.7S86.9,93.7,98.9,93.7 M98.9,92.1c-12.9,0-23.4,10.5-23.4,23.4s10.5,23.4,23.4,23.4s23.4-10.5,23.4-23.4
			c0-4.1-1.1-8.1-3.1-11.7C114.9,96.6,107.2,92.2,98.9,92.1L98.9,92.1z"/>
		<path class="st0" d="M51.6,12.6L51.6,12.6c12-0.2,21.9,9.3,22.1,21.2c0.2,12-9.3,21.9-21.2,22.1c-7.9,0.2-15.3-4-19.2-10.9
			c-5.8-10.6-2.3-23.9,7.8-29.7C44.4,13.6,48,12.7,51.6,12.6 M51.6,11c-12.9,0-23.4,10.5-23.4,23.4s10.5,23.4,23.4,23.4
			s23.4-10.5,23.4-23.4c0-4.1-1.1-8.1-3.1-11.7C68,15.3,60.2,11,51.6,11z"/>
		<path class="st0" d="M75.1,53.2L75.1,53.2c12.1,0,21.9,9.8,21.9,21.9s-9.8,21.9-21.9,21.9C63,96.8,53.6,86.7,53.6,75
			c0.1-7.7,4.2-14.9,10.9-18.7C67.6,54.1,71.3,53,75.1,53.2 M75.1,51.6c-12.9,0-23.4,10.5-23.4,23.4s10.5,23.4,23.4,23.4
			S98.5,87.9,98.5,75c0-4.1-1.1-8.1-3.1-11.7C91.4,55.8,83.5,51.2,75.1,51.6L75.1,51.6z"/>
	</g>
	<g>
		<path class="st0" d="M52,93.7L52,93.7c12.1,0,21.8,9.8,21.8,21.8s-9.8,21.9-21.8,21.9s-21.9-9.8-21.9-21.9l0,0
			c0.1-3.8,1-7.5,2.7-10.9C36.9,97.9,44.2,93.8,52,93.7 M52,92.2c-12.9,0-23.4,10.5-23.3,23.4c0,12.9,10.5,23.4,23.4,23.3
			s23.4-10.5,23.3-23.4c0-8.3-4.5-16.1-11.7-20.2C60.2,93.2,56.1,92.1,52,92.2z"/>
		<path class="st0" d="M98.9,12.6L98.9,12.6c12.1,0,21.8,9.8,21.8,21.9s-9.8,21.8-21.9,21.8C86.8,56.3,77,46.5,77,34.4
			c0.1-3.8,1-7.5,2.7-10.9C83.8,16.7,91,12.6,98.9,12.6 M98.9,11c-12.9,0-23.4,10.5-23.3,23.4c0,12.9,10.5,23.4,23.4,23.3
			s23.4-10.5,23.3-23.4c0-8.3-4.5-16.1-11.7-20.2C107,12.2,103,11.1,98.9,11z"/>
		<path class="st0" d="M75.1,53.2L75.1,53.2c12.1,0,21.8,9.8,21.8,21.8s-9.8,21.8-21.8,21.8S53.2,87.1,53.2,75
			c0.1-3.8,1-7.5,2.7-10.9C60,57.4,67.2,53.2,75.1,53.2 M75.1,51.6c-12.9,0-23.4,10.5-23.3,23.4s10.5,23.4,23.4,23.3
			c12.9,0,23.4-10.5,23.3-23.4c0-8.3-4.5-16.1-11.7-20.2C83.3,52.5,79.2,51.4,75.1,51.6z"/>
	</g>
</g>
</svg>
