<?xml version="1.0" encoding="utf-8"?>
<!-- Generator: Adobe Illustrator 21.1.0, SVG Export Plug-In . SVG Version: 6.00 Build 0)  -->
<svg version="1.1" id="Layer_1" xmlns="http://www.w3.org/2000/svg" xmlns:xlink="http://www.w3.org/1999/xlink" x="0px" y="0px"
	 viewBox="0 0 149.3 80.3" style="enable-background:new 0 0 149.3 80.3;" xml:space="preserve">
<g>
	<path d="M13.8,67l-0.9-2.2h-0.1c-0.6,0.8-1.4,1.5-2.3,1.9c-1,0.4-2,0.6-3.1,0.5c-1.3,0.1-2.7-0.4-3.6-1.3c-0.9-1-1.4-2.4-1.3-3.8
		c-0.1-1.5,0.6-2.9,1.8-3.8c1.2-0.8,3-1.3,5.4-1.3l2.8-0.1v-0.7c0-1.6-0.8-2.4-2.5-2.4c-1.6,0.1-3.1,0.5-4.5,1.2L4,52
		c1.9-1,4-1.5,6.2-1.5c1.8-0.1,3.5,0.4,5,1.4c1.2,1.1,1.9,2.7,1.7,4.3V67L13.8,67z M12.5,59.5l-1.7,0.1c-1,0-2,0.2-2.8,0.7
		c-0.6,0.4-1,1.2-0.9,1.9C7,63.4,7.7,64,9.1,64c0.9,0,1.8-0.3,2.4-0.9c0.6-0.6,0.9-1.5,0.9-2.3V59.5z"/>
	<path d="M30.4,50.5c0.5,0,1,0,1.5,0.1l-0.3,4.1c-0.4-0.1-0.9-0.1-1.3-0.1c-1.2-0.1-2.4,0.3-3.3,1.1c-0.8,0.8-1.2,1.9-1.2,3v8.2
		h-4.4V50.9h3.3l0.6,2.7h0.2c0.5-0.9,1.2-1.6,2-2.2C28.4,50.8,29.4,50.5,30.4,50.5z"/>
	<path d="M41.5,63.8c0.9,0,1.9-0.2,2.8-0.5v3.3c-1.3,0.5-2.7,0.8-4,0.7c-1.8,0-3-0.4-3.8-1.3c-0.9-1.1-1.3-2.6-1.2-4v-7.8h-2.1v-1.9
		l2.4-1.5l1.3-3.4h2.8v3.4h4.5v3.3h-4.5v7.8c0,0.5,0.1,1,0.5,1.4C40.5,63.6,41,63.8,41.5,63.8z"/>
	<path d="M62,67h-4.4v-9.4c0.1-0.9-0.1-1.8-0.6-2.6c-0.4-0.6-1.1-0.9-1.8-0.9c-1-0.1-1.9,0.4-2.4,1.2c-0.6,1.3-0.9,2.7-0.8,4.1v7.6
		h-4.4V50.9h3.4l0.6,2.1h0.2c0.4-0.7,1.1-1.4,1.9-1.7c0.9-0.4,1.8-0.6,2.8-0.6c2.4,0,4,0.8,4.9,2.3h0.4c0.4-0.8,1.1-1.4,1.9-1.7
		c0.9-0.4,1.9-0.6,2.8-0.6c1.5-0.1,3,0.4,4.1,1.4c0.9,0.9,1.4,2.4,1.4,4.5v10.5h-4.4v-9.4c0.1-0.9-0.1-1.8-0.6-2.6
		c-0.4-0.6-1.1-0.9-1.8-0.9c-1-0.1-1.9,0.4-2.4,1.1c-0.6,1.1-0.9,2.4-0.8,3.7L62,67z"/>
	<path d="M91.1,58.9c0,2.6-0.7,4.6-2.1,6.1c-1.5,1.5-3.6,2.3-5.8,2.2c-1.4,0-2.8-0.3-4.1-1c-1.2-0.7-2.1-1.7-2.7-2.9
		c-0.7-1.4-1-2.9-1-4.4c0-2.6,0.7-4.7,2.1-6.1c1.5-1.5,3.6-2.3,5.8-2.2c1.4,0,2.8,0.3,4.1,1c1.2,0.7,2.1,1.7,2.7,2.9
		C90.8,55.9,91.2,57.4,91.1,58.9z M80,58.9c-0.1,1.3,0.2,2.5,0.8,3.6c0.6,0.8,1.5,1.3,2.6,1.2c1,0.1,2-0.4,2.5-1.2
		c0.6-1.1,0.9-2.4,0.8-3.6c0.1-1.2-0.2-2.5-0.8-3.6c-1.2-1.4-3.3-1.6-4.7-0.4c-0.2,0.1-0.3,0.3-0.4,0.4C80.2,56.4,79.9,57.6,80,58.9
		L80,58.9z"/>
	<path d="M109.6,67h-4.4v-9.4c0.1-0.9-0.2-1.8-0.6-2.6c-0.5-0.6-1.2-0.9-2-0.9c-1-0.1-2.1,0.4-2.7,1.2c-0.5,0.8-0.8,2.2-0.8,4.1v7.6
		h-4.4V50.9h3.4l0.6,2.1h0.2c0.5-0.8,1.2-1.4,2-1.8c0.9-0.4,1.9-0.6,2.9-0.6c1.6-0.1,3.1,0.4,4.3,1.5c1,1.2,1.6,2.8,1.5,4.4
		L109.6,67z"/>
	<path d="M121.4,67.3c-2.6,0-4.6-0.7-6.1-2.1c-1.5-1.4-2.2-3.5-2.2-6.1c0-2.7,0.7-4.8,2-6.2c1.5-1.5,3.5-2.3,5.6-2.2
		c2-0.1,3.9,0.6,5.3,1.9c1.3,1.5,2,3.4,1.9,5.4V60h-10.4c0,1.1,0.4,2.1,1.1,2.9c0.8,0.7,1.8,1.1,2.9,1.1c0.9,0,1.8-0.1,2.8-0.3
		c0.9-0.2,1.8-0.6,2.7-1v3.4c-0.8,0.4-1.6,0.7-2.5,0.9C123.6,67.2,122.5,67.3,121.4,67.3z M120.8,53.7c-0.8,0-1.6,0.3-2.2,0.9
		c-0.6,0.7-0.9,1.6-0.9,2.5h6.2c0-0.9-0.3-1.8-0.9-2.5C122.4,54,121.6,53.6,120.8,53.7L120.8,53.7z"/>
	<path d="M129.2,50.9h4.8l3,9c0.3,0.9,0.5,1.8,0.5,2.8h0.1c0.1-1,0.3-1.9,0.6-2.8l3-9h4.7L139.2,69c-0.5,1.5-1.4,2.8-2.7,3.8
		c-1.2,0.8-2.6,1.3-4.1,1.3c-0.8,0-1.5-0.1-2.2-0.2v-3.5c0.6,0.1,1.1,0.2,1.7,0.2c0.7,0,1.5-0.2,2-0.7c0.6-0.6,1.1-1.3,1.4-2.2
		l0.3-0.8L129.2,50.9z"/>
</g>
<g>
	<g>
		<path d="M86.2,20.4c3.1,0,5.6,2.5,5.6,5.5c0,3.1-2.5,5.6-5.5,5.6c-3.1,0-5.6-2.5-5.6-5.5c0,0,0,0,0,0
			C80.7,22.9,83.2,20.4,86.2,20.4 M86.3,20c-3.3,0-6,2.7-6,6s2.7,6,6,6c3.3,0,6-2.7,6-6S89.6,20,86.3,20C86.3,20,86.3,20,86.3,20z"
			/>
		<path d="M62.2,20.4c3.1,0,5.6,2.5,5.6,5.6s-2.5,5.6-5.6,5.6c-3.1,0-5.6-2.5-5.6-5.6c0,0,0,0,0,0C56.7,22.9,59.2,20.4,62.2,20.4
			 M62.2,20c-3.3,0-6,2.7-6,6s2.7,6,6,6c3.3,0,6-2.7,6-6v0C68.2,22.7,65.6,20,62.2,20z"/>
		<path d="M74.2,20.4c3.1,0,5.6,2.5,5.6,5.6s-2.5,5.6-5.6,5.6S68.7,29,68.7,26C68.7,22.9,71.2,20.4,74.2,20.4 M74.2,20
			c-3.3,0-6,2.7-6,6c0,3.3,2.7,6,6,6c3.3,0,6-2.7,6-6C80.3,22.7,77.6,20,74.2,20C74.3,20,74.2,20,74.2,20z"/>
	</g>
	<g>
		<path d="M80.3,30.8L80.3,30.8c2,0,3.8,1.1,4.8,2.8c1.5,2.7,0.6,6.1-2,7.6c-0.8,0.5-1.8,0.7-2.8,0.7c-3.1,0-5.6-2.5-5.6-5.6
			C74.7,33.3,77.2,30.8,80.3,30.8 M80.3,30.4c-3.3,0-6,2.7-6,6c0,3.3,2.7,6,6,6c3.3,0,6-2.7,6-6c0-1.1-0.3-2.1-0.8-3
			C84.4,31.5,82.4,30.4,80.3,30.4z"/>
		<path d="M68.2,10L68.2,10c3.1,0,5.6,2.5,5.6,5.5c0,3.1-2.5,5.6-5.5,5.6c-2,0-3.8-1.1-4.8-2.8c-1.5-2.7-0.6-6.1,2-7.6
			C66.3,10.3,67.3,10,68.2,10 M68.2,9.6c-3.3,0-6,2.7-6,6c0,3.3,2.7,6,6,6c3.3,0,6-2.7,6-6c0-1.1-0.3-2.1-0.8-3
			C72.4,10.7,70.4,9.6,68.2,9.6z"/>
		<path d="M74.2,20.4L74.2,20.4c3.1,0,5.6,2.5,5.6,5.6s-2.5,5.6-5.6,5.6S68.7,29,68.7,26c0-2,1.1-3.8,2.8-4.8
			C72.3,20.6,73.3,20.4,74.2,20.4 M74.2,20c-3.3,0-6,2.7-6,6c0,3.3,2.7,6,6,6c3.3,0,6-2.7,6-6c0-1.1-0.3-2.1-0.8-3
			C78.4,21.1,76.4,19.9,74.2,20z"/>
	</g>
	<g>
		<path d="M68.3,30.8L68.3,30.8c3.1,0,5.6,2.5,5.6,5.6c0,3.1-2.5,5.6-5.6,5.6c-3.1,0-5.6-2.5-5.6-5.6c0-1,0.3-1.9,0.7-2.8
			C64.4,31.9,66.3,30.8,68.3,30.8 M68.3,30.4c-3.3,0-6,2.7-6,6c0,3.3,2.7,6,6,6c3.3,0,6-2.7,6-6c0-2.1-1.1-4.1-3-5.2
			C70.3,30.6,69.3,30.4,68.3,30.4z"/>
		<path d="M80.3,10L80.3,10c3.1,0,5.6,2.5,5.6,5.6s-2.5,5.6-5.6,5.6c-3.1,0-5.6-2.5-5.6-5.6c0-1,0.3-1.9,0.7-2.8
			C76.4,11.1,78.3,10,80.3,10 M80.3,9.6c-3.3,0-6,2.7-6,6c0,3.3,2.7,6,6,6c3.3,0,6-2.7,6-6c0-2.1-1.1-4.1-3-5.2
			C82.3,9.9,81.3,9.6,80.3,9.6z"/>
		<path d="M74.2,20.4L74.2,20.4c3.1,0,5.6,2.5,5.6,5.6s-2.5,5.6-5.6,5.6c-3.1,0-5.6-2.5-5.6-5.6c0-1,0.3-1.9,0.7-2.8
			C70.4,21.4,72.3,20.4,74.2,20.4 M74.2,20c-3.3,0-6,2.7-6,6c0,3.3,2.7,6,6,6s6-2.7,6-6c0-2.1-1.1-4.1-3-5.2
			C76.3,20.2,75.3,20,74.2,20z"/>
	</g>
</g>
</svg>
