<?xml version="1.0" encoding="utf-8"?>
<!-- Generator: Adobe Illustrator 21.1.0, SVG Export Plug-In . SVG Version: 6.00 Build 0)  -->
<svg version="1.1" id="Layer_1" xmlns="http://www.w3.org/2000/svg" xmlns:xlink="http://www.w3.org/1999/xlink" x="0px" y="0px"
	 viewBox="0 0 900 390" style="enable-background:new 0 0 900 390;" xml:space="preserve">
<style type="text/css">
	.st0{fill:#780A23;stroke:#000000;stroke-miterlimit:10;}
	.st1{fill:#FFFFFF;stroke:#FFFFFF;stroke-miterlimit:10;}
</style>
<title>Need_Cash</title>
<g>
	<path class="st0" d="M166,23.4c2.6-0.2,5.2-0.1,7.8,0.1c2.5,0.3,4.8,1.3,7.4,2.1c0.8-3.4,3.4-2.2,5.4-2.1c2.6,0.1,2.2,3,3.6,4.1
		c-1.5-0.1-3.1-0.1-4.6,0c-1.9,0.2-2.5,1.4-1.3,2.8c1,1.3,2.3,2.3,3.7,2.9c2,0.8,3-1,4-2.5l27.2,47.9c0.1-1.1,0.2-1.7,0.2-2.3
		c0-4.6,0-9.2,0-13.9c0-1.2,0.1-2.1,1.6-2.5c0.5-0.1,0.9-0.9,1.4-1.3c-0.6-0.3-1.1-0.7-1.6-1.1c-0.5-0.4-1.3-0.9-1.3-1.4
		c-0.1-10.8,0-21.7,0-32.5c0-0.1,0.1-0.1,0.2-0.3h21v85.4c-0.9-1-1.7-1.9-2.5-2.7c-0.3-0.3-1-0.6-1.2-0.5c-0.5,0.3-0.8,0.7-0.8,1.3
		c0.3,1.9,0.7,3.7,1.1,5.7c0,0-0.6,0.1-1.2,0.1c-4.8,0-9.7-0.1-14.5,0c-1.4,0.2-2.7-0.6-3.3-1.8c-9.6-17-19.3-33.9-29-50.8
		c-0.4-0.7-0.9-1.4-1.5-1.9v54.7H166V97.8c1.6-0.4,3.2,0.6,3.6,2.2c0,0,0,0.1,0,0.1c0.5,1.7,1.6,2.8,3.9,3.4
		c-2.8-4.3-0.4-7.9,0.7-11.7c-1.7-1-3.9-0.8-5.4,0.4c-0.9,0.6-1.8,1.2-2.7,1.8V58.7l3.3,0.1c0-0.9,0-1.8-0.1-2.7
		c-0.3-1.7-1.7-2.4-3.2-2.9V34.8c0.9-0.4,2.3-0.6,2.5-1.2c0.2-1.1,0-2.2-0.4-3.2c-0.1-0.3-1.3-0.2-2-0.2V23.4z M231.5,97.8
		c0.5-0.1,1-0.1,1.3-0.3c0.6-0.7,1.2-1.5,1.8-2.2c-0.7-0.6-1.6-1-2.4-1.3c-1-0.1-2,0.3-3,0.4c-0.9,0.2-1.7,0.2-2.6,0
		c-2.7-0.9-5.3-2.1-7.9-3.1c-0.8-0.2-1.6-0.4-2.4-0.4c-1.5-0.1-3.1-0.2-4.6-0.2c-0.6,0-1.2,0.1-1.6,0.5c-0.2,0.2-0.1,1.1,0.2,1.5
		c1,1.4,2,2.8,3.1,4.1c0.5,0.5,1.1,0.8,1.8,0.9c0.9,0.2,1.7,0.4,2.6,0.4c2.9,0.2,5.9,1.5,8.5-1c0.9-0.9,1.8-1.3,3-0.2
		C229.5,97.5,230.7,97.6,231.5,97.8z M239.7,79.7c-0.9-1.1-1.6-2.7-2.7-3.2c-1.1-0.6-2.4,1.8-2.5,4.3c0,1.6,0.6,2.7,2.3,2.8
		C238.1,83.6,239.2,82,239.7,79.7L239.7,79.7z M180.4,81.9l0.1-0.5c-0.8-0.3-1.9-1.1-2.4-0.9c-1.9,1.1-3.7,2.5-5.3,4
		c-0.2,0.6-0.1,1.3,0.3,1.8c0.7,0.2,1.4,0.1,2.1-0.3c0.5-0.3,0.8-0.8,0.9-1.3c0.3-1.2,1.3-2,2.5-2.1
		C179.1,82.5,179.8,82.2,180.4,81.9L180.4,81.9z M220.2,106.1v0.9l2.3,1.7c0.6-0.8,1.5-1.5,1.5-2.3c-0.2-0.8-0.8-1.5-1.7-1.8
		C221.6,104.6,220.9,105.6,220.2,106.1L220.2,106.1z M234,25.7c1.3,1.4,2.5,2,3.8,0.4C236.8,24.3,235.8,24.2,234,25.7z"/>
	<path class="st0" d="M706.6,114.1c-0.9-0.8-1.8-1.8-3.2-0.7c-0.2,0.1-0.5,0-0.8,0c-9.5-1.7-18-5.3-23.8-13.5
		c-3-4.3-4.6-9.4-4.7-14.6c0-0.4,0.1-0.9,0.1-1.3h21.2c0.1,0.7,0.2,1.3,0.3,2c0.9,7.2,3.9,10.5,11.1,11.5c3,0.4,6.1,0.3,9.1-0.2
		c3.5-0.6,6.2-2.7,6.9-6.5c0.7-4-0.4-7.5-4-9.6c-2.7-1.6-5.6-2.9-8.5-4.1c-6.2-2.6-12.5-4.8-18.6-7.7c-3.3-1.7-6.3-3.9-8.8-6.6
		c-9.8-10.2-8.1-25.7,3.4-33.8c5.5-3.8,11.9-6,18.6-6.5c8.4-0.8,16.6-0.2,24.4,3.5c9.6,4.6,15.6,14,15.1,23.8h-21.3
		c-0.2-6-3.1-10-9.1-11c-5.2-0.9-10.4-0.5-14.3,3.9c-1.8-2.2-4.8-2.9-8-1.6c-1.2,0.4-2.2,1.2-2.9,2.3c-0.4,0.7,0,2.6,0.7,3
		c2.7,1.5,5,4.2,8.6,3.7c0.3,0,0.6,0.2,0.8,0.5c2.4,3.9,6.4,5.5,10.4,7c4.9,1.9,9.9,3.4,14.7,5.5c4,1.8,7.7,3.9,11.2,6.5
		c13.3,9.9,13.9,34-6.1,41.6c-3.3,1.3-6.9,1.7-10.3,2.6l-1.8,0.4L706.6,114.1z"/>
	<path class="st0" d="M539,114.1l-7.4-1.7l-1.6-4.2l-2,2.8c-5.8-2.2-10.7-6.1-14-11.3c-2.3-3.7-3.9-7.8-5.7-11.8
		c-0.2-0.7-0.2-1.5-0.1-2.2c0-0.3,0.2-0.7,0-1c-3.3-5.7-1.7-11.9-2.5-17.6c0.9-0.1,2.1,0,2.1-0.2c0.3-0.9,0.3-2,0.1-2.9
		c-0.1-0.4-1.1-0.6-2-1.1c0.1-7.8,2-15.4,5.5-22.3c2.9-5.6,7.2-10.2,12.6-13.5c0.6-0.3,1.4-0.5,2.1-0.5c1.5,0,3,0.3,3.4-1.8
		c0.1-0.4,0.9-0.7,1.5-0.9c9.3-2.8,19.3-2.6,28.5,0.6c1.1,0.4,1.5,0.7,1.1,2.1c-0.3,1.2-0.1,2.4,0.6,3.4c1.2,1.3,2.7,1.2,3.8-0.5
		c0.3-0.5,0.7-1,1.1-1.5c8.1,4.2,14.6,15.3,14.8,25.8h-21c-0.1-0.7-0.3-1.5-0.4-2.4c-1.3-8.4-5.6-12.3-14.1-12.5
		c-9.4-0.3-14.6,4.1-16.3,14c-0.6,3.3-0.8,6.6-1.3,10.2c-2.6,0.2-5.4,0.4-8.1,0.5c-0.7-0.1-1.3-0.4-1.7-0.9
		c-0.5-0.4-0.9-1.2-1.4-1.4c-1-0.2-2.6-0.6-3.2,0c-0.7,0.9-0.9,2.1-0.5,3.1c0.7,2.1,2.6,3.5,4.8,3.5c1.8,0.1,3.6,0.2,5.4,0.4
		c3.1,0.3,4.7,2.3,5,5.6c0.4,4.2,1.1,8.4,1.7,12.6c0.1,0.6,0.3,1.2,0.6,1.8c0.7,2,2.2,3.7,1.4,6.2c-0.2,0.7,1,2.5,1.9,2.9
		c0.7,0.3,2-0.8,3.3-1.4l7.7,1.5c-0.4,0.9-1.1,1.8-1.2,2.7c-0.1,1.4-0.1,3.3,0.7,4c1.1,0.9,2.8,0.1,3.8-1.3c1.5-2.1,2.9-4.3,5.6-5.3
		c0.6-0.2,1.6-1.5,1.4-1.8c-0.7-1.7,0.8-2.1,1.3-3.2c1.1-2.4,2.1-4.9,3.1-7.5c0.2-0.8,0.3-1.7,0.4-2.6H581c-0.3,2-0.5,3.9-0.8,5.8
		c-0.8,4.1-2.4,8-4.8,11.5c-0.8,1.1-1.6,1.6-2.4,0.3c-1.4-2.1-3.5-3.8-5.8-4.8c-0.6-0.3-1-1.4-1.3-2.2c-1.2-2.7-2.9-3.2-4.7-1
		c-1.3,1.6-2.2,3.4-2.9,5.4c-0.5,1.4,0.2,2.7,1.8,3.4c1.7-0.8,1.1-4.5,4.5-3.7c0,1.2,0,2.3,0,3.4c-0.1,0.8-0.1,1.7,0.1,2.5
		c0.3,1,0.9,1.8,1.7,2.4c0.5,0.2,1.7-0.6,2.3-1.3c1-1.1,1.8-2.1,4.1-0.3c-0.8,0.4-1.6,0.8-2.3,1.3c-5.6,4.5-12.3,7.4-19.4,8.2
		c-0.7,0.1-1.5,0.3-2.2,0.5L539,114.1z M557,43.4c0.9,1.1,1.4,2.2,2.3,2.7c1.3,0.7,1.9-0.8,2.4-1.6c0.5-0.8,0.7-1.8,0.7-2.7
		c0-0.7-0.2-1.5-0.7-2c-0.6-0.4-1.4-0.4-2.1-0.1C558.7,40.8,557.8,42,557,43.4z M522.1,83.4c1.6-0.2,2.2-0.7,2.2-2.1
		c0-1.1-0.5-1.9-1.5-1.6c-1,0.3-1.5,1.3-2.3,1.9L522.1,83.4z"/>
	<path class="st0" d="M777.5,23.6v35.2h31.7V23.6h21.3v89.1h-21.2V75.6h-31.8v37.1h-4.7c-0.7-0.9-1.3-2.5-2-2.5
		c-1.1,0-2.3,0.9-3.4,1.4l1.1,1.2H756V23.6H777.5z"/>
	<path class="st0" d="M459.6,42.7c-1.5-1.1-3-2.7-5.1-1.8c-1,0.5-1.7,1.4-2,2.5c-0.6,3.9-0.8,4.1-4.3,1.9c-0.6-0.4-1.2-0.6-1.8-0.9
		s-1.2-0.6-2.2-1.2c0.1,0.7,0.3,1.4,0.6,2.1c0.9,2,1.6,4,3.5,5.5c0.9,0.8,0.9,2.7,1.2,4.2c0.4,1.9,1.4,2.7,3.4,3
		c1.3,0.2,2.6,0.8,3.5,1.8c3,3.3,5.4,3.7,9.6,0.9c0,3.3,0,6.3,0,9.3c0,2.1,0.3,4.2-1.4,6c-0.5,0.5-0.3,1.8-0.3,2.8
		c0,1.1,0.5,2.3,0.3,3.3c-4.1,18.2-20.4,31-39,30.8H396V23.5c0.6,0,1.3-0.1,2-0.1c9.4,0,18.9-0.2,28.3,0
		c13.4,0.4,24.3,5.8,32.1,16.9C458.9,41.1,459.3,41.9,459.6,42.7L459.6,42.7z M417.3,39.6v56.8h6.2c7.1,0,13-2.2,16.8-8.7
		c0.3-0.4,0.7-0.7,1.1-0.8c1.5-0.5,1.9-1.3,1.3-2.8c-0.2-0.7-0.3-1.4-0.1-2.2c2-8.7,2-17.7,0.2-26.4c-1.5-7-5-12.8-12.5-14.6
		C426.2,39.9,421.8,40,417.3,39.6z M438.5,29.3c0.2,0.3,0.2,0.8,0.5,1c1.7,1,3.1,2.4,4.1,4.1c0.5,0.8,1.6,1.1,2.4,0.6
		c0.3-0.1,0.5-0.4,0.6-0.6c0.8-0.8,0.8-2,0-2.8c-0.2-0.2-0.3-0.3-0.5-0.4c-0.8-0.5-1.8-0.8-2.4-1.5
		C441.8,27.9,440.3,27.8,438.5,29.3L438.5,29.3z M406.5,102.1l0.5,0.4c0.9-1,2.2-1.8,2.6-2.9c0.5-1.7-1.1-2.3-2.5-2.6
		c-0.7-0.1-1.4,0.1-2,0.4c-0.8,0.4-2,1-2.1,1.6c-0.1,0.6,0.8,1.7,1.4,2.3C405.1,101.6,405.8,101.9,406.5,102.1L406.5,102.1z
		 M429.4,101.1c-2,0-3,1-3,3.1c0,1.2,0.7,1.8,2,1.7c1.8-0.1,3.6-1.3,3.5-2.7C431.9,101.5,430.9,101,429.4,101.1L429.4,101.1z
		 M439.1,109.5c0.7-0.9,1.5-1.5,1.6-2.2c-0.1-0.7-0.6-1.3-1.3-1.5c-1.1-0.2-2.1,0.6-2.3,1.7c0,0.1,0,0.2,0,0.3
		C437,108.2,438,108.6,439.1,109.5L439.1,109.5z"/>
	<path class="st0" d="M386.7,96.6v16.2h-2.7c-4.3,0-8.6,0-12.9,0c-0.8-0.1-1.6-0.4-2.4-0.8c-1.1-0.4-2.3-0.8-3.4-1.3
		c-2.3-1-4.6-2.3-7-2.9c-1.4-0.4-3.1,0.4-4.7,0.5c-1,0.1-2.2,0.5-2.9,0.1c-1.1-0.7-2.5-0.5-3.4,0.4c-1,1-2,2-0.7,3.7h-21.5V91.3
		l6.3-6.1c-0.2-0.4-0.3-0.8-0.4-1.1c-1-2-2.3-2-3.6-0.2c-0.6,0.9-1.1,1.8-1.7,2.6l-0.6-0.2V23.6h61.4v16.3h-40v19.1h33.7v15.8h-33.7
		v21.6H369c-0.4,3.4,3.7,7.9,6.8,7.4c-1-1-1.8-2.1-2.7-3.3c-0.6-1.2-1.2-2.5-1.6-3.8H386.7z"/>
	<path class="st0" d="M651.2,112.8c0.9-3-0.9-4.8-2.7-6.5c-2.4-2.2-2.4-2.2-0.5-5c0.4-0.6,0.6-1.2,0.7-1.9c0.4-2.8,1.3-5.5,2.7-7.9
		c1.8-3.6-0.7-5.3-3.6-5.2c-1.8,0.3-3.4,1.1-4.6,2.3c-1.7,1.6-3.2,3.1-5.9,2.6c-1-0.2-2,0.6-1.5,2c0.3,0.9,0.5,1.8,0.9,2.9h-15
		c-2.5,0-4.9,0.1-7.3,0c-1.3,0-2.1,0.3-2.3,1.7c-0.3,1.1-0.7,2.2-1.1,3.3c-3.8-1.8-7-4.9-11.7-3c0.4,0.7,0.7,1.2,0.9,1.7
		c1.1,2.6,0.3,4.2-2.5,4.6c-0.3,0-0.7,0.1-1,0.3c-2.1,2-4,0.9-5.9-0.3c-2.2-1.3-2.6-2.3-1.7-4.7c9-24.7,18.1-49.3,27.1-74
		c0.7-1.8,1.5-2.5,3.5-2.5c5.3,0.2,10.6,0.1,16,0c1.1-0.2,2.2,0.5,2.5,1.6c6.2,17.2,12.5,34.4,18.9,51.5c0.3,0.8,1,1.6-0.4,2.3
		c-0.2,0.1-0.1,1,0.3,1.2c0.6,0.4,1.5,0.7,1.7,1.3c3.9,10.3,7.6,20.6,11.4,30.9c0,0.2,0.1,0.5,0.1,0.7H651.2z M627.5,49.3l-0.6-0.1
		l-9.3,30.2h19.2L627.5,49.3z M601.5,76.6c0,2.1,0.9,3.5,2.3,3.6c1.6,0,4-2.5,3.7-4.3s-1-3-2.8-2.9C602.6,73,601.5,74.2,601.5,76.6z
		 M596.3,96v-0.9c-0.9-0.5-1.8-1.5-2.7-1.5c-0.9,0-1.5,1.2-2.3,1.8c0.7,0.8,1.4,2.1,2.1,2.1C594.3,97.6,595.3,96.6,596.3,96z
		 M625.2,92c-1.2-1-2-2.1-2.5-1.9c-0.9,0.3-1.5,1.2-2.3,1.9c0.7,0.6,1.3,1.5,2,1.6C623.2,93.7,623.9,92.9,625.2,92L625.2,92z"/>
	<path class="st0" d="M316.2,38.3c-1,0.5-2,0.9-3,1.3c-0.7,0.2-1.4,0.3-2.1,0.2c-10.8,0-21.6,0-32.3,0h-2.7V59h33.7v15.6h-23.8
		c1.4-0.8,2.7-1.7,4-2.7c0.7-0.9,1.3-1.9,1.7-3c-1.2-0.6-2.4-1.7-3.5-1.7c-1.6,0.2-3.1,0.7-4.4,1.6c-2.3,1.3-2.1,3.8,0.8,6h-8.6
		v19.1c-1.4-0.8-2.5-1.5-3.7-2.1c-2.4-1.2-3.5-0.7-4.4,1.8c-0.1,0.4-0.2,0.9-0.3,1.2c1.3,1.4,2.8,2.6,3.7,4.2c0.6,1,0.4,2.7,0.1,3.9
		c-0.4,1.3-1,2.6-1.7,3.8c-0.5,1.3-0.1,2,1.3,2.1c3.4,0.4,3.3,0.4,4.1,4h-20.5V23.5c0.6,0,1.3-0.1,2-0.1c10.9,0,21.8,0,32.8,0
		c1.5,0,2.2,0.3,2.7,1.8c0.5,1,1.4,1.7,2.5,1.8c1.4,0,2.7,0.9,3.1,2.2c0.4,0.8,1,1.3,1.8,1.6c0.8-0.2,1.4-0.7,1.6-1.5
		c-0.1-0.9-0.5-1.6-1.2-2.2c-1.5-1.1-2.9-2.3-4.2-3.7h20.3L316.2,38.3z M295.9,37.8c0.4-1,1-1.7,0.9-2.3c-0.2-1.2-0.6-2.3-1.3-3.2
		c-0.7-0.9-1.8-2-2.7-2c-1.1,0.1-2.2,0.8-2.7,1.8c-0.2,1.2,0.1,2.4,0.9,3.3C292.2,36.3,293.9,36.8,295.9,37.8L295.9,37.8z
		 M257.4,98.7c0.4,0.4,1.1,1.7,2.1,1.8c1.9,0.3,2.1-1.8,2.1-2.9c-0.2-1.2-0.9-2.3-1.9-3.1C259,94,257.5,96.1,257.4,98.7z
		 M276.9,66.6v-0.8c-1-0.5-2-1.4-3.1-1.5c-0.5-0.1-1.2,1.2-1.8,1.8c0.7,0.6,1.4,1.6,2.2,1.7C274.9,67.8,276,67,276.9,66.6z"/>
	<path class="st0" d="M876.2,84.3h-17.4c0-8.6,1.2-16.6,8.1-22.7c2.4-2.1,4.7-4.4,6.9-6.8c2.5-2.8,3.5-6.7,2.7-10.4
		c-0.7-3.7-2.7-5.9-6-6.4c-4-0.6-7.3,0.9-8.9,4.4c-0.7,1.8-1.3,3.7-1.7,5.6c-6.3,0-12.8,0-19.3-0.1c-0.4,0-1-1-1-1.5
		c0.6-13,8.4-21.7,21.2-23.8c7-1.3,14.2-0.9,21,1.2c10.5,3.4,16.1,12,15.7,23.5c-0.3,6.9-3.7,12.2-8.5,16.8c-2,1.9-4,3.9-6.2,5.7
		c-3.8,3-6.1,7.5-6.3,12.3C876.5,82.9,876.3,83.5,876.2,84.3z M879.2,33.2c-1.2,1.1-2.6,1.8-2.8,2.6c-0.3,1.7,1.4,2.2,2.6,2.2
		c1.1-0.2,2-1,2.4-2C881.5,35.4,880.2,34.5,879.2,33.2z M871,75.6c0.8-1.3,1.4-2.6,1.8-4c0.1-0.6-0.9-1.8-1.5-1.9
		c-0.6-0.2-1.6,0.7-2,1.3C868.4,72.6,868.9,74,871,75.6L871,75.6z"/>
	<path class="st0" d="M867,113.6c-3.9-0.1-7.8-1.7-9.8-6.2c-1.8-3.6-1.2-8,1.7-11c3.9-4.4,11.9-4.9,16.7-1.1c4.3,3.5,5,9.9,1.5,14.2
		c-0.4,0.5-0.9,1-1.5,1.5C873.3,112.9,870.6,113.6,867,113.6z M868.8,106.3l-0.7-0.6c-1.4-0.1-2.3,0.4-2.2,1.9
		c0,0.4,0.8,0.7,1.2,1.1L868.8,106.3z"/>
	<path class="st0" d="M296.8,96.4c-0.8,0.8-2.1,1.5-2.1,2.3c0.1,1.2,0.6,2.4,1.4,3.2c1.9,1.8,2.3,4,0.7,6.2c-1,1.3-1.8,2.6-2.9,3.8
		c-0.5,0.5-1.1,0.8-1.8,0.9c-2.9,0.1-5.9,0-8.8,0c-0.3,0-0.7,0-1-0.1c-1.9-1-4.2-6.3-3.8-8.5c0.4-1.7,0.2-3.3-1.4-4.4
		c-0.6-0.6-0.8-1.4-0.7-2.1c0.3-0.6,0.9-1.1,1.6-1.2C284.4,96.4,290.7,96.4,296.8,96.4z M291.1,99.1c-1.4-0.8-2.2-1.7-3-1.6
		c-0.8,0-2.2,0.9-2.3,1.5c-0.1,1.1,0.7,2.1,1.8,2.2c0.2,0,0.4,0,0.6,0C289.1,101,289.8,100.1,291.1,99.1z"/>
	<path class="st0" d="M313.4,112.8h-15.9c0.9-1,1.4-2,2.1-2.4c2.4-1,2.8-3,3-5.2c0-1.2,0.2-2.3,0.5-3.5c0.3-0.8,1-2,1.7-2.1
		s1.6,0.8,2.3,1.4c0.5,0.6,0.9,1.2,1.4,1.8c1.9,2,3.1,2.1,5,0.1c0.9-1.1,1.8-2.3,2.6-3.5c0,2.7,0.1,5.3-0.1,7.7
		c0,0.4-0.8,0.9-1.3,1.2C313.3,109.5,312.5,110.7,313.4,112.8z"/>
	<path class="st0" d="M587.9,112.3c0.5-0.8,0.9-1.8,1.6-2.2c1.6-0.9,3.3-2.2,5.2-0.9c0.6,0.6,0.9,1.4,0.8,2.3
		c-0.4,0.7-1,1.2-1.8,1.3c-1.7,0.1-3.5,0.1-5.2,0.1L587.9,112.3z"/>
	<path class="st0" d="M459.6,42.8c2.5,2.8,3.3,6.4,4.4,9.9c-2.3-2-4.8-4-4.3-7.6C459.7,44.3,459.7,43.5,459.6,42.8L459.6,42.8z"/>
	<path class="st0" d="M300.9,96.4c4.7,0,9.3,0,14,0c0.5,0,1.1,0.7,1.4,1.3c-3.1-1.2-6.4-1.4-9.6-0.4C304.7,98,302.6,97.6,300.9,96.4
		z"/>
</g>
<g>
	<path class="st1" d="M232.9,241.7v-58.4h16.2c4.5,0,8.6,1.1,12.3,3.2c3.7,2.1,6.5,5.1,8.6,9c2.1,3.9,3.2,8.2,3.2,13v7.6
		c0,4.9-1,9.2-3.1,13.1c-2,3.9-4.9,6.9-8.6,9.1c-3.7,2.2-7.7,3.3-12.3,3.3H232.9z M235.1,185.5v54h14c4.1,0,7.8-1,11.2-3
		c3.4-2,6-4.8,7.9-8.3c1.9-3.6,2.9-7.5,2.9-11.9v-7.5c0-4.4-0.9-8.3-2.8-11.9c-1.9-3.6-4.4-6.3-7.8-8.4c-3.3-2-7-3.1-11-3.1H235.1z"
		/>
	<path class="st1" d="M308.8,216.7h-20.2v25h-2.2v-58.4H305c5.9,0,10.5,1.5,14,4.5c3.5,3,5.2,7.1,5.2,12.3c0,4-1.2,7.5-3.7,10.4
		c-2.5,3-5.6,4.8-9.4,5.6l15.6,25v0.6h-2.3L308.8,216.7z M288.6,214.6H307c4.5,0,8.1-1.4,10.9-4.1c2.8-2.7,4.1-6.2,4.1-10.3
		c0-4.5-1.5-8.1-4.6-10.7c-3.1-2.6-7.2-3.9-12.6-3.9h-16.3V214.6z"/>
	<path class="st1" d="M371.1,224.3h-28.6l-6.5,17.4h-2.4l21.8-58.4h2.6l21.8,58.4h-2.4L371.1,224.3z M343.3,222.1h27l-13.5-36.2
		L343.3,222.1z"/>
	<path class="st1" d="M398.2,238.1l2.6-9.6l13.8-45.1h2.4l13.7,45.1l2.6,9.6l2.7-9.6l12-45.1h2.4l-15.7,58.4h-2.4L417.8,193l-2-6.2
		l-2,6.2l-14.6,48.7h-2.4L381,183.3h2.4l12.1,45.1L398.2,238.1z"/>
	<path class="st1" d="M497,217.6l20.4-34.2h2.6l-22,36.2v22.2h-2.2v-22.2l-22-36.2h2.9L497,217.6z"/>
	<path class="st1" d="M569.8,216.9c0,5.1-0.9,9.5-2.7,13.4c-1.8,3.9-4.4,6.9-7.7,9c-3.3,2.1-7.2,3.2-11.5,3.2c-6.6,0-11.9-2.3-16-7
		c-4.1-4.7-6.1-11-6.1-18.9v-8.4c0-5,0.9-9.5,2.7-13.4c1.8-3.9,4.4-6.9,7.7-9c3.4-2.1,7.2-3.2,11.5-3.2c4.4,0,8.2,1.1,11.6,3.2
		c3.4,2.1,5.9,5.1,7.8,9.1c1.8,3.9,2.7,8.4,2.7,13.4V216.9z M567.6,208.1c0-7.1-1.8-12.7-5.4-17c-3.6-4.3-8.4-6.4-14.5-6.4
		c-6,0-10.8,2.1-14.4,6.4c-3.6,4.2-5.4,10-5.4,17.3v8.5c0,4.7,0.8,8.8,2.4,12.3c1.6,3.6,3.9,6.3,6.9,8.2c3,1.9,6.5,2.9,10.5,2.9
		c6.1,0,10.9-2.1,14.5-6.4c3.6-4.2,5.3-10,5.3-17.4V208.1z"/>
	<path class="st1" d="M622.4,183.3v39.5c0,6.2-1.8,11-5.4,14.4c-3.6,3.5-8.4,5.2-14.5,5.2s-11-1.7-14.5-5.2
		c-3.6-3.5-5.4-8.2-5.4-14.3v-39.7h2.2v39.4c0,5.4,1.6,9.7,4.9,12.8c3.2,3.2,7.6,4.7,12.9,4.7c5.4,0,9.7-1.6,12.9-4.7
		c3.2-3.2,4.8-7.4,4.8-12.9v-39.4H622.4z"/>
	<path class="st1" d="M660,216.7h-20.2v25h-2.2v-58.4h18.6c5.9,0,10.5,1.5,14,4.5c3.5,3,5.2,7.1,5.2,12.3c0,4-1.2,7.5-3.7,10.4
		c-2.5,3-5.6,4.8-9.4,5.6l15.6,25v0.6h-2.3L660,216.7z M639.8,214.6h18.4c4.5,0,8.1-1.4,10.9-4.1c2.8-2.7,4.1-6.2,4.1-10.3
		c0-4.5-1.5-8.1-4.6-10.7c-3.1-2.6-7.2-3.9-12.6-3.9h-16.3V214.6z"/>
	<path class="st1" d="M372.4,315.4c0,5.1-0.9,9.5-2.7,13.4c-1.8,3.9-4.4,6.9-7.7,9c-3.3,2.1-7.2,3.2-11.5,3.2c-6.6,0-11.9-2.3-16-7
		c-4.1-4.7-6.1-11-6.1-18.9v-8.4c0-5,0.9-9.5,2.7-13.4c1.8-3.9,4.4-6.9,7.7-9c3.4-2.1,7.2-3.2,11.5-3.2c4.4,0,8.2,1.1,11.6,3.2
		c3.4,2.1,5.9,5.1,7.8,9.1c1.8,3.9,2.7,8.4,2.7,13.4V315.4z M370.3,306.6c0-7.1-1.8-12.7-5.4-17c-3.6-4.3-8.4-6.4-14.5-6.4
		c-6,0-10.8,2.1-14.4,6.4c-3.6,4.2-5.4,10-5.4,17.3v8.5c0,4.6,0.8,8.8,2.4,12.3c1.6,3.6,3.9,6.3,6.9,8.2c3,1.9,6.5,2.9,10.5,2.9
		c6.1,0,10.9-2.1,14.5-6.4c3.6-4.2,5.3-10,5.3-17.4V306.6z"/>
	<path class="st1" d="M397.4,336.6l2.6-9.6l13.8-45.1h2.4l13.7,45.1l2.6,9.6l2.7-9.6l12-45.1h2.4l-15.7,58.4h-2.4L417,291.5l-2-6.2
		l-2,6.2l-14.6,48.7H396l-15.8-58.4h2.4l12.1,45.1L397.4,336.6z"/>
	<path class="st1" d="M502.2,340.2H500l-37.7-54.7v54.7h-2.2v-58.4h2.2l37.7,54.5v-54.5h2.2V340.2z"/>
	<path class="st1" d="M540.9,281.8l24,55.2l24.1-55.2h3.2v58.4H590V285l-24.2,55.1h-1.7L540,285.3v54.9h-2.2v-58.4H540.9z"/>
	<path class="st1" d="M649.6,315.4c0,5.1-0.9,9.5-2.7,13.4c-1.8,3.9-4.4,6.9-7.7,9c-3.3,2.1-7.2,3.2-11.5,3.2c-6.6,0-11.9-2.3-16-7
		c-4.1-4.7-6.1-11-6.1-18.9v-8.4c0-5,0.9-9.5,2.7-13.4c1.8-3.9,4.4-6.9,7.7-9c3.4-2.1,7.2-3.2,11.5-3.2c4.4,0,8.2,1.1,11.6,3.2
		c3.4,2.1,5.9,5.1,7.8,9.1c1.8,3.9,2.7,8.4,2.7,13.4V315.4z M647.4,306.6c0-7.1-1.8-12.7-5.4-17c-3.6-4.3-8.4-6.4-14.5-6.4
		c-6,0-10.8,2.1-14.4,6.4c-3.6,4.2-5.4,10-5.4,17.3v8.5c0,4.6,0.8,8.8,2.4,12.3c1.6,3.6,3.9,6.3,6.9,8.2c3,1.9,6.5,2.9,10.5,2.9
		c6.1,0,10.9-2.1,14.5-6.4c3.6-4.2,5.3-10,5.3-17.4V306.6z"/>
	<path class="st1" d="M704.9,340.2h-2.2l-37.7-54.7v54.7h-2.2v-58.4h2.2l37.7,54.5v-54.5h2.2V340.2z"/>
	<path class="st1" d="M752.4,311.3h-29.3V338h33.3v2.2H721v-58.4h35.5v2.2h-33.3v25.1h29.3V311.3z"/>
	<path class="st1" d="M784.1,316.1l20.4-34.2h2.6l-22,36.2v22.2H783V318l-22-36.2h2.9L784.1,316.1z"/>
	<path class="st1" d="M814.6,338.2c0-0.6,0.2-1.1,0.6-1.6c0.4-0.4,0.9-0.7,1.6-0.7c0.6,0,1.1,0.2,1.6,0.7c0.4,0.4,0.7,1,0.7,1.6
		c0,0.6-0.2,1.1-0.7,1.6c-0.4,0.4-1,0.6-1.6,0.6c-0.6,0-1.1-0.2-1.6-0.6C814.8,339.4,814.6,338.8,814.6,338.2z M817.6,324.1h-2.2
		v-42.3h2.2V324.1z"/>
</g>
</svg>
