<svg id="Layer_1" data-name="Layer 1" xmlns="http://www.w3.org/2000/svg" viewBox="0 0 175 50">
  <defs>
    <style>
      .cls-1 {
        fill: #003087;
      }

      .cls-2 {
        fill: #009cde;
      }

      .cls-3 {
        fill: #012169;
      }
    </style>
  </defs>
  <title>PayPal</title>
  <g>
    <path class="cls-1" d="M31.23,5.49a7.47,7.47,0,0,1,4.89,5.78c.25,1.5,0,3,.16,4.52,0,.18-.14.32-.29.42-1.48-2.14-3.86-1.89-6-2-3.42-.21-6.85-.08-10.28,0-1.41,0-1.94.44-2.21,1.7-.88,4.06-1.21,8.2-2,12.27,0,.12.07.26.12.39-.77,3.88-1.34,7.8-2,11.71C13.34,42,13.32,42,11.54,42c-2.29,0-4.58.15-6.86-.11-.86-.24-1.07-.79-.93-1.65Q6.44,23.35,9.1,6.45c.11-.67.21-1.35.92-1.7,2.33-.23,4.67-.07,7-.09,3,0,6,0,9,0A23.73,23.73,0,0,1,31.23,5.49Z"/>
    <path class="cls-2" d="M13.14,40.83c.15-1.21,1.17-7.26,1.74-10.89a4.11,4.11,0,0,1,.61-1.61,3.7,3.7,0,0,1,1.32-.78A7.5,7.5,0,0,1,19,27.43a23.36,23.36,0,0,0,7.86-.83,12.4,12.4,0,0,0,8.07-8.07c.28-.79.63-1.73.8-2.48s.58-.83,1-.51c2.37,1.65,3.08,4.06,2.85,6.75-.36,4.23-1.67,8.06-5.46,10.51a13.57,13.57,0,0,1-7.61,2c-2.21,0-3.26.14-3.48,2.93-.19,2.41-.81,4.78-1.19,7.18a1.7,1.7,0,0,1-1.94,1.62c-2,0-4.06,0-6.09,0-1,0-1.4-.44-1.25-1.41.1-.67.16-1.16.31-2S13,42,13.14,40.83Z"/>
    <path class="cls-1" d="M107,33.5c1.92-2.82,3.69-5.32,5.34-7.89A2.77,2.77,0,0,1,115.3,24a21.29,21.29,0,0,0,2.57,0c.44,0,.95-.12,1.22.36s-.12.94-.39,1.33L109.44,39c-1.49,2.15-3,4.28-4.47,6.45a2.29,2.29,0,0,1-2.26,1.15c-1-.07-2.07,0-3.11,0-.42,0-.84,0-1.07-.42s.1-.76.33-1.08c1.19-1.7,2.38-3.4,3.61-5.07a1.91,1.91,0,0,0,.31-2C101.34,34,100,29.86,98.57,25.77,98,24.24,98.19,24,99.78,24h1.49c3.21,0,2.81-.33,3.8,2.91C105.7,29,106.3,31.05,107,33.5Z"/>
    <path class="cls-2" d="M164.41,40.73c-2.85,0-2.8,0-2.35-2.73q1.74-10.58,3.38-21.17c.14-.89.46-1.27,1.37-1.23s2.07,0,3.11,0c.81,0,1.24.27,1.09,1.23-1.21,7.45-2.38,14.91-3.59,22.36C167.19,40.68,167,40.73,164.41,40.73Z"/>
    <path class="cls-3" d="M35.84,16.19c-.77,6.4-6,11.14-12.84,11.56-1.75.11-3.52,0-5.27.08s-1.67.69-2.23.5c-.2-.09-.25-.61-.19-1.24s1.22-7.67,1.84-11.51a1.92,1.92,0,0,1,2.06-1.86c3.69,0,7.39-.08,11.08,0a18.3,18.3,0,0,1,4.24.63C35.53,14.66,36,15.16,35.84,16.19Z"/>
    <path class="cls-1" d="M70.46,15.83c-3.49-.53-7-.16-10.53-.22-1.93,0-2.08.16-2.38,2.1-1,6.63-2.09,13.26-3.12,19.89-.53,3.43-.82,3.1,2.53,3.12h1.22c1.8,0,2-.14,2.26-1.94.27-1.6.58-3.2.77-4.81a1.64,1.64,0,0,1,2-1.67c.9,0,1.8,0,2.71,0,6-.15,9.44-3.4,10-9.36C76.28,18.86,74.51,16.44,70.46,15.83Zm-3.06,11a6.09,6.09,0,0,1-2.9.54c-.62,0-1,0-1.34,0-.65,0-.9-.22-.78-.88.29-1.68.55-3.37.82-5.06.07-.44.3-.8.75-.83a8,8,0,0,1,4.1.43,2.15,2.15,0,0,1,1.12,2.26A3.68,3.68,0,0,1,67.4,26.81Z"/>
    <path class="cls-2" d="M135.71,15.86a47.79,47.79,0,0,0-6.07-.23c-2,0-3.56,0-5.13,0-1,0-1.66.27-1.82,1.47-.42,3.16-1,6.3-1.49,9.45-.66,4.17-1.3,8.34-2,12.51-.21,1.25.22,1.77,1.49,1.7a20.42,20.42,0,0,1,2.84,0c1.21.1,1.7-.47,1.84-1.59.23-1.78.58-3.55.8-5.33.14-1.14.75-1.5,1.82-1.51a41.72,41.72,0,0,0,4.58-.23,8.34,8.34,0,0,0,6.89-4.36,12.51,12.51,0,0,0,1.42-5.85C140.91,18.56,139,16.43,135.71,15.86Zm-4,11.3a13,13,0,0,1-3.48.3c-.73,0-1-.36-.85-1q.4-2.45.8-4.9c.22-1.33,1.28-1,1.78-1,.66,0,1,0,1.28,0,2,.18,2.91.94,3.07,2.56A3.85,3.85,0,0,1,131.68,27.16Z"/>
    <path class="cls-1" d="M94.54,24a14.78,14.78,0,0,1-2.3,0c-1.17-.08-2.21,0-2.17,1.75a6.39,6.39,0,0,0-3.5-2A10,10,0,0,0,74.72,34c.06,2.88,1.08,5.37,4,6.51a8.38,8.38,0,0,0,8.11-.91c.31-.21.53-.64,1.15-.5-.6,1.66.45,1.71,1.64,1.65.85,0,1.71,0,2.57,0a1.41,1.41,0,0,0,1.54-1.36c.72-4.58,1.45-9.16,2.2-13.74C96.08,24.5,95.83,23.87,94.54,24ZM84.17,36.62a3.4,3.4,0,0,1-3.62-3.52,5,5,0,0,1,5-5,3.48,3.48,0,0,1,3.76,3.55A5,5,0,0,1,84.17,36.62Z"/>
    <path class="cls-2" d="M159.34,24c-.95,0-1.89,0-2.84,0-.68,0-1.15.18-1.26.91s-.43.71-.9.21a5.84,5.84,0,0,0-4.73-1.55,9.91,9.91,0,0,0-9.7,8.38,7.87,7.87,0,0,0,1.53,6.88c2.21,2.59,6.83,3,10,.92.44-.28.77-.76,1.35-.81.17,1.78.17,1.78,2.12,1.78.63,0,1.26,0,1.89,0a1.65,1.65,0,0,0,1.88-1.65c.19-1.56.46-3.11.71-4.65.46-2.88,1-5.76,1.41-8.65C161.08,24.26,160.87,24,159.34,24ZM149.18,36.68a3.56,3.56,0,0,1-3.7-3.51A5.19,5.19,0,0,1,150.54,28c2.2,0,3.91,1.43,3.81,3.5C154.21,34.55,152.49,36.46,149.18,36.68Z"/>
  </g>
</svg>
