<?xml version="1.0" encoding="utf-8"?>
<!-- Generator: Adobe Illustrator 21.1.0, SVG Export Plug-In . SVG Version: 6.00 Build 0)  -->
<svg version="1.1" id="Layer_1" xmlns="http://www.w3.org/2000/svg" xmlns:xlink="http://www.w3.org/1999/xlink" x="0px" y="0px"
	 viewBox="0 0 175 50" style="enable-background:new 0 0 175 50;" xml:space="preserve">
<style type="text/css">
	.st0{fill:#5C5C5C;}
	.st1{fill:#9E9E9E;}
	.st2{fill:#282828;}
</style>
<title>PayPal</title>
<path class="st0" d="M31.2,5.5c2.6,0.9,4.4,3.1,4.9,5.8c0.3,1.5,0,3,0.2,4.5c0,0.2-0.1,0.3-0.3,0.4c-1.5-2.1-3.9-1.9-6-2
	c-3.4-0.2-6.9-0.1-10.3,0c-1.4,0-1.9,0.4-2.2,1.7c-0.9,4.1-1.2,8.2-2,12.3c0,0.1,0.1,0.3,0.1,0.4c-0.8,3.9-1.3,7.8-2,11.7
	C13.3,42,13.3,42,11.5,42c-2.3,0-4.6,0.2-6.9-0.1c-0.9-0.2-1.1-0.8-0.9-1.7C5.5,29,7.3,17.7,9.1,6.4C9.2,5.8,9.3,5.1,10,4.8
	c2.3-0.2,4.7-0.1,7-0.1c3,0,6,0,9,0C27.8,4.7,29.5,5,31.2,5.5z"/>
<path class="st1" d="M13.1,40.8c0.1-1.2,1.2-7.3,1.7-10.9c0.1-0.6,0.3-1.1,0.6-1.6c0.4-0.3,0.8-0.6,1.3-0.8c0.7-0.1,1.5-0.2,2.2-0.1
	c2.6,0.2,5.3-0.1,7.9-0.8c3.8-1.2,6.9-4.2,8.1-8.1c0.3-0.8,0.6-1.7,0.8-2.5s0.6-0.8,1-0.5c2.4,1.6,3.1,4.1,2.8,6.8
	c-0.4,4.2-1.7,8.1-5.5,10.5c-2.3,1.4-4.9,2.1-7.6,2c-2.2,0-3.3,0.1-3.5,2.9c-0.2,2.4-0.8,4.8-1.2,7.2c0,0.9-0.8,1.7-1.8,1.6
	c-0.1,0-0.1,0-0.2,0c-2,0-4.1,0-6.1,0c-1,0-1.4-0.4-1.3-1.4c0.1-0.7,0.2-1.2,0.3-2S13,42,13.1,40.8z"/>
<path class="st0" d="M107,33.5c1.9-2.8,3.7-5.3,5.3-7.9c0.5-1.1,1.7-1.8,3-1.6c0.9,0.1,1.7,0.1,2.6,0c0.4,0,0.9-0.1,1.2,0.4
	s-0.1,0.9-0.4,1.3L109.4,39c-1.5,2.2-3,4.3-4.5,6.5c-0.5,0.8-1.3,1.3-2.3,1.2c-1-0.1-2.1,0-3.1,0c-0.4,0-0.8,0-1.1-0.4
	s0.1-0.8,0.3-1.1c1.2-1.7,2.4-3.4,3.6-5.1c0.5-0.6,0.6-1.3,0.3-2c-1.4-4-2.8-8.2-4.2-12.3C98,24.2,98.2,24,99.8,24h1.5
	c3.2,0,2.8-0.3,3.8,2.9C105.7,29,106.3,31,107,33.5z"/>
<path class="st1" d="M164.4,40.7c-2.9,0-2.8,0-2.4-2.7c1.2-7.1,2.3-14.1,3.4-21.2c0.1-0.9,0.5-1.3,1.4-1.2s2.1,0,3.1,0
	c0.8,0,1.2,0.3,1.1,1.2c-1.2,7.4-2.4,14.9-3.6,22.4C167.2,40.7,167,40.7,164.4,40.7z"/>
<path class="st2" d="M35.8,16.2c-0.8,6.4-6,11.1-12.8,11.6c-1.8,0.1-3.5,0-5.3,0.1s-1.7,0.7-2.2,0.5c-0.2-0.1-0.3-0.6-0.2-1.2
	s1.2-7.7,1.8-11.5c0-1.1,0.9-1.9,2-1.9c0,0,0.1,0,0.1,0c3.7,0,7.4-0.1,11.1,0c1.4,0,2.9,0.3,4.2,0.6C35.5,14.7,36,15.2,35.8,16.2z"
	/>
<path class="st0" d="M70.5,15.8c-3.5-0.5-7-0.2-10.5-0.2c-1.9,0-2.1,0.2-2.4,2.1c-1,6.6-2.1,13.3-3.1,19.9c-0.5,3.4-0.8,3.1,2.5,3.1
	h1.2c1.8,0,2-0.1,2.3-1.9c0.3-1.6,0.6-3.2,0.8-4.8c0-0.9,0.7-1.7,1.6-1.7c0.1,0,0.3,0,0.4,0c0.9,0,1.8,0,2.7,0c6-0.2,9.4-3.4,10-9.4
	C76.3,18.9,74.5,16.4,70.5,15.8z M67.4,26.8c-0.9,0.4-1.9,0.6-2.9,0.5c-0.6,0-1,0-1.3,0c-0.7,0-0.9-0.2-0.8-0.9
	c0.3-1.7,0.5-3.4,0.8-5.1c0.1-0.4,0.3-0.8,0.8-0.8c1.4-0.2,2.8-0.1,4.1,0.4c0.8,0.4,1.3,1.3,1.1,2.3C69.3,24.7,68.6,26.1,67.4,26.8
	L67.4,26.8z"/>
<path class="st1" d="M135.7,15.9c-2-0.2-4-0.3-6.1-0.2c-2,0-3.6,0-5.1,0c-1,0-1.7,0.3-1.8,1.5c-0.4,3.2-1,6.3-1.5,9.4
	c-0.7,4.2-1.3,8.3-2,12.5c-0.2,1.3,0.2,1.8,1.5,1.7c0.9-0.1,1.9-0.1,2.8,0c1.2,0.1,1.7-0.5,1.8-1.6c0.2-1.8,0.6-3.5,0.8-5.3
	c0.1-1.1,0.8-1.5,1.8-1.5c1.5,0,3.1-0.1,4.6-0.2c2.9-0.2,5.5-1.8,6.9-4.4c0.9-1.8,1.4-3.8,1.4-5.9C140.9,18.6,139,16.4,135.7,15.9z
	 M131.7,27.2c-1.1,0.3-2.3,0.4-3.5,0.3c-0.7,0-1-0.4-0.8-1c0.3-1.6,0.5-3.3,0.8-4.9c0.2-1.3,1.3-1,1.8-1c0.7,0,1,0,1.3,0
	c2,0.2,2.9,0.9,3.1,2.6C134.5,24.9,133.4,26.6,131.7,27.2L131.7,27.2z"/>
<path class="st0" d="M94.5,24c-0.8,0.1-1.5,0.1-2.3,0c-1.2-0.1-2.2,0-2.2,1.8c-0.9-1-2.1-1.7-3.5-2c-5.4-1-10.7,2.5-11.7,8
	c-0.1,0.8-0.2,1.5-0.2,2.3c0.1,2.9,1.1,5.4,4,6.5c2.7,1.1,5.7,0.8,8.1-0.9c0.3-0.2,0.5-0.6,1.2-0.5c-0.6,1.7,0.4,1.7,1.6,1.7
	c0.8,0,1.7,0,2.6,0c0.8,0.1,1.5-0.5,1.5-1.3c0,0,0-0.1,0-0.1c0.7-4.6,1.4-9.2,2.2-13.7C96.1,24.5,95.8,23.9,94.5,24z M84.2,36.6
	c-1.9,0.1-3.5-1.3-3.6-3.2c0-0.1,0-0.2,0-0.3c0-2.8,2.2-5,5-5c1.9-0.2,3.6,1.3,3.7,3.2c0,0.1,0,0.2,0,0.4c0,2.8-2.3,5-5,5
	C84.2,36.6,84.2,36.6,84.2,36.6z"/>
<path class="st1" d="M159.3,24c-0.9,0-1.9,0-2.8,0c-0.7,0-1.1,0.2-1.3,0.9s-0.4,0.7-0.9,0.2c-1.3-1.2-3-1.8-4.7-1.5
	c-4.8,0-9,3.6-9.7,8.4c-0.6,2.4,0,5,1.5,6.9c2.2,2.6,6.8,3,10,0.9c0.4-0.3,0.8-0.8,1.4-0.8c0.2,1.8,0.2,1.8,2.1,1.8
	c0.6,0,1.3,0,1.9,0c0.9,0.1,1.7-0.5,1.9-1.4c0-0.1,0-0.2,0-0.2c0.2-1.6,0.5-3.1,0.7-4.7c0.5-2.9,1-5.8,1.4-8.6
	C161.1,24.3,160.9,24,159.3,24z M149.2,36.7c-2,0.1-3.6-1.5-3.7-3.4c0,0,0-0.1,0-0.1c0-2.8,2.3-5.1,5.1-5.2c2.2,0,3.9,1.4,3.8,3.5
	C154.2,34.5,152.5,36.5,149.2,36.7z"/>
</svg>
