<?xml version="1.0" encoding="utf-8"?>
<!-- Generator: Adobe Illustrator 21.0.2, SVG Export Plug-In . SVG Version: 6.00 Build 0)  -->
<svg version="1.1" id="Layer_1" xmlns="http://www.w3.org/2000/svg" xmlns:xlink="http://www.w3.org/1999/xlink" x="0px" y="0px"
	 viewBox="0 0 125.3 20" style="enable-background:new 0 0 125.3 20;" xml:space="preserve">
<style type="text/css">
	#star0, #star1, #star2, #star3, #star4{stroke:#000000;stroke-miterlimit:10;}
</style>
<title>star</title>
<g>
	<polygon id="star0" points="14.2,2.8 16.1,8.2 21.7,8.3 17.2,11.7 18.9,17.2 14.2,13.9 9.6,17.2 11.2,11.7 6.7,8.3 12.4,8.2" fill="#fff"/>
	<polygon id="star1" points="38.2,2.8 40,8.2 45.7,8.3 41.2,11.7 42.8,17.2 38.2,13.9 33.5,17.2 35.2,11.7 30.6,8.3 36.3,8.2" fill="#fff"/>
	<polygon id="star2" points="62.7,2.8 64.5,8.2 70.2,8.3 65.7,11.7 67.3,17.2 62.7,13.9 58,17.2 59.7,11.7 55.2,8.3 60.8,8.2" fill="#fff"/>
	<polygon id="star3" points="86.1,2.8 88,8.2 93.6,8.3 89.1,11.7 90.7,17.2 86.1,13.9 81.4,17.2 83.1,11.7 78.6,8.3 84.2,8.2" fill="#fff"/>
	<polygon id="star4" points="111.2,2.8 113,8.2 118.7,8.3 114.2,11.7 115.8,17.2 111.2,13.9 106.5,17.2 108.2,11.7 103.6,8.3 109.3,8.2" fill="#fff"/>
</g>
</svg>
